<?xml version="1.0" encoding="utf-8"?>
<svg id="master-artboard" viewBox="0 0 904.3588256835938 665.3396606445312" version="1.1" xmlns="http://www.w3.org/2000/svg" x="0px" y="0px" style="enable-background:new 0 0 1400 980;" width="904.3588256835938px" height="665.3396606445312px" xmlns:xlink="http://www.w3.org/1999/xlink"><defs><linearGradient id="linear-gradient" x1="148.01" y1="286.09" x2="250.31" y2="286.09" gradientUnits="userSpaceOnUse"><stop offset="0" stop-color="#f8e926"/><stop offset="1" stop-color="#f69f18"/></linearGradient><linearGradient id="linear-gradient-2" x1="148.01" y1="277.82" x2="250.31" y2="277.82" xlink:href="#linear-gradient"/><linearGradient id="linear-gradient-3" x1="148.01" y1="277.82" x2="250.31" y2="277.82" xlink:href="#linear-gradient"/><linearGradient id="linear-gradient-4" x1="110.77" y1="277.82" x2="213.07" y2="277.82" xlink:href="#linear-gradient"/><linearGradient id="linear-gradient-5" x1="110.77" y1="286.09" x2="213.07" y2="286.09" xlink:href="#linear-gradient"/><linearGradient id="linear-gradient-6" x1="101.49" y1="277.82" x2="203.8" y2="277.82" xlink:href="#linear-gradient"/><linearGradient id="linear-gradient-7" x1="176.3" y1="294.71" x2="278.6" y2="294.71" xlink:href="#linear-gradient"/><linearGradient id="linear-gradient-8" x1="172.24" y1="294.71" x2="274.54" y2="294.71" xlink:href="#linear-gradient"/><linearGradient id="linear-gradient-9" x1="147.88" y1="302.97" x2="250.19" y2="302.97" xlink:href="#linear-gradient"/><linearGradient id="linear-gradient-10" x1="147.88" y1="294.71" x2="250.19" y2="294.71" xlink:href="#linear-gradient"/><linearGradient id="linear-gradient-11" x1="146.14" y1="302.97" x2="248.45" y2="302.97" xlink:href="#linear-gradient"/><linearGradient id="linear-gradient-12" x1="146.14" y1="294.71" x2="248.45" y2="294.71" xlink:href="#linear-gradient"/><linearGradient id="linear-gradient-13" x1="110.64" y1="302.97" x2="212.95" y2="302.97" xlink:href="#linear-gradient"/><linearGradient id="linear-gradient-14" x1="110.64" y1="294.71" x2="212.95" y2="294.71" xlink:href="#linear-gradient"/><linearGradient id="linear-gradient-15" x1="110.06" y1="294.71" x2="212.37" y2="294.71" xlink:href="#linear-gradient"/><linearGradient id="linear-gradient-16" x1="110.06" y1="302.97" x2="212.37" y2="302.97" xlink:href="#linear-gradient"/><linearGradient id="linear-gradient-17" x1="110.06" y1="294.71" x2="212.37" y2="294.71" xlink:href="#linear-gradient"/><linearGradient id="linear-gradient-18" x1="103.1" y1="302.97" x2="205.41" y2="302.97" xlink:href="#linear-gradient"/><linearGradient id="linear-gradient-19" x1="103.1" y1="294.71" x2="205.41" y2="294.71" xlink:href="#linear-gradient"/><linearGradient id="linear-gradient-20" x1="101.37" y1="302.97" x2="203.67" y2="302.97" xlink:href="#linear-gradient"/><linearGradient id="linear-gradient-21" x1="101.37" y1="294.71" x2="203.67" y2="294.71" xlink:href="#linear-gradient"/><linearGradient id="linear-gradient-22" x1="184.39" y1="319.09" x2="286.69" y2="319.09" xlink:href="#linear-gradient"/><linearGradient id="linear-gradient-23" x1="184.39" y1="310.83" x2="286.69" y2="310.83" xlink:href="#linear-gradient"/><linearGradient id="linear-gradient-24" x1="176.27" y1="319.09" x2="278.58" y2="319.09" xlink:href="#linear-gradient"/><linearGradient id="linear-gradient-25" x1="176.27" y1="310.83" x2="278.58" y2="310.83" xlink:href="#linear-gradient"/><linearGradient id="linear-gradient-26" x1="147.86" y1="319.09" x2="250.16" y2="319.09" xlink:href="#linear-gradient"/><linearGradient id="linear-gradient-27" x1="147.86" y1="310.83" x2="250.16" y2="310.83" xlink:href="#linear-gradient"/><linearGradient id="linear-gradient-28" x1="146.12" y1="319.09" x2="248.42" y2="319.09" xlink:href="#linear-gradient"/><linearGradient id="linear-gradient-29" x1="146.12" y1="310.83" x2="248.42" y2="310.83" xlink:href="#linear-gradient"/><linearGradient id="linear-gradient-30" x1="110.62" y1="310.83" x2="212.92" y2="310.83" xlink:href="#linear-gradient"/><linearGradient id="linear-gradient-31" x1="110.62" y1="319.09" x2="212.92" y2="319.09" xlink:href="#linear-gradient"/><linearGradient id="linear-gradient-32" x1="110.04" y1="319.09" x2="212.34" y2="319.09" xlink:href="#linear-gradient"/><linearGradient id="linear-gradient-33" x1="110.04" y1="310.83" x2="212.34" y2="310.83" xlink:href="#linear-gradient"/><linearGradient id="linear-gradient-34" x1="103.08" y1="310.83" x2="205.38" y2="310.83" xlink:href="#linear-gradient"/><linearGradient id="linear-gradient-35" x1="103.08" y1="319.09" x2="205.38" y2="319.09" xlink:href="#linear-gradient"/><linearGradient id="linear-gradient-36" x1="103.66" y1="319.09" x2="205.97" y2="319.09" xlink:href="#linear-gradient"/><linearGradient id="linear-gradient-37" x1="103.66" y1="310.83" x2="205.97" y2="310.83" xlink:href="#linear-gradient"/><linearGradient id="linear-gradient-38" x1="104.24" y1="319.09" x2="206.55" y2="319.09" xlink:href="#linear-gradient"/><linearGradient id="linear-gradient-39" x1="104.24" y1="310.83" x2="206.55" y2="310.83" xlink:href="#linear-gradient"/><linearGradient id="linear-gradient-40" x1="147.74" y1="326.94" x2="250.04" y2="326.94" xlink:href="#linear-gradient"/><linearGradient id="linear-gradient-41" x1="147.73" y1="326.94" x2="250.04" y2="326.94" xlink:href="#linear-gradient"/><linearGradient id="linear-gradient-42" x1="659.69" y1="284.25" x2="703.47" y2="284.25" gradientUnits="userSpaceOnUse"><stop offset="0" stop-color="#005d8e"/><stop offset="0.44" stop-color="#00849f"/><stop offset="0.79" stop-color="#009da9"/><stop offset="1" stop-color="#00a6ad"/></linearGradient><linearGradient id="linear-gradient-43" x1="661.28" y1="284.25" x2="705.06" y2="284.25" xlink:href="#linear-gradient-42"/><linearGradient id="linear-gradient-44" x1="666.04" y1="284.25" x2="709.82" y2="284.25" xlink:href="#linear-gradient-42"/><linearGradient id="linear-gradient-45" x1="669.22" y1="284.25" x2="712.99" y2="284.25" xlink:href="#linear-gradient-42"/><linearGradient id="linear-gradient-46" x1="670.8" y1="284.25" x2="714.58" y2="284.25" xlink:href="#linear-gradient-42"/><linearGradient id="linear-gradient-47" x1="672.39" y1="284.25" x2="716.17" y2="284.25" xlink:href="#linear-gradient-42"/><linearGradient id="linear-gradient-48" x1="654.93" y1="291.47" x2="698.71" y2="291.47" xlink:href="#linear-gradient-42"/><linearGradient id="linear-gradient-49" x1="656.52" y1="291.47" x2="700.3" y2="291.47" xlink:href="#linear-gradient-42"/><linearGradient id="linear-gradient-50" x1="658.11" y1="291.47" x2="701.88" y2="291.47" xlink:href="#linear-gradient-42"/><linearGradient id="linear-gradient-51" x1="666.04" y1="291.47" x2="709.82" y2="291.47" xlink:href="#linear-gradient-42"/><linearGradient id="linear-gradient-52" x1="667.63" y1="291.47" x2="711.41" y2="291.47" xlink:href="#linear-gradient-42"/><linearGradient id="linear-gradient-53" x1="669.22" y1="291.47" x2="712.99" y2="291.47" xlink:href="#linear-gradient-42"/><linearGradient id="linear-gradient-54" x1="651.76" y1="298.69" x2="695.54" y2="298.69" xlink:href="#linear-gradient-42"/><linearGradient id="linear-gradient-55" x1="653.34" y1="298.69" x2="697.12" y2="298.69" xlink:href="#linear-gradient-42"/><linearGradient id="linear-gradient-56" x1="654.93" y1="298.69" x2="698.71" y2="298.69" xlink:href="#linear-gradient-42"/><linearGradient id="linear-gradient-57" x1="658.11" y1="298.69" x2="701.88" y2="298.69" xlink:href="#linear-gradient-42"/><linearGradient id="linear-gradient-58" x1="659.69" y1="298.69" x2="703.47" y2="298.69" xlink:href="#linear-gradient-42"/><linearGradient id="linear-gradient-59" x1="662.87" y1="298.69" x2="706.65" y2="298.69" xlink:href="#linear-gradient-42"/><linearGradient id="linear-gradient-60" x1="664.45" y1="298.69" x2="708.23" y2="298.69" xlink:href="#linear-gradient-42"/><linearGradient id="linear-gradient-61" x1="666.04" y1="298.69" x2="709.82" y2="298.69" xlink:href="#linear-gradient-42"/><linearGradient id="linear-gradient-62" x1="667.63" y1="298.69" x2="711.41" y2="298.69" xlink:href="#linear-gradient-42"/><linearGradient id="linear-gradient-63" x1="669.22" y1="298.69" x2="712.99" y2="298.69" xlink:href="#linear-gradient-42"/><linearGradient id="linear-gradient-64" x1="670.8" y1="298.69" x2="714.58" y2="298.69" xlink:href="#linear-gradient-42"/><linearGradient id="linear-gradient-65" x1="672.39" y1="298.69" x2="716.17" y2="298.69" xlink:href="#linear-gradient-42"/><linearGradient id="linear-gradient-66" x1="651.76" y1="305.91" x2="695.54" y2="305.91" xlink:href="#linear-gradient-42"/><linearGradient id="linear-gradient-67" x1="653.34" y1="305.91" x2="697.12" y2="305.91" xlink:href="#linear-gradient-42"/><linearGradient id="linear-gradient-68" x1="654.93" y1="305.91" x2="698.71" y2="305.91" xlink:href="#linear-gradient-42"/><linearGradient id="linear-gradient-69" x1="658.11" y1="305.91" x2="701.88" y2="305.91" xlink:href="#linear-gradient-42"/><linearGradient id="linear-gradient-70" x1="659.69" y1="305.91" x2="703.47" y2="305.91" xlink:href="#linear-gradient-42"/><linearGradient id="linear-gradient-71" x1="661.28" y1="305.91" x2="705.06" y2="305.91" xlink:href="#linear-gradient-42"/><linearGradient id="linear-gradient-72" x1="664.45" y1="305.91" x2="708.23" y2="305.91" xlink:href="#linear-gradient-42"/><linearGradient id="linear-gradient-73" x1="666.04" y1="305.91" x2="709.82" y2="305.91" xlink:href="#linear-gradient-42"/><linearGradient id="linear-gradient-74" x1="667.63" y1="305.91" x2="711.41" y2="305.91" xlink:href="#linear-gradient-42"/><linearGradient id="linear-gradient-75" x1="669.22" y1="305.91" x2="712.99" y2="305.91" xlink:href="#linear-gradient-42"/><linearGradient id="linear-gradient-76" x1="670.8" y1="305.91" x2="714.58" y2="305.91" xlink:href="#linear-gradient-42"/><linearGradient id="linear-gradient-77" x1="659.69" y1="313.14" x2="703.47" y2="313.14" xlink:href="#linear-gradient-42"/><linearGradient id="linear-gradient-78" x1="661.28" y1="313.14" x2="705.06" y2="313.14" xlink:href="#linear-gradient-42"/><linearGradient id="linear-gradient-79" x1="664.45" y1="313.14" x2="708.23" y2="313.14" xlink:href="#linear-gradient-42"/><linearGradient id="linear-gradient-80" x1="666.04" y1="313.14" x2="709.82" y2="313.14" xlink:href="#linear-gradient-42"/><linearGradient id="linear-gradient-81" x1="669.22" y1="313.14" x2="712.99" y2="313.14" xlink:href="#linear-gradient-42"/><linearGradient id="linear-gradient-82" x1="670.8" y1="313.14" x2="714.58" y2="313.14" xlink:href="#linear-gradient-42"/><linearGradient id="linear-gradient-83" x1="672.39" y1="313.14" x2="716.17" y2="313.14" xlink:href="#linear-gradient-42"/><linearGradient id="linear-gradient-84" x1="659.69" y1="320.36" x2="703.47" y2="320.36" xlink:href="#linear-gradient-42"/><linearGradient id="linear-gradient-85" x1="661.28" y1="320.36" x2="705.06" y2="320.36" xlink:href="#linear-gradient-42"/><linearGradient id="linear-gradient-86" x1="664.45" y1="320.36" x2="708.23" y2="320.36" xlink:href="#linear-gradient-42"/><linearGradient id="linear-gradient-87" x1="666.04" y1="320.36" x2="709.82" y2="320.36" xlink:href="#linear-gradient-42"/><linearGradient id="linear-gradient-88" x1="669.22" y1="320.36" x2="712.99" y2="320.36" xlink:href="#linear-gradient-42"/><linearGradient id="linear-gradient-89" x1="659.69" y1="327.58" x2="703.47" y2="327.58" xlink:href="#linear-gradient-42"/><linearGradient id="linear-gradient-90" x1="661.28" y1="327.58" x2="705.06" y2="327.58" xlink:href="#linear-gradient-42"/><linearGradient id="linear-gradient-91" x1="662.87" y1="327.58" x2="706.65" y2="327.58" xlink:href="#linear-gradient-42"/><linearGradient id="linear-gradient-92" x1="664.45" y1="327.58" x2="708.23" y2="327.58" xlink:href="#linear-gradient-42"/><linearGradient id="linear-gradient-93" x1="666.04" y1="327.58" x2="709.82" y2="327.58" xlink:href="#linear-gradient-42"/><linearGradient id="linear-gradient-94" x1="651.76" y1="334.81" x2="695.54" y2="334.81" xlink:href="#linear-gradient-42"/><linearGradient id="linear-gradient-95" x1="658.11" y1="334.81" x2="701.88" y2="334.81" xlink:href="#linear-gradient-42"/><linearGradient id="linear-gradient-96" x1="659.69" y1="334.81" x2="703.47" y2="334.81" xlink:href="#linear-gradient-42"/><linearGradient id="linear-gradient-97" x1="661.28" y1="334.81" x2="705.06" y2="334.81" xlink:href="#linear-gradient-42"/><linearGradient id="linear-gradient-98" x1="667.63" y1="334.81" x2="711.41" y2="334.81" xlink:href="#linear-gradient-42"/><linearGradient id="linear-gradient-99" x1="394.2" y1="302.3" x2="421.41" y2="302.3" gradientUnits="userSpaceOnUse"><stop offset="0" stop-color="#068537"/><stop offset="0.14" stop-color="#0a8736"/><stop offset="0.27" stop-color="#168c33"/><stop offset="0.4" stop-color="#2a942e"/><stop offset="0.54" stop-color="#479f27"/><stop offset="0.67" stop-color="#6bae1e"/><stop offset="0.8" stop-color="#98c013"/><stop offset="0.94" stop-color="#ccd507"/><stop offset="1" stop-color="#e7e000"/></linearGradient><linearGradient id="linear-gradient-100" x1="402.58" y1="302.3" x2="429.78" y2="302.3" xlink:href="#linear-gradient-99"/><linearGradient id="linear-gradient-101" x1="404.25" y1="302.3" x2="431.46" y2="302.3" xlink:href="#linear-gradient-99"/><linearGradient id="linear-gradient-102" x1="405.93" y1="302.3" x2="433.13" y2="302.3" xlink:href="#linear-gradient-99"/><linearGradient id="linear-gradient-103" x1="407.6" y1="302.3" x2="434.81" y2="302.3" xlink:href="#linear-gradient-99"/><linearGradient id="linear-gradient-104" x1="409.28" y1="302.3" x2="436.48" y2="302.3" xlink:href="#linear-gradient-99"/><linearGradient id="linear-gradient-105" x1="410.95" y1="302.3" x2="438.16" y2="302.3" xlink:href="#linear-gradient-99"/><linearGradient id="linear-gradient-106" x1="412.63" y1="302.3" x2="439.83" y2="302.3" xlink:href="#linear-gradient-99"/><linearGradient id="linear-gradient-107" x1="414.3" y1="302.3" x2="441.51" y2="302.3" xlink:href="#linear-gradient-99"/><linearGradient id="linear-gradient-108" x1="415.97" y1="302.3" x2="443.18" y2="302.3" xlink:href="#linear-gradient-99"/><linearGradient id="linear-gradient-109" x1="394.2" y1="309.92" x2="421.41" y2="309.92" xlink:href="#linear-gradient-99"/><linearGradient id="linear-gradient-110" x1="395.88" y1="309.92" x2="423.08" y2="309.92" xlink:href="#linear-gradient-99"/><linearGradient id="linear-gradient-111" x1="397.55" y1="309.92" x2="424.76" y2="309.92" xlink:href="#linear-gradient-99"/><linearGradient id="linear-gradient-112" x1="400.9" y1="309.92" x2="428.11" y2="309.92" xlink:href="#linear-gradient-99"/><linearGradient id="linear-gradient-113" x1="402.58" y1="309.92" x2="429.78" y2="309.92" xlink:href="#linear-gradient-99"/><linearGradient id="linear-gradient-114" x1="404.25" y1="309.92" x2="431.46" y2="309.92" xlink:href="#linear-gradient-99"/><linearGradient id="linear-gradient-115" x1="405.93" y1="309.92" x2="433.13" y2="309.92" xlink:href="#linear-gradient-99"/><linearGradient id="linear-gradient-116" x1="407.6" y1="309.92" x2="434.81" y2="309.92" xlink:href="#linear-gradient-99"/><linearGradient id="linear-gradient-117" x1="409.28" y1="309.92" x2="436.48" y2="309.92" xlink:href="#linear-gradient-99"/><linearGradient id="linear-gradient-118" x1="410.95" y1="309.92" x2="438.16" y2="309.92" xlink:href="#linear-gradient-99"/><linearGradient id="linear-gradient-119" x1="412.63" y1="309.92" x2="439.83" y2="309.92" xlink:href="#linear-gradient-99"/><linearGradient id="linear-gradient-120" x1="394.2" y1="317.54" x2="421.41" y2="317.54" xlink:href="#linear-gradient-99"/><linearGradient id="linear-gradient-121" x1="395.88" y1="317.54" x2="423.08" y2="317.54" xlink:href="#linear-gradient-99"/><linearGradient id="linear-gradient-122" x1="399.23" y1="317.54" x2="426.43" y2="317.54" xlink:href="#linear-gradient-99"/><linearGradient id="linear-gradient-123" x1="402.58" y1="317.54" x2="429.78" y2="317.54" xlink:href="#linear-gradient-99"/><linearGradient id="linear-gradient-124" x1="404.25" y1="317.54" x2="431.46" y2="317.54" xlink:href="#linear-gradient-99"/><linearGradient id="linear-gradient-125" x1="405.93" y1="317.54" x2="433.13" y2="317.54" xlink:href="#linear-gradient-99"/><linearGradient id="linear-gradient-126" x1="410.95" y1="317.54" x2="438.16" y2="317.54" xlink:href="#linear-gradient-99"/><linearGradient id="linear-gradient-127" x1="412.63" y1="317.54" x2="439.83" y2="317.54" xlink:href="#linear-gradient-99"/><linearGradient id="linear-gradient-128" x1="414.3" y1="317.54" x2="441.51" y2="317.54" xlink:href="#linear-gradient-99"/><linearGradient id="linear-gradient-129" x1="415.97" y1="317.54" x2="443.18" y2="317.54" xlink:href="#linear-gradient-99"/><linearGradient id="linear-gradient-130" x1="395.88" y1="325.16" x2="423.08" y2="325.16" xlink:href="#linear-gradient-99"/><linearGradient id="linear-gradient-131" x1="397.55" y1="325.16" x2="424.76" y2="325.16" xlink:href="#linear-gradient-99"/><linearGradient id="linear-gradient-132" x1="399.23" y1="325.16" x2="426.43" y2="325.16" xlink:href="#linear-gradient-99"/><linearGradient id="linear-gradient-133" x1="400.9" y1="325.16" x2="428.11" y2="325.16" xlink:href="#linear-gradient-99"/><linearGradient id="linear-gradient-134" x1="402.58" y1="325.16" x2="429.78" y2="325.16" xlink:href="#linear-gradient-99"/><linearGradient id="linear-gradient-135" x1="404.25" y1="325.16" x2="431.46" y2="325.16" xlink:href="#linear-gradient-99"/><linearGradient id="linear-gradient-136" x1="412.63" y1="325.16" x2="439.83" y2="325.16" xlink:href="#linear-gradient-99"/><linearGradient id="linear-gradient-137" x1="414.3" y1="325.16" x2="441.51" y2="325.16" xlink:href="#linear-gradient-99"/><linearGradient id="linear-gradient-138" x1="415.97" y1="325.16" x2="443.18" y2="325.16" xlink:href="#linear-gradient-99"/><linearGradient id="linear-gradient-139" x1="397.55" y1="332.78" x2="424.76" y2="332.78" xlink:href="#linear-gradient-99"/><linearGradient id="linear-gradient-140" x1="399.23" y1="332.78" x2="426.43" y2="332.78" xlink:href="#linear-gradient-99"/><linearGradient id="linear-gradient-141" x1="400.9" y1="332.78" x2="428.11" y2="332.78" xlink:href="#linear-gradient-99"/><linearGradient id="linear-gradient-142" x1="402.58" y1="332.78" x2="429.78" y2="332.78" xlink:href="#linear-gradient-99"/><linearGradient id="linear-gradient-143" x1="404.25" y1="332.78" x2="431.46" y2="332.78" xlink:href="#linear-gradient-99"/><linearGradient id="linear-gradient-144" x1="414.3" y1="332.78" x2="441.51" y2="332.78" xlink:href="#linear-gradient-99"/><linearGradient id="linear-gradient-145" x1="415.97" y1="332.78" x2="443.18" y2="332.78" xlink:href="#linear-gradient-99"/><linearGradient id="linear-gradient-146" x1="417.65" y1="332.78" x2="444.85" y2="332.78" xlink:href="#linear-gradient-99"/><linearGradient id="linear-gradient-147" x1="397.55" y1="340.41" x2="424.76" y2="340.41" xlink:href="#linear-gradient-99"/><linearGradient id="linear-gradient-148" x1="404.25" y1="340.41" x2="431.46" y2="340.41" xlink:href="#linear-gradient-99"/><linearGradient id="linear-gradient-149" x1="409.28" y1="340.41" x2="436.48" y2="340.41" xlink:href="#linear-gradient-99"/><linearGradient id="linear-gradient-150" x1="394.2" y1="348.03" x2="421.41" y2="348.03" xlink:href="#linear-gradient-99"/><linearGradient id="linear-gradient-151" x1="395.88" y1="348.03" x2="423.08" y2="348.03" xlink:href="#linear-gradient-99"/><linearGradient id="linear-gradient-152" x1="397.55" y1="348.03" x2="424.76" y2="348.03" xlink:href="#linear-gradient-99"/><linearGradient id="linear-gradient-153" x1="404.25" y1="348.03" x2="431.46" y2="348.03" xlink:href="#linear-gradient-99"/><linearGradient id="linear-gradient-154" x1="409.28" y1="348.03" x2="436.48" y2="348.03" xlink:href="#linear-gradient-99"/></defs><rect id="ee-background" x="0" y="0" width="904.3588256835938" height="665.3396606445312" style="fill: rgb(0, 0, 0); fill-opacity: 0; pointer-events: none;" transform="matrix(0.9999998807907104, 0, 0, 0.9999998807907104, -0.000009308593746482074, 257.5000305175781)"/><title>Sciences</title><path d="M 731.530029 236.179993 H 922.380035 V 384.679993 H 731.530029 V 236.179993 Z" class="cls-2" style="fill: none; stroke: rgb(255, 255, 255); stroke-miterlimit: 10;" transform="matrix(4.369758605957031, 0, 0, 4.369758605957031, -3167.8723754882812, -1027.3978271484375)"/><g transform="matrix(1, 0, 0, 1, -524.6411743164062, 0)"><g transform="matrix(1, 0, 0, 1, -5.684341886080802e-14, 0)"><path class="cls-18" d="M784,372.21c-.09,0-.16-16.14-.16-36s.07-36.06.16-36.06.16,16.14.16,36.06S784.1,372.21,784,372.21Z" style="fill: rgb(249, 214, 0);" transform="matrix(4.369758605957031, 0, 0, 4.369758605957031, -2643.231201171875, -1027.3978271484375)"/><path class="cls-18" d="M812.28,372.21c-.08,0-.16-20.64-.16-46.09s.08-46.09.16-46.09.17,20.63.17,46.09S812.37,372.21,812.28,372.21Z" style="fill: rgb(249, 214, 0);" transform="matrix(4.369758605957031, 0, 0, 4.369758605957031, -2643.231201171875, -1027.3978271484375)"/><g transform="matrix(1, 0, 0, 1, -5.684341886080802e-14, 0)"><path class="cls-17" d="M922.38,384.68c0-1.11,0-58.86-.13-148.5l.13.13-190.83,0h0l.16-.16c0,53.52,0,104.15,0,148.5l-.15-.14,190.85.14-190.85.15h-.14v-.15c0-44.35,0-95,0-148.5V236h.18l190.83,0h.13v.14C922.43,325.82,922.38,383.57,922.38,384.68Z" style="stroke: rgb(255, 255, 255); stroke-miterlimit: 10; fill: rgb(17, 17, 17);" transform="matrix(4.369758605957031, 0, 0, 4.369758605957031, -2643.231201171875, -1027.3978271484375)"/><path class="cls-18" d="M866.83,372.21c-.09,0-.16-16.14-.16-36s.07-36.06.16-36.06.17,16.14.17,36.06S866.92,372.21,866.83,372.21Z" style="fill: rgb(249, 214, 0);" transform="matrix(4.369758605957031, 0, 0, 4.369758605957031, -2643.231201171875, -1027.3978271484375)"/><path class="cls-18" d="M899.34,372.21c-.09,0-.16-20.64-.16-46.09s.07-46.09.16-46.09.16,20.63.16,46.09S899.43,372.21,899.34,372.21Z" style="fill: rgb(249, 214, 0);" transform="matrix(4.369758605957031, 0, 0, 4.369758605957031, -2643.231201171875, -1027.3978271484375)"/><path class="cls-20" d="M905.75,312.65a2,2,0,0,1-.54.17,12.41,12.41,0,0,0-1.53.53,14.73,14.73,0,0,0-4.93,3.74c-1.84,2-3.69,4.78-6,7.91a38.49,38.49,0,0,1-4.09,4.74,22.2,22.2,0,0,1-2.65,2.19,17.81,17.81,0,0,1-3.19,1.75,18.14,18.14,0,0,1-7.66,1.29,21,21,0,0,1-4.11-.52,10.83,10.83,0,0,1-4-1.75,13.18,13.18,0,0,1-3.11-3.25,44.79,44.79,0,0,1-2.37-3.89c-1.49-2.69-3-5.4-4.79-8.11s-3.32-5.66-5.1-8.51a41.06,41.06,0,0,0-6.25-8.07,18.37,18.37,0,0,0-4.2-3,13.65,13.65,0,0,0-5-1.46,17.54,17.54,0,0,0-5.3.3,17.94,17.94,0,0,0-5,1.91A26.16,26.16,0,0,0,818,306,82.37,82.37,0,0,0,812.4,315a93.06,93.06,0,0,1-5.45,8.85,43.07,43.07,0,0,1-6.6,7.52c-.63.53-1.24,1.07-1.91,1.53a23.44,23.44,0,0,1-2,1.32A17.46,17.46,0,0,1,792,336a13.91,13.91,0,0,1-2.3.43,7.4,7.4,0,0,1-1.15.07c-.39,0-.77,0-1.15,0a17.74,17.74,0,0,1-4.4-.81,30.22,30.22,0,0,1-7.45-3.89c-2.21-1.52-4.23-3.1-6.21-4.52a33,33,0,0,0-5.89-3.57,19.45,19.45,0,0,0-5.87-1.67,14.43,14.43,0,0,0-5.27.34,8,8,0,0,0-1.14.37,6.26,6.26,0,0,0-1.07.42,12.64,12.64,0,0,0-1.86,1,19.85,19.85,0,0,0-2.8,2.24l-1,1.07a9.79,9.79,0,0,0-.78.91l-1,1.3a2.54,2.54,0,0,1-.36.43,1.92,1.92,0,0,1,.28-.49c.21-.31.52-.76.91-1.36a8.3,8.3,0,0,1,.76-1l1-1.11a20.2,20.2,0,0,1,2.8-2.36,15.37,15.37,0,0,1,1.89-1.09,7.25,7.25,0,0,1,1.1-.46,10,10,0,0,1,1.17-.4,14.87,14.87,0,0,1,5.45-.43,20.17,20.17,0,0,1,6.06,1.64,33.26,33.26,0,0,1,6,3.58c2,1.41,4,3,6.23,4.46a29.2,29.2,0,0,0,7.27,3.74,16.3,16.3,0,0,0,4.19.75c.36,0,.73,0,1.09,0a6.65,6.65,0,0,0,1.09-.07,12.39,12.39,0,0,0,2.17-.41,19.86,19.86,0,0,0,8-4.51,42.54,42.54,0,0,0,6.43-7.38,89.91,89.91,0,0,0,5.38-8.79,83.29,83.29,0,0,1,5.69-9.16,27.28,27.28,0,0,1,8.16-7.61,19.06,19.06,0,0,1,5.32-2,18.51,18.51,0,0,1,5.6-.31,14.92,14.92,0,0,1,5.33,1.56,19.4,19.4,0,0,1,4.41,3.17,41.64,41.64,0,0,1,6.39,8.27c1.79,2.88,3.38,5.79,5.07,8.52s3.31,5.5,4.77,8.17,2.94,5.3,5.21,6.91a10.34,10.34,0,0,0,3.7,1.65,19.91,19.91,0,0,0,4,.52,17.38,17.38,0,0,0,7.37-1.17,18.09,18.09,0,0,0,3.08-1.65,21.74,21.74,0,0,0,2.6-2.11,38.07,38.07,0,0,0,4.08-4.62,97.58,97.58,0,0,1,6.17-7.84,14.33,14.33,0,0,1,5.13-3.66,8.77,8.77,0,0,1,1.58-.44A2.88,2.88,0,0,1,905.75,312.65Z" style="fill: rgb(0, 129, 199);" transform="matrix(4.369758605957031, 0, 0, 4.369758605957031, -2643.231201171875, -1027.3978271484375)"/></g><path class="cls-18" d="M837.08,372.21c-.09,0-.16-23.83-.16-53.22s.07-53.22.16-53.22.16,23.83.16,53.22S837.17,372.21,837.08,372.21Z" style="fill: rgb(249, 214, 0);" transform="matrix(4.369758605957031, 0, 0, 4.369758605957031, -2643.231201171875, -1027.3978271484375)"/></g><path d="M 754.289978 252.850006 H 787.569977 V 254.700006 H 754.289978 V 252.850006 Z" class="cls-19" style="fill: rgb(49, 84, 162);" transform="matrix(4.369758605957031, 0, 0, 4.369758605957031, -2643.231201171875, -1027.3978271484375)"/></g><path class="cls-18" d="M755,372.21c-.09,0-.16-20.64-.16-46.09S754.88,280,755,280s.16,20.63.16,46.09S755.06,372.21,755,372.21Z" style="fill: rgb(249, 214, 0);" transform="matrix(4.369758605957031, 0, 0, 4.369758605957031, -3167.8723754882812, -1027.3978271484375)"/><path d="M 784.69001 300.100006 A 0.68 0.68 0 0 1 784.01001 300.780006 A 0.68 0.68 0 0 1 783.33001 300.100006 A 0.68 0.68 0 0 1 784.01001 299.420006 A 0.68 0.68 0 0 1 784.69001 300.100006 Z" class="cls-19" style="fill: rgb(49, 84, 162);" transform="matrix(4.369758605957031, 0, 0, 4.369758605957031, -3167.8723754882812, -1027.3978271484375)"/><path class="cls-19" d="M813,280a.68.68,0,1,1-.68-.68A.67.67,0,0,1,813,280Z" style="fill: rgb(49, 84, 162);" transform="matrix(4.369758605957031, 0, 0, 4.369758605957031, -3167.8723754882812, -1027.3978271484375)"/><path class="cls-19" d="M812.28,282.4a2.37,2.37,0,1,1,2.38-2.37A2.38,2.38,0,0,1,812.28,282.4Zm0-4.59A2.22,2.22,0,1,0,814.5,280,2.22,2.22,0,0,0,812.28,277.81Z" style="fill: rgb(49, 84, 162);" transform="matrix(4.369758605957031, 0, 0, 4.369758605957031, -3167.8723754882812, -1027.3978271484375)"/><path class="cls-19" d="M837.76,265.77a.68.68,0,1,1-.68-.67A.68.68,0,0,1,837.76,265.77Z" style="fill: rgb(49, 84, 162);" transform="matrix(4.369758605957031, 0, 0, 4.369758605957031, -3167.8723754882812, -1027.3978271484375)"/><path class="cls-19" d="M867.51,300.78a.68.68,0,1,1-.68-.68A.68.68,0,0,1,867.51,300.78Z" style="fill: rgb(49, 84, 162);" transform="matrix(4.369758605957031, 0, 0, 4.369758605957031, -3167.8723754882812, -1027.3978271484375)"/><path class="cls-19" d="M900,280a.68.68,0,1,1-.67-.68A.67.67,0,0,1,900,280Z" style="fill: rgb(49, 84, 162);" transform="matrix(4.369758605957031, 0, 0, 4.369758605957031, -3167.8723754882812, -1027.3978271484375)"/><path class="cls-19" d="M755.65,280.7A.68.68,0,1,1,755,280,.68.68,0,0,1,755.65,280.7Z" style="fill: rgb(49, 84, 162);" transform="matrix(4.369758605957031, 0, 0, 4.369758605957031, -3167.8723754882812, -1027.3978271484375)"/><path d="M 754.289978 257.179993 H 770.729979 V 259.029993 H 754.289978 V 257.179993 Z" class="cls-19" style="fill: rgb(49, 84, 162);" transform="matrix(4.369758605957031, 0, 0, 4.369758605957031, -3167.8723754882812, -1027.3978271484375)"/><path class="cls-2" d="M735.81,224.06H917.87a4.51,4.51,0,0,1,4.51,4.51v7.61a0,0,0,0,1,0,0H731.3a0,0,0,0,1,0,0v-7.61A4.51,4.51,0,0,1,735.81,224.06Z" style="fill: none; stroke: rgb(255, 255, 255); stroke-miterlimit: 10;" transform="matrix(4.369758605957031, 0, 0, 4.369758605957031, -3167.8723754882812, -1027.3978271484375)"/><path d="M 394.9450378417969 375.7201232910156" style="fill: rgb(255, 255, 255); fill-opacity: 0; stroke: rgb(255, 255, 255); stroke-opacity: 1; stroke-width: 0.5; paint-order: stroke;" transform="matrix(1.6447718143463135, 0, 0, 1.6447718143463135, -601.6869964599609, 41.790950775146484)"/></svg>