<svg width="250" height="212" viewBox="0 0 250 212" fill="none" xmlns="http://www.w3.org/2000/svg">
<rect x="2" y="2" width="245" height="207" rx="3.57755" fill="#111111" stroke="white"/>
<path fill-rule="evenodd" clip-rule="evenodd" d="M3.56694 34.6455C3.13773 34.6455 2.78979 34.9934 2.78979 35.4227C2.78979 35.8519 3.13773 36.1998 3.56694 36.1998H16.0984C16.5276 36.1998 16.8755 35.8519 16.8755 35.4227C16.8755 34.9934 16.5276 34.6455 16.0984 34.6455H3.56694ZM188.624 34.6455C188.195 34.6455 187.847 34.9934 187.847 35.4227C187.847 35.8519 188.195 36.1998 188.624 36.1998H218.155C218.585 36.1998 218.933 35.8519 218.933 35.4227C218.933 34.9934 218.585 34.6455 218.155 34.6455H188.624ZM33.1955 47.8569C33.1955 47.4277 33.5434 47.0798 33.9726 47.0798H40.1898C40.619 47.0798 40.9669 47.4277 40.9669 47.8569C40.9669 48.2861 40.619 48.6341 40.1898 48.6341H33.9726C33.5434 48.6341 33.1955 48.2861 33.1955 47.8569ZM236.03 54.8512C235.601 54.8512 235.253 55.1992 235.253 55.6284C235.253 56.0576 235.601 56.4055 236.03 56.4055H242.247C242.676 56.4055 243.024 56.0576 243.024 55.6284C243.024 55.1992 242.676 54.8512 242.247 54.8512H236.03ZM9.88122 41.6398C9.88122 41.2106 10.2292 40.8626 10.6584 40.8626H40.1898C40.619 40.8626 40.9669 41.2106 40.9669 41.6398C40.9669 42.069 40.619 42.4169 40.1898 42.4169H10.6584C10.2292 42.4169 9.88122 42.069 9.88122 41.6398ZM198.727 54.8512C198.298 54.8512 197.95 55.1992 197.95 55.6284C197.95 56.0576 198.298 56.4055 198.727 56.4055H212.715C213.145 56.4055 213.493 56.0576 213.493 55.6284C213.493 55.1992 213.145 54.8512 212.715 54.8512H198.727ZM219.71 41.6398C219.71 41.2106 220.058 40.8626 220.487 40.8626H245.018C245.448 40.8626 245.795 41.2106 245.795 41.6398C245.795 42.069 245.448 42.4169 245.018 42.4169H220.487C220.058 42.4169 219.71 42.069 219.71 41.6398ZM52.6241 40.8626C52.1949 40.8626 51.8469 41.2106 51.8469 41.6398C51.8469 42.069 52.1949 42.4169 52.6241 42.4169H82.1555C82.5847 42.4169 82.9326 42.069 82.9326 41.6398C82.9326 41.2106 82.5847 40.8626 82.1555 40.8626H52.6241ZM51.8469 47.8569C51.8469 47.4277 52.1949 47.0798 52.6241 47.0798H237.584C238.013 47.0798 238.361 47.4277 238.361 47.8569C238.361 48.2861 238.013 48.6341 237.584 48.6341H52.6241C52.1949 48.6341 51.8469 48.2861 51.8469 47.8569ZM21.5384 54.8512C21.1092 54.8512 20.7612 55.1992 20.7612 55.6284C20.7612 56.0576 21.1092 56.4055 21.5384 56.4055H128.784C129.213 56.4055 129.561 56.0576 129.561 55.6284C129.561 55.1992 129.213 54.8512 128.784 54.8512H21.5384ZM137.333 55.6284C137.333 55.1992 137.681 54.8512 138.11 54.8512H167.641C168.07 54.8512 168.418 55.1992 168.418 55.6284C168.418 56.0576 168.07 56.4055 167.641 56.4055H138.11C137.681 56.4055 137.333 56.0576 137.333 55.6284ZM94.5898 40.8626C94.1606 40.8626 93.8126 41.2106 93.8126 41.6398C93.8126 42.069 94.1606 42.4169 94.5898 42.4169H201.835C202.265 42.4169 202.613 42.069 202.613 41.6398C202.613 41.2106 202.265 40.8626 201.835 40.8626H94.5898Z" fill="#C283E0"/>
<path d="M4.83423 96.8743V96.7845V77.9733C4.83423 77.659 5.08115 77.3896 5.41787 77.3896H6.00151V96.7621V96.8519V115.663C6.00151 115.977 5.75459 116.247 5.41787 116.247C5.1036 116.247 4.83423 116 4.83423 115.663V96.8743Z" fill="#C283E0"/>
<path d="M9.11011 97.0843V96.9945V89.8112C9.11011 89.4969 9.35703 89.2275 9.69375 89.2275C10.008 89.2275 10.2774 89.4745 10.2774 89.8112V96.9945V97.0843V104.268C10.2774 104.582 10.0305 104.851 9.69375 104.851C9.37948 104.851 9.11011 104.604 9.11011 104.268V97.0843Z" fill="#C283E0"/>
<path d="M13.3862 97.0136V96.9238V92.5016C13.3862 92.1873 13.6332 91.918 13.9699 91.918C14.2841 91.918 14.5535 92.1649 14.5535 92.5016V96.9014V96.9912V101.391C14.5535 101.705 14.3066 101.975 13.9699 101.975C13.6556 101.975 13.3862 101.728 13.3862 101.391V97.0136V97.0136Z" fill="#C283E0"/>
<path d="M17.6621 97.0678V96.978V84.9684C17.6621 84.6541 17.909 84.3848 18.2458 84.3848C18.56 84.3848 18.8294 84.6317 18.8294 84.9684V96.9555V97.0453V109.032C18.8294 109.347 18.5825 109.616 18.2458 109.616C17.9315 109.616 17.6621 109.369 17.6621 109.032V97.0678Z" fill="#C283E0"/>
<path d="M21.9377 97.0843V96.9945V89.8112C21.9377 89.4969 22.1847 89.2275 22.5214 89.2275C22.8357 89.2275 23.105 89.4745 23.105 89.8112V96.9945V97.0843V104.268C23.105 104.582 22.8581 104.851 22.5214 104.851C22.2071 104.851 21.9377 104.604 21.9377 104.268V97.0843Z" fill="#C283E0"/>
<path d="M26.7975 113.573C26.4832 113.573 26.2139 113.326 26.2139 112.989V96.6023V96.5125V80.1256C26.2139 79.8114 26.4608 79.542 26.7975 79.542C27.1118 79.542 27.3812 79.7889 27.3812 80.1256V96.5125V96.6023V112.989C27.3812 113.326 27.1118 113.573 26.7975 113.573Z" fill="#C283E0"/>
<path d="M65.8643 97.0552V96.9654V95.192C65.8643 94.8778 65.6174 94.6084 65.2807 94.6084C64.9664 94.6084 64.697 94.8553 64.697 95.192V96.9654V97.0552V98.8286C64.697 99.1429 64.9439 99.4122 65.2807 99.4122C65.5949 99.4122 65.8643 99.1653 65.8643 98.8286V97.0552Z" fill="#C283E0"/>
<path d="M61.5882 96.97V96.8803V91.4254C61.5882 91.1112 61.3413 90.8418 61.0045 90.8418C60.6903 90.8418 60.4209 91.0887 60.4209 91.4254V96.8578V96.9476V102.38C60.4209 102.694 60.6678 102.964 61.0045 102.964C61.3188 102.964 61.5882 102.717 61.5882 102.38V96.97Z" fill="#C283E0"/>
<path d="M57.3123 96.9998V96.91V85.5065C57.3123 85.1922 57.0654 84.9229 56.7287 84.9229C56.4144 84.9229 56.145 85.1698 56.145 85.5065V96.8875V96.9773V108.358C56.145 108.673 56.3919 108.942 56.7287 108.942C57.0429 108.942 57.3123 108.695 57.3123 108.358V96.9998Z" fill="#C283E0"/>
<path d="M53.0364 96.8743V96.7845V77.9733C53.0364 77.659 52.7895 77.3896 52.4528 77.3896H51.8691V96.7621V96.8519V115.663C51.8691 115.977 52.1161 116.247 52.4528 116.247C52.767 116.247 53.0364 116 53.0364 115.663V96.8743Z" fill="#C283E0"/>
<path d="M48.7608 97.0843V96.9945V89.8112C48.7608 89.4969 48.5139 89.2275 48.1771 89.2275C47.8629 89.2275 47.5935 89.4745 47.5935 89.8112V96.9945V97.0843V104.268C47.5935 104.582 47.8404 104.851 48.1771 104.851C48.4914 104.851 48.7608 104.604 48.7608 104.268V97.0843Z" fill="#C283E0"/>
<path d="M44.4847 97.0136V96.9238V92.5016C44.4847 92.1873 44.2377 91.918 43.901 91.918C43.5868 91.918 43.3174 92.1649 43.3174 92.5016V96.9014V96.9912V101.391C43.3174 101.705 43.5643 101.975 43.901 101.975C44.2153 101.975 44.4847 101.728 44.4847 101.391V97.0136Z" fill="#C283E0"/>
<path d="M40.2088 97.0678V96.978V84.9684C40.2088 84.6541 39.9619 84.3848 39.6251 84.3848C39.3109 84.3848 39.0415 84.6317 39.0415 84.9684V96.9555V97.0453V109.032C39.0415 109.347 39.2884 109.616 39.6251 109.616C39.9394 109.616 40.2088 109.369 40.2088 109.032V97.0678Z" fill="#C283E0"/>
<path d="M35.9329 97.0843V96.9945V89.8112C35.9329 89.4969 35.686 89.2275 35.3493 89.2275C35.035 89.2275 34.7656 89.4745 34.7656 89.8112V96.9945V97.0843V104.268C34.7656 104.582 35.0125 104.851 35.3493 104.851C35.6635 104.851 35.9329 104.604 35.9329 104.268V97.0843Z" fill="#C283E0"/>
<path d="M31.0734 113.573C31.3877 113.573 31.657 113.326 31.657 112.989V96.6023V96.5125V80.1256C31.657 79.8114 31.4101 79.542 31.0734 79.542C30.7591 79.542 30.4897 79.7889 30.4897 80.1256V96.5125V96.6023V112.989C30.4897 113.326 30.7591 113.573 31.0734 113.573Z" fill="#C283E0"/>
<path d="M68.9729 97.0552V96.9654V95.192C68.9729 94.8778 69.2198 94.6084 69.5565 94.6084C69.8708 94.6084 70.1402 94.8553 70.1402 95.192V96.9654V97.0552V98.8286C70.1402 99.1429 69.8933 99.4122 69.5565 99.4122C69.2423 99.4122 68.9729 99.1653 68.9729 98.8286V97.0552Z" fill="#C283E0"/>
<path d="M73.2485 96.97V96.8803V91.4254C73.2485 91.1112 73.4955 90.8418 73.8322 90.8418C74.1465 90.8418 74.4158 91.0887 74.4158 91.4254V96.8578V96.9476V102.38C74.4158 102.694 74.1689 102.964 73.8322 102.964C73.5179 102.964 73.2485 102.717 73.2485 102.38V96.97Z" fill="#C283E0"/>
<path d="M77.5244 96.9998V96.91V85.5065C77.5244 85.1922 77.7713 84.9229 78.1081 84.9229C78.4223 84.9229 78.6917 85.1698 78.6917 85.5065V96.8875V96.9773V108.358C78.6917 108.673 78.4448 108.942 78.1081 108.942C77.7938 108.942 77.5244 108.695 77.5244 108.358V96.9998Z" fill="#C283E0"/>
<path d="M81.8003 96.8743V96.7845V77.9733C81.8003 77.659 82.0472 77.3896 82.3839 77.3896H82.9676V96.7621V96.8519V115.663C82.9676 115.977 82.7207 116.247 82.3839 116.247C82.0697 116.247 81.8003 116 81.8003 115.663V96.8743Z" fill="#C283E0"/>
<path d="M86.0764 97.0843V96.9945V89.8112C86.0764 89.4969 86.3233 89.2275 86.6601 89.2275C86.9743 89.2275 87.2437 89.4745 87.2437 89.8112V96.9945V97.0843V104.268C87.2437 104.582 86.9968 104.851 86.6601 104.851C86.3458 104.851 86.0764 104.604 86.0764 104.268V97.0843Z" fill="#C283E0"/>
<path d="M90.3523 97.0136V96.9238V92.5016C90.3523 92.1873 90.5992 91.918 90.9359 91.918C91.2502 91.918 91.5196 92.1649 91.5196 92.5016V96.9014V96.9912V101.391C91.5196 101.705 91.2727 101.975 90.9359 101.975C90.6217 101.975 90.3523 101.728 90.3523 101.391V97.0136Z" fill="#C283E0"/>
<path d="M94.6279 97.0678V96.978V84.9684C94.6279 84.6541 94.8749 84.3848 95.2116 84.3848C95.5258 84.3848 95.7952 84.6317 95.7952 84.9684V96.9555V97.0453V109.032C95.7952 109.347 95.5483 109.616 95.2116 109.616C94.8973 109.616 94.6279 109.369 94.6279 109.032V97.0678Z" fill="#C283E0"/>
<path d="M98.9041 97.0843V96.9945V89.8112C98.9041 89.4969 99.151 89.2275 99.4877 89.2275C99.802 89.2275 100.071 89.4745 100.071 89.8112V96.9945V97.0843V104.268C100.071 104.582 99.8244 104.851 99.4877 104.851C99.1734 104.851 98.9041 104.604 98.9041 104.268V97.0843Z" fill="#C283E0"/>
<path d="M103.764 113.573C103.449 113.573 103.18 113.326 103.18 112.989V96.6023V96.5125V80.1256C103.18 79.8114 103.427 79.542 103.764 79.542C104.078 79.542 104.347 79.7889 104.347 80.1256V96.5125V96.6023V112.989C104.347 113.326 104.078 113.573 103.764 113.573Z" fill="#C283E0"/>
<path d="M142.83 97.0552V96.9654V95.192C142.83 94.8778 142.583 94.6084 142.246 94.6084C141.932 94.6084 141.663 94.8553 141.663 95.192V96.9654V97.0552V98.8286C141.663 99.1429 141.91 99.4122 142.246 99.4122C142.561 99.4122 142.83 99.1653 142.83 98.8286V97.0552Z" fill="#C283E0"/>
<path d="M138.554 96.97V96.8803V91.4254C138.554 91.1112 138.308 90.8418 137.971 90.8418C137.657 90.8418 137.387 91.0887 137.387 91.4254V96.8578V96.9476V102.38C137.387 102.694 137.634 102.964 137.971 102.964C138.285 102.964 138.554 102.717 138.554 102.38V96.97Z" fill="#C283E0"/>
<path d="M134.278 96.9998V96.91V85.5065C134.278 85.1922 134.031 84.9229 133.695 84.9229C133.38 84.9229 133.111 85.1698 133.111 85.5065V96.8875V96.9773V108.358C133.111 108.673 133.358 108.942 133.695 108.942C134.009 108.942 134.278 108.695 134.278 108.358V96.9998Z" fill="#C283E0"/>
<path d="M130.003 96.8743V96.7845V77.9733C130.003 77.659 129.756 77.3896 129.419 77.3896H128.835V96.7621V96.8519V115.663C128.835 115.977 129.082 116.247 129.419 116.247C129.733 116.247 130.003 116 130.003 115.663V96.8743Z" fill="#C283E0"/>
<path d="M125.727 97.0843V96.9945V89.8112C125.727 89.4969 125.48 89.2275 125.143 89.2275C124.829 89.2275 124.559 89.4745 124.559 89.8112V96.9945V97.0843V104.268C124.559 104.582 124.806 104.851 125.143 104.851C125.457 104.851 125.727 104.604 125.727 104.268V97.0843Z" fill="#C283E0"/>
<path d="M121.451 97.0136V96.9238V92.5016C121.451 92.1873 121.204 91.918 120.867 91.918C120.553 91.918 120.283 92.1649 120.283 92.5016V96.9014V96.9912V101.391C120.283 101.705 120.53 101.975 120.867 101.975C121.181 101.975 121.451 101.728 121.451 101.391V97.0136Z" fill="#C283E0"/>
<path d="M117.175 97.0678V96.978V84.9684C117.175 84.6541 116.928 84.3848 116.591 84.3848C116.277 84.3848 116.008 84.6317 116.008 84.9684V96.9555V97.0453V109.032C116.008 109.347 116.254 109.616 116.591 109.616C116.905 109.616 117.175 109.369 117.175 109.032V97.0678Z" fill="#C283E0"/>
<path d="M112.899 97.0843V96.9945V89.8112C112.899 89.4969 112.652 89.2275 112.315 89.2275C112.001 89.2275 111.732 89.4745 111.732 89.8112V96.9945V97.0843V104.268C111.732 104.582 111.979 104.851 112.315 104.851C112.63 104.851 112.899 104.604 112.899 104.268V97.0843Z" fill="#C283E0"/>
<path d="M108.039 113.573C108.354 113.573 108.623 113.326 108.623 112.989V96.6023V96.5125V80.1256C108.623 79.8114 108.376 79.542 108.039 79.542C107.725 79.542 107.456 79.7889 107.456 80.1256V96.5125V96.6023V112.989C107.456 113.326 107.725 113.573 108.039 113.573Z" fill="#C283E0"/>
<path d="M145.939 97.0552V96.9654V95.192C145.939 94.8778 146.186 94.6084 146.522 94.6084C146.837 94.6084 147.106 94.8553 147.106 95.192V96.9654V97.0552V98.8286C147.106 99.1429 146.859 99.4122 146.522 99.4122C146.208 99.4122 145.939 99.1653 145.939 98.8286V97.0552Z" fill="#C283E0"/>
<path d="M150.215 96.97V96.8803V91.4254C150.215 91.1112 150.462 90.8418 150.798 90.8418C151.113 90.8418 151.382 91.0887 151.382 91.4254V96.8578V96.9476V102.38C151.382 102.694 151.135 102.964 150.798 102.964C150.484 102.964 150.215 102.717 150.215 102.38V96.97Z" fill="#C283E0"/>
<path d="M154.491 96.9998V96.91V85.5065C154.491 85.1922 154.738 84.9229 155.074 84.9229C155.389 84.9229 155.658 85.1698 155.658 85.5065V96.8875V96.9773V108.358C155.658 108.673 155.411 108.942 155.074 108.942C154.76 108.942 154.491 108.695 154.491 108.358V96.9998Z" fill="#C283E0"/>
<path d="M158.767 96.8743V96.7845V77.9733C158.767 77.659 159.014 77.3896 159.35 77.3896H159.934V96.7621V96.8519V115.663C159.934 115.977 159.687 116.247 159.35 116.247C159.036 116.247 158.767 116 158.767 115.663V96.8743Z" fill="#C283E0"/>
<path d="M163.042 97.0843V96.9945V89.8112C163.042 89.4969 163.289 89.2275 163.626 89.2275C163.94 89.2275 164.21 89.4745 164.21 89.8112V96.9945V97.0843V104.268C164.21 104.582 163.963 104.851 163.626 104.851C163.312 104.851 163.042 104.604 163.042 104.268V97.0843Z" fill="#C283E0"/>
<path d="M167.318 97.0136V96.9238V92.5016C167.318 92.1873 167.565 91.918 167.902 91.918C168.216 91.918 168.485 92.1649 168.485 92.5016V96.9014V96.9912V101.391C168.485 101.705 168.238 101.975 167.902 101.975C167.587 101.975 167.318 101.728 167.318 101.391V97.0136Z" fill="#C283E0"/>
<path d="M171.594 97.0678V96.978V84.9684C171.594 84.6541 171.841 84.3848 172.178 84.3848C172.492 84.3848 172.762 84.6317 172.762 84.9684V96.9555V97.0453V109.032C172.762 109.347 172.515 109.616 172.178 109.616C171.864 109.616 171.594 109.369 171.594 109.032V97.0678Z" fill="#C283E0"/>
<path d="M175.87 97.0843V96.9945V89.8112C175.87 89.4969 176.117 89.2275 176.454 89.2275C176.768 89.2275 177.037 89.4745 177.037 89.8112V96.9945V97.0843V104.268C177.037 104.582 176.79 104.851 176.454 104.851C176.139 104.851 175.87 104.604 175.87 104.268V97.0843Z" fill="#C283E0"/>
<path d="M180.73 113.573C180.415 113.573 180.146 113.326 180.146 112.989V96.6023V96.5125V80.1256C180.146 79.8114 180.393 79.542 180.73 79.542C181.044 79.542 181.313 79.7889 181.313 80.1256V96.5125V96.6023V112.989C181.313 113.326 181.044 113.573 180.73 113.573Z" fill="#C283E0"/>
<path d="M219.796 97.0552V96.9654V95.192C219.796 94.8778 219.549 94.6084 219.212 94.6084C218.898 94.6084 218.629 94.8553 218.629 95.192V96.9654V97.0552V98.8286C218.629 99.1429 218.876 99.4122 219.212 99.4122C219.527 99.4122 219.796 99.1653 219.796 98.8286V97.0552Z" fill="#C283E0"/>
<path d="M215.52 96.97V96.8803V91.4254C215.52 91.1112 215.273 90.8418 214.936 90.8418C214.622 90.8418 214.353 91.0887 214.353 91.4254V96.8578V96.9476V102.38C214.353 102.694 214.6 102.964 214.936 102.964C215.251 102.964 215.52 102.717 215.52 102.38V96.97Z" fill="#C283E0"/>
<path d="M211.244 96.9998V96.91V85.5065C211.244 85.1922 210.997 84.9229 210.661 84.9229C210.346 84.9229 210.077 85.1698 210.077 85.5065V96.8875V96.9773V108.358C210.077 108.673 210.324 108.942 210.661 108.942C210.975 108.942 211.244 108.695 211.244 108.358V96.9998Z" fill="#C283E0"/>
<path d="M206.968 96.8743V96.7845V77.9733C206.968 77.659 206.721 77.3896 206.385 77.3896H205.801V96.7621V96.8519V115.663C205.801 115.977 206.048 116.247 206.385 116.247C206.699 116.247 206.968 116 206.968 115.663V96.8743Z" fill="#C283E0"/>
<path d="M202.692 97.0843V96.9945V89.8112C202.692 89.4969 202.445 89.2275 202.109 89.2275C201.795 89.2275 201.525 89.4745 201.525 89.8112V96.9945V97.0843V104.268C201.525 104.582 201.772 104.851 202.109 104.851C202.423 104.851 202.692 104.604 202.692 104.268V97.0843Z" fill="#C283E0"/>
<path d="M198.416 97.0136V96.9238V92.5016C198.416 92.1873 198.169 91.918 197.833 91.918C197.518 91.918 197.249 92.1649 197.249 92.5016V96.9014V96.9912V101.391C197.249 101.705 197.496 101.975 197.833 101.975C198.147 101.975 198.416 101.728 198.416 101.391V97.0136Z" fill="#C283E0"/>
<path d="M194.141 97.0678V96.978V84.9684C194.141 84.6541 193.894 84.3848 193.557 84.3848C193.243 84.3848 192.973 84.6317 192.973 84.9684V96.9555V97.0453V109.032C192.973 109.347 193.22 109.616 193.557 109.616C193.871 109.616 194.141 109.369 194.141 109.032V97.0678Z" fill="#C283E0"/>
<path d="M189.865 97.0843V96.9945V89.8112C189.865 89.4969 189.618 89.2275 189.281 89.2275C188.967 89.2275 188.698 89.4745 188.698 89.8112V96.9945V97.0843V104.268C188.698 104.582 188.944 104.851 189.281 104.851C189.595 104.851 189.865 104.604 189.865 104.268V97.0843Z" fill="#C283E0"/>
<path d="M185.005 113.573C185.32 113.573 185.589 113.326 185.589 112.989V96.6023V96.5125V80.1256C185.589 79.8114 185.342 79.542 185.005 79.542C184.691 79.542 184.422 79.7889 184.422 80.1256V96.5125V96.6023V112.989C184.422 113.326 184.669 113.573 185.005 113.573Z" fill="#C283E0"/>
<path d="M222.905 97.0552V96.9654V95.192C222.905 94.8778 223.152 94.6084 223.488 94.6084C223.803 94.6084 224.072 94.8553 224.072 95.192V96.9654V97.0552V98.8286C224.072 99.1429 223.825 99.4122 223.488 99.4122C223.174 99.4122 222.905 99.1653 222.905 98.8286V97.0552Z" fill="#C283E0"/>
<path d="M227.18 96.97V96.8803V91.4254C227.18 91.1112 227.427 90.8418 227.764 90.8418C228.078 90.8418 228.348 91.0887 228.348 91.4254V96.8578V96.9476V102.38C228.348 102.694 228.101 102.964 227.764 102.964C227.45 102.964 227.18 102.717 227.18 102.38V96.97Z" fill="#C283E0"/>
<path d="M231.456 96.9998V96.91V85.5065C231.456 85.1922 231.703 84.9229 232.04 84.9229C232.354 84.9229 232.624 85.1698 232.624 85.5065V96.8875V96.9773V108.358C232.624 108.673 232.377 108.942 232.04 108.942C231.726 108.942 231.456 108.695 231.456 108.358V96.9998Z" fill="#C283E0"/>
<path d="M235.732 96.8743V96.7845V77.9733C235.732 77.659 235.979 77.3896 236.316 77.3896H236.9V96.7621V96.8519V115.663C236.9 115.977 236.653 116.247 236.316 116.247C236.002 116.247 235.732 116 235.732 115.663V96.8743Z" fill="#C283E0"/>
<path d="M240.008 97.0843V96.9945V89.8112C240.008 89.4969 240.255 89.2275 240.592 89.2275C240.906 89.2275 241.176 89.4745 241.176 89.8112V96.9945V97.0843V104.268C241.176 104.582 240.929 104.851 240.592 104.851C240.278 104.851 240.008 104.604 240.008 104.268V97.0843Z" fill="#C283E0"/>
<path d="M244.284 97.0136V96.9238V92.5016C244.284 92.1873 244.531 91.918 244.868 91.918C245.182 91.918 245.451 92.1649 245.451 92.5016V96.9014V96.9912V101.391C245.451 101.705 245.205 101.975 244.868 101.975C244.554 101.975 244.284 101.728 244.284 101.391V97.0136Z" fill="#C283E0"/>
<path d="M3 177.801H14.2547V176.786H24.4863V179.323H31.6484V177.294H38.2989V175.771H46.9958V178.816H52.6232V179.323H58.2505V177.294H65.9242V180H79.2253V177.801H85.3642V172.219H92.5263V175.771H97.1305V167.99H103.269V174.08H107.874V167.99H114.013V161.731H120.663V164.269H127.825V176.786H135.499V173.403H142.661V172.219H148.288V158.179H156.474V166.299H163.636V154.627H170.798V169.005H177.448V172.219H184.099V178.816H191.773V146H198.935V169.005H206.097V176.786H213.259V172.219H219.909V176.786H226.56V172.219H233.211V175.264H239.349V176.786H246" stroke="#C283E0" stroke-width="0.777143"/>
<path d="M2 22.2129H246.742" stroke="white"/>
<path d="M2 66.2129H246.742" stroke="white"/>
<path d="M2 129.213H246.742" stroke="white"/>
<path fill-rule="evenodd" clip-rule="evenodd" d="M12.587 10.0613C11.2491 10.0613 10.1646 11.1459 10.1646 12.4837C10.1646 13.8215 11.2491 14.9061 12.587 14.9061C13.9248 14.9061 15.0093 13.8215 15.0093 12.4837C15.0093 11.1459 13.9248 10.0613 12.587 10.0613ZM9.38745 12.4837C9.38745 10.7166 10.8199 9.28418 12.587 9.28418C14.354 9.28418 15.7865 10.7166 15.7865 12.4837C15.7865 14.2507 14.354 15.6832 12.587 15.6832C10.8199 15.6832 9.38745 14.2507 9.38745 12.4837ZM22.8084 10.0613C21.4706 10.0613 20.386 11.1459 20.386 12.4837C20.386 13.8215 21.4706 14.9061 22.8084 14.9061C24.1462 14.9061 25.2308 13.8215 25.2308 12.4837C25.2308 11.1459 24.1462 10.0613 22.8084 10.0613ZM19.6089 12.4837C19.6089 10.7166 21.0414 9.28418 22.8084 9.28418C24.5754 9.28418 26.0079 10.7166 26.0079 12.4837C26.0079 14.2507 24.5754 15.6832 22.8084 15.6832C21.0414 15.6832 19.6089 14.2507 19.6089 12.4837ZM30.6077 12.4837C30.6077 11.1459 31.6922 10.0613 33.03 10.0613C34.3679 10.0613 35.4524 11.1459 35.4524 12.4837C35.4524 13.8215 34.3679 14.9061 33.03 14.9061C31.6922 14.9061 30.6077 13.8215 30.6077 12.4837ZM33.03 9.28418C31.263 9.28418 29.8305 10.7166 29.8305 12.4837C29.8305 14.2507 31.263 15.6832 33.03 15.6832C34.7971 15.6832 36.2295 14.2507 36.2295 12.4837C36.2295 10.7166 34.7971 9.28418 33.03 9.28418Z" fill="white"/>
</svg>
