<svg width="375" height="243" viewBox="0 0 375 243" fill="none" xmlns="http://www.w3.org/2000/svg">
<g clip-path="url(#clip0)">
<rect x="147.632" y="51.7441" width="3.136" height="10.976" fill="white" fill-opacity="0.2"/>
<rect width="3.136" height="10.976" transform="matrix(1 0 0 -1 147.632 217.952)" fill="white" fill-opacity="0.2"/>
<rect x="367.936" y="119.168" width="3.136" height="10.976" transform="rotate(180 367.936 119.168)" fill="white" fill-opacity="0.2"/>
<rect x="328.736" y="119.168" width="3.136" height="10.976" transform="rotate(180 328.736 119.168)" fill="white" fill-opacity="0.2"/>
<rect x="309.136" y="175.616" width="3.136" height="10.976" transform="rotate(180 309.136 175.616)" fill="white" fill-opacity="0.2"/>
<rect x="117.84" y="94.0801" width="3.136" height="10.976" fill="white" fill-opacity="0.2"/>
<rect x="255.824" y="119.168" width="3.136" height="10.976" transform="rotate(180 255.824 119.168)" fill="white" fill-opacity="0.2"/>
<rect x="270.72" y="175.616" width="3.136" height="10.976" transform="rotate(180 270.72 175.616)" fill="white" fill-opacity="0.2"/>
<rect x="265.232" y="51.7441" width="3.136" height="10.976" fill="white" fill-opacity="0.2"/>
<rect width="3.136" height="10.976" transform="matrix(1 0 0 -1 265.232 217.952)" fill="white" fill-opacity="0.2"/>
<rect width="3.136" height="10.976" transform="matrix(1 0 0 -1 267.584 189.728)" fill="white" fill-opacity="0.2"/>
<rect x="280.128" y="178.752" width="3.136" height="10.976" fill="white" fill-opacity="0.2"/>
<rect x="123.328" y="94.0801" width="3.136" height="10.976" fill="white" fill-opacity="0.2"/>
<rect x="250.336" y="119.168" width="3.136" height="10.976" transform="rotate(180 250.336 119.168)" fill="white" fill-opacity="0.2"/>
<rect x="176.64" y="37.6318" width="3.136" height="10.976" fill="white" fill-opacity="0.2"/>
<rect x="176.64" y="192.864" width="3.136" height="10.976" fill="white" fill-opacity="0.2"/>
<rect x="123.328" y="51.7441" width="3.136" height="10.976" fill="white" fill-opacity="0.2"/>
<rect width="3.136" height="10.976" transform="matrix(1 0 0 -1 139.792 217.952)" fill="white" fill-opacity="0.2"/>
<rect x="123.328" y="178.752" width="3.136" height="10.976" fill="white" fill-opacity="0.2"/>
<rect x="328.736" y="175.616" width="3.136" height="10.976" transform="rotate(180 328.736 175.616)" fill="white" fill-opacity="0.2"/>
<rect x="345.2" y="175.616" width="3.136" height="10.976" transform="rotate(180 345.2 175.616)" fill="white" fill-opacity="0.2"/>
<rect x="197.024" y="51.7441" width="3.136" height="10.976" fill="white" fill-opacity="0.2"/>
<rect x="197.024" y="178.752" width="3.136" height="10.976" fill="white" fill-opacity="0.2"/>
<rect x="201.728" y="51.7441" width="3.136" height="10.976" fill="white" fill-opacity="0.2"/>
<rect width="3.136" height="10.976" transform="matrix(1 0 0 -1 216.624 217.952)" fill="white" fill-opacity="0.2"/>
<rect x="137.44" y="65.8555" width="3.136" height="10.976" fill="white" fill-opacity="0.2"/>
<rect x="236.224" y="175.616" width="3.136" height="10.976" transform="rotate(180 236.224 175.616)" fill="white" fill-opacity="0.2"/>
<rect x="161.744" y="164.64" width="3.136" height="10.976" fill="white" fill-opacity="0.2"/>
<rect x="235.44" y="79.9678" width="3.136" height="10.976" fill="white" fill-opacity="0.2"/>
<rect x="237.792" y="164.64" width="3.136" height="10.976" fill="white" fill-opacity="0.2"/>
<rect x="221.328" y="51.7441" width="3.136" height="10.976" fill="white" fill-opacity="0.2"/>
<rect width="3.136" height="10.976" transform="matrix(1 0 0 -1 260.528 217.952)" fill="white" fill-opacity="0.2"/>
<rect x="221.328" y="178.752" width="3.136" height="10.976" fill="white" fill-opacity="0.2"/>
<rect x="216.624" y="178.752" width="3.136" height="10.976" fill="white" fill-opacity="0.2"/>
<rect x="172.72" y="94.0801" width="3.136" height="10.976" fill="white" fill-opacity="0.2"/>
<rect x="200.944" y="119.168" width="3.136" height="10.976" transform="rotate(180 200.944 119.168)" fill="white" fill-opacity="0.2"/>
<rect x="182.128" y="94.0801" width="3.136" height="10.976" fill="white" fill-opacity="0.2"/>
<rect x="191.536" y="119.168" width="3.136" height="10.976" transform="rotate(180 191.536 119.168)" fill="white" fill-opacity="0.2"/>
<rect x="201.728" y="37.6318" width="3.136" height="10.976" fill="white" fill-opacity="0.2"/>
<rect x="201.728" y="192.864" width="3.136" height="10.976" fill="white" fill-opacity="0.2"/>
<rect x="171.936" y="175.616" width="3.136" height="10.976" transform="rotate(180 171.936 175.616)" fill="white" fill-opacity="0.2"/>
<rect x="244.848" y="51.7441" width="3.136" height="10.976" fill="white" fill-opacity="0.2"/>
<rect width="3.136" height="10.976" transform="matrix(1 0 0 -1 244.848 217.952)" fill="white" fill-opacity="0.2"/>
<rect x="182.128" y="178.752" width="3.136" height="10.976" fill="white" fill-opacity="0.2"/>
<rect x="147.632" y="178.752" width="3.136" height="10.976" fill="white" fill-opacity="0.2"/>
<rect x="152.336" y="178.752" width="3.136" height="10.976" fill="white" fill-opacity="0.2"/>
<rect x="157.04" y="178.752" width="3.136" height="10.976" fill="white" fill-opacity="0.2"/>
<rect x="161.744" y="178.752" width="3.136" height="10.976" fill="white" fill-opacity="0.2"/>
<rect x="201.728" y="65.8555" width="3.136" height="10.976" fill="white" fill-opacity="0.2"/>
<rect x="171.936" y="119.168" width="3.136" height="10.976" transform="rotate(180 171.936 119.168)" fill="white" fill-opacity="0.2"/>
<rect x="235.44" y="94.0801" width="3.136" height="10.976" fill="white" fill-opacity="0.2"/>
<rect x="138.224" y="119.168" width="3.136" height="10.976" transform="rotate(180 138.224 119.168)" fill="white" fill-opacity="0.2"/>
<rect x="230.736" y="94.0801" width="3.136" height="10.976" fill="white" fill-opacity="0.2"/>
<rect x="211.92" y="94.0801" width="3.136" height="10.976" fill="white" fill-opacity="0.2"/>
<rect x="142.928" y="119.168" width="3.136" height="10.976" transform="rotate(180 142.928 119.168)" fill="white" fill-opacity="0.2"/>
<rect x="260.528" y="94.0801" width="3.136" height="10.976" fill="white" fill-opacity="0.2"/>
<rect x="113.136" y="119.168" width="3.136" height="10.976" transform="rotate(180 113.136 119.168)" fill="white" fill-opacity="0.2"/>
<rect x="280.128" y="94.0801" width="3.136" height="10.976" fill="white" fill-opacity="0.2"/>
<rect x="309.92" y="94.0801" width="3.136" height="10.976" fill="white" fill-opacity="0.2"/>
<rect x="280.128" y="37.6318" width="3.136" height="10.976" fill="white" fill-opacity="0.2"/>
<rect x="280.128" y="192.864" width="3.136" height="10.976" fill="white" fill-opacity="0.2"/>
<rect x="343.632" y="51.7441" width="3.136" height="10.976" fill="white" fill-opacity="0.2"/>
<rect width="3.136" height="10.976" transform="matrix(1 0 0 -1 343.632 217.952)" fill="white" fill-opacity="0.2"/>
<rect x="305.216" y="51.7441" width="3.136" height="10.976" fill="white" fill-opacity="0.2"/>
<rect width="3.136" height="10.976" transform="matrix(1 0 0 -1 305.216 217.952)" fill="white" fill-opacity="0.2"/>
<rect x="310.704" y="178.752" width="3.136" height="10.976" fill="white" fill-opacity="0.2"/>
<rect x="306" y="178.752" width="3.136" height="10.976" fill="white" fill-opacity="0.2"/>
<rect x="300.512" y="94.0801" width="3.136" height="10.976" fill="white" fill-opacity="0.2"/>
<rect x="319.328" y="94.0801" width="3.136" height="10.976" fill="white" fill-opacity="0.2"/>
<rect x="314.624" y="94.0801" width="3.136" height="10.976" fill="white" fill-opacity="0.2"/>
<rect x="338.928" y="94.0801" width="3.136" height="10.976" fill="white" fill-opacity="0.2"/>
<rect x="314.624" y="37.6318" width="3.136" height="10.976" fill="white" fill-opacity="0.2"/>
<rect x="314.624" y="192.864" width="3.136" height="10.976" fill="white" fill-opacity="0.2"/>
<rect x="319.328" y="192.864" width="3.136" height="10.976" fill="white" fill-opacity="0.2"/>
<rect x="324.032" y="192.864" width="3.136" height="10.976" fill="white" fill-opacity="0.2"/>
<rect x="358.528" y="178.752" width="3.136" height="10.976" fill="white" fill-opacity="0.2"/>
<rect x="291.888" y="37.6318" width="3.136" height="10.976" fill="white" fill-opacity="0.2"/>
<rect x="291.888" y="192.864" width="3.136" height="10.976" fill="white" fill-opacity="0.2"/>
<rect x="117.84" y="175.616" width="3.136" height="10.976" transform="rotate(180 117.84 175.616)" fill="white" fill-opacity="0.2"/>
<rect x="255.824" y="164.64" width="3.136" height="10.976" fill="white" fill-opacity="0.2"/>
<rect x="324.032" y="65.8555" width="3.136" height="10.976" fill="white" fill-opacity="0.2"/>
<path fill-rule="evenodd" clip-rule="evenodd" d="M378.128 133.281H374.992V122.305L378.128 122.305V133.281ZM335.792 147.393H332.656V136.417H335.792V147.393ZM108.432 161.505H105.296V150.529H108.432V161.505ZM295.808 161.505H298.944V150.529H295.808V161.505ZM399.296 161.505H402.432V150.529H399.296V161.505ZM322.464 161.505H319.328V150.529H322.464V161.505ZM374.992 161.505H378.128V150.529H374.992V161.505ZM387.536 161.505H384.4V150.529H387.536V161.505ZM351.472 161.505H354.608V150.529H351.472V161.505ZM247.2 150.529V161.505H250.336V150.529H247.2ZM342.064 147.393H345.2V136.417H342.064V147.393ZM349.904 147.393H346.768V136.417H349.904V147.393ZM351.472 147.393H354.608V136.417H351.472V147.393ZM359.312 147.393H356.176V136.417H359.312V147.393ZM365.584 147.393H368.72V136.417H365.584V147.393ZM373.424 147.393H370.288V136.417H373.424V147.393ZM374.992 147.393H378.128V136.417H374.992V147.393ZM387.536 147.393H384.4V136.417H387.536V147.393ZM393.808 147.393H396.944V136.417H393.808V147.393ZM370.288 133.281H373.424V122.305L370.288 122.305V133.281ZM324.032 133.281H320.896V122.305L324.032 122.305V133.281ZM173.504 161.505H176.64V150.529H173.504V161.505ZM181.344 161.505H178.208V150.529H181.344V161.505ZM182.912 161.505H186.048V150.529H182.912V161.505ZM190.752 161.505H187.616V150.529H190.752V161.505ZM192.32 161.505H195.456V150.529H192.32V161.505ZM219.76 161.505H216.624V150.529H219.76V161.505ZM267.584 161.505H270.72V150.529H267.584V161.505ZM275.424 161.505H272.288V150.529H275.424V161.505ZM276.992 161.505H280.128V150.529H276.992V161.505ZM284.832 161.505H281.696V150.529H284.832V161.505ZM286.4 161.505H289.536V150.529H286.4V161.505ZM171.936 161.505H168.8V150.529H171.936V161.505ZM197.808 161.505H200.944V150.529H197.808V161.505ZM237.792 147.393H234.656V136.417H237.792V147.393ZM178.208 147.393H181.344V136.417H178.208V147.393ZM186.048 147.393H182.912V136.417H186.048V147.393ZM187.616 147.393H190.752V136.417H187.616V147.393ZM195.456 147.393H192.32V136.417H195.456V147.393ZM55.9041 147.393H59.0401V136.417H55.9041V147.393ZM99.0241 133.281H95.8881V122.305L99.0241 122.305V133.281ZM239.36 147.393H242.496V136.417H239.36V147.393ZM63.7441 147.393H60.6081V136.417H63.7441V147.393ZM100.592 147.393H103.728V136.417H100.592V147.393ZM103.728 133.281H100.592V122.305L103.728 122.305V133.281ZM244.064 147.393H247.2V136.417H244.064V147.393ZM68.4481 147.393H65.312V136.417H68.4481V147.393ZM248.768 147.393H251.904V136.417H248.768V147.393ZM261.312 147.393H258.176V136.417H261.312V147.393ZM262.88 147.393H266.016V136.417H262.88V147.393ZM275.424 147.393H272.288V136.417H275.424V147.393ZM281.696 147.393H284.832V136.417H281.696V147.393ZM289.536 147.393H286.4V136.417H289.536V147.393ZM295.808 147.393H298.944V136.417H295.808V147.393ZM303.648 147.393H300.512V136.417H303.648V147.393ZM309.92 147.393H313.056V136.417H309.92V147.393ZM73.1521 147.393H70.0161V136.417H73.1521V147.393ZM110 133.281H113.136V122.305L110 122.305V133.281ZM284.832 133.281H281.696V122.305L284.832 122.305V133.281ZM135.088 133.281H138.224V122.305L135.088 122.305V133.281ZM152.336 161.505H149.2V150.529H152.336V161.505ZM153.904 161.505H157.04V150.529H153.904V161.505ZM128.816 161.505H125.68V150.529H128.816V161.505ZM139.792 161.505H142.928V150.529H139.792V161.505ZM147.632 161.505H144.496V150.529H147.632V161.505ZM26.896 161.505H30.0321V150.529H26.896V161.505ZM25.328 161.505H22.192V150.529H25.328V161.505ZM65.312 161.505H68.4481V150.529H65.312V161.505ZM73.1521 161.505H70.0161V150.529H73.1521V161.505ZM36.3041 161.505H39.4401V150.529H36.3041V161.505ZM77.8561 161.505H74.7201V150.529H77.8561V161.505ZM79.424 161.505H82.5601V150.529H79.424V161.505ZM87.2641 161.505H84.1281V150.529H87.2641V161.505ZM-22.496 161.505H-19.36L-19.36 150.529H-22.496L-22.496 161.505ZM117.84 147.393H114.704V136.417H117.84V147.393ZM119.408 147.393H122.544V136.417H119.408V147.393ZM233.088 147.393H229.952V136.417H233.088V147.393ZM211.92 147.393H215.056V136.417H211.92V147.393ZM204.864 147.393H201.728V136.417H204.864V147.393ZM222.896 147.393H226.032V136.417H222.896V147.393ZM164.88 147.393H161.744V136.417H164.88V147.393ZM51.2001 147.393H54.3361V136.417H51.2001V147.393ZM94.3201 133.281H91.1841V122.305L94.3201 122.305V133.281ZM114.704 133.281H117.84V122.305L114.704 122.305V133.281ZM-24.064 161.505H-27.2L-27.2 150.529H-24.064L-24.064 161.505ZM46.4961 147.393H49.6321V136.417H46.4961V147.393ZM8.86405 147.393H5.72805V136.417H8.86405V147.393ZM1.02405 147.393H4.16005L4.16005 136.417H1.02405L1.02405 147.393ZM-0.543951 147.393H-3.67995L-3.67995 136.417H-0.543953L-0.543951 147.393ZM-8.38395 147.393H-5.24795L-5.24795 136.417H-8.38395L-8.38395 147.393ZM-9.95195 147.393H-13.0879L-13.088 136.417H-9.95195L-9.95195 147.393ZM-17.792 147.393H-14.656L-14.656 136.417H-17.792L-17.792 147.393ZM89.6161 133.281H86.48V122.305L89.6161 122.305V133.281ZM-2.89595 133.281H0.240049L0.240047 122.305L-2.89595 122.305L-2.89595 133.281ZM34.736 133.281H31.6V122.305L34.736 122.305V133.281ZM36.3041 133.281H39.4401V122.305L36.3041 122.305V133.281ZM44.1441 133.281H41.008V122.305L44.1441 122.305V133.281ZM22.192 133.281H25.328V122.305L22.192 122.305V133.281ZM15.92 133.281H12.784V122.305L15.92 122.305V133.281ZM-7.59995 133.281H-4.46395L-4.46395 122.305L-7.59995 122.305L-7.59995 133.281Z" fill="url(#paint0_linear)"/>
</g>
<g clip-path="url(#clip1)">
<rect x="90.5359" y="119.168" width="3.136" height="10.976" transform="rotate(180 90.5359 119.168)" fill="white" fill-opacity="0.2"/>
<rect x="70.936" y="119.168" width="3.136" height="10.976" transform="rotate(180 70.936 119.168)" fill="white" fill-opacity="0.2"/>
<rect x="31.7358" y="119.168" width="3.136" height="10.976" transform="rotate(180 31.7358 119.168)" fill="white" fill-opacity="0.2"/>
<rect x="12.136" y="175.616" width="3.136" height="10.976" transform="rotate(180 12.136 175.616)" fill="white" fill-opacity="0.2"/>
<rect x="31.7358" y="175.616" width="3.136" height="10.976" transform="rotate(180 31.7358 175.616)" fill="white" fill-opacity="0.2"/>
<rect x="48.2" y="175.616" width="3.136" height="10.976" transform="rotate(180 48.2 175.616)" fill="white" fill-opacity="0.2"/>
<rect x="99.9438" y="175.616" width="3.136" height="10.976" transform="rotate(180 99.9438 175.616)" fill="white" fill-opacity="0.2"/>
<rect x="12.9199" y="94.0801" width="3.136" height="10.976" fill="white" fill-opacity="0.2"/>
<rect x="46.6318" y="51.7441" width="3.136" height="10.976" fill="white" fill-opacity="0.2"/>
<rect width="3.136" height="10.976" transform="matrix(1 0 0 -1 46.6318 217.952)" fill="white" fill-opacity="0.2"/>
<rect x="96.8079" y="178.752" width="3.136" height="10.976" fill="white" fill-opacity="0.2"/>
<rect x="8.21582" y="51.7441" width="3.136" height="10.976" fill="white" fill-opacity="0.2"/>
<rect width="3.136" height="10.976" transform="matrix(1 0 0 -1 8.21582 217.952)" fill="white" fill-opacity="0.2"/>
<rect x="13.7039" y="178.752" width="3.136" height="10.976" fill="white" fill-opacity="0.2"/>
<rect x="9" y="178.752" width="3.136" height="10.976" fill="white" fill-opacity="0.2"/>
<rect x="3.51196" y="94.0801" width="3.136" height="10.976" fill="white" fill-opacity="0.2"/>
<rect x="22.3279" y="94.0801" width="3.136" height="10.976" fill="white" fill-opacity="0.2"/>
<rect x="17.624" y="94.0801" width="3.136" height="10.976" fill="white" fill-opacity="0.2"/>
<rect x="41.928" y="94.0801" width="3.136" height="10.976" fill="white" fill-opacity="0.2"/>
<rect x="17.624" y="37.6318" width="3.136" height="10.976" fill="white" fill-opacity="0.2"/>
<rect x="17.624" y="192.864" width="3.136" height="10.976" fill="white" fill-opacity="0.2"/>
<rect x="22.3279" y="192.864" width="3.136" height="10.976" fill="white" fill-opacity="0.2"/>
<rect x="27.032" y="192.864" width="3.136" height="10.976" fill="white" fill-opacity="0.2"/>
<rect x="96.0239" y="51.7441" width="3.136" height="10.976" fill="white" fill-opacity="0.2"/>
<rect width="3.136" height="10.976" transform="matrix(1 0 0 -1 96.0239 217.952)" fill="white" fill-opacity="0.2"/>
<rect x="61.5278" y="178.752" width="3.136" height="10.976" fill="white" fill-opacity="0.2"/>
<rect x="96.0239" y="94.0801" width="3.136" height="10.976" fill="white" fill-opacity="0.2"/>
<rect x="85.832" y="37.6318" width="3.136" height="10.976" fill="white" fill-opacity="0.2"/>
<rect x="85.832" y="192.864" width="3.136" height="10.976" fill="white" fill-opacity="0.2"/>
<rect x="100.728" y="51.7441" width="3.136" height="10.976" fill="white" fill-opacity="0.2"/>
<rect x="27.032" y="65.8555" width="3.136" height="10.976" fill="white" fill-opacity="0.2"/>
<rect x="81.1279" y="79.9678" width="3.136" height="10.976" fill="white" fill-opacity="0.2"/>
<rect x="82.696" y="164.64" width="3.136" height="10.976" fill="white" fill-opacity="0.2"/>
<path fill-rule="evenodd" clip-rule="evenodd" d="M81.1281 133.281H77.9921V122.305H81.1281V133.281ZM38.7921 147.393H35.6561V136.417H38.7921V147.393ZM-188.568 161.505H-191.704V150.529H-188.568V161.505ZM-1.19193 161.505H1.94406V150.529H-1.19193V161.505ZM102.296 161.505H105.432V150.529H102.296V161.505ZM25.4641 161.505H22.3281V150.529H25.4641V161.505ZM77.9921 161.505H81.1281V150.529H77.9921V161.505ZM90.5361 161.505H87.4001V150.529H90.5361V161.505ZM54.4721 161.505H57.6081V150.529H54.4721V161.505ZM-49.7999 150.529V161.505H-46.6639V150.529H-49.7999ZM45.0641 147.393H48.2001V136.417H45.0641V147.393ZM52.9041 147.393H49.7681V136.417H52.9041V147.393ZM54.4721 147.393H57.6081V136.417H54.4721V147.393ZM62.3121 147.393H59.1761V136.417H62.3121V147.393ZM68.5841 147.393H71.7201V136.417H68.5841V147.393ZM76.4241 147.393H73.2881V136.417H76.4241V147.393ZM77.9921 147.393H81.1281V136.417H77.9921V147.393ZM90.5361 147.393H87.4001V136.417H90.5361V147.393ZM96.8081 147.393H99.9441V136.417H96.8081V147.393ZM73.2881 133.281H76.4241V122.305H73.2881V133.281ZM27.0321 133.281H23.8961V122.305H27.0321V133.281ZM-123.496 161.505H-120.36V150.529H-123.496V161.505ZM-115.656 161.505H-118.792V150.529H-115.656V161.505ZM-114.088 161.505H-110.952V150.529H-114.088V161.505ZM-106.248 161.505H-109.384V150.529H-106.248V161.505ZM-104.68 161.505H-101.544V150.529H-104.68V161.505ZM-77.24 161.505H-80.376V150.529H-77.24V161.505ZM-29.4159 161.505H-26.2799V150.529H-29.4159V161.505ZM-21.5759 161.505H-24.7119V150.529H-21.5759V161.505ZM-20.0079 161.505H-16.8719V150.529H-20.0079V161.505ZM-12.1679 161.505H-15.3039V150.529H-12.1679V161.505ZM-10.5999 161.505H-7.46393V150.529H-10.5999V161.505ZM-125.064 161.505H-128.2V150.529H-125.064V161.505ZM-99.192 161.505H-96.056V150.529H-99.192V161.505ZM-59.2079 147.393H-62.3439V136.417H-59.2079V147.393ZM-118.792 147.393H-115.656V136.417H-118.792V147.393ZM-110.952 147.393H-114.088V136.417H-110.952V147.393ZM-109.384 147.393H-106.248V136.417H-109.384V147.393ZM-101.544 147.393H-104.68V136.417H-101.544V147.393ZM-241.096 147.393H-237.96V136.417H-241.096V147.393ZM-197.976 133.281H-201.112V122.305H-197.976V133.281ZM-57.6399 147.393H-54.5039V136.417H-57.6399V147.393ZM-233.256 147.393H-236.392V136.417H-233.256V147.393ZM-196.408 147.393H-193.272V136.417H-196.408V147.393ZM-193.272 133.281H-196.408V122.305H-193.272V133.281ZM-52.9359 147.393H-49.7999V136.417H-52.9359V147.393ZM-228.552 147.393H-231.688V136.417H-228.552V147.393ZM-48.2319 147.393H-45.0959V136.417H-48.2319V147.393ZM-35.6879 147.393H-38.8239V136.417H-35.6879V147.393ZM-34.1199 147.393H-30.9839V136.417H-34.1199V147.393ZM-21.5759 147.393H-24.7119V136.417H-21.5759V147.393ZM-15.3039 147.393H-12.1679V136.417H-15.3039V147.393ZM-7.46393 147.393H-10.5999V136.417H-7.46393V147.393ZM-1.19193 147.393H1.94406V136.417H-1.19193V147.393ZM6.64807 147.393H3.51208V136.417H6.64807V147.393ZM12.9201 147.393H16.0561V136.417H12.9201V147.393ZM-223.848 147.393H-226.984V136.417H-223.848V147.393ZM-187 133.281H-183.864V122.305H-187V133.281ZM-12.1679 133.281H-15.3039V122.305H-12.1679V133.281ZM-161.912 133.281H-158.776V122.305H-161.912V133.281ZM-144.664 161.505H-147.8V150.529H-144.664V161.505ZM-143.096 161.505H-139.96V150.529H-143.096V161.505ZM-168.184 161.505H-171.32V150.529H-168.184V161.505ZM-157.208 161.505H-154.072V150.529H-157.208V161.505ZM-149.368 161.505H-152.504V150.529H-149.368V161.505ZM-270.104 161.505H-266.968V150.529H-270.104V161.505ZM-271.672 161.505H-274.808V150.529H-271.672V161.505ZM-231.688 161.505H-228.552V150.529H-231.688V161.505ZM-223.848 161.505H-226.984V150.529H-223.848V161.505ZM-260.696 161.505H-257.56V150.529H-260.696V161.505ZM-219.144 161.505H-222.28V150.529H-219.144V161.505ZM-217.576 161.505H-214.44V150.529H-217.576V161.505ZM-209.736 161.505H-212.872V150.529H-209.736V161.505ZM-319.496 161.505H-316.36L-316.36 150.529H-319.496L-319.496 161.505ZM-179.16 147.393H-182.296V136.417H-179.16V147.393ZM-177.592 147.393H-174.456V136.417H-177.592V147.393ZM-63.9119 147.393H-67.0479V136.417H-63.9119V147.393ZM-85.08 147.393H-81.944V136.417H-85.08V147.393ZM-92.136 147.393H-95.272V136.417H-92.136V147.393ZM-74.104 147.393H-70.968V136.417H-74.104V147.393ZM-132.12 147.393H-135.256V136.417H-132.12V147.393ZM-245.8 147.393H-242.664V136.417H-245.8V147.393ZM-202.68 133.281H-205.816V122.305H-202.68V133.281ZM-182.296 133.281H-179.16V122.305H-182.296V133.281ZM-321.064 161.505H-324.2V150.529H-321.064L-321.064 161.505ZM-250.504 147.393H-247.368V136.417H-250.504V147.393ZM-288.136 147.393H-291.272V136.417H-288.136V147.393ZM-295.976 147.393H-292.84L-292.84 136.417H-295.976L-295.976 147.393ZM-297.544 147.393H-300.68L-300.68 136.417H-297.544L-297.544 147.393ZM-305.384 147.393H-302.248L-302.248 136.417H-305.384L-305.384 147.393ZM-306.952 147.393H-310.088L-310.088 136.417H-306.952L-306.952 147.393ZM-314.792 147.393H-311.656L-311.656 136.417H-314.792L-314.792 147.393ZM-207.384 133.281H-210.52V122.305H-207.384V133.281ZM-299.896 133.281H-296.76L-296.76 122.305H-299.896L-299.896 133.281ZM-262.264 133.281H-265.4V122.305H-262.264V133.281ZM-260.696 133.281H-257.56V122.305H-260.696V133.281ZM-252.856 133.281H-255.992V122.305H-252.856V133.281ZM-274.808 133.281H-271.672V122.305H-274.808V133.281ZM-281.08 133.281H-284.216V122.305H-281.08V133.281ZM-304.6 133.281H-301.464L-301.464 122.305H-304.6L-304.6 133.281Z" fill="url(#paint1_linear)"/>
</g>
<g clip-path="url(#clip2)">
<path d="M219.416 49.0044L219.432 49.3793H219.808C233.481 49.3793 244.64 60.0718 244.64 73.1019C244.64 86.1319 233.481 96.8244 219.808 96.8244H129.392V75.527C130.14 64.8995 139.288 56.6137 150.441 56.6137H154.224H154.616V56.2217V51.3988V51.3903L154.616 51.3817C153.87 34.2558 167.806 19.9515 185.77 19.2359C203.729 18.5205 218.669 31.8708 219.416 49.0044Z" fill="#111111" stroke="white" stroke-width="0.784" stroke-miterlimit="10"/>
<path d="M180.092 74.3116L178.954 70.6377H174.401L173.245 74.3116H172.176L176.005 62.2725H177.367L181.179 74.3116H180.092ZM176.729 63.3763H176.608L174.642 69.7408H178.695L176.729 63.3763Z" fill="#4BA3C9"/>
<path d="M183.518 74.3116V62.2725H187.83C188.899 62.2725 189.71 62.5772 190.262 63.1866C190.814 63.7845 191.09 64.6067 191.09 65.6531C191.09 66.6994 190.814 67.5274 190.262 68.1368C189.71 68.7347 188.899 69.0337 187.83 69.0337H184.553V74.3116H183.518ZM184.553 68.1368H187.813C188.537 68.1368 189.083 67.9413 189.451 67.5503C189.819 67.1594 190.003 66.665 190.003 66.067V65.2391C190.003 64.6412 189.819 64.1467 189.451 63.7558C189.083 63.3648 188.537 63.1694 187.813 63.1694H184.553V68.1368Z" fill="#4BA3C9"/>
<path d="M193.688 74.3116V73.4837H196.844V63.1004H193.688V62.2725H201.035V63.1004H197.879V73.4837H201.035V74.3116H193.688Z" fill="#4BA3C9"/>
</g>
<rect x="137.232" y="134.456" width="99.568" height="99.568" rx="1.96" fill="#111111" stroke="white" stroke-width="0.784"/>
<rect x="143.504" y="140.728" width="87.024" height="87.024" rx="1.96" stroke="white" stroke-width="0.784"/>
<path d="M176.677 190.551C176.137 190.551 175.654 190.499 175.229 190.395C174.803 190.292 174.418 190.154 174.073 189.982C173.728 189.798 173.418 189.579 173.142 189.326C172.877 189.073 172.636 188.797 172.417 188.498L173.176 187.877C173.625 188.452 174.119 188.895 174.659 189.205C175.2 189.504 175.884 189.654 176.712 189.654C177.678 189.654 178.42 189.441 178.937 189.016C179.454 188.579 179.713 187.952 179.713 187.136C179.713 186.388 179.495 185.836 179.058 185.48C178.632 185.123 178.023 184.882 177.229 184.755L175.884 184.531C175.286 184.428 174.786 184.272 174.384 184.065C173.993 183.858 173.676 183.617 173.435 183.341C173.193 183.054 173.021 182.737 172.917 182.392C172.825 182.047 172.779 181.691 172.779 181.323C172.779 180.242 173.13 179.437 173.832 178.908C174.544 178.368 175.499 178.098 176.695 178.098C177.672 178.098 178.471 178.259 179.092 178.581C179.725 178.891 180.231 179.322 180.61 179.874L179.886 180.512C179.541 180.029 179.115 179.656 178.609 179.391C178.115 179.127 177.465 178.995 176.66 178.995C175.763 178.995 175.062 179.19 174.556 179.581C174.062 179.96 173.814 180.53 173.814 181.289C173.814 181.99 174.021 182.525 174.435 182.893C174.849 183.249 175.464 183.491 176.281 183.617L177.609 183.841C178.218 183.945 178.724 184.106 179.127 184.324C179.529 184.531 179.851 184.778 180.093 185.066C180.334 185.353 180.501 185.67 180.593 186.014C180.696 186.359 180.748 186.722 180.748 187.101C180.748 188.205 180.392 189.056 179.679 189.654C178.966 190.252 177.965 190.551 176.677 190.551Z" fill="#4BA3C9"/>
<path d="M183.57 178.305H186.847C188.307 178.305 189.383 178.816 190.072 179.84C190.774 180.852 191.125 182.346 191.125 184.324C191.125 186.313 190.774 187.814 190.072 188.826C189.383 189.838 188.307 190.344 186.847 190.344H183.57V178.305ZM186.813 189.447C187.905 189.447 188.71 189.067 189.227 188.308C189.756 187.538 190.021 186.469 190.021 185.1V183.548C190.021 182.18 189.756 181.116 189.227 180.357C188.71 179.587 187.905 179.202 186.813 179.202H184.605V189.447H186.813Z" fill="#4BA3C9"/>
<path d="M196.792 184.134L194.843 186.377V190.344H193.809V178.305H194.843V185.014H194.878L196.775 182.772L200.621 178.305H201.863L197.5 183.376L201.95 190.344H200.742L196.792 184.134Z" fill="#4BA3C9"/>
<defs>
<linearGradient id="paint0_linear" x1="-27.2" y1="122.305" x2="526.304" y2="161.505" gradientUnits="userSpaceOnUse">
<stop offset="0.513706" stop-color="#4BA3C9"/>
</linearGradient>
<linearGradient id="paint1_linear" x1="-324.2" y1="122.305" x2="229.304" y2="161.505" gradientUnits="userSpaceOnUse">
<stop offset="0.513706" stop-color="#4BA3C9"/>
</linearGradient>
<clipPath id="clip0">
<rect width="294" height="182.672" fill="white" transform="translate(110 37.6318)"/>
</clipPath>
<clipPath id="clip1">
<rect width="294" height="182.672" fill="white" transform="translate(-187 37.6318)"/>
</clipPath>
<clipPath id="clip2">
<rect width="116.032" height="116.032" fill="white" transform="translate(129)"/>
</clipPath>
</defs>
</svg>
