<?xml version="1.0" encoding="utf-8"?>
<svg id="master-artboard" viewBox="0 0 1400 980" version="1.1" xmlns="http://www.w3.org/2000/svg" x="0px" y="0px" style="enable-background:new 0 0 1400 980;" width="1400px" height="980px" xmlns:xlink="http://www.w3.org/1999/xlink"><defs><linearGradient id="linear-gradient" x1="148.01" y1="286.09" x2="250.31" y2="286.09" gradientUnits="userSpaceOnUse"><stop offset="0" stop-color="#f8e926"/><stop offset="1" stop-color="#f69f18"/></linearGradient><linearGradient id="linear-gradient-2" x1="148.01" y1="277.82" x2="250.31" y2="277.82" xlink:href="#linear-gradient"/><linearGradient id="linear-gradient-3" x1="148.01" y1="277.82" x2="250.31" y2="277.82" xlink:href="#linear-gradient"/><linearGradient id="linear-gradient-4" x1="110.77" y1="277.82" x2="213.07" y2="277.82" xlink:href="#linear-gradient"/><linearGradient id="linear-gradient-5" x1="110.77" y1="286.09" x2="213.07" y2="286.09" xlink:href="#linear-gradient"/><linearGradient id="linear-gradient-6" x1="101.49" y1="277.82" x2="203.8" y2="277.82" xlink:href="#linear-gradient"/><linearGradient id="linear-gradient-7" x1="176.3" y1="294.71" x2="278.6" y2="294.71" xlink:href="#linear-gradient"/><linearGradient id="linear-gradient-8" x1="172.24" y1="294.71" x2="274.54" y2="294.71" xlink:href="#linear-gradient"/><linearGradient id="linear-gradient-9" x1="147.88" y1="302.97" x2="250.19" y2="302.97" xlink:href="#linear-gradient"/><linearGradient id="linear-gradient-10" x1="147.88" y1="294.71" x2="250.19" y2="294.71" xlink:href="#linear-gradient"/><linearGradient id="linear-gradient-11" x1="146.14" y1="302.97" x2="248.45" y2="302.97" xlink:href="#linear-gradient"/><linearGradient id="linear-gradient-12" x1="146.14" y1="294.71" x2="248.45" y2="294.71" xlink:href="#linear-gradient"/><linearGradient id="linear-gradient-13" x1="110.64" y1="302.97" x2="212.95" y2="302.97" xlink:href="#linear-gradient"/><linearGradient id="linear-gradient-14" x1="110.64" y1="294.71" x2="212.95" y2="294.71" xlink:href="#linear-gradient"/><linearGradient id="linear-gradient-15" x1="110.06" y1="294.71" x2="212.37" y2="294.71" xlink:href="#linear-gradient"/><linearGradient id="linear-gradient-16" x1="110.06" y1="302.97" x2="212.37" y2="302.97" xlink:href="#linear-gradient"/><linearGradient id="linear-gradient-17" x1="110.06" y1="294.71" x2="212.37" y2="294.71" xlink:href="#linear-gradient"/><linearGradient id="linear-gradient-18" x1="103.1" y1="302.97" x2="205.41" y2="302.97" xlink:href="#linear-gradient"/><linearGradient id="linear-gradient-19" x1="103.1" y1="294.71" x2="205.41" y2="294.71" xlink:href="#linear-gradient"/><linearGradient id="linear-gradient-20" x1="101.37" y1="302.97" x2="203.67" y2="302.97" xlink:href="#linear-gradient"/><linearGradient id="linear-gradient-21" x1="101.37" y1="294.71" x2="203.67" y2="294.71" xlink:href="#linear-gradient"/><linearGradient id="linear-gradient-22" x1="184.39" y1="319.09" x2="286.69" y2="319.09" xlink:href="#linear-gradient"/><linearGradient id="linear-gradient-23" x1="184.39" y1="310.83" x2="286.69" y2="310.83" xlink:href="#linear-gradient"/><linearGradient id="linear-gradient-24" x1="176.27" y1="319.09" x2="278.58" y2="319.09" xlink:href="#linear-gradient"/><linearGradient id="linear-gradient-25" x1="176.27" y1="310.83" x2="278.58" y2="310.83" xlink:href="#linear-gradient"/><linearGradient id="linear-gradient-26" x1="147.86" y1="319.09" x2="250.16" y2="319.09" xlink:href="#linear-gradient"/><linearGradient id="linear-gradient-27" x1="147.86" y1="310.83" x2="250.16" y2="310.83" xlink:href="#linear-gradient"/><linearGradient id="linear-gradient-28" x1="146.12" y1="319.09" x2="248.42" y2="319.09" xlink:href="#linear-gradient"/><linearGradient id="linear-gradient-29" x1="146.12" y1="310.83" x2="248.42" y2="310.83" xlink:href="#linear-gradient"/><linearGradient id="linear-gradient-30" x1="110.62" y1="310.83" x2="212.92" y2="310.83" xlink:href="#linear-gradient"/><linearGradient id="linear-gradient-31" x1="110.62" y1="319.09" x2="212.92" y2="319.09" xlink:href="#linear-gradient"/><linearGradient id="linear-gradient-32" x1="110.04" y1="319.09" x2="212.34" y2="319.09" xlink:href="#linear-gradient"/><linearGradient id="linear-gradient-33" x1="110.04" y1="310.83" x2="212.34" y2="310.83" xlink:href="#linear-gradient"/><linearGradient id="linear-gradient-34" x1="103.08" y1="310.83" x2="205.38" y2="310.83" xlink:href="#linear-gradient"/><linearGradient id="linear-gradient-35" x1="103.08" y1="319.09" x2="205.38" y2="319.09" xlink:href="#linear-gradient"/><linearGradient id="linear-gradient-36" x1="103.66" y1="319.09" x2="205.97" y2="319.09" xlink:href="#linear-gradient"/><linearGradient id="linear-gradient-37" x1="103.66" y1="310.83" x2="205.97" y2="310.83" xlink:href="#linear-gradient"/><linearGradient id="linear-gradient-38" x1="104.24" y1="319.09" x2="206.55" y2="319.09" xlink:href="#linear-gradient"/><linearGradient id="linear-gradient-39" x1="104.24" y1="310.83" x2="206.55" y2="310.83" xlink:href="#linear-gradient"/><linearGradient id="linear-gradient-40" x1="147.74" y1="326.94" x2="250.04" y2="326.94" xlink:href="#linear-gradient"/><linearGradient id="linear-gradient-41" x1="147.73" y1="326.94" x2="250.04" y2="326.94" xlink:href="#linear-gradient"/><linearGradient id="linear-gradient-42" x1="659.69" y1="284.25" x2="703.47" y2="284.25" gradientUnits="userSpaceOnUse"><stop offset="0" stop-color="#005d8e"/><stop offset="0.44" stop-color="#00849f"/><stop offset="0.79" stop-color="#009da9"/><stop offset="1" stop-color="#00a6ad"/></linearGradient><linearGradient id="linear-gradient-43" x1="661.28" y1="284.25" x2="705.06" y2="284.25" xlink:href="#linear-gradient-42"/><linearGradient id="linear-gradient-44" x1="666.04" y1="284.25" x2="709.82" y2="284.25" xlink:href="#linear-gradient-42"/><linearGradient id="linear-gradient-45" x1="669.22" y1="284.25" x2="712.99" y2="284.25" xlink:href="#linear-gradient-42"/><linearGradient id="linear-gradient-46" x1="670.8" y1="284.25" x2="714.58" y2="284.25" xlink:href="#linear-gradient-42"/><linearGradient id="linear-gradient-47" x1="672.39" y1="284.25" x2="716.17" y2="284.25" xlink:href="#linear-gradient-42"/><linearGradient id="linear-gradient-48" x1="654.93" y1="291.47" x2="698.71" y2="291.47" xlink:href="#linear-gradient-42"/><linearGradient id="linear-gradient-49" x1="656.52" y1="291.47" x2="700.3" y2="291.47" xlink:href="#linear-gradient-42"/><linearGradient id="linear-gradient-50" x1="658.11" y1="291.47" x2="701.88" y2="291.47" xlink:href="#linear-gradient-42"/><linearGradient id="linear-gradient-51" x1="666.04" y1="291.47" x2="709.82" y2="291.47" xlink:href="#linear-gradient-42"/><linearGradient id="linear-gradient-52" x1="667.63" y1="291.47" x2="711.41" y2="291.47" xlink:href="#linear-gradient-42"/><linearGradient id="linear-gradient-53" x1="669.22" y1="291.47" x2="712.99" y2="291.47" xlink:href="#linear-gradient-42"/><linearGradient id="linear-gradient-54" x1="651.76" y1="298.69" x2="695.54" y2="298.69" xlink:href="#linear-gradient-42"/><linearGradient id="linear-gradient-55" x1="653.34" y1="298.69" x2="697.12" y2="298.69" xlink:href="#linear-gradient-42"/><linearGradient id="linear-gradient-56" x1="654.93" y1="298.69" x2="698.71" y2="298.69" xlink:href="#linear-gradient-42"/><linearGradient id="linear-gradient-57" x1="658.11" y1="298.69" x2="701.88" y2="298.69" xlink:href="#linear-gradient-42"/><linearGradient id="linear-gradient-58" x1="659.69" y1="298.69" x2="703.47" y2="298.69" xlink:href="#linear-gradient-42"/><linearGradient id="linear-gradient-59" x1="662.87" y1="298.69" x2="706.65" y2="298.69" xlink:href="#linear-gradient-42"/><linearGradient id="linear-gradient-60" x1="664.45" y1="298.69" x2="708.23" y2="298.69" xlink:href="#linear-gradient-42"/><linearGradient id="linear-gradient-61" x1="666.04" y1="298.69" x2="709.82" y2="298.69" xlink:href="#linear-gradient-42"/><linearGradient id="linear-gradient-62" x1="667.63" y1="298.69" x2="711.41" y2="298.69" xlink:href="#linear-gradient-42"/><linearGradient id="linear-gradient-63" x1="669.22" y1="298.69" x2="712.99" y2="298.69" xlink:href="#linear-gradient-42"/><linearGradient id="linear-gradient-64" x1="670.8" y1="298.69" x2="714.58" y2="298.69" xlink:href="#linear-gradient-42"/><linearGradient id="linear-gradient-65" x1="672.39" y1="298.69" x2="716.17" y2="298.69" xlink:href="#linear-gradient-42"/><linearGradient id="linear-gradient-66" x1="651.76" y1="305.91" x2="695.54" y2="305.91" xlink:href="#linear-gradient-42"/><linearGradient id="linear-gradient-67" x1="653.34" y1="305.91" x2="697.12" y2="305.91" xlink:href="#linear-gradient-42"/><linearGradient id="linear-gradient-68" x1="654.93" y1="305.91" x2="698.71" y2="305.91" xlink:href="#linear-gradient-42"/><linearGradient id="linear-gradient-69" x1="658.11" y1="305.91" x2="701.88" y2="305.91" xlink:href="#linear-gradient-42"/><linearGradient id="linear-gradient-70" x1="659.69" y1="305.91" x2="703.47" y2="305.91" xlink:href="#linear-gradient-42"/><linearGradient id="linear-gradient-71" x1="661.28" y1="305.91" x2="705.06" y2="305.91" xlink:href="#linear-gradient-42"/><linearGradient id="linear-gradient-72" x1="664.45" y1="305.91" x2="708.23" y2="305.91" xlink:href="#linear-gradient-42"/><linearGradient id="linear-gradient-73" x1="666.04" y1="305.91" x2="709.82" y2="305.91" xlink:href="#linear-gradient-42"/><linearGradient id="linear-gradient-74" x1="667.63" y1="305.91" x2="711.41" y2="305.91" xlink:href="#linear-gradient-42"/><linearGradient id="linear-gradient-75" x1="669.22" y1="305.91" x2="712.99" y2="305.91" xlink:href="#linear-gradient-42"/><linearGradient id="linear-gradient-76" x1="670.8" y1="305.91" x2="714.58" y2="305.91" xlink:href="#linear-gradient-42"/><linearGradient id="linear-gradient-77" x1="659.69" y1="313.14" x2="703.47" y2="313.14" xlink:href="#linear-gradient-42"/><linearGradient id="linear-gradient-78" x1="661.28" y1="313.14" x2="705.06" y2="313.14" xlink:href="#linear-gradient-42"/><linearGradient id="linear-gradient-79" x1="664.45" y1="313.14" x2="708.23" y2="313.14" xlink:href="#linear-gradient-42"/><linearGradient id="linear-gradient-80" x1="666.04" y1="313.14" x2="709.82" y2="313.14" xlink:href="#linear-gradient-42"/><linearGradient id="linear-gradient-81" x1="669.22" y1="313.14" x2="712.99" y2="313.14" xlink:href="#linear-gradient-42"/><linearGradient id="linear-gradient-82" x1="670.8" y1="313.14" x2="714.58" y2="313.14" xlink:href="#linear-gradient-42"/><linearGradient id="linear-gradient-83" x1="672.39" y1="313.14" x2="716.17" y2="313.14" xlink:href="#linear-gradient-42"/><linearGradient id="linear-gradient-84" x1="659.69" y1="320.36" x2="703.47" y2="320.36" xlink:href="#linear-gradient-42"/><linearGradient id="linear-gradient-85" x1="661.28" y1="320.36" x2="705.06" y2="320.36" xlink:href="#linear-gradient-42"/><linearGradient id="linear-gradient-86" x1="664.45" y1="320.36" x2="708.23" y2="320.36" xlink:href="#linear-gradient-42"/><linearGradient id="linear-gradient-87" x1="666.04" y1="320.36" x2="709.82" y2="320.36" xlink:href="#linear-gradient-42"/><linearGradient id="linear-gradient-88" x1="669.22" y1="320.36" x2="712.99" y2="320.36" xlink:href="#linear-gradient-42"/><linearGradient id="linear-gradient-89" x1="659.69" y1="327.58" x2="703.47" y2="327.58" xlink:href="#linear-gradient-42"/><linearGradient id="linear-gradient-90" x1="661.28" y1="327.58" x2="705.06" y2="327.58" xlink:href="#linear-gradient-42"/><linearGradient id="linear-gradient-91" x1="662.87" y1="327.58" x2="706.65" y2="327.58" xlink:href="#linear-gradient-42"/><linearGradient id="linear-gradient-92" x1="664.45" y1="327.58" x2="708.23" y2="327.58" xlink:href="#linear-gradient-42"/><linearGradient id="linear-gradient-93" x1="666.04" y1="327.58" x2="709.82" y2="327.58" xlink:href="#linear-gradient-42"/><linearGradient id="linear-gradient-94" x1="651.76" y1="334.81" x2="695.54" y2="334.81" xlink:href="#linear-gradient-42"/><linearGradient id="linear-gradient-95" x1="658.11" y1="334.81" x2="701.88" y2="334.81" xlink:href="#linear-gradient-42"/><linearGradient id="linear-gradient-96" x1="659.69" y1="334.81" x2="703.47" y2="334.81" xlink:href="#linear-gradient-42"/><linearGradient id="linear-gradient-97" x1="661.28" y1="334.81" x2="705.06" y2="334.81" xlink:href="#linear-gradient-42"/><linearGradient id="linear-gradient-98" x1="667.63" y1="334.81" x2="711.41" y2="334.81" xlink:href="#linear-gradient-42"/><linearGradient id="linear-gradient-99" x1="394.2" y1="302.3" x2="421.41" y2="302.3" gradientUnits="userSpaceOnUse"><stop offset="0" stop-color="#068537"/><stop offset="0.14" stop-color="#0a8736"/><stop offset="0.27" stop-color="#168c33"/><stop offset="0.4" stop-color="#2a942e"/><stop offset="0.54" stop-color="#479f27"/><stop offset="0.67" stop-color="#6bae1e"/><stop offset="0.8" stop-color="#98c013"/><stop offset="0.94" stop-color="#ccd507"/><stop offset="1" stop-color="#e7e000"/></linearGradient><linearGradient id="linear-gradient-100" x1="402.58" y1="302.3" x2="429.78" y2="302.3" xlink:href="#linear-gradient-99"/><linearGradient id="linear-gradient-101" x1="404.25" y1="302.3" x2="431.46" y2="302.3" xlink:href="#linear-gradient-99"/><linearGradient id="linear-gradient-102" x1="405.93" y1="302.3" x2="433.13" y2="302.3" xlink:href="#linear-gradient-99"/><linearGradient id="linear-gradient-103" x1="407.6" y1="302.3" x2="434.81" y2="302.3" xlink:href="#linear-gradient-99"/><linearGradient id="linear-gradient-104" x1="409.28" y1="302.3" x2="436.48" y2="302.3" xlink:href="#linear-gradient-99"/><linearGradient id="linear-gradient-105" x1="410.95" y1="302.3" x2="438.16" y2="302.3" xlink:href="#linear-gradient-99"/><linearGradient id="linear-gradient-106" x1="412.63" y1="302.3" x2="439.83" y2="302.3" xlink:href="#linear-gradient-99"/><linearGradient id="linear-gradient-107" x1="414.3" y1="302.3" x2="441.51" y2="302.3" xlink:href="#linear-gradient-99"/><linearGradient id="linear-gradient-108" x1="415.97" y1="302.3" x2="443.18" y2="302.3" xlink:href="#linear-gradient-99"/><linearGradient id="linear-gradient-109" x1="394.2" y1="309.92" x2="421.41" y2="309.92" xlink:href="#linear-gradient-99"/><linearGradient id="linear-gradient-110" x1="395.88" y1="309.92" x2="423.08" y2="309.92" xlink:href="#linear-gradient-99"/><linearGradient id="linear-gradient-111" x1="397.55" y1="309.92" x2="424.76" y2="309.92" xlink:href="#linear-gradient-99"/><linearGradient id="linear-gradient-112" x1="400.9" y1="309.92" x2="428.11" y2="309.92" xlink:href="#linear-gradient-99"/><linearGradient id="linear-gradient-113" x1="402.58" y1="309.92" x2="429.78" y2="309.92" xlink:href="#linear-gradient-99"/><linearGradient id="linear-gradient-114" x1="404.25" y1="309.92" x2="431.46" y2="309.92" xlink:href="#linear-gradient-99"/><linearGradient id="linear-gradient-115" x1="405.93" y1="309.92" x2="433.13" y2="309.92" xlink:href="#linear-gradient-99"/><linearGradient id="linear-gradient-116" x1="407.6" y1="309.92" x2="434.81" y2="309.92" xlink:href="#linear-gradient-99"/><linearGradient id="linear-gradient-117" x1="409.28" y1="309.92" x2="436.48" y2="309.92" xlink:href="#linear-gradient-99"/><linearGradient id="linear-gradient-118" x1="410.95" y1="309.92" x2="438.16" y2="309.92" xlink:href="#linear-gradient-99"/><linearGradient id="linear-gradient-119" x1="412.63" y1="309.92" x2="439.83" y2="309.92" xlink:href="#linear-gradient-99"/><linearGradient id="linear-gradient-120" x1="394.2" y1="317.54" x2="421.41" y2="317.54" xlink:href="#linear-gradient-99"/><linearGradient id="linear-gradient-121" x1="395.88" y1="317.54" x2="423.08" y2="317.54" xlink:href="#linear-gradient-99"/><linearGradient id="linear-gradient-122" x1="399.23" y1="317.54" x2="426.43" y2="317.54" xlink:href="#linear-gradient-99"/><linearGradient id="linear-gradient-123" x1="402.58" y1="317.54" x2="429.78" y2="317.54" xlink:href="#linear-gradient-99"/><linearGradient id="linear-gradient-124" x1="404.25" y1="317.54" x2="431.46" y2="317.54" xlink:href="#linear-gradient-99"/><linearGradient id="linear-gradient-125" x1="405.93" y1="317.54" x2="433.13" y2="317.54" xlink:href="#linear-gradient-99"/><linearGradient id="linear-gradient-126" x1="410.95" y1="317.54" x2="438.16" y2="317.54" xlink:href="#linear-gradient-99"/><linearGradient id="linear-gradient-127" x1="412.63" y1="317.54" x2="439.83" y2="317.54" xlink:href="#linear-gradient-99"/><linearGradient id="linear-gradient-128" x1="414.3" y1="317.54" x2="441.51" y2="317.54" xlink:href="#linear-gradient-99"/><linearGradient id="linear-gradient-129" x1="415.97" y1="317.54" x2="443.18" y2="317.54" xlink:href="#linear-gradient-99"/><linearGradient id="linear-gradient-130" x1="395.88" y1="325.16" x2="423.08" y2="325.16" xlink:href="#linear-gradient-99"/><linearGradient id="linear-gradient-131" x1="397.55" y1="325.16" x2="424.76" y2="325.16" xlink:href="#linear-gradient-99"/><linearGradient id="linear-gradient-132" x1="399.23" y1="325.16" x2="426.43" y2="325.16" xlink:href="#linear-gradient-99"/><linearGradient id="linear-gradient-133" x1="400.9" y1="325.16" x2="428.11" y2="325.16" xlink:href="#linear-gradient-99"/><linearGradient id="linear-gradient-134" x1="402.58" y1="325.16" x2="429.78" y2="325.16" xlink:href="#linear-gradient-99"/><linearGradient id="linear-gradient-135" x1="404.25" y1="325.16" x2="431.46" y2="325.16" xlink:href="#linear-gradient-99"/><linearGradient id="linear-gradient-136" x1="412.63" y1="325.16" x2="439.83" y2="325.16" xlink:href="#linear-gradient-99"/><linearGradient id="linear-gradient-137" x1="414.3" y1="325.16" x2="441.51" y2="325.16" xlink:href="#linear-gradient-99"/><linearGradient id="linear-gradient-138" x1="415.97" y1="325.16" x2="443.18" y2="325.16" xlink:href="#linear-gradient-99"/><linearGradient id="linear-gradient-139" x1="397.55" y1="332.78" x2="424.76" y2="332.78" xlink:href="#linear-gradient-99"/><linearGradient id="linear-gradient-140" x1="399.23" y1="332.78" x2="426.43" y2="332.78" xlink:href="#linear-gradient-99"/><linearGradient id="linear-gradient-141" x1="400.9" y1="332.78" x2="428.11" y2="332.78" xlink:href="#linear-gradient-99"/><linearGradient id="linear-gradient-142" x1="402.58" y1="332.78" x2="429.78" y2="332.78" xlink:href="#linear-gradient-99"/><linearGradient id="linear-gradient-143" x1="404.25" y1="332.78" x2="431.46" y2="332.78" xlink:href="#linear-gradient-99"/><linearGradient id="linear-gradient-144" x1="414.3" y1="332.78" x2="441.51" y2="332.78" xlink:href="#linear-gradient-99"/><linearGradient id="linear-gradient-145" x1="415.97" y1="332.78" x2="443.18" y2="332.78" xlink:href="#linear-gradient-99"/><linearGradient id="linear-gradient-146" x1="417.65" y1="332.78" x2="444.85" y2="332.78" xlink:href="#linear-gradient-99"/><linearGradient id="linear-gradient-147" x1="397.55" y1="340.41" x2="424.76" y2="340.41" xlink:href="#linear-gradient-99"/><linearGradient id="linear-gradient-148" x1="404.25" y1="340.41" x2="431.46" y2="340.41" xlink:href="#linear-gradient-99"/><linearGradient id="linear-gradient-149" x1="409.28" y1="340.41" x2="436.48" y2="340.41" xlink:href="#linear-gradient-99"/><linearGradient id="linear-gradient-150" x1="394.2" y1="348.03" x2="421.41" y2="348.03" xlink:href="#linear-gradient-99"/><linearGradient id="linear-gradient-151" x1="395.88" y1="348.03" x2="423.08" y2="348.03" xlink:href="#linear-gradient-99"/><linearGradient id="linear-gradient-152" x1="397.55" y1="348.03" x2="424.76" y2="348.03" xlink:href="#linear-gradient-99"/><linearGradient id="linear-gradient-153" x1="404.25" y1="348.03" x2="431.46" y2="348.03" xlink:href="#linear-gradient-99"/><linearGradient id="linear-gradient-154" x1="409.28" y1="348.03" x2="436.48" y2="348.03" xlink:href="#linear-gradient-99"/><linearGradient id="gradient-1" x1="148.01" y1="286.09" x2="250.31" y2="286.09" gradientUnits="userSpaceOnUse"><stop offset="0" stop-color="#f8e926"/><stop offset="1" stop-color="#f69f18"/></linearGradient><linearGradient id="gradient-2" x1="148.01" y1="277.82" x2="250.31" y2="277.82" xlink:href="#gradient-1"/><linearGradient id="gradient-3" x1="148.01" y1="277.82" x2="250.31" y2="277.82" xlink:href="#gradient-1"/><linearGradient id="gradient-4" x1="110.77" y1="277.82" x2="213.07" y2="277.82" xlink:href="#gradient-1"/><linearGradient id="gradient-5" x1="110.77" y1="286.09" x2="213.07" y2="286.09" xlink:href="#gradient-1"/><linearGradient id="gradient-6" x1="101.49" y1="277.82" x2="203.8" y2="277.82" xlink:href="#gradient-1"/><linearGradient id="gradient-7" x1="176.3" y1="294.71" x2="278.6" y2="294.71" xlink:href="#gradient-1"/><linearGradient id="gradient-8" x1="172.24" y1="294.71" x2="274.54" y2="294.71" xlink:href="#gradient-1"/><linearGradient id="gradient-9" x1="147.88" y1="302.97" x2="250.19" y2="302.97" xlink:href="#gradient-1"/><linearGradient id="gradient-10" x1="147.88" y1="294.71" x2="250.19" y2="294.71" xlink:href="#gradient-1"/><linearGradient id="gradient-11" x1="146.14" y1="302.97" x2="248.45" y2="302.97" xlink:href="#gradient-1"/><linearGradient id="gradient-12" x1="146.14" y1="294.71" x2="248.45" y2="294.71" xlink:href="#gradient-1"/><linearGradient id="gradient-13" x1="110.64" y1="302.97" x2="212.95" y2="302.97" xlink:href="#gradient-1"/><linearGradient id="gradient-14" x1="110.64" y1="294.71" x2="212.95" y2="294.71" xlink:href="#gradient-1"/><linearGradient id="gradient-15" x1="110.06" y1="294.71" x2="212.37" y2="294.71" xlink:href="#gradient-1"/><linearGradient id="gradient-16" x1="110.06" y1="302.97" x2="212.37" y2="302.97" xlink:href="#gradient-1"/><linearGradient id="gradient-17" x1="110.06" y1="294.71" x2="212.37" y2="294.71" xlink:href="#gradient-1"/><linearGradient id="gradient-18" x1="103.1" y1="302.97" x2="205.41" y2="302.97" xlink:href="#gradient-1"/><linearGradient id="gradient-19" x1="103.1" y1="294.71" x2="205.41" y2="294.71" xlink:href="#gradient-1"/><linearGradient id="gradient-20" x1="101.37" y1="302.97" x2="203.67" y2="302.97" xlink:href="#gradient-1"/><linearGradient id="gradient-21" x1="101.37" y1="294.71" x2="203.67" y2="294.71" xlink:href="#gradient-1"/><linearGradient id="gradient-22" x1="184.39" y1="319.09" x2="286.69" y2="319.09" xlink:href="#gradient-1"/><linearGradient id="gradient-23" x1="184.39" y1="310.83" x2="286.69" y2="310.83" xlink:href="#gradient-1"/><linearGradient id="gradient-24" x1="176.27" y1="319.09" x2="278.58" y2="319.09" xlink:href="#gradient-1"/><linearGradient id="gradient-25" x1="176.27" y1="310.83" x2="278.58" y2="310.83" xlink:href="#gradient-1"/><linearGradient id="gradient-26" x1="147.86" y1="319.09" x2="250.16" y2="319.09" xlink:href="#gradient-1"/><linearGradient id="gradient-27" x1="147.86" y1="310.83" x2="250.16" y2="310.83" xlink:href="#gradient-1"/><linearGradient id="gradient-28" x1="146.12" y1="319.09" x2="248.42" y2="319.09" xlink:href="#gradient-1"/><linearGradient id="gradient-29" x1="146.12" y1="310.83" x2="248.42" y2="310.83" xlink:href="#gradient-1"/><linearGradient id="gradient-30" x1="110.62" y1="310.83" x2="212.92" y2="310.83" xlink:href="#gradient-1"/><linearGradient id="gradient-31" x1="110.62" y1="319.09" x2="212.92" y2="319.09" xlink:href="#gradient-1"/><linearGradient id="gradient-32" x1="110.04" y1="319.09" x2="212.34" y2="319.09" xlink:href="#gradient-1"/><linearGradient id="gradient-33" x1="110.04" y1="310.83" x2="212.34" y2="310.83" xlink:href="#gradient-1"/><linearGradient id="gradient-34" x1="103.08" y1="310.83" x2="205.38" y2="310.83" xlink:href="#gradient-1"/><linearGradient id="gradient-35" x1="103.08" y1="319.09" x2="205.38" y2="319.09" xlink:href="#gradient-1"/><linearGradient id="gradient-36" x1="103.66" y1="319.09" x2="205.97" y2="319.09" xlink:href="#gradient-1"/><linearGradient id="gradient-37" x1="103.66" y1="310.83" x2="205.97" y2="310.83" xlink:href="#gradient-1"/><linearGradient id="gradient-38" x1="104.24" y1="319.09" x2="206.55" y2="319.09" xlink:href="#gradient-1"/><linearGradient id="gradient-39" x1="104.24" y1="310.83" x2="206.55" y2="310.83" xlink:href="#gradient-1"/><linearGradient id="gradient-40" x1="147.74" y1="326.94" x2="250.04" y2="326.94" xlink:href="#gradient-1"/><linearGradient id="gradient-41" x1="147.73" y1="326.94" x2="250.04" y2="326.94" xlink:href="#gradient-1"/></defs><rect id="ee-background" x="0" y="0" width="1400" height="465" style="fill: rgb(0, 0, 0); fill-opacity: 0; pointer-events: none;" transform="matrix(1, 0, 0, 1, -0.0000044165622057334986, 257.5)"/><title>Sciences</title><path d="M 394.9450378417969 375.7201232910156" style="fill: rgb(255, 255, 255); fill-opacity: 0; stroke: rgb(255, 255, 255); stroke-opacity: 1; stroke-width: 0.5; paint-order: stroke;" transform="matrix(1.6447720527648926, 0, 0, 1.6447720527648926, -77.0458265601169, 41.7908935546875)"/><g transform="matrix(7.536957263946533, 0, 0, 7.536957263946533, -773.2925585862723, -2834.854977052277)"><path class="cls-1" d="M103.42,269.19v83.86a6.11,6.11,0,0,1-.07.86c0,.07,0,.15,0,.21a5.48,5.48,0,0,1-.3,1c0,.07,0,.14-.08.2a5.35,5.35,0,0,1-.68,1.16l-.08.1a6.47,6.47,0,0,1-.61.67,3.11,3.11,0,0,1-.28.23l-.1.08-.31.23,0,0-.2.12-.22.13-.23.12-.12.06-.12.05-.36.14-.25.09-.13,0-.38.09-.14,0-.13,0-.26,0H62.26a1.55,1.55,0,0,1-.31,0l.12,0a5.76,5.76,0,0,1-5.1-5.71V269.19a5.74,5.74,0,0,1,5.45-5.73H98.28A5.75,5.75,0,0,1,103.42,269.19Z" style="fill: none; stroke: rgb(255, 255, 255); stroke-miterlimit: 10; stroke-width: 0.75px;" transform="matrix(1.1415532827377322, 0, 0, 1.1415532827377322, 68.38609125667308, 80.47555157818739)"/><path class="cls-1" d="M97.67,262.66h-35a6.54,6.54,0,0,0-6.53,6.53v83.86a6.54,6.54,0,0,0,6.53,6.53h35a6.54,6.54,0,0,0,6.54-6.53V269.19A6.54,6.54,0,0,0,97.67,262.66Zm3.9,94.61a3.11,3.11,0,0,1-.28.23l-.1.08-.31.23,0,0-.2.12-.22.13-.23.12-.12.06-.12.05-.36.14-.25.09-.13,0-.38.09-.14,0-.13,0-.26,0H62.26a1.55,1.55,0,0,1-.31,0l.12,0a5.76,5.76,0,0,1-5.1-5.71V269.19a5.74,5.74,0,0,1,5.45-5.73H98.28a5.75,5.75,0,0,1,5.14,5.71v83.86a6.11,6.11,0,0,1-.07.86c0,.07,0,.15,0,.21a5.48,5.48,0,0,1-.3,1c0,.07,0,.14-.08.2a5.35,5.35,0,0,1-.68,1.16l-.08.1A6.47,6.47,0,0,1,101.57,357.27Z" style="fill: none; stroke: rgb(255, 255, 255); stroke-miterlimit: 10; stroke-width: 0.75px;" transform="matrix(1.1415532827377322, 0, 0, 1.1415532827377322, 68.38609125667308, 80.47555157818739)"/><path d="M 77.550002 266.070007 H 82.550002 A 0.29 0.29 0 0 1 82.840002 266.360007 V 266.370007 A 0.29 0.29 0 0 1 82.550002 266.660007 H 77.550002 A 0.29 0.29 0 0 1 77.260002 266.370007 V 266.360007 A 0.29 0.29 0 0 1 77.550002 266.070007 Z" class="cls-2" style="fill: none; stroke: rgb(255, 255, 255); stroke-miterlimit: 10;" transform="matrix(1.1415532827377322, 0, 0, 1.1415532827377322, 68.38609125667308, 80.47555157818739)"/><path class="cls-3" d="M97.9,265.7H92.63a.59.59,0,0,0-.55.53s0,0,0,.06h0a2.78,2.78,0,0,1-2.78,2.66H71.09a2.79,2.79,0,0,1-2.78-2.66h0v-.06a.59.59,0,0,0-.55-.53H62.48a3.5,3.5,0,0,0-3.27,3.49v83.86a3.53,3.53,0,0,0,3.22,3.49H98a3.52,3.52,0,0,0,3.22-3.49V269.19A3.5,3.5,0,0,0,97.9,265.7Z" style="fill: none; stroke-miterlimit: 10; stroke: rgb(249, 214, 0);" transform="matrix(1.1415532827377322, 0, 0, 1.1415532827377322, 68.38609125667308, 80.47555157818739)"/><path class="cls-4" d="M116.45,315a7.92,7.92,0,0,1-1.79-4.1l-.61-4.86c-.13-1.41-5-2.12-9.84-2.13s-9.72.72-9.85,2.13l-.61,4.86A8,8,0,0,1,92,315a11.6,11.6,0,0,1-1.47,1.43s2.6-1.49,4.27-1.4,18.57,0,18.57,0a9.37,9.37,0,0,1,4.27,1.24A8.79,8.79,0,0,1,116.45,315Z" style="stroke: rgb(255, 255, 255); stroke-miterlimit: 10; fill: rgb(19, 19, 19);" transform="matrix(1.1415532827377322, 0, 0, 1.1415532827377322, 68.38609125667308, 80.47555157818739)"/><path class="cls-4" d="M121.61,346.92a8.3,8.3,0,0,1-8.3,8.3H95.1a8.3,8.3,0,0,1-8.3-8.3V323.34a8.3,8.3,0,0,1,8.3-8.3h18.21a8.3,8.3,0,0,1,8.3,8.3Z" style="stroke: rgb(255, 255, 255); stroke-miterlimit: 10; fill: rgb(19, 19, 19);" transform="matrix(1.1415532827377322, 0, 0, 1.1415532827377322, 68.38609125667308, 80.47555157818739)"/><path class="cls-4" d="M120.73,323.34v23.58a7.37,7.37,0,0,1-2.18,5.24l-.3.29-.1.09-.12.09a.27.27,0,0,1-.08.07l-.07.06,0,0-.1.07,0,0-.1.07-.09.06,0,0-.09.06-.11.08h0l-.12.08-.19.11-.15.08-.16.09-.16.08-.17.07-.16.07-.17.07-.31.11-.1,0-.07,0-.07,0-.12,0h0l-.14,0h0l-.11,0-.09,0-.12,0h0l-.15,0h0l-.17,0-.16,0h0l-.33,0H94.37l-.23,0-.13,0-.14,0-.1,0h-.1l-.13,0-.13,0-.11,0h0l-.14,0L93,354l-.13,0-.16-.05-.16-.06-.14-.05-.13,0a5.69,5.69,0,0,1-.56-.26l-.13-.07-.13-.07-.08-.05-.08,0-.06,0-.09-.05-.11-.07h0l-.14-.09h0L90.8,353l-.07,0-.13-.1-.07-.06-.14-.1-.12-.11-.1-.09c-.11-.09-.21-.19-.31-.29a7.36,7.36,0,0,1-2.17-5.24V323.07c0-.05,0-.1,0-.16h0c0-.06,0-.12,0-.18s0-.11,0-.17v0s0-.1,0-.16,0-.09,0-.14,0-.08,0-.12,0-.05,0-.07,0-.07,0-.11l0-.12,0-.15,0-.13c0-.06,0-.11,0-.16v0l0-.12a.56.56,0,0,1,0-.12s0-.09,0-.14l.06-.16v0s0-.09,0-.13v0l.06-.14v0l.06-.14.08-.16a2.1,2.1,0,0,1,.15-.3l0-.11a2.39,2.39,0,0,1,.13-.21l.09-.15a6.88,6.88,0,0,1,.65-.88l.09-.1a4.11,4.11,0,0,1,.29-.3,7.31,7.31,0,0,1,5-2.17h18.61a7.43,7.43,0,0,1,7.22,7.41Z" style="stroke: rgb(255, 255, 255); stroke-miterlimit: 10; fill: rgb(19, 19, 19);" transform="matrix(1.1415532827377322, 0, 0, 1.1415532827377322, 68.38609125667308, 80.47555157818739)"/><path class="cls-5" d="M119,323.34v23.58a5.65,5.65,0,0,1-1.65,4l-.23.21h0l0,0,0,0h0l-.06.05h0l0,0,0,0h0l0,0h0l0,0,0,0h0l0,0-.05,0,0,0h0l0,0,0,0h0l-.08.05,0,0,0,0h0l-.13.08h0l-.09,0h0l-.12.07-.12,0-.13.06-.12.05-.12.05h0l-.23.09-.06,0h-.26l-.08,0h-.31l-.08,0h0l-.13,0H114l-.23,0H94.53l-.15,0h-.13l-.09,0h-.27l-.08,0h-.1l-.08,0h0l-.08,0h0l-.08,0h0l-.12,0-.11,0h0l-.08,0h0l-.08,0h0a3.89,3.89,0,0,1-.42-.19h0l-.07,0h0l-.09,0h0l0,0h0l0,0h0l-.12-.07,0,0-.14-.1h0l0,0h0l-.07-.05,0,0,0,0h0l-.1-.08-.08-.07h0l-.06-.05h0l-.23-.21a5.65,5.65,0,0,1-1.65-4V323.14h0V323h0a.28.28,0,0,0,0-.09h0s0-.06,0-.1h0v-.07h0v0h0s0-.05,0-.08v-.16h0v-.07h0v0a.2.2,0,0,1,0-.07h0s0-.06,0-.08h0l0-.08h0l0-.09v-.06l0-.06h0l0-.08h0l0-.08h0v0a.36.36,0,0,0,0-.11h0l0,0,0-.1h0l0,0,0-.09,0,0h0l0-.08.06-.13h0a1.51,1.51,0,0,1,.11-.22h0s0,0,0-.05h0v0l.08-.15h0l.06-.11h0a6.38,6.38,0,0,1,.49-.67h0l0,0h0l.21-.23a5.65,5.65,0,0,1,3.77-1.65h18.66a5.64,5.64,0,0,1,5.41,5.64Z" style="stroke: rgb(255, 255, 255); stroke-miterlimit: 10; stroke-width: 0.75px; fill: rgb(19, 19, 19);" transform="matrix(1.1415532827377322, 0, 0, 1.1415532827377322, 68.38609125667308, 80.47555157818739)"/><path class="cls-4" d="M118.08,323.37V347a4.74,4.74,0,0,1-1.4,3.37l-.19.18,0,0h0l0,0,0,0,0,0,0,0v0h0l0,0h0l0,0,0,0h0l-.06.05,0,0,0,0h0l-.07.05h0l0,0,0,0,0,0h0l0,0-.1.06h0l-.06,0h0l-.1.05-.09,0-.11,0-.1.05-.11,0h0l-.2.07h-.15l-.05,0h0l0,0h-.42l-.11,0h-20l0,0h0l0,0h-.1l0,0h0l-.07,0-.1,0-.09,0h0l-.06,0h0l-.06,0h0l-.35-.16h0l0,0h0l-.06,0h0l0,0,0,0h0l-.16-.1,0,0-.19-.13h0l0,0s0,0,0,0l0,0h0l0,0-.07-.06h0l0,0,0,0h0l0,0h0l0,0a1.57,1.57,0,0,1-.19-.18,4.74,4.74,0,0,1-1.4-3.37V323.37h0v-.19h0V323h0a.06.06,0,0,0,0,0h0a.2.2,0,0,1,0-.07v-.15h0v-.13h0v-.06h0v-.1s0,0,0,0v-.1h0v0a.43.43,0,0,0,0,0v0a.43.43,0,0,1,0-.05l0-.06V322h0a.14.14,0,0,1,0-.07h0s0,0,0-.06v0l0-.09v0l0-.08h0l0,0a.19.19,0,0,1,0-.07l0-.06h0a.08.08,0,0,0,0-.05l.05-.1h0a1.51,1.51,0,0,0,.09-.18h0l0,0h0l0,0,.07-.12h0a.35.35,0,0,0,0-.08h0a6,6,0,0,1,.42-.57h0l0,0,0,0v0l.18-.18a4.75,4.75,0,0,1,3.21-1.4h18.53a4.79,4.79,0,0,1,4.61,4.77Z" style="stroke: rgb(255, 255, 255); stroke-miterlimit: 10; fill: rgb(19, 19, 19);" transform="matrix(1.1415532827377322, 0, 0, 1.1415532827377322, 68.38609125667308, 80.47555157818739)"/><path class="cls-4" d="M116.45,355.29a7.92,7.92,0,0,0-1.79,4.1l-.61,4.85c-.13,1.42-5,2.13-9.84,2.13s-9.72-.71-9.85-2.13l-.61-4.85a8,8,0,0,0-1.78-4.1,11.6,11.6,0,0,0-1.47-1.43s2.6,1.49,4.27,1.4,18.57,0,18.57,0a9.37,9.37,0,0,0,4.27-1.24A8.79,8.79,0,0,0,116.45,355.29Z" style="stroke: rgb(255, 255, 255); stroke-miterlimit: 10; fill: rgb(19, 19, 19);" transform="matrix(1.1415532827377322, 0, 0, 1.1415532827377322, 68.38609125667308, 80.47555157818739)"/><path class="cls-6" d="M170.59,346.25V337.1a7.53,7.53,0,0,0-7.52-7.53h0a7.53,7.53,0,0,0-7.53,7.53v23.45a9.69,9.69,0,0,1-9.69,9.69h0a9.69,9.69,0,0,1-9.69-9.69v-2.63" style="fill: none; stroke-miterlimit: 10; stroke: rgb(249, 214, 0); stroke-width: 3.42px;" transform="matrix(1.1415532827377322, 0, 0, 1.1415532827377322, 68.38609125667308, 80.47555157818739)"/><path d="M 174.169996 349.910004 A 3.58 3.58 0 0 1 170.589996 353.490004 A 3.58 3.58 0 0 1 167.009996 349.910004 A 3.58 3.58 0 0 1 170.589996 346.330004 A 3.58 3.58 0 0 1 174.169996 349.910004 Z" class="cls-7" style="fill: none; stroke: rgb(255, 255, 255); stroke-linecap: round; stroke-linejoin: round; stroke-width: 4.42px;" transform="matrix(1.1415532827377322, 0, 0, 1.1415532827377322, 68.38609125667308, 80.47555157818739)"/><path d="M 173.449996 349.910004 A 2.86 2.86 0 0 1 170.589996 352.770004 A 2.86 2.86 0 0 1 167.729996 349.910004 A 2.86 2.86 0 0 1 170.589996 347.050004 A 2.86 2.86 0 0 1 173.449996 349.910004 Z" class="cls-8" style="fill: rgb(255, 255, 255);" transform="matrix(1.1415532827377322, 0, 0, 1.1415532827377322, 68.38609125667308, 80.47555157818739)"/><path class="cls-9" d="M131.19,324.2h-2.4a3.68,3.68,0,0,0-3.67,3.67v14.74" style="fill: none; stroke: rgb(255, 255, 255); stroke-linecap: round; stroke-linejoin: round; stroke-width: 2px;" transform="matrix(1.1415532827377322, 0, 0, 1.1415532827377322, 68.38609125667308, 80.47555157818739)"/><path d="M 132.300002 323.100006 H 133.280002 A 1.11 1.11 0 0 1 134.390002 324.210006 V 324.210006 A 1.11 1.11 0 0 1 133.280002 325.320006 H 132.300002 A 1.11 1.11 0 0 1 131.190002 324.210006 V 324.210006 A 1.11 1.11 0 0 1 132.300002 323.100006 Z" class="cls-10" style="fill: none; stroke: rgb(255, 255, 255); stroke-linecap: round; stroke-linejoin: round;" transform="matrix(1.1415532827377322, 0, 0, 1.1415532827377322, 68.38609125667308, 80.47555157818739)"/><path class="cls-9" d="M141.12,324.2h2.4a3.68,3.68,0,0,1,3.67,3.67v14.74" style="fill: none; stroke: rgb(255, 255, 255); stroke-linecap: round; stroke-linejoin: round; stroke-width: 2px;" transform="matrix(1.1415532827377322, 0, 0, 1.1415532827377322, 68.38609125667308, 80.47555157818739)"/><path d="M 139.039993 323.100006 H 140.019993 A 1.11 1.11 0 0 1 141.129993 324.210006 V 324.210006 A 1.11 1.11 0 0 1 140.019993 325.320006 H 139.039993 A 1.11 1.11 0 0 1 137.929993 324.210006 V 324.210006 A 1.11 1.11 0 0 1 139.039993 323.100006 Z" class="cls-10" transform="matrix(-0.5631026625633241, 6.896014184441461e-17, -6.896014184441461e-17, -0.5631026625633241, 292.1313247924397, 628.6475372044081)" style="fill: none; stroke: rgb(255, 255, 255); stroke-linecap: round; stroke-linejoin: round;"/><path class="cls-11" d="M147.19,342.61v4.28a11,11,0,0,1-11,11h0a11,11,0,0,1-11-11v-4.28" style="fill: none; stroke: rgb(255, 255, 255); stroke-linecap: round; stroke-linejoin: round; stroke-width: 5px;" transform="matrix(1.1415532827377322, 0, 0, 1.1415532827377322, 68.38609125667308, 80.47555157818739)"/></g></svg>