<svg xmlns="http://www.w3.org/2000/svg" width="380" height="377" viewBox="0 0 380 377" fill="none">
<g clip-path="url(#clip0)">
<g opacity="0.2">
<path d="M189.503 181.624L190.497 195.549L190.843 200.911L190.497 195.549L189.503 181.624ZM189.503 181.624L189.114 176.262L189.503 181.624Z" stroke="#111111"/>
<path d="M192.831 199.181L187.126 177.819L184.922 169.603L187.126 177.819L192.831 199.181C194.084 203.506 195.035 207.398 195.035 207.398C195.035 207.398 194.084 203.722 192.831 199.181Z" stroke="#111111"/>
<path d="M183.366 174.922L196.633 202.079L201.733 212.544L196.633 202.079L183.366 174.922L178.267 164.327L183.366 174.922Z" stroke="#111111"/>
<path d="M201.517 203.808L178.44 172.975L169.796 161.213L178.44 172.975L201.517 203.635L210.42 215.441L201.517 203.808Z" stroke="#111111"/>
<path d="M172.865 172.976L207.438 204.111L220.402 216.219L207.438 204.068L172.865 172.976ZM172.865 172.976L159.597 160.997L172.865 172.976Z" stroke="#111111"/>
<path d="M213.401 202.554L166.555 174.403L148.577 163.592L166.555 174.403L213.401 202.554L231.422 213.408L213.401 202.554Z" stroke="#111111"/>
<path d="M160.505 177.732L219.496 199.354L242.011 207.571L219.323 199.311L160.333 177.689L137.644 169.429L160.505 177.732Z" stroke="#111111"/>
<path d="M225.026 194.035L154.973 182.965L128.049 178.64L154.973 182.965L225.026 194.035L251.95 198.36L225.026 194.035Z" stroke="#111111"/>
<path d="M150.479 189.884L229.478 187.116L259.729 186.035L229.478 187.116L150.479 189.884ZM150.479 189.884L120.228 190.922L150.479 189.884Z" stroke="#111111"/>
<path d="M232.46 178.684L147.497 198.317L114.826 205.841L147.497 198.317L232.46 178.684L265.132 171.116L232.46 178.684Z" stroke="#111111"/>
<path d="M146.46 207.873L233.368 169.083L266.86 154.164L233.368 169.083L146.287 208.003L112.794 222.965L146.46 207.873Z" stroke="#111111"/>
<path d="M232.374 158.792L147.627 218.165L114.999 241.041L147.627 218.165L232.374 158.792ZM232.374 158.792L264.959 135.959L232.374 158.792Z" stroke="#111111"/>
<path d="M151.257 228.674L228.744 148.327L258.563 117.45L228.744 148.327L151.257 228.674ZM151.257 228.674L121.395 259.463L151.257 228.674Z" stroke="#111111"/>
<path d="M222.607 138.38L157.394 238.749L132.285 277.409L157.394 238.749L222.607 138.38ZM222.607 138.38L247.672 99.4609L222.607 138.38Z" stroke="#111111"/>
<path d="M166.036 247.831L213.963 129.169L232.373 83.5471L213.963 129.169L166.036 247.831ZM166.036 247.831L147.626 293.453L166.036 247.831Z" stroke="#111111"/>
<path d="M203.116 121.688L177.186 255.139C171.698 283.507 167.203 306.513 167.203 306.513C167.203 306.513 171.525 283.68 177.186 255.139L203.116 121.515C208.604 93.1473 213.099 70.1416 213.099 70.1416C213.099 70.1416 208.475 93.3203 203.116 121.688Z" stroke="#111111"/>
</g>
<g opacity="0.4">
<path d="M174.334 202.857L205.623 174.143L217.68 163.116L205.623 174.143L174.334 202.857ZM174.334 202.857L162.32 213.884L174.334 202.857Z" stroke="#111111"/>
<path d="M205.018 168.175L174.766 208.825L163.228 224.479L174.766 208.825L205.018 168.175ZM205.018 168.175L216.6 152.521L205.018 168.175Z" stroke="#111111"/>
<path d="M177.187 215.008L202.468 161.991L212.192 141.58L202.468 161.991L177.187 215.008ZM177.187 215.008L167.463 235.419L177.187 215.008Z" stroke="#111111"/>
<path d="M198.362 156.11L181.508 220.89C177.921 234.641 175.069 245.798 175.069 245.798C175.069 245.798 177.921 234.641 181.508 220.89L198.233 156.024C201.776 142.272 204.672 131.115 204.672 131.115C204.672 131.115 201.906 142.359 198.362 156.11Z" stroke="#111111"/>
<path d="M187.688 225.949L192.269 151.051C193.263 135.137 194.041 122.25 194.041 122.25C194.041 122.25 193.263 135.223 192.269 151.051L187.688 225.949ZM187.688 225.949L185.83 254.749L187.688 225.949Z" stroke="#111111"/>
<path d="M184.577 147.245L195.424 229.711L199.745 261.452L195.424 229.711L184.577 147.245ZM184.577 147.245C182.243 129.948 180.255 115.548 180.255 115.548C180.255 115.548 182.243 129.732 184.577 147.245Z" stroke="#111111"/>
<path d="M204.456 231.787L175.501 145.299L164.222 111.872L175.328 145.213L204.283 231.701C210.463 250.079 215.433 264.998 215.433 264.998C215.433 264.998 210.636 250.166 204.456 231.787Z" stroke="#111111"/>
<path d="M165.518 145.213L214.482 231.7L233.367 265.085L214.568 231.787L165.604 145.299C155.233 126.921 146.762 112.001 146.762 112.001C146.762 112.001 155.146 126.834 165.518 145.213Z" stroke="#111111"/>
<path d="M224.724 229.409L155.059 147.591L128.222 116.11L155.059 147.591L224.724 229.409ZM224.724 229.409L251.604 260.89L224.724 229.409Z" stroke="#111111"/>
<path d="M144.731 152.478L235.269 224.522L270.058 252.241L235.269 224.522L144.731 152.478ZM144.731 152.478L109.898 124.759L144.731 152.478Z" stroke="#111111"/>
<path d="M244.906 217.084L135.094 160.003L92.8286 138.035L135.094 160.003L244.906 217.084ZM244.906 217.084L287.129 239.096L244.906 217.084Z" stroke="#111111"/>
<path d="M126.754 169.732L253.248 207.224L301.909 221.668L253.248 207.224L126.754 169.732ZM126.754 169.732L78.0923 155.332L126.754 169.732Z" stroke="#111111"/>
<path d="M259.729 195.203L120.27 181.624L66.6392 176.435L120.27 181.624L259.729 195.03L313.36 200.219L259.729 195.203Z" stroke="#111111"/>
<path d="M116.209 195.592L263.619 181.624L320.362 176.132L263.619 181.624L116.209 195.592ZM116.209 195.592L59.4658 201.084L116.209 195.592Z" stroke="#111111"/>
<path d="M257.526 134.705L122.432 242.166L70.5723 283.55L122.432 242.166L257.526 134.705ZM257.526 134.705L309.385 93.3635L257.526 134.705Z" stroke="#111111"/>
<path d="M131.291 257.258L248.709 119.699L293.87 66.812L248.709 119.699L131.291 257.258ZM131.291 257.258L86.1299 310.189L131.291 257.258Z" stroke="#111111"/>
<path d="M236.522 106.25L143.478 270.577L107.695 334.059L143.478 270.75L236.522 106.423C256.272 71.3091 272.262 42.9412 272.262 42.9412C272.262 42.9412 256.272 71.3091 236.522 106.25Z" stroke="#111111"/>
<path d="M158.733 281.993L221.267 95.1363L245.295 23.092L221.267 95.1363L158.733 281.993ZM158.733 281.993C145.466 321.691 134.662 353.908 134.662 353.908C134.662 353.908 145.466 321.691 158.733 281.993Z" stroke="#111111"/>
<path d="M203.375 86.7041L176.581 290.296C170.92 333.54 166.296 368.568 166.296 368.568C166.296 368.568 170.92 333.497 176.581 290.296L203.375 86.7041L213.704 8.64893L203.375 86.7041Z" stroke="#111111"/>
<path d="M196.505 295.01L183.496 82.1633L178.483 0L183.496 82.1633L196.461 295.226L201.474 377.389L196.505 295.01Z" stroke="#111111"/>
<path d="M264.959 166.273L115.042 210.727L57.3481 228.025L115.042 210.727L264.959 166.273ZM264.959 166.273L322.609 148.975L264.959 166.273Z" stroke="#111111"/>
<path d="M117.03 226.511L262.928 150.489L319.109 121.256L262.928 150.489L117.03 226.511ZM117.03 226.511L60.8486 255.744L117.03 226.511Z" stroke="#111111"/>
</g>
<g opacity="0.6">
<path d="M175.458 113.688L204.542 263.269C210.679 295.053 215.692 320.826 215.692 320.826C215.692 320.826 210.679 294.88 204.542 263.269L175.458 113.688ZM175.458 113.688L164.222 56.217L175.458 113.688Z" stroke="#111111"/>
<path d="M220.057 262.923L159.9 114.077L136.822 56.8225L159.9 114.077L220.057 262.923ZM220.057 262.923L243.134 320.005L220.057 262.923Z" stroke="#111111"/>
<path d="M144.083 117.753L235.917 259.463L271.225 313.864L235.917 259.463L144.083 117.753ZM144.083 117.753L108.775 63.3523L144.083 117.753Z" stroke="#111111"/>
<path d="M251.346 252.112L128.612 124.888L81.4199 75.9795L128.612 124.888L251.346 252.112ZM251.346 252.112L298.581 301.021L251.346 252.112Z" stroke="#111111"/>
<path d="M114.264 135.44L265.52 241.56L324.122 282.339L265.693 241.56L114.437 135.44L56.1812 94.6609L114.264 135.44Z" stroke="#111111"/>
<path d="M278.139 227.765L101.86 149.235L34.0537 118.964L101.86 149.235L278.139 227.765ZM278.139 227.765L345.945 258.036L278.139 227.765Z" stroke="#111111"/>
<path d="M92.0077 165.84L287.993 211.117L363.362 228.414L287.993 211.117L92.0077 165.84ZM92.0077 165.84L16.6387 148.543L92.0077 165.84Z" stroke="#111111"/>
<path d="M294.561 192.132L85.4378 184.824L4.96924 182.013L85.4378 184.824L294.561 192.132ZM294.561 192.132L374.986 194.943L294.561 192.132Z" stroke="#111111"/>
<path d="M82.6294 205.495L297.371 171.462L379.957 158.489L297.371 171.462L82.6294 205.495ZM82.6294 205.495L0 218.598L82.6294 205.495Z" stroke="#111111"/>
</g>
<ellipse cx="269.315" cy="137.898" rx="7.1028" ry="7.10204" fill="#F59D46"/>
<ellipse cx="165.732" cy="63.8527" rx="7.1028" ry="7.03629" fill="#F3D747"/>
<ellipse cx="153.302" cy="333.796" rx="7.10281" ry="7.10205" fill="#C283E0"/>
<ellipse cx="126.075" cy="190.572" rx="7.10281" ry="7.10204" fill="#4BA3C9"/>
<ellipse cx="273.458" cy="258.041" rx="7.10281" ry="7.10204" fill="#55CDB0"/>
</g>
<defs>
<clipPath id="clip0">
<rect width="380" height="377" fill="white"/>
</clipPath>
</defs>
</svg>