<svg id="Layer_1" data-name="Layer 1" xmlns="http://www.w3.org/2000/svg" xmlns:xlink="http://www.w3.org/1999/xlink" viewBox="0 0 504 288"><defs><style>.cls-1{fill:none;}.cls-2{fill:#161616;}.cls-3,.cls-8{fill:#009468;}.cls-12,.cls-4{fill:#ff2e5f;}.cls-14,.cls-5{fill:#0070e2;}.cls-10,.cls-6{fill:#f7b200;}.cls-7{clip-path:url(#clip-path);}.cls-10,.cls-12,.cls-14,.cls-8{opacity:0.4;}.cls-9{clip-path:url(#clip-path-2);}.cls-11{clip-path:url(#clip-path-3);}.cls-13{clip-path:url(#clip-path-4);}.cls-15{clip-path:url(#clip-path-5);}</style><clipPath id="clip-path"><path class="cls-1" d="M274.46,67.52A23.76,23.76,0,1,0,249.2,89.68,23.77,23.77,0,0,0,274.46,67.52Z"/></clipPath><clipPath id="clip-path-2"><path class="cls-1" d="M369.48,106.05a23.79,23.79,0,1,0-25.29,22.19A23.79,23.79,0,0,0,369.48,106.05Z"/></clipPath><clipPath id="clip-path-3"><path class="cls-1" d="M242.21,240.52A23.76,23.76,0,1,0,217,262.68,23.76,23.76,0,0,0,242.21,240.52Z"/></clipPath><clipPath id="clip-path-4"><path class="cls-1" d="M291.09,161.88A23.76,23.76,0,1,0,265.83,184,23.77,23.77,0,0,0,291.09,161.88Z"/></clipPath><clipPath id="clip-path-5"><path class="cls-1" d="M166.8,155.7a23.76,23.76,0,1,0-25.25,22.16A23.76,23.76,0,0,0,166.8,155.7Z"/></clipPath></defs><title>Global</title><g id="triangle36"><path class="cls-2" d="M218.64,238.63a.12.12,0,0,1-.11-.07L204.75,208.2a.13.13,0,0,1,.16-.17L227.16,216a.16.16,0,0,1,.07.07.09.09,0,0,1,0,.1l-8.46,22.4a.13.13,0,0,1-.12.08ZM205.1,208.37l13.54,29.8,8.31-22Z"/></g><g id="triangle36-2" data-name="triangle36"><path class="cls-2" d="M379.64,158.34h0L333,141.79a.12.12,0,0,1-.08-.13.12.12,0,0,1,.1-.12l72.34-12a.11.11,0,0,1,.13.06.14.14,0,0,1,0,.15L379.75,158.3A.12.12,0,0,1,379.64,158.34Zm-46.1-16.63,46.07,16.36L405,129.82Z"/></g><g id="triangle36-3" data-name="triangle36"><path class="cls-2" d="M287.19,71.88a.14.14,0,0,1-.11-.1.11.11,0,0,1,.06-.14L312,58.84a.12.12,0,0,1,.16,0,.14.14,0,0,1,0,.17l-12.28,12.7a.11.11,0,0,1-.09,0l-12.54.1Zm24.2-12.47L287.73,71.62l11.95-.09ZM299.74,71.65Z"/></g><g id="triangle36-4" data-name="triangle36"><path class="cls-2" d="M312,59.07H312L253.73,22.15a.11.11,0,0,1-.06-.1.13.13,0,0,1,.05-.11l7.1-5.63a.12.12,0,0,1,.16,0L312.1,58.85a.12.12,0,0,1,0,.17A.1.1,0,0,1,312,59.07ZM254,22l56.42,35.76L260.9,16.57Z"/></g><g id="triangle36-5" data-name="triangle36"><path class="cls-2" d="M287.19,71.88a.15.15,0,0,1-.09-.06L253.69,22.11a.13.13,0,0,1,0-.16.14.14,0,0,1,.16,0l58.23,36.91a.13.13,0,0,1,.06.11.14.14,0,0,1-.07.11l-24.82,12.8ZM254.24,22.47l33,49.11,24.53-12.64Z"/></g><g id="triangle36-6" data-name="triangle36"><path class="cls-2" d="M161.31,212.75h0l-38.44-7.69a.13.13,0,0,1,0-.25l39.81-3a.13.13,0,0,1,.1,0,.1.1,0,0,1,0,.1l-1.37,10.68a.14.14,0,0,1-.05.09ZM123.81,205l37.4,7.48,1.33-10.39Z"/></g><g id="triangle36-7" data-name="triangle36"><path class="cls-2" d="M161.31,212.75a.12.12,0,0,1-.08,0,.14.14,0,0,1,0-.1l1.37-10.68a.41.41,0,0,1,.05-.09.12.12,0,0,1,.1,0L204.88,208a.12.12,0,0,1,.11.12.13.13,0,0,1-.11.13l-43.55,4.47Zm1.49-10.66-1.33,10.39,42.37-4.35Z"/></g><g id="triangle36-8" data-name="triangle36"><path class="cls-2" d="M204.86,208.28h0l-42.18-6.21a.13.13,0,0,1-.11-.11.13.13,0,0,1,.08-.13l39-14.83a.14.14,0,0,1,.11,0,.18.18,0,0,1,.06.09l3.21,21a.15.15,0,0,1,0,.11A.11.11,0,0,1,204.86,208.28Zm-41.67-6.39L204.71,208l-3.16-20.7Z"/></g><g id="triangle36-9" data-name="triangle36"><path class="cls-2" d="M61.73,250a.11.11,0,0,1-.08,0,.14.14,0,0,1,0-.15l16.51-36.19a.16.16,0,0,1,.1-.08.17.17,0,0,1,.12.05l13.77,18.17a.12.12,0,0,1,0,.1s0,.06-.06.08L61.8,250A.1.1,0,0,1,61.73,250ZM78.27,214,62,249.58l29.81-17.75Z"/></g><g id="triangle36-10" data-name="triangle36"><path class="cls-2" d="M193.19,246.62l-.08,0-31.88-33.87a.11.11,0,0,1,0-.13.12.12,0,0,1,.11-.08L204.85,208a.11.11,0,0,1,.11,0,.11.11,0,0,1,0,.12l-11.66,38.34a.12.12,0,0,1-.09.08Zm-31.6-33.9,31.55,33.52,11.55-37.94Z"/></g><g id="triangle36-11" data-name="triangle36"><path class="cls-2" d="M200.3,255.41a.11.11,0,0,1-.09,0l-7.11-8.79a.13.13,0,0,1,0-.12.11.11,0,0,1,.08-.08l25.45-8a.14.14,0,0,1,.15.06.12.12,0,0,1,0,.16l-18.34,16.78A.14.14,0,0,1,200.3,255.41Zm-6.89-8.85,6.91,8.54,17.82-16.3Z"/></g><g id="triangle36-12" data-name="triangle36"><path class="cls-2" d="M193.19,246.62l-.08,0a.12.12,0,0,1,0-.13l11.66-38.33a.12.12,0,0,1,.12-.09.11.11,0,0,1,.12.07l13.78,30.35a.11.11,0,0,1,0,.11.11.11,0,0,1-.07.06l-25.45,8Zm11.7-38.11-11.5,37.79,25.08-7.87Z"/></g><g id="triangle36-13" data-name="triangle36"><path class="cls-2" d="M333,141.79a.12.12,0,0,1,0-.23l58.27-34a.14.14,0,0,1,.17,0l14.06,21.94a.11.11,0,0,1,0,.12.14.14,0,0,1-.09.08l-72.34,12Zm58.24-33.93-57.57,33.57,71.47-11.89Z"/></g><g id="triangle36-14" data-name="triangle36"><path class="cls-2" d="M314.42,158.45h0a.15.15,0,0,1-.08-.11l-2-20.55a.13.13,0,0,1,0-.1.12.12,0,0,1,.11,0l20.64,3.88a.14.14,0,0,1,.09.09.12.12,0,0,1,0,.13l-18.61,16.66A.1.1,0,0,1,314.42,158.45Zm-1.88-20.51,2,20.13,18.23-16.33Z"/></g><g id="triangle36-15" data-name="triangle36"><path class="cls-2" d="M218.64,238.63a.15.15,0,0,1-.09,0,.13.13,0,0,1,0-.13l8.47-22.4a.11.11,0,0,1,.14-.08l44.62,10.12a.13.13,0,0,1,.1.13.13.13,0,0,1-.1.12l-53.08,12.28Zm8.56-22.38-8.35,22.08,52.31-12.1Z"/></g><g id="triangle36-16" data-name="triangle36"><path class="cls-2" d="M271.72,226.35h0l-44.61-10.12a.13.13,0,0,1-.1-.1.13.13,0,0,1,0-.13l12.89-9.62a.12.12,0,0,1,.14,0l31.73,19.74a.13.13,0,0,1-.08.23ZM227.41,216l43.61,9.9-31-19.3Z"/></g><g id="triangle36-17" data-name="triangle36"><path class="cls-2" d="M271.72,226.35l-.06,0-31.72-19.74a.13.13,0,0,1-.06-.13.13.13,0,0,1,.09-.1L268.89,199a.1.1,0,0,1,.1,0,.11.11,0,0,1,.05.09l2.82,27.09a.13.13,0,0,1-.06.12A.12.12,0,0,1,271.72,226.35Zm-31.39-19.82L271.58,226l-2.77-26.69Z"/></g><g id="triangle36-18" data-name="triangle36"><path class="cls-2" d="M310.44,163.68a.14.14,0,0,1-.09-.05l-19.16-22.27a.12.12,0,0,1,.17-.18l23.14,17a.1.1,0,0,1,.05.08.1.1,0,0,1,0,.09l-4,5.23a.12.12,0,0,1-.1.05Zm-18.33-21.63,18.33,21.3,3.81-5Z"/></g><g id="triangle36-19" data-name="triangle36"><path class="cls-2" d="M333,141.79a.12.12,0,0,1-.09,0l-19.32-24a.15.15,0,0,1,0-.13.12.12,0,0,1,.1-.08l77.59-10a.11.11,0,0,1,.13.08.12.12,0,0,1-.05.15l-58.27,34A.11.11,0,0,1,333,141.79Zm-19.07-24,19.11,23.75,57.64-33.6Z"/></g><g id="triangle36-20" data-name="triangle36"><path class="cls-2" d="M301.89,224.46a.11.11,0,0,1-.11-.11l-3-23.66a.11.11,0,0,1,.09-.13.12.12,0,0,1,.15.06l12.32,23.86a.11.11,0,0,1,0,.12.11.11,0,0,1-.11.06l-9.28-.2Zm-2.81-23.09L302,224.21l9,.19Z"/></g><g id="triangle36-21" data-name="triangle36"><path class="cls-2" d="M302,225a.14.14,0,0,1-.11-.11l-.1-.51a.14.14,0,0,1,0-.11.13.13,0,0,1,.1,0l9.29.2a.13.13,0,0,1,.12.12.12.12,0,0,1-.12.13L302,225Zm.07-.51.05.25,4.53-.16Z"/></g><g id="triangle36-22" data-name="triangle36"><path class="cls-2" d="M273.09,281.79h0L200.26,255.4a.12.12,0,0,1-.08-.09.13.13,0,0,1,0-.12l18.34-16.78a.15.15,0,0,1,.17,0l54.45,43.16a.15.15,0,0,1,0,.17A.14.14,0,0,1,273.09,281.79Zm-72.54-26.56,71.86,26-53.76-42.61Z"/></g><g id="triangle36-23" data-name="triangle36"><path class="cls-2" d="M273.09,281.79a.09.09,0,0,1-.07,0L218.57,238.6a.12.12,0,0,1,0-.12.13.13,0,0,1,.1-.1L271.7,226.1a.11.11,0,0,1,.11,0,.11.11,0,0,1,.05.09l1.36,55.44a.12.12,0,0,1-.07.12Zm-54.16-43.22,54,42.83-1.35-55Z"/></g><g id="triangle36-24" data-name="triangle36"><path class="cls-2" d="M273.09,281.79l-.06,0a.11.11,0,0,1-.06-.1l-1.37-55.44a.13.13,0,0,1,.1-.13.13.13,0,0,1,.15.08L291,273.84a.12.12,0,0,1-.07.16l-17.75,7.78Zm-1.22-54.86,1.35,54.54,17.47-7.65Z"/></g><g id="triangle36-25" data-name="triangle36"><path class="cls-2" d="M342,216.82h0l-43.15-16a.2.2,0,0,1-.08-.08.2.2,0,0,1,0-.11l18.71-30.67a.14.14,0,0,1,.12-.06.17.17,0,0,1,.11.07l24.44,46.69a.12.12,0,0,1-.12.18Zm-43-16.21,42.7,15.85-24.19-46.19Z"/></g><g id="triangle36-26" data-name="triangle36"><path class="cls-2" d="M317.56,170.14l-.07,0-7.13-6.45a.15.15,0,0,1,0-.18l4-5.22a.11.11,0,0,1,.12-.05.13.13,0,0,1,.1.09L317.7,170a.13.13,0,0,1-.06.14Zm-6.94-6.6,6.72,6.09-3-11Z"/></g><g id="triangle36-27" data-name="triangle36"><path class="cls-2" d="M317.56,170.14h0a.12.12,0,0,1-.11-.09l-3.14-11.68a.12.12,0,0,1,0-.13L333,141.57a.13.13,0,0,1,.19.16l-15.46,28.34A.14.14,0,0,1,317.56,170.14Zm-3-11.77,3,11.3,15-27.42Z"/></g><g id="triangle36-28" data-name="triangle36"><path class="cls-2" d="M317.56,170.14a.18.18,0,0,1-.09-.06.12.12,0,0,1,0-.13l15.46-28.34a.12.12,0,0,1,.15-.06l46.62,16.55a.13.13,0,0,1,.09.13.14.14,0,0,1-.11.11L317.6,170.13Zm15.53-28.32-15.28,28,61.36-11.65Z"/></g><g id="triangle36-29" data-name="triangle36"><path class="cls-2" d="M342,216.82a.12.12,0,0,1-.11-.07l-24.44-46.68a.14.14,0,0,1,0-.16.14.14,0,0,1,.15,0L374,207a.16.16,0,0,1,.06.13.18.18,0,0,1-.09.1l-31.89,9.6Zm-24.1-46.44,24.17,46.16,31.52-9.49Z"/></g><g id="triangle36-30" data-name="triangle36"><path class="cls-2" d="M312,59.07l-.07,0L260.82,16.51a.13.13,0,0,1,0-.14.13.13,0,0,1,.12-.09l74.12,2a.11.11,0,0,1,.1.06.12.12,0,0,1,0,.13L312.13,59a.11.11,0,0,1-.09.06ZM261.26,16.55,312,58.75,334.8,18.52Z"/></g><g id="triangle36-31" data-name="triangle36"><path class="cls-2" d="M286.6,105.76h0l-37.44-4.48a.11.11,0,0,1-.1-.1.11.11,0,0,1,.06-.13l20.23-10.67a.14.14,0,0,1,.15,0l17.2,15.14a.12.12,0,0,1,0,.14A.13.13,0,0,1,286.6,105.76Zm-37-4.68,36.63,4.38L269.39,90.65Z"/></g><g id="triangle36-32" data-name="triangle36"><path class="cls-2" d="M92,232a.11.11,0,0,1-.09-.05L78.15,213.78a.11.11,0,0,1,0-.12.11.11,0,0,1,.09-.08l18.21-4.5a.13.13,0,0,1,.12,0,.16.16,0,0,1,0,.12l-4.45,22.66a.13.13,0,0,1-.09.1ZM78.46,213.78,92,231.56l4.35-22.19Z"/></g><g id="triangle36-33" data-name="triangle36"><path class="cls-2" d="M78.24,213.83a.15.15,0,0,1-.1-.06.12.12,0,0,1,0-.14l17-25.4a.15.15,0,0,1,.14,0,.13.13,0,0,1,.09.12l1.2,20.9a.14.14,0,0,1-.1.13l-18.21,4.49Zm16.92-25.14L78.53,213.5l17.8-4.4Z"/></g><g id="triangle36-34" data-name="triangle36"><path class="cls-2" d="M240,206.61a.18.18,0,0,1-.09,0,.13.13,0,0,1,0-.12l4.75-14.93a.13.13,0,0,1,.16-.08L269,199a.12.12,0,0,1,.09.12.12.12,0,0,1-.09.12L240,206.61Zm4.83-14.89-4.63,14.59,28.25-7.19Z"/></g><g id="triangle36-35" data-name="triangle36"><path class="cls-2" d="M257.3,158.28h0l-9.5-3.15a.13.13,0,0,1-.08-.12.13.13,0,0,1,.08-.13l43.48-13.71a.12.12,0,0,1,.15.07.12.12,0,0,1-.06.16l-34,16.88ZM248.22,155l9.08,3,32.47-16.13Z"/></g><g id="triangle36-36" data-name="triangle36"><path class="cls-2" d="M204.86,208.28h0a.14.14,0,0,1-.1-.11l-3.21-21a.12.12,0,0,1,.05-.12.1.1,0,0,1,.12,0l12.46,5.28a.12.12,0,0,1,.07.07.14.14,0,0,1,0,.11L205,208.22A.13.13,0,0,1,204.86,208.28Zm-3.05-20.95,3.13,20.45,9-15.32Z"/></g><g id="triangle36-37" data-name="triangle36"><path class="cls-2" d="M227.11,216.23h0l-22.25-7.95a.18.18,0,0,1-.08-.07.2.2,0,0,1,0-.11L214,192.34a.13.13,0,0,1,.11-.06.1.1,0,0,1,.11.06l13,23.7a.14.14,0,0,1,0,.15A.12.12,0,0,1,227.11,216.23Zm-22.06-8.15,21.79,7.79-12.73-23.21Z"/></g><g id="triangle36-38" data-name="triangle36"><path class="cls-2" d="M227.11,216.23h0a.1.1,0,0,1-.08-.06l-13-23.7a.12.12,0,0,1,0-.15.14.14,0,0,1,.15,0l25.9,14.08a.14.14,0,0,1,.06.11.11.11,0,0,1,0,.11l-12.89,9.62Zm-12.68-23.51,12.73,23.19,12.61-9.41Z"/></g><g id="triangle36-39" data-name="triangle36"><path class="cls-2" d="M240,206.61H240l-25.9-14.08a.12.12,0,0,1-.06-.14.12.12,0,0,1,.12-.1l30.64-.85a.12.12,0,0,1,.1,0,.11.11,0,0,1,0,.12l-4.74,14.92a.11.11,0,0,1-.08.08Zm-25.41-14.09,25.34,13.78,4.65-14.61Z"/></g><g id="triangle36-40" data-name="triangle36"><path class="cls-2" d="M345.88,217.28h0l-3.88-.46a.12.12,0,0,1-.11-.11.13.13,0,0,1,.09-.14L373.86,207a.12.12,0,0,1,.16.08.13.13,0,0,1-.08.16l-28,10.05Zm-3.24-.64,3.24.38,23.41-8.4Z"/></g><g id="triangle36-41" data-name="triangle36"><path class="cls-2" d="M96.45,209.33l0,0a.14.14,0,0,1-.07-.1l-1.19-20.9a.14.14,0,0,1,.06-.12.14.14,0,0,1,.14,0l17,12.48a.11.11,0,0,1,0,.12.13.13,0,0,1-.06.1l-15.78,8.41A.08.08,0,0,1,96.45,209.33Zm-1-20.76L96.58,209,112,200.77Z"/></g><g id="triangle36-42" data-name="triangle36"><path class="cls-2" d="M167.61,130.69a.07.07,0,0,1-.06,0,.16.16,0,0,1-.06-.08l-.74-5.13a.1.1,0,0,1,0-.1.13.13,0,0,1,.09,0l26.1-1.44a.12.12,0,0,1,.13.11.13.13,0,0,1-.09.14l-25.36,6.57Zm-.59-5.13.7,4.85,24-6.22Z"/></g><g id="triangle36-43" data-name="triangle36"><path class="cls-2" d="M83.42,179.84l-.06,0L70,170.51a.13.13,0,0,1,0-.13.14.14,0,0,1,.11-.1l35.3-4.19a.13.13,0,0,1,.14.08.12.12,0,0,1,0,.15l-21.9,13.5Zm-13-9.35,13.06,9.07,21.34-13.15Z"/></g><g id="triangle36-44" data-name="triangle36"><path class="cls-2" d="M78.24,213.83h0a.13.13,0,0,1-.08-.14l5.18-34a.12.12,0,0,1,.08-.09.1.1,0,0,1,.12,0l11.84,8.59a.13.13,0,0,1,0,.17l-17,25.4A.13.13,0,0,1,78.24,213.83Zm5.28-33.89-5.06,33.22,16.63-24.82Z"/></g><g id="triangle36-45" data-name="triangle36"><path class="cls-2" d="M95.26,188.43l-.07,0-11.84-8.59a.16.16,0,0,1,0-.11.17.17,0,0,1,.06-.11l21.9-13.5a.14.14,0,0,1,.15,0,.11.11,0,0,1,0,.15L95.38,188.36a.18.18,0,0,1-.08.07Zm-11.6-8.71,11.55,8.39L105,166.54Z"/></g><g id="triangle36-46" data-name="triangle36"><path class="cls-2" d="M132.53,191.27h0l-37.27-2.84a.12.12,0,0,1-.1-.06.11.11,0,0,1,0-.12l10.06-22.09a.13.13,0,0,1,.09-.07.13.13,0,0,1,.12,0l27.2,24.93a.11.11,0,0,1,0,.14A.13.13,0,0,1,132.53,191.27Zm-37.07-3.08,36.72,2.8-26.81-24.57Z"/></g><g id="triangle36-47" data-name="triangle36"><path class="cls-2" d="M112.23,200.91l-.07,0-17-12.48a.13.13,0,0,1,0-.15.12.12,0,0,1,.12-.08h0L132.55,191a.11.11,0,0,1,.11.1.13.13,0,0,1-.07.14l-20.3,9.64ZM95.7,188.46l16.55,12.18,19.8-9.41Z"/></g><g id="triangle36-48" data-name="triangle36"><path class="cls-2" d="M122.87,205.06h0l-10.64-4.15a.11.11,0,0,1-.08-.11.14.14,0,0,1,.07-.12l20.3-9.64a.15.15,0,0,1,.16,0,.14.14,0,0,1,0,.16L123,205A.13.13,0,0,1,122.87,205.06Zm-10.31-4.28,10.27,4,9.33-13.32Z"/></g><g id="triangle36-49" data-name="triangle36"><path class="cls-2" d="M122.87,205.06a.13.13,0,0,1-.1-.06.14.14,0,0,1,0-.14l9.65-13.79a.13.13,0,0,1,.15,0l30.15,10.81a.12.12,0,0,1,0,.24l-39.81,3Zm9.72-13.76-9.45,13.49,39-2.93Z"/></g><g id="triangle36-50" data-name="triangle36"><path class="cls-2" d="M360.18,227.45h-.06L342,216.81a.13.13,0,0,1-.06-.15.14.14,0,0,1,.14-.09l3.88.46.06,0,14.29,10.17a.14.14,0,0,1,0,.18A.13.13,0,0,1,360.18,227.45ZM342.6,216.89l15.2,8.89-12-8.51Z"/></g><g id="triangle36-51" data-name="triangle36"><path class="cls-2" d="M373.09,277.35h0l-33.18-7.85a.13.13,0,0,1-.08-.07.11.11,0,0,1,0-.11l20.26-42a.12.12,0,0,1,.13-.07.14.14,0,0,1,.11.09l12.91,49.9a.13.13,0,0,1,0,.12A.13.13,0,0,1,373.09,277.35Zm-33-8.07,32.81,7.77-12.77-49.36Z"/></g><g id="triangle36-52" data-name="triangle36"><path class="cls-2" d="M360.18,227.45l-.07,0-14.29-10.17a.13.13,0,0,1-.05-.13.11.11,0,0,1,.08-.1l28-10.05a.12.12,0,0,1,.14,0,.14.14,0,0,1,0,.15L360.29,227.4a.1.1,0,0,1-.08,0Zm-14-10.26,14,10,13.43-19.8Z"/></g><g id="triangle36-53" data-name="triangle36"><path class="cls-2" d="M173.77,263.43h0l-61-23a.12.12,0,0,1-.08-.11.11.11,0,0,1,.06-.12l48.57-27.71a.11.11,0,0,1,.11,0,.1.1,0,0,1,.07.08l12.46,50.68a.13.13,0,0,1,0,.13A.16.16,0,0,1,173.77,263.43ZM113.05,240.3l60.55,22.8-12.36-50.28Z"/></g><g id="triangle36-54" data-name="triangle36"><path class="cls-2" d="M173.77,263.43h0a.14.14,0,0,1-.09-.09L161.2,212.65a.12.12,0,0,1,.06-.14.11.11,0,0,1,.15,0l31.88,33.86a.18.18,0,0,1,0,.1.2.2,0,0,1-.05.09L173.86,263.4A.16.16,0,0,1,173.77,263.43Zm-12.21-50.37,12.29,50L193,246.48Z"/></g><g id="triangle36-55" data-name="triangle36"><path class="cls-2" d="M299.73,71.78a.12.12,0,0,1-.11-.07.12.12,0,0,1,0-.14l12.28-12.71a.15.15,0,0,1,.11,0l46.47,6.49a.11.11,0,0,1,.1.13.12.12,0,0,1-.11.12l-58.75,6.22Zm12.34-12.7-12,12.41,57.38-6.07Z"/></g><g id="triangle36-56" data-name="triangle36"><path class="cls-2" d="M313.71,117.78h0a.13.13,0,0,1-.1-.09l-14-46a.14.14,0,0,1,0-.11.12.12,0,0,1,.09,0l58.75-6.22a.13.13,0,0,1,.13.06.14.14,0,0,1,0,.15l-44.77,52.22A.11.11,0,0,1,313.71,117.78Zm-13.81-46,13.87,45.64,44.41-51.81Z"/></g><g id="triangle36-57" data-name="triangle36"><path class="cls-2" d="M358.48,65.56h0L312,59.07a.11.11,0,0,1-.09-.07.11.11,0,0,1,0-.11l23-40.55a.14.14,0,0,1,.12-.06.13.13,0,0,1,.11.07l23.47,47a.12.12,0,0,1,0,.13A.14.14,0,0,1,358.48,65.56Zm-46.26-6.71,46,6.42L335,18.67Z"/></g><g id="triangle36-58" data-name="triangle36"><path class="cls-2" d="M313.71,117.78a.11.11,0,0,1-.11-.06.14.14,0,0,1,0-.15l44.77-52.22a.13.13,0,0,1,.1,0c.05,0,.08,0,.1,0l32.81,42.25a.13.13,0,0,1,0,.13.16.16,0,0,1-.1.08l-77.59,10Zm44.77-52.15L314,117.49l77.05-9.9Z"/></g><g id="triangle36-59" data-name="triangle36"><path class="cls-2" d="M391.29,107.82a.16.16,0,0,1-.09,0L358.39,65.51a.12.12,0,0,1,.12-.2l31.75,7a.12.12,0,0,1,.1.12l1.07,35.31a.13.13,0,0,1-.09.12ZM358.8,65.63l32.36,41.68-1.05-34.83Z"/></g><g id="triangle36-60" data-name="triangle36"><path class="cls-2" d="M360.18,227.45a.14.14,0,0,1-.1,0,.14.14,0,0,1,0-.15L373.8,207a.11.11,0,0,1,.16,0l16.81,8.71a.12.12,0,0,1,.07.12.12.12,0,0,1-.08.11l-30.53,11.51Zm13.76-20.19-13.43,19.81,29.89-11.28Z"/></g><g id="triangle36-61" data-name="triangle36"><path class="cls-2" d="M373.09,277.35a.14.14,0,0,1-.12-.1l-12.91-49.89a.13.13,0,0,1,.08-.15l30.53-11.52a.16.16,0,0,1,.13,0,.12.12,0,0,1,0,.13l-17.62,61.41a.14.14,0,0,1-.12.09Zm-12.75-50,12.76,49.34L390.52,216Z"/></g><g id="triangle36-62" data-name="triangle36"><path class="cls-2" d="M271.72,226.35a.13.13,0,0,1-.12-.11l-2.81-27.1a.14.14,0,0,1,0-.09.12.12,0,0,1,.09-.05l8.51-.36a.14.14,0,0,1,.11.05.14.14,0,0,1,0,.11l-5.7,27.45a.11.11,0,0,1-.13.1Zm-2.66-27.1,2.71,26.15,5.5-26.5Z"/></g><g id="triangle36-63" data-name="triangle36"><path class="cls-2" d="M271.72,226.35a.18.18,0,0,1-.09,0,.14.14,0,0,1,0-.11l5.69-27.46a.14.14,0,0,1,.09-.09.14.14,0,0,1,.13,0L302,224.25a.11.11,0,0,1,0,.13.12.12,0,0,1-.11.08l-30.17,1.89ZM277.5,199l-5.61,27.06,29.73-1.86Z"/></g><g id="triangle36-64" data-name="triangle36"><path class="cls-2" d="M301.89,224.46a.09.09,0,0,1-.08,0l-24.47-25.56a.13.13,0,0,1,0-.14.16.16,0,0,1,.13-.08l21.43,1.91a.14.14,0,0,1,.12.11l3,23.66a.14.14,0,0,1-.07.13Zm-24.14-25.53,24,25-3-23.18Z"/></g><g id="triangle36-65" data-name="triangle36"><path class="cls-2" d="M312.39,137.91h-.05a.16.16,0,0,1-.07-.13l1.32-20.12a.13.13,0,0,1,.11-.12.13.13,0,0,1,.14.09l4.4,15.12a.13.13,0,0,1,0,.13l-5.72,5A.12.12,0,0,1,312.39,137.91Zm1.4-19.53-1.24,19.11,5.42-4.76Z"/></g><g id="triangle36-66" data-name="triangle36"><path class="cls-2" d="M333,141.79h0l-20.63-3.88a.13.13,0,0,1-.1-.09.12.12,0,0,1,0-.13l5.71-5a.14.14,0,0,1,.15,0l14.92,8.9a.12.12,0,0,1,0,.15A.11.11,0,0,1,333,141.79Zm-20.34-4.08,19.67,3.7-14.22-8.48Z"/></g><g id="triangle36-67" data-name="triangle36"><path class="cls-2" d="M333,141.79h0l-14.92-8.9a.13.13,0,0,1-.06-.07l-4.4-15.12a.15.15,0,0,1,.06-.15.14.14,0,0,1,.16,0l19.32,24a.12.12,0,0,1,0,.16A.12.12,0,0,1,333,141.79Zm-14.8-9.1,14.27,8.51-18.48-23Z"/></g><g id="triangle36-68" data-name="triangle36"><path class="cls-2" d="M291.28,141.41a.14.14,0,0,1-.12-.12.12.12,0,0,1,.11-.14l21.11-3.49a.12.12,0,0,1,.08.23l-7,3.61-.06,0-14.14-.11ZM311.63,138l-18.87,3.12,12.64.1Z"/></g><g id="triangle36-69" data-name="triangle36"><path class="cls-2" d="M314.42,158.45l-.07,0-23.14-17.05a.12.12,0,0,1,0-.14.12.12,0,0,1,.12-.09l14.14.11a.12.12,0,0,1,.11.07l9,16.94a.11.11,0,0,1,0,.15A.09.09,0,0,1,314.42,158.45Zm-22.74-17,22.37,16.48-8.7-16.37Z"/></g><g id="triangle36-70" data-name="triangle36"><path class="cls-2" d="M314.42,158.45a.11.11,0,0,1-.1-.06l-9-16.94a.12.12,0,0,1,0-.1.11.11,0,0,1,.06-.07l7-3.61a.13.13,0,0,1,.12,0,.14.14,0,0,1,.07.1l2,20.54a.12.12,0,0,1-.09.14Zm-8.82-17,8.64,16.26L312.29,138Z"/></g><g id="triangle36-71" data-name="triangle36"><path class="cls-2" d="M235.05,144h0l-42.09-19.91a.12.12,0,0,1-.07-.1.11.11,0,0,1,.05-.12l22.92-16.68a.12.12,0,0,1,.1,0,.1.1,0,0,1,.08.06l19.17,36.6a.11.11,0,0,1,0,.14A.1.1,0,0,1,235.05,144ZM193.22,124l41.55,19.66L215.85,107.5Z"/></g><g id="triangle36-72" data-name="triangle36"><path class="cls-2" d="M235.05,144a.12.12,0,0,1-.1-.07l-19.17-36.59a.12.12,0,0,1,0-.1.16.16,0,0,1,.08-.08l18.37-6.92a.11.11,0,0,1,.11,0,.13.13,0,0,1,.06.11l.8,43.51a.14.14,0,0,1-.1.13Zm-19-36.65,18.86,36-.79-42.8Z"/></g><g id="triangle36-73" data-name="triangle36"><path class="cls-2" d="M235.05,144h0a.12.12,0,0,1-.1-.12l-.8-43.52a.1.1,0,0,1,0-.09.11.11,0,0,1,.09,0l14.91.77s.07,0,.09.06a.11.11,0,0,1,0,.11L235.18,144A.12.12,0,0,1,235.05,144Zm-.66-43.51.79,42.64L249,101.28Z"/></g><g id="triangle36-74" data-name="triangle36"><path class="cls-2" d="M247.8,155.12a.11.11,0,0,1-.07,0L235,144a.12.12,0,0,1,0-.14.14.14,0,0,1,.12-.08l56.22-2.63c.07,0,.12,0,.13.11a.12.12,0,0,1-.09.14l-43.47,13.72ZM235.38,144l12.46,10.83,42.48-13.4Z"/></g><g id="triangle36-75" data-name="triangle36"><path class="cls-2" d="M234.26,100.51a.12.12,0,0,1-.12-.08.14.14,0,0,1,0-.14L249.87,87a.13.13,0,0,1,.21.11l-.78,14.06a.13.13,0,0,1-.14.12l-14.9-.77Zm15.55-13.13-15.22,12.9,14.46.74Z"/></g><g id="triangle36-76" data-name="triangle36"><path class="cls-2" d="M249.94,87.22a.09.09,0,0,1-.06,0,.09.09,0,0,1,0-.11l3.84-65a.12.12,0,0,1,.09-.11.11.11,0,0,1,.14,0l33.41,49.71a.14.14,0,0,1,0,.11.18.18,0,0,1-.07.08L250,87.21Zm4-64.8L250.09,86.9,287,71.69Z"/></g><g id="triangle36-77" data-name="triangle36"><path class="cls-2" d="M249.16,101.28a.07.07,0,0,1-.06,0,.11.11,0,0,1-.06-.11l.79-14.07a.15.15,0,0,1,0-.09.12.12,0,0,1,.1,0l19.46,3.4a.13.13,0,0,1,.1.1.13.13,0,0,1-.07.14l-20.23,10.66A.09.09,0,0,1,249.16,101.28Zm.91-14-.76,13.7L269,90.55Z"/></g><g id="triangle36-78" data-name="triangle36"><path class="cls-2" d="M269.4,90.62h0l-19.45-3.4a.14.14,0,0,1,0-.25l37.25-15.34a.12.12,0,0,1,.15.05.12.12,0,0,1,0,.16L269.5,90.58A.14.14,0,0,1,269.4,90.62Zm-19-3.58,19,3.32L286.7,72.09Z"/></g><g id="triangle36-79" data-name="triangle36"><path class="cls-2" d="M289.14,102h-.06L269.34,90.6a.11.11,0,0,1-.06-.09.09.09,0,0,1,0-.1l17.8-18.75a.13.13,0,0,1,.13,0,.14.14,0,0,1,.09.11l1.94,30.09a.13.13,0,0,1-.06.11A.1.1,0,0,1,289.14,102Zm-19.53-11.5L289,101.61l-1.91-29.56Z"/></g><g id="triangle36-80" data-name="triangle36"><path class="cls-2" d="M286.6,105.76a.11.11,0,0,1-.08,0l-17.2-15.14a.12.12,0,0,1,0-.17.14.14,0,0,1,.17,0l19.74,11.35a.1.1,0,0,1,.06.08.12.12,0,0,1,0,.1l-2.54,3.79a.15.15,0,0,1-.09.06ZM270.44,91.23l16.14,14.21,2.38-3.56Z"/></g><g id="triangle36-81" data-name="triangle36"><path class="cls-2" d="M289.14,102h0a.13.13,0,0,1-.11-.12l-1.95-30.08a.13.13,0,0,1,0-.1.13.13,0,0,1,.09,0l12.54-.09a.09.09,0,0,1,.1,0,.13.13,0,0,1,0,.12l-10.6,30.18A.11.11,0,0,1,289.14,102Zm-1.8-30.08,1.89,29.33,10.33-29.43Z"/></g><g id="triangle36-82" data-name="triangle36"><path class="cls-2" d="M313.71,117.78h0l-27.1-12a.15.15,0,0,1-.08-.08.14.14,0,0,1,0-.11l2.54-3.79a.12.12,0,0,1,.17,0l24.57,15.82a.12.12,0,0,1-.07.23Zm-26.91-12.2,25.47,11.3L289.18,102Z"/></g><g id="triangle36-83" data-name="triangle36"><path class="cls-2" d="M313.71,117.78a.08.08,0,0,1-.07,0l-24.56-15.82a.14.14,0,0,1-.06-.15l10.6-30.18a.13.13,0,0,1,.24,0l14,46a.15.15,0,0,1,0,.14A.08.08,0,0,1,313.71,117.78Zm-24.41-16,24.19,15.58-13.76-45.3Z"/></g><g id="triangle36-84" data-name="triangle36"><path class="cls-2" d="M391.29,107.82h0a.12.12,0,0,1-.1-.13l-1.07-35.31a.14.14,0,0,1,.07-.11l17.31-9.33a.14.14,0,0,1,.15,0,.12.12,0,0,1,0,.14l-16.25,44.64A.13.13,0,0,1,391.29,107.82Zm-.92-35.37,1,34.58,15.91-43.71Z"/></g><g id="triangle36-85" data-name="triangle36"><path class="cls-2" d="M162.68,202.07h0L132.5,191.26a.12.12,0,0,1-.09-.11.13.13,0,0,1,.08-.12l42.73-18.85a.13.13,0,0,1,.14,0,.14.14,0,0,1,0,.14L162.81,202A.13.13,0,0,1,162.68,202.07Zm-29.8-10.94,29.74,10.66L175,172.55Z"/></g><g id="triangle36-86" data-name="triangle36"><path class="cls-2" d="M162.68,202.07a.09.09,0,0,1-.08,0,.11.11,0,0,1,0-.13l12.58-29.65a.14.14,0,0,1,.08-.07.12.12,0,0,1,.1,0L201.72,187a.14.14,0,0,1,.06.12.12.12,0,0,1-.08.11l-39,14.82Zm12.65-29.59-12.41,29.24,38.44-14.62Z"/></g><g id="triangle36-87" data-name="triangle36"><path class="cls-2" d="M290.84,274h0a.12.12,0,0,1-.11-.08l-19.12-47.66a.14.14,0,0,1,0-.14.16.16,0,0,1,.15,0L307.21,245a.12.12,0,0,1,.06.08.1.1,0,0,1,0,.09L291,274A.11.11,0,0,1,290.84,274ZM272,226.5l18.89,47.09L307,245.14Z"/></g><g id="triangle36-88" data-name="triangle36"><path class="cls-2" d="M179,140.37a.09.09,0,0,1-.07,0l-11.37-9.68a.14.14,0,0,1,0-.16.14.14,0,0,1,.16-.05l18.47,8a.13.13,0,0,1,.08.13.13.13,0,0,1-.1.11L179,140.37ZM168.35,131,179,140.11l6.68-1.57Z"/></g><g id="triangle36-89" data-name="triangle36"><path class="cls-2" d="M186.09,138.7H186l-18.47-8a.13.13,0,0,1-.08-.12.11.11,0,0,1,.1-.11l25.35-6.58a.13.13,0,0,1,.13,0,.12.12,0,0,1,0,.13l-6.88,14.58A.11.11,0,0,1,186.09,138.7ZM168,130.6l18,7.81,6.71-14.22Z"/></g><g id="triangle36-90" data-name="triangle36"><path class="cls-2" d="M175.26,172.43h0a.13.13,0,0,1-.1-.13l3.71-32.06a.16.16,0,0,1,.1-.11l7.11-1.67a.18.18,0,0,1,.13,0,.12.12,0,0,1,0,.13l-10.82,33.72A.14.14,0,0,1,175.26,172.43Zm3.83-32.08L175.54,171l10.36-32.28Z"/></g><g id="triangle36-91" data-name="triangle36"><path class="cls-2" d="M235.05,144h0l-49-5.33a.11.11,0,0,1-.1-.06.13.13,0,0,1,0-.12l6.88-14.58a.11.11,0,0,1,.07-.06h.1l42.09,19.91a.13.13,0,0,1,.06.15A.11.11,0,0,1,235.05,144Zm-48.77-5.56,48.05,5.23L193,124.16Z"/></g><g id="triangle36-92" data-name="triangle36"><path class="cls-2" d="M193,124.12h-.05a.12.12,0,0,1-.07-.11l-2.69-39.27a.13.13,0,0,1,.21-.1L216,107.22a.12.12,0,0,1,.05.1.14.14,0,0,1-.05.1L193.05,124.1A.13.13,0,0,1,193,124.12ZM190.43,85l2.65,38.74,22.61-16.46Z"/></g><g id="triangle36-93" data-name="triangle36"><path class="cls-2" d="M215.88,107.44a.11.11,0,0,1-.07,0L190.2,84.82a.11.11,0,0,1,0-.12.12.12,0,0,1,.08-.1l24-9.09a.11.11,0,0,1,.11,0,.13.13,0,0,1,.06.1L216,107.31a.15.15,0,0,1-.07.12ZM190.52,84.76,215.75,107,214.2,75.81Z"/></g><g id="triangle36-94" data-name="triangle36"><path class="cls-2" d="M214.31,75.75h0a.11.11,0,0,1-.09-.1l-8.39-47.06a.17.17,0,0,1,0-.1.1.1,0,0,1,.08,0l47.86-6.53a.12.12,0,0,1,.12.07.12.12,0,0,1,0,.14L214.42,75.7A.09.09,0,0,1,214.31,75.75Zm-8.22-47.08,8.3,46.64,39.12-53.1Z"/></g><g id="triangle36-95" data-name="triangle36"><path class="cls-2" d="M215.88,107.44l-.06,0a.17.17,0,0,1-.06-.1l-1.57-31.69a.13.13,0,0,1,.09-.12.11.11,0,0,1,.14,0l19.94,24.76a.11.11,0,0,1,0,.11.18.18,0,0,1-.08.09l-18.37,6.92ZM214.47,76,216,107.13l18-6.8Z"/></g><g id="triangle36-96" data-name="triangle36"><path class="cls-2" d="M234.26,100.51a.18.18,0,0,1-.1,0L214.22,75.71a.14.14,0,0,1,0-.16.12.12,0,0,1,.14,0L250,87a.12.12,0,0,1,.09.1.12.12,0,0,1-.05.12l-15.68,13.29A.09.09,0,0,1,234.26,100.51ZM214.69,75.88l19.59,24.33L249.7,87.14Z"/></g><g id="triangle36-97" data-name="triangle36"><path class="cls-2" d="M249.94,87.22h0L214.28,75.75a.14.14,0,0,1-.08-.09.11.11,0,0,1,0-.11L253.69,22a.13.13,0,0,1,.15,0,.13.13,0,0,1,.08.13L250.08,87.1a.12.12,0,0,1-.06.1ZM214.53,75.56l35.31,11.36,3.8-64.46Z"/></g><g id="triangle36-98" data-name="triangle36"><path class="cls-2" d="M311.18,224.66a.12.12,0,0,1-.11-.07l-12.32-23.85a.13.13,0,0,1,.21-.15L321.62,225a.14.14,0,0,1,0,.14.11.11,0,0,1-.12.07l-10.34-.57ZM299.4,201.44l11.86,23,10,.55Z"/></g><g id="triangle36-99" data-name="triangle36"><path class="cls-2" d="M321.51,225.23a.09.09,0,0,1-.08,0l-22.66-24.43a.12.12,0,0,1,0-.15.11.11,0,0,1,.15-.05l43.15,16a.12.12,0,0,1,.08.11.12.12,0,0,1-.08.12l-20.49,8.42S321.53,225.24,321.51,225.23ZM299.32,201l22.24,24,20.11-8.26Z"/></g><g id="triangle36-100" data-name="triangle36"><path class="cls-2" d="M307.14,245.22h0a.13.13,0,0,1-.08-.14l4-20.56a.12.12,0,0,1,.13-.1l10.34.57s.09,0,.11.07a.15.15,0,0,1,0,.13l-14.38,20A.14.14,0,0,1,307.14,245.22Zm4.15-20.55-3.91,19.88,13.9-19.33Z"/></g><g id="triangle36-101" data-name="triangle36"><path class="cls-2" d="M321.51,225.23a.12.12,0,0,1-.11-.1.12.12,0,0,1,.08-.14L342,216.58a.11.11,0,0,1,.11,0l18.17,10.63a.13.13,0,0,1,.06.14.12.12,0,0,1-.13.09l-38.66-2.22ZM342,216.84,322.09,225l37.58,2.16Z"/></g><g id="triangle36-102" data-name="triangle36"><path class="cls-2" d="M373.89,207.22a.07.07,0,0,1-.06,0L317.5,170.11a.11.11,0,0,1,0-.15.11.11,0,0,1,.15-.07l64.63,17.21a.18.18,0,0,1,.08.07.14.14,0,0,1,0,.11L374,207.15a.18.18,0,0,1-.08.07Zm-55.6-36.89,55.55,36.58,8.19-19.6Z"/></g><g id="triangle36-103" data-name="triangle36"><path class="cls-2" d="M382.2,187.35h0l-64.63-17.22a.11.11,0,0,1-.09-.13.14.14,0,0,1,.1-.12l62.08-11.79a.13.13,0,0,1,.1,0,.13.13,0,0,1,0,.09l2.55,29a.12.12,0,0,1,0,.1A.16.16,0,0,1,382.2,187.35ZM318.14,170l63.92,17-2.52-28.69Z"/></g><g id="triangle36-104" data-name="triangle36"><path class="cls-2" d="M299.92,227.79l-.06,0a.14.14,0,0,1,0-.17l2-3.33a.14.14,0,0,1,.13-.06.13.13,0,0,1,.1.1l.11.52a.19.19,0,0,1,0,.1L300,227.74A.13.13,0,0,1,299.92,227.79Zm1.92-3.1-.51.86.54-.73Z"/></g><g id="triangle36-105" data-name="triangle36"><path class="cls-2" d="M299.92,227.79a.18.18,0,0,1-.09-.06.14.14,0,0,1,0-.15l2.07-2.81a.12.12,0,0,1,.1-.05l9.18-.31a.12.12,0,0,1,.13.11.13.13,0,0,1-.09.14L300,227.78Zm2.15-2.82-1.82,2.47,9.87-2.74Z"/></g><g id="triangle36-106" data-name="triangle36"><path class="cls-2" d="M307.14,245.22a.13.13,0,0,1-.11-.08l-7.22-17.43a.14.14,0,0,1,0-.11.1.1,0,0,1,.08-.06l11.25-3.13a.13.13,0,0,1,.12,0,.14.14,0,0,1,0,.12l-4,20.56a.13.13,0,0,1-.11.1Zm-7-17.48,7,16.91L311,224.71Z"/></g><g id="triangle36-107" data-name="triangle36"><path class="cls-2" d="M175.26,172.43a.16.16,0,0,1-.09-.05.11.11,0,0,1,0-.12L186,138.54a.14.14,0,0,1,.09-.08.11.11,0,0,1,.11,0l35.64,27.92a.11.11,0,0,1,0,.13.11.11,0,0,1-.1.09l-46.47,5.81Zm10.9-33.64-10.71,33.36,46-5.74Z"/></g><g id="triangle36-108" data-name="triangle36"><path class="cls-2" d="M201.65,187.25l-.06,0-26.38-14.82a.13.13,0,0,1-.07-.13.14.14,0,0,1,.11-.11l46.46-5.8a.11.11,0,0,1,.13.07.11.11,0,0,1,0,.14l-20.07,20.63A.14.14,0,0,1,201.65,187.25Zm-26-14.87,26,14.58,19.76-20.29Z"/></g><g id="triangle36-109" data-name="triangle36"><path class="cls-2" d="M221.72,166.62l-.07,0L186,138.68a.12.12,0,0,1,0-.15.13.13,0,0,1,.13-.08l49,5.33a.12.12,0,0,1,.1.07.17.17,0,0,1,0,.12l-13.33,22.59a.15.15,0,0,1-.09.06Zm-35.2-27.87,35.17,27.56L234.85,144Z"/></g><g id="triangle36-110" data-name="triangle36"><path class="cls-2" d="M214.1,192.53h0l-12.45-5.28a.14.14,0,0,1-.08-.09.13.13,0,0,1,0-.12l20.08-20.62a.13.13,0,0,1,.21.12l-7.62,25.91a.13.13,0,0,1-.07.08Zm-12.23-5.45L214,192.23,221.46,167Z"/></g><g id="triangle36-111" data-name="triangle36"><path class="cls-2" d="M214.1,192.53a.12.12,0,0,1-.09-.05.14.14,0,0,1,0-.11l7.62-25.91a.14.14,0,0,1,.09-.09.14.14,0,0,1,.12,0l23,25.06a.14.14,0,0,1,0,.14.12.12,0,0,1-.11.08l-30.65.84Zm7.69-25.78-7.51,25.52,30.19-.83Z"/></g><g id="triangle36-112" data-name="triangle36"><path class="cls-2" d="M221.72,166.62a.09.09,0,0,1-.08,0,.12.12,0,0,1,0-.15L235,143.84a.15.15,0,0,1,.09-.06.2.2,0,0,1,.11,0L247.9,154.9a.16.16,0,0,1,0,.12.14.14,0,0,1-.08.09l-26.08,11.5Zm13.37-22.52L222,166.22,247.58,155Z"/></g><g id="triangle36-113" data-name="triangle36"><path class="cls-2" d="M244.74,191.69l-.08,0-23-25.07a.13.13,0,0,1,0-.12.14.14,0,0,1,.09-.09L257.28,158a.13.13,0,0,1,.12,0,.16.16,0,0,1,0,.13l-12.56,33.4a.12.12,0,0,1-.09.09ZM222,166.57l22.74,24.75,12.4-33Z"/></g><g id="triangle36-114" data-name="triangle36"><path class="cls-2" d="M221.72,166.62a.12.12,0,0,1-.11-.08.13.13,0,0,1,.07-.16l26.08-11.5h.09l9.5,3.15a.12.12,0,0,1,.08.13.12.12,0,0,1-.09.12l-35.58,8.34Zm26.1-11.49L223,166.06l33.81-7.93Z"/></g><g id="triangle36-115" data-name="triangle36"><path class="cls-2" d="M358.48,65.56h0a.16.16,0,0,1-.09-.07l-23.47-47a.14.14,0,0,1,0-.14.15.15,0,0,1,.13,0l63,15.89a.12.12,0,0,1,.09.1.11.11,0,0,1,0,.12L358.57,65.53A.16.16,0,0,1,358.48,65.56Zm-23.23-47,23.28,46.65L397.7,34.35Z"/></g><g id="triangle36-116" data-name="triangle36"><path class="cls-2" d="M390.23,72.51h0l-31.75-6.94a.14.14,0,0,1-.1-.1.13.13,0,0,1,.05-.13L397.9,34.19a.14.14,0,0,1,.15,0,.12.12,0,0,1,.05.13l-7.74,38.09a.1.1,0,0,1-.05.08Zm-31.45-7.14,31.36,6.86,7.65-37.62Z"/></g><g id="triangle36-117" data-name="triangle36"><path class="cls-2" d="M390.23,72.51a.11.11,0,0,1-.07,0,.13.13,0,0,1-.05-.13l7.74-38.08a.13.13,0,0,1,.12-.1.12.12,0,0,1,.13.08L407.68,63a.14.14,0,0,1-.06.15L390.3,72.49ZM398,34.78l-7.59,37.36,17-9.15Z"/></g><g id="triangle36-118" data-name="triangle36"><path class="cls-2" d="M407.55,63.18a.16.16,0,0,1-.12-.09l-9.57-28.76a.11.11,0,0,1,.05-.14.12.12,0,0,1,.15,0l27.2,25.13a.17.17,0,0,1,0,.13.13.13,0,0,1-.1.09l-17.62,3.62Zm-9.3-28.46,9.39,28.18,17.27-3.55Z"/></g><g id="triangle36-119" data-name="triangle36"><path class="cls-2" d="M295.2,229.92h0l-23.48-3.56a.13.13,0,0,1,0-.25l30.17-1.89a.13.13,0,0,1,.13.08.12.12,0,0,1,0,.14l-6.69,5.46A.12.12,0,0,1,295.2,229.92Zm-22.28-3.64,22.26,3.38,6.33-5.17Z"/></g><g id="triangle36-120" data-name="triangle36"><path class="cls-2" d="M307.14,245.22l-.05,0-35.42-18.86a.13.13,0,0,1-.06-.15.12.12,0,0,1,.14-.09l23.48,3.56.08.05L307.25,245a.13.13,0,0,1,0,.16A.16.16,0,0,1,307.14,245.22Zm-34.7-18.76,34.24,18.24-11.54-14.79Z"/></g><g id="triangle36-121" data-name="triangle36"><path class="cls-2" d="M295.2,229.92a.21.21,0,0,1-.1-.06.14.14,0,0,1,0-.17l6.69-5.45a.12.12,0,0,1,.16,0,.12.12,0,0,1,0,.16l-2,3.32s0,0-.06.06l-4.72,2.13Zm6.23-5-5.39,4.4,3.8-1.72Zm-1.5,2.78Z"/></g><g id="triangle36-122" data-name="triangle36"><path class="cls-2" d="M307.14,245.22a.12.12,0,0,1-.09-.05l-11.94-15.3a.14.14,0,0,1,0-.11.13.13,0,0,1,.07-.09l4.72-2.13h.1a.16.16,0,0,1,.07.07L307.27,245a.13.13,0,0,1-.06.16Zm-11.73-15.38,11.26,14.44-6.81-16.45Z"/></g><g id="triangle36-123" data-name="triangle36"><path class="cls-2" d="M70,170.53a.11.11,0,0,1-.11-.09.11.11,0,0,1,.07-.14l30-15.21a.11.11,0,0,1,.1,0,.13.13,0,0,1,.07.06l5.34,11a.11.11,0,0,1,0,.11.13.13,0,0,1-.1.07L70,170.53Zm29.92-15.16L70.72,170.2l34.42-4.09Z"/></g><g id="triangle36-124" data-name="triangle36"><path class="cls-2" d="M105.32,166.34h0a.11.11,0,0,1-.09-.07l-5.35-11a.13.13,0,0,1,0-.12.14.14,0,0,1,.1-.07l18.08-2.47a.11.11,0,0,1,.13.07.11.11,0,0,1,0,.14L105.42,166.3A.12.12,0,0,1,105.32,166.34Zm-5.14-11L105.36,166l12.37-13.09Z"/></g><g id="triangle36-125" data-name="triangle36"><path class="cls-2" d="M160.2,97.61h0a.12.12,0,0,1-.08-.15L167,76.16a.14.14,0,0,1,.16-.08.12.12,0,0,1,.08.16l-6.91,21.28A.13.13,0,0,1,160.2,97.61Z"/></g><g id="triangle36-126" data-name="triangle36"><path class="cls-2" d="M160.2,97.61a.13.13,0,0,1-.08,0,.13.13,0,0,1,0-.13L167,76.16a.12.12,0,0,1,.07-.07.11.11,0,0,1,.1,0l23.16,8.52a.15.15,0,0,1,.08.12.13.13,0,0,1-.08.12L160.26,97.6Zm7-21.24-6.78,20.89,29.52-12.53Z"/></g><g id="triangle36-127" data-name="triangle36"><path class="cls-2" d="M166.87,125.57a.13.13,0,0,1-.12-.1l-6.66-28a.11.11,0,0,1,0-.13.12.12,0,0,1,.15,0l32.76,26.51a.12.12,0,0,1,0,.14.12.12,0,0,1-.11.08l-26.1,1.45Zm-6.45-27.75L167,125.31l25.67-1.42Z"/></g><g id="triangle36-128" data-name="triangle36"><path class="cls-2" d="M193,124.12a.11.11,0,0,1-.08,0L160.13,97.58a.13.13,0,0,1,0-.11.14.14,0,0,1,.08-.1L190.23,84.6a.17.17,0,0,1,.12,0,.13.13,0,0,1,.06.1L193.1,124a.12.12,0,0,1-.07.12Zm-32.52-26.6,32.38,26.19-2.66-38.8Z"/></g><g id="triangle36-129" data-name="triangle36"><path class="cls-2" d="M382.2,187.35h0a.12.12,0,0,1-.09-.11l-2.56-29a.14.14,0,0,1,.2-.12l15.09,10.43a.14.14,0,0,1,0,.18L382.31,187.3A.11.11,0,0,1,382.2,187.35Zm-2.4-28.87,2.5,28.38,12.26-18.18Z"/></g><g id="triangle36-130" data-name="triangle36"><path class="cls-2" d="M394.73,168.77l-.07,0-15.08-10.43a.15.15,0,0,1-.06-.09.14.14,0,0,1,0-.1l25.71-28.58a.12.12,0,0,1,.16,0,.13.13,0,0,1,.06.14l-10.63,39a.14.14,0,0,1-.08.09Zm-14.89-10.58,14.82,10.25,10.44-38.33Z"/></g><g id="triangle36-131" data-name="triangle36"><path class="cls-2" d="M394.73,168.77l-.07,0a.15.15,0,0,1-.05-.14l10.63-39a.11.11,0,0,1,.07-.08.14.14,0,0,1,.11,0L438,144a.13.13,0,0,1,.08.11.14.14,0,0,1-.07.12l-43.23,24.5Zm10.72-39-10.51,38.58,42.75-24.23Z"/></g><g id="triangle36-132" data-name="triangle36"><path class="cls-2" d="M147.89,143.73a.14.14,0,0,1-.09,0,.14.14,0,0,1,0-.17l19-18.16a.13.13,0,0,1,.12,0,.15.15,0,0,1,.09.1l.74,5.13a.11.11,0,0,1-.05.12l-19.72,13Zm18.89-18-17.77,17,18.47-12.21Z"/></g><g id="triangle36-133" data-name="triangle36"><path class="cls-2" d="M147.89,143.73a.14.14,0,0,1-.11-.09.11.11,0,0,1,.05-.14l19.72-13a.12.12,0,0,1,.15,0l11.36,9.68a.13.13,0,0,1,0,.13.13.13,0,0,1-.11.09l-31.07,3.36Zm19.72-13-19.2,12.69,30.26-3.27Z"/></g><g id="triangle36-134" data-name="triangle36"><path class="cls-2" d="M175.26,172.43a.2.2,0,0,1-.08,0l-27.37-28.7a.16.16,0,0,1,0-.13.12.12,0,0,1,.11-.08L179,140.12a.15.15,0,0,1,.11,0,.11.11,0,0,1,0,.1l-3.71,32.05a.12.12,0,0,1-.08.11ZM148.17,143.7l27,28.32,3.66-31.63Z"/></g><g id="triangle36-135" data-name="triangle36"><path class="cls-2" d="M235.05,144a.11.11,0,0,1-.07,0,.12.12,0,0,1,0-.13l14.11-42.75a.11.11,0,0,1,.07-.08.2.2,0,0,1,.11,0l33.54,16.61a.14.14,0,0,1,.07.11.13.13,0,0,1-.06.12L235.12,144Zm14.19-42.69-14,42.3,47.16-25.87Z"/></g><g id="triangle36-136" data-name="triangle36"><path class="cls-2" d="M235.05,144a.12.12,0,0,1-.11-.09.11.11,0,0,1,.06-.14l47.65-26.14a.14.14,0,0,1,.11,0,.12.12,0,0,1,.07.07l8.58,23.52a.15.15,0,0,1,0,.11.17.17,0,0,1-.1.06L235.07,144ZM282.65,118l-47,25.8,55.51-2.59Z"/></g><g id="triangle36-137" data-name="triangle36"><path class="cls-2" d="M282.71,117.89h0l-33.55-16.61a.13.13,0,0,1-.06-.15.13.13,0,0,1,.14-.09l37.43,4.48a.11.11,0,0,1,.09,0,.14.14,0,0,1,0,.11l-3.89,12.14a.14.14,0,0,1-.08.07A0,0,0,0,1,282.71,117.89Zm-32.82-16.52,32.75,16.22,3.8-11.85Z"/></g><g id="triangle36-138" data-name="triangle36"><path class="cls-2" d="M282.71,117.89a.12.12,0,0,1-.12-.16l3.9-12.14a.11.11,0,0,1,.06-.07.11.11,0,0,1,.11,0l27.1,12a.14.14,0,0,1,.08.14.13.13,0,0,1-.13.1l-31,.11Zm4-12.09-3.79,11.84,30.23-.11Z"/></g><g id="triangle36-139" data-name="triangle36"><path class="cls-2" d="M291.28,141.41a.13.13,0,0,1-.11-.09l-8.57-23.51a.11.11,0,0,1,0-.14.12.12,0,0,1,.15,0l29.68,20a.11.11,0,0,1,0,.13.13.13,0,0,1-.1.1l-21.11,3.49ZM283,118.09l8.4,23,20.69-3.43Z"/></g><g id="triangle36-140" data-name="triangle36"><path class="cls-2" d="M312.39,137.91l-.06,0-29.69-20a.15.15,0,0,1-.05-.14.14.14,0,0,1,.12-.09l31-.11a.13.13,0,0,1,.1,0,.17.17,0,0,1,0,.1l-1.31,20.12a.14.14,0,0,1-.07.11Zm-29.26-20,29.16,19.66,1.29-19.77Z"/></g><g id="triangle36-141" data-name="triangle36"><path class="cls-2" d="M373.89,207.22a.09.09,0,0,1-.08,0,.13.13,0,0,1,0-.13l8.31-19.87a.12.12,0,0,1,.09-.08.14.14,0,0,1,.11,0L397,199.77a.13.13,0,0,1,0,.12.12.12,0,0,1-.09.09l-23,7.24Zm8.36-19.78-8.13,19.45,22.5-7.08Z"/></g><g id="triangle36-142" data-name="triangle36"><path class="cls-2" d="M390.71,215.94l0,0-16.82-8.71a.14.14,0,0,1-.07-.12.13.13,0,0,1,.09-.11l23-7.24a.14.14,0,0,1,.13,0,.12.12,0,0,1,0,.13l-6.16,16a.12.12,0,0,1-.07.07Zm-16.48-8.81,16.42,8.5,6-15.57Z"/></g><g id="triangle36-143" data-name="triangle36"><path class="cls-2" d="M396.87,200a.11.11,0,0,1-.08,0l-14.67-12.64a.11.11,0,0,1,0-.16l12.53-18.58a.13.13,0,0,1,.14-.06.13.13,0,0,1,.09.12L397,199.85a.12.12,0,0,1-.07.13Zm-14.5-12.79,14.36,12.37L394.63,169Z"/></g><g id="triangle36-144" data-name="triangle36"><path class="cls-2" d="M390.71,215.94a.11.11,0,0,1-.08,0,.12.12,0,0,1,0-.14l6.16-16a.14.14,0,0,1,.07-.08.12.12,0,0,1,.1,0l11.6,6a.12.12,0,0,1,.07.11.11.11,0,0,1-.06.11l-17.76,9.91Zm6.23-15.9-6,15.49,17.25-9.63Z"/></g><g id="triangle36-145" data-name="triangle36"><path class="cls-2" d="M105.32,166.34a.12.12,0,0,1-.08-.21L118,152.64a.12.12,0,0,1,.1,0l23.49,1.33h0a.12.12,0,0,1,0,.24l-36.23,12.16Zm12.8-13.49-12.35,13.08,35.13-11.79Z"/></g><g id="triangle36-146" data-name="triangle36"><path class="cls-2" d="M132.53,191.27a.11.11,0,0,1-.08,0l-27.21-24.93a.13.13,0,0,1,0-.12.14.14,0,0,1,.08-.1l36.23-12.16a.16.16,0,0,1,.13,0,.11.11,0,0,1,0,.12l-9,37.09a.11.11,0,0,1-.08.09Zm-27-25,26.9,24.64,8.91-36.65Z"/></g><g id="triangle36-147" data-name="triangle36"><path class="cls-2" d="M118.06,152.85a.13.13,0,0,1-.12-.11.13.13,0,0,1,.09-.14l29.83-9.12a.12.12,0,0,1,.14,0,.14.14,0,0,1,0,.15l-6.34,10.45a.13.13,0,0,1-.12.06l-23.49-1.33Zm29.56-9-28.84,8.82,22.71,1.28Z"/></g><g id="triangle36-148" data-name="triangle36"><path class="cls-2" d="M132.53,191.27a.09.09,0,0,1-.07,0,.11.11,0,0,1,0-.13l9-37.09a.11.11,0,0,1,.07-.08.11.11,0,0,1,.11,0l33.71,18.25a.14.14,0,0,1,.07.12.18.18,0,0,1-.08.11l-42.73,18.84Zm9.12-37-8.93,36.68L175,172.29Z"/></g><g id="triangle36-149" data-name="triangle36"><path class="cls-2" d="M175.26,172.43l0,0L141.5,154.17a.16.16,0,0,1-.06-.08.11.11,0,0,1,0-.1l6.34-10.45a.11.11,0,0,1,.1-.06.11.11,0,0,1,.1,0l27.37,28.7a.14.14,0,0,1,0,.17A.16.16,0,0,1,175.26,172.43ZM141.74,154l32.88,17.8-26.7-28Z"/></g><g id="triangle36-150" data-name="triangle36"><path class="cls-2" d="M281.53,169h0l-24.22-10.72a.12.12,0,0,1-.08-.11.14.14,0,0,1,.07-.12l34-16.87a.12.12,0,0,1,.14,0,.15.15,0,0,1,0,.14l-9.76,27.6a.11.11,0,0,1-.06.07Zm-23.92-10.85,23.85,10.55,9.6-27.17Z"/></g><g id="triangle36-151" data-name="triangle36"><path class="cls-2" d="M281.53,169a.13.13,0,0,1-.09,0,.12.12,0,0,1,0-.13l9.75-27.59a.12.12,0,0,1,.09-.09.13.13,0,0,1,.12,0l19.17,22.27a.16.16,0,0,1,0,.12.13.13,0,0,1-.1.09L281.56,169Zm9.8-27.47-9.6,27.18,28.48-5.24Z"/></g><g id="triangle36-152" data-name="triangle36"><path class="cls-2" d="M298.86,200.8a.11.11,0,0,1-.11-.06l-17.33-31.8a.12.12,0,0,1,0-.13.11.11,0,0,1,.11-.06l36,1.13a.11.11,0,0,1,.1.07.11.11,0,0,1,0,.12L299,200.74a.11.11,0,0,1-.11.06ZM281.75,169l17.12,31.41,18.48-30.29Z"/></g><g id="triangle36-153" data-name="triangle36"><path class="cls-2" d="M281.53,169a.11.11,0,0,1-.12-.11.12.12,0,0,1,.1-.14l28.92-5.32a.1.1,0,0,1,.1,0l7.13,6.45a.14.14,0,0,1,0,.15.13.13,0,0,1-.12.08l-36-1.14Zm28.88-5.31-27.69,5.1,34.51,1.08Z"/></g><g id="triangle36-154" data-name="triangle36"><path class="cls-2" d="M167.11,76.33a.13.13,0,0,1-.1-.06.14.14,0,0,1,.05-.18l24.52-14.34a.12.12,0,0,1,.17,0,.14.14,0,0,1-.05.18L167.19,76.31Z"/></g><g id="triangle36-155" data-name="triangle36"><path class="cls-2" d="M190.27,84.85h0l-23.16-8.52a.12.12,0,0,1-.08-.11.12.12,0,0,1,.06-.12l24.52-14.34a.11.11,0,0,1,.13,0,.13.13,0,0,1,.06.11l-1.36,22.87a.13.13,0,0,1-.06.1Zm-22.85-8.67,22.75,8.36,1.33-22.45Z"/></g><g id="triangle36-156" data-name="triangle36"><path class="cls-2" d="M190.27,84.85a.09.09,0,0,1-.06,0,.09.09,0,0,1-.05-.11l1.35-22.86a.19.19,0,0,1,.07-.11.13.13,0,0,1,.12,0l22.69,13.77a.13.13,0,0,1,.06.12.12.12,0,0,1-.08.1l-24,9.1Zm1.48-22.78-1.33,22.46L214,75.6Z"/></g><g id="triangle36-157" data-name="triangle36"><path class="cls-2" d="M191.63,62h0a.14.14,0,0,1-.1-.14l4.71-37a.11.11,0,0,1,.06-.1.14.14,0,0,1,.11,0L206,28.45a.11.11,0,0,1,.08.07.1.1,0,0,1,0,.09l-14.29,33.3A.13.13,0,0,1,191.63,62Zm4.82-36.91L191.88,61l13.89-32.34Z"/></g><g id="triangle36-158" data-name="triangle36"><path class="cls-2" d="M214.31,75.75l-.05,0L191.57,62a.14.14,0,0,1,0-.16l14.3-33.3a.11.11,0,0,1,.13-.07.13.13,0,0,1,.11.1l8.39,47.06a.16.16,0,0,1-.06.13A.11.11,0,0,1,214.31,75.75ZM191.8,61.81l22.35,13.56L205.89,29Z"/></g><g id="triangle36-159" data-name="triangle36"><path class="cls-2" d="M244.74,191.69a.11.11,0,0,1-.07,0,.13.13,0,0,1,0-.14l12.56-33.41a.13.13,0,0,1,.1-.08.11.11,0,0,1,.12.05l12.67,18.5a.12.12,0,0,1,0,.1s0,.06-.06.08l-25.22,14.91Zm12.6-33.26L245,191.27l24.8-14.66Z"/></g><g id="triangle36-160" data-name="triangle36"><path class="cls-2" d="M268.91,199.26h0l-24.17-7.57a.12.12,0,0,1-.08-.11.11.11,0,0,1,.06-.12l25.22-14.91a.15.15,0,0,1,.13,0,.15.15,0,0,1,.07.12L269,199.13a.12.12,0,0,1-.05.1A.11.11,0,0,1,268.91,199.26Zm-23.85-7.74L268.8,199l1-22.08Z"/></g><g id="triangle36-161" data-name="triangle36"><path class="cls-2" d="M270,176.78a.12.12,0,0,1-.1-.06L257.2,158.23a.14.14,0,0,1,0-.16.14.14,0,0,1,.15,0l24.23,10.72a.12.12,0,0,1,.07.1.12.12,0,0,1-.05.12l-11.56,7.78Zm-12.31-18.33,12.35,18,11.26-7.58Z"/></g><g id="triangle36-162" data-name="triangle36"><path class="cls-2" d="M268.91,199.26l-.08,0a.13.13,0,0,1,0-.1l1.06-22.47a.14.14,0,0,1,.11-.12.12.12,0,0,1,.14.08l7.45,22.12a.14.14,0,0,1-.12.17l-8.51.36Zm1.16-21.93-1,21.67,8.2-.35Z"/></g><g id="triangle36-163" data-name="triangle36"><path class="cls-2" d="M298.86,200.8h0l-21.43-1.9a.13.13,0,0,1-.11-.09l-7.45-22.12a.11.11,0,0,1,.05-.14.12.12,0,0,1,.15,0l28.88,24a.12.12,0,0,1,0,.15A.11.11,0,0,1,298.86,200.8Zm-21.34-2.15,21,1.86L270.24,177Z"/></g><g id="triangle36-164" data-name="triangle36"><path class="cls-2" d="M298.86,200.8a.11.11,0,0,1-.08,0l-28.88-24a.14.14,0,0,1,0-.1.13.13,0,0,1,.06-.1l11.55-7.78a.14.14,0,0,1,.11,0,.13.13,0,0,1,.08.07L299,200.62a.12.12,0,0,1,0,.16A.08.08,0,0,1,298.86,200.8Zm-28.67-24.14,28.24,23.5-16.94-31.1Z"/></g><g id="triangle36-165" data-name="triangle36"><path class="cls-2" d="M92,232a.09.09,0,0,1-.07,0,.11.11,0,0,1,0-.12l4.45-22.66a.11.11,0,0,1,0-.09.17.17,0,0,1,.1,0l29,7.28a.12.12,0,0,1,0,.23L92.07,232Zm4.55-22.63-4.37,22.29,32.92-15.14Z"/></g><g id="triangle36-166" data-name="triangle36"><path class="cls-2" d="M112.75,240.45h0L92,232a.12.12,0,0,1-.08-.11.14.14,0,0,1,.07-.12l33.48-15.39a.14.14,0,0,1,.15,0,.16.16,0,0,1,0,.15l-12.74,23.85A.12.12,0,0,1,112.75,240.45Zm-20.41-8.59,20.36,8.31,12.51-23.42Z"/></g><g id="triangle36-167" data-name="triangle36"><path class="cls-2" d="M125.49,216.61h0l-29-7.27a.16.16,0,0,1-.1-.11.14.14,0,0,1,.07-.13l15.78-8.42a.14.14,0,0,1,.15,0l13.26,15.7a.12.12,0,0,1,0,.15A.13.13,0,0,1,125.49,216.61Zm-28.68-7.45,28.33,7.1L112.21,201Z"/></g><g id="triangle36-168" data-name="triangle36"><path class="cls-2" d="M125.49,216.61a.13.13,0,0,1-.09-.05l-13.26-15.69a.14.14,0,0,1,0-.16.14.14,0,0,1,.15,0l10.65,4.15a.11.11,0,0,1,.07.09l2.62,11.54a.13.13,0,0,1-.07.14Zm-12.83-15.52L125.26,216l-2.49-11Z"/></g><g id="triangle36-169" data-name="triangle36"><path class="cls-2" d="M112.75,240.45a.11.11,0,0,1-.08,0,.14.14,0,0,1,0-.15l12.74-23.85a.14.14,0,0,1,.1-.07l35.83-3.85a.12.12,0,0,1,.13.08.13.13,0,0,1-.06.15l-48.56,27.71Zm12.83-23.85L113.07,240l47.66-27.19Z"/></g><g id="triangle36-170" data-name="triangle36"><path class="cls-2" d="M125.49,216.61a.14.14,0,0,1-.12-.1L122.76,205a.11.11,0,0,1,0-.11.1.1,0,0,1,.11,0l38.44,7.69a.13.13,0,0,1,.11.13.15.15,0,0,1-.12.12l-35.82,3.86Zm-2.44-11.51,2.54,11.24,34.89-3.76Z"/></g><g id="triangle36-171" data-name="triangle36"><path class="cls-2" d="M319.73,254.57l-.06,0-12.6-9.36a.12.12,0,0,1,0-.17l14.37-20a.13.13,0,0,1,.23.09l-1.78,29.33a.12.12,0,0,1-.07.11Zm-12.41-9.51,12.31,9.14,1.74-28.66Z"/></g><g id="triangle36-172" data-name="triangle36"><path class="cls-2" d="M319.73,254.57l-.05,0a.11.11,0,0,1-.06-.11l1.78-29.34a.12.12,0,0,1,.13-.12l38.66,2.22h0a.12.12,0,0,1,.06.23l-40.44,27.12A.11.11,0,0,1,319.73,254.57Zm1.91-29.33-1.75,29,39.91-26.77Z"/></g><g id="triangle36-173" data-name="triangle36"><path class="cls-2" d="M339.92,269.5s-.05,0-.07,0l-20.18-14.92a.13.13,0,0,1-.05-.11.12.12,0,0,1,.05-.1l40.44-27.12a.14.14,0,0,1,.16,0,.14.14,0,0,1,0,.15l-20.26,42a.13.13,0,0,1-.09.07Zm-20-15.05,19.92,14.73,20-41.49Z"/></g><path class="cls-3" d="M68.87,171.4a.56.56,0,1,0-1.11-.07.56.56,0,0,0,.52.59A.55.55,0,0,0,68.87,171.4Z"/><path class="cls-3" d="M227.79,216.15a.68.68,0,1,0-.72.63A.67.67,0,0,0,227.79,216.15Z"/><path class="cls-4" d="M220.11,238.6a1.46,1.46,0,1,0-1.56,1.36A1.47,1.47,0,0,0,220.11,238.6Z"/><path class="cls-3" d="M205.4,208.19a.54.54,0,0,0-.5-.58.54.54,0,1,0-.07,1.08A.54.54,0,0,0,205.4,208.19Z"/><path class="cls-3" d="M407.2,129.75a1.84,1.84,0,1,0-1.95,1.72A1.84,1.84,0,0,0,407.2,129.75Z"/><path class="cls-5" d="M380.66,158.28a1,1,0,1,0-1.08.95A1,1,0,0,0,380.66,158.28Z"/><path class="cls-3" d="M334.26,141.75A1.23,1.23,0,1,0,333,142.9,1.23,1.23,0,0,0,334.26,141.75Z"/><path class="cls-5" d="M287.9,71.8a.7.7,0,1,0-.75.65A.71.71,0,0,0,287.9,71.8Z"/><path class="cls-4" d="M314.43,59.11a2.42,2.42,0,1,0-2.57,2.25A2.4,2.4,0,0,0,314.43,59.11Z"/><path class="cls-5" d="M300.11,71.68a.38.38,0,0,0-.35-.4.37.37,0,0,0-.39.35.37.37,0,1,0,.74.05Z"/><path class="cls-3" d="M255.68,22.16a1.89,1.89,0,1,0-2,1.77A1.89,1.89,0,0,0,255.68,22.16Z"/><path class="cls-5" d="M314.51,59.11a2.5,2.5,0,1,0-2.65,2.33A2.49,2.49,0,0,0,314.51,59.11Z"/><path class="cls-4" d="M261.65,16.46a.75.75,0,1,0-.8.7A.75.75,0,0,0,261.65,16.46Z"/><path class="cls-5" d="M254.86,22.11a1.07,1.07,0,1,0-1.14,1A1.07,1.07,0,0,0,254.86,22.11Z"/><path class="cls-5" d="M314,59.08a2,2,0,1,0-2.1,1.84A2,2,0,0,0,314,59.08Z"/><circle class="cls-3" cx="287.2" cy="71.75" r="0.93"/><path class="cls-6" d="M163.46,202a.77.77,0,1,0-.82.72A.77.77,0,0,0,163.46,202Z"/><path class="cls-3" d="M164.39,212.82a3.08,3.08,0,1,0-3.27,2.87A3.07,3.07,0,0,0,164.39,212.82Z"/><path class="cls-6" d="M124.94,205.07a2.06,2.06,0,1,0-2.19,1.92A2.06,2.06,0,0,0,124.94,205.07Z"/><path class="cls-3" d="M165.15,202.11a2.47,2.47,0,1,0-2.62,2.3A2.47,2.47,0,0,0,165.15,202.11Z"/><path class="cls-3" d="M205.45,208.19a.59.59,0,0,0-.55-.62.58.58,0,1,0-.07,1.16A.59.59,0,0,0,205.45,208.19Z"/><path class="cls-5" d="M162.76,212.72a1.44,1.44,0,1,0-1.54,1.34A1.45,1.45,0,0,0,162.76,212.72Z"/><path class="cls-6" d="M164,202a1.33,1.33,0,0,0-2.66-.17A1.33,1.33,0,1,0,164,202Z"/><path class="cls-4" d="M206.18,208.24a1.32,1.32,0,0,0-1.23-1.41,1.32,1.32,0,1,0-.17,2.64A1.31,1.31,0,0,0,206.18,208.24Z"/><path class="cls-4" d="M202.69,187.19a1,1,0,1,0-1.1,1A1,1,0,0,0,202.69,187.19Z"/><path class="cls-4" d="M94.65,232a2.64,2.64,0,1,0-2.8,2.46A2.65,2.65,0,0,0,94.65,232Z"/><path class="cls-3" d="M78.47,213.71a.22.22,0,0,0-.21-.23.21.21,0,0,0-.23.21.21.21,0,0,0,.2.23A.22.22,0,0,0,78.47,213.71Z"/><path class="cls-3" d="M63.83,250a2.09,2.09,0,1,0-2.23,2A2.11,2.11,0,0,0,63.83,250Z"/><path class="cls-3" d="M195.71,246.65A2.52,2.52,0,1,0,193,249,2.52,2.52,0,0,0,195.71,246.65Z"/><path class="cls-3" d="M205.91,208.22a1.05,1.05,0,1,0-1.12,1A1,1,0,0,0,205.91,208.22Z"/><path class="cls-4" d="M162.94,212.73a1.63,1.63,0,1,0-3.25-.21,1.64,1.64,0,0,0,1.52,1.73A1.62,1.62,0,0,0,162.94,212.73Z"/><path class="cls-3" d="M194.16,246.55a1,1,0,1,0-1,.9A1,1,0,0,0,194.16,246.55Z"/><path class="cls-3" d="M221.23,238.67a2.59,2.59,0,1,0-2.75,2.41A2.6,2.6,0,0,0,221.23,238.67Z"/><path class="cls-5" d="M203.61,255.5a3.31,3.31,0,1,0-3.52,3.09A3.31,3.31,0,0,0,203.61,255.5Z"/><path class="cls-5" d="M195.75,246.66A2.56,2.56,0,1,0,193,249,2.56,2.56,0,0,0,195.75,246.66Z"/><path class="cls-6" d="M220.69,238.64a2,2,0,1,0-2.18,1.9A2.06,2.06,0,0,0,220.69,238.64Z"/><path class="cls-5" d="M206,208.23a1.15,1.15,0,1,0-2.29-.15,1.14,1.14,0,0,0,1.07,1.22A1.15,1.15,0,0,0,206,208.23Z"/><path class="cls-6" d="M392.48,107.77a1.18,1.18,0,1,0-1.25,1.1A1.19,1.19,0,0,0,392.48,107.77Z"/><path class="cls-4" d="M407.29,129.76a1.93,1.93,0,1,0-2.05,1.8A1.93,1.93,0,0,0,407.29,129.76Z"/><path class="cls-3" d="M333.52,141.7a.49.49,0,0,0-.46-.53.5.5,0,0,0-.52.47.49.49,0,0,0,.46.52A.49.49,0,0,0,333.52,141.7Z"/><path class="cls-4" d="M313.5,137.85a1.1,1.1,0,1,0-1.17,1A1.1,1.1,0,0,0,313.5,137.85Z"/><path class="cls-3" d="M333.79,141.72a.76.76,0,0,0-1.52-.1.76.76,0,0,0,1.52.1Z"/><path class="cls-3" d="M315.48,158.4a1.05,1.05,0,1,0-1.12,1A1.06,1.06,0,0,0,315.48,158.4Z"/><path class="cls-5" d="M168.54,76.29A1.42,1.42,0,1,0,167,77.62,1.41,1.41,0,0,0,168.54,76.29Z"/><path class="cls-6" d="M275,226.44a3.31,3.31,0,1,0-3.52,3.09A3.31,3.31,0,0,0,275,226.44Z"/><path class="cls-5" d="M227.67,216.14a.56.56,0,0,0-.52-.59.55.55,0,0,0-.07,1.1A.56.56,0,0,0,227.67,216.14Z"/><path class="cls-5" d="M219.19,238.54a.55.55,0,0,0-.51-.58.54.54,0,0,0-.57.51.53.53,0,0,0,.5.57A.54.54,0,0,0,219.19,238.54Z"/><path class="cls-5" d="M272.41,226.27a.68.68,0,1,0-.72.64A.68.68,0,0,0,272.41,226.27Z"/><path class="cls-3" d="M240.86,206.54a.86.86,0,1,0-.91.8A.86.86,0,0,0,240.86,206.54Z"/><path class="cls-5" d="M227.75,216.14a.63.63,0,0,0-.59-.67.64.64,0,0,0-.68.59.64.64,0,1,0,1.27.08Z"/><path class="cls-5" d="M275,226.44a3.24,3.24,0,1,0-3.44,3A3.24,3.24,0,0,0,275,226.44Z"/><path class="cls-3" d="M271.53,199.3a2.62,2.62,0,1,0-2.78,2.44A2.62,2.62,0,0,0,271.53,199.3Z"/><path class="cls-5" d="M241.2,206.56a1.2,1.2,0,1,0-1.27,1.12A1.18,1.18,0,0,0,241.2,206.56Z"/><path class="cls-6" d="M311.55,163.62a1.1,1.1,0,0,0-1-1.16,1.1,1.1,0,1,0-.14,2.19A1.1,1.1,0,0,0,311.55,163.62Z"/><path class="cls-4" d="M315.44,158.39a1,1,0,1,0-1.08,1A1,1,0,0,0,315.44,158.39Z"/><path class="cls-5" d="M292.64,141.37a1.36,1.36,0,1,0-1.44,1.26A1.36,1.36,0,0,0,292.64,141.37Z"/><path class="cls-3" d="M316.16,117.82a2.45,2.45,0,1,0-2.61,2.28A2.46,2.46,0,0,0,316.16,117.82Z"/><path class="cls-5" d="M391.84,107.73a.54.54,0,0,0-.5-.57.53.53,0,0,0-.57.5.52.52,0,0,0,.5.56A.54.54,0,0,0,391.84,107.73Z"/><path class="cls-3" d="M333.66,141.71a.63.63,0,1,0-1.26-.08.63.63,0,0,0,1.26.08Z"/><path class="cls-5" d="M312,224.59a.84.84,0,1,0-.89.78A.84.84,0,0,0,312,224.59Z"/><circle class="cls-4" cx="301.9" cy="224.34" r="1.19"/><path class="cls-5" d="M300.86,200.81a2,2,0,1,0-2.13,1.86A2,2,0,0,0,300.86,200.81Z"/><path class="cls-3" d="M312.12,224.6a.94.94,0,1,0-1,.87A.95.95,0,0,0,312.12,224.6Z"/><path class="cls-3" d="M302.59,224.89a.58.58,0,0,0-.55-.63.59.59,0,0,0-.63.55.59.59,0,0,0,.55.63A.59.59,0,0,0,302.59,224.89Z"/><path class="cls-3" d="M302.36,224.37a.45.45,0,0,0-.43-.49.46.46,0,1,0,.43.49Z"/><path class="cls-4" d="M275.45,281.82a2.36,2.36,0,1,0-2.51,2.2A2.36,2.36,0,0,0,275.45,281.82Z"/><path class="cls-4" d="M222.1,238.73a3.46,3.46,0,1,0-3.68,3.23A3.45,3.45,0,0,0,222.1,238.73Z"/><path class="cls-5" d="M201.26,255.34a1,1,0,0,0-1.91-.12,1,1,0,1,0,1.91.12Z"/><path class="cls-3" d="M273.29,281.68a.19.19,0,0,0-.18-.21.19.19,0,0,0-.21.18.2.2,0,0,0,.18.21A.19.19,0,0,0,273.29,281.68Z"/><path class="cls-5" d="M273.19,226.32a1.46,1.46,0,1,0-1.56,1.37A1.46,1.46,0,0,0,273.19,226.32Z"/><path class="cls-5" d="M218.85,238.52a.2.2,0,0,0-.19-.22.21.21,0,1,0,0,.41A.2.2,0,0,0,218.85,238.52Z"/><path class="cls-5" d="M273.47,281.69a.38.38,0,1,0-.75-.05.37.37,0,0,0,.35.4A.37.37,0,0,0,273.47,281.69Z"/><path class="cls-3" d="M292,274a1.15,1.15,0,1,0-1.22,1.08A1.15,1.15,0,0,0,292,274Z"/><path class="cls-5" d="M272,226.24a.25.25,0,0,0-.23-.27.27.27,0,0,0-.28.24.26.26,0,0,0,.24.27A.25.25,0,0,0,272,226.24Z"/><path class="cls-5" d="M318.77,170.09a1.2,1.2,0,1,0-2.4-.16,1.2,1.2,0,0,0,2.4.16Z"/><path class="cls-4" d="M343.88,216.82a1.87,1.87,0,1,0-2,1.74A1.86,1.86,0,0,0,343.88,216.82Z"/><path class="cls-3" d="M299.45,200.72a.59.59,0,1,0-.62.54A.59.59,0,0,0,299.45,200.72Z"/><path class="cls-5" d="M320.2,170.18a2.64,2.64,0,1,0-2.8,2.46A2.63,2.63,0,0,0,320.2,170.18Z"/><path class="cls-3" d="M315.93,158.43a1.5,1.5,0,1,0-1.6,1.4A1.51,1.51,0,0,0,315.93,158.43Z"/><path class="cls-4" d="M313,163.72a2.6,2.6,0,1,0-2.76,2.42A2.6,2.6,0,0,0,313,163.72Z"/><path class="cls-4" d="M318.87,170.09a1.3,1.3,0,1,0-1.38,1.21A1.3,1.3,0,0,0,318.87,170.09Z"/><path class="cls-3" d="M334.49,141.76a1.46,1.46,0,1,0-1.55,1.37A1.46,1.46,0,0,0,334.49,141.76Z"/><path class="cls-5" d="M315,158.37a.62.62,0,0,0-.57-.66.62.62,0,0,0-.65.58.6.6,0,0,0,.57.65A.61.61,0,0,0,315,158.37Z"/><path class="cls-5" d="M318.56,170.07a1,1,0,0,0-.92-1,1,1,0,1,0-.13,2A1,1,0,0,0,318.56,170.07Z"/><path class="cls-5" d="M379.93,158.24a.28.28,0,0,0-.26-.3.29.29,0,0,0-.3.26.28.28,0,0,0,.26.29A.27.27,0,0,0,379.93,158.24Z"/><path class="cls-4" d="M333.48,141.7a.44.44,0,0,0-.42-.48.45.45,0,1,0,.42.48Z"/><path class="cls-5" d="M318.46,170.07a.88.88,0,0,0-.83-.95.89.89,0,1,0,.83.95Z"/><circle class="cls-5" cx="373.9" cy="207.1" r="1.35" transform="translate(-30.17 67.76) rotate(-9.95)"/><path class="cls-5" d="M342.73,216.74a.72.72,0,1,0-.76.67A.73.73,0,0,0,342.73,216.74Z"/><path class="cls-3" d="M335.34,18.42a.32.32,0,0,0-.31-.34.31.31,0,0,0-.34.3.32.32,0,0,0,.3.35A.33.33,0,0,0,335.34,18.42Z"/><path class="cls-3" d="M314.2,59.09a2.18,2.18,0,1,0-2.32,2A2.19,2.19,0,0,0,314.2,59.09Z"/><path class="cls-3" d="M262.22,16.5a1.32,1.32,0,1,0-1.41,1.23A1.33,1.33,0,0,0,262.22,16.5Z"/><path class="cls-5" d="M270.33,90.55a.93.93,0,1,0-1,.87A.94.94,0,0,0,270.33,90.55Z"/><path class="cls-3" d="M287.92,105.72a1.32,1.32,0,0,0-1.23-1.4,1.31,1.31,0,0,0-.17,2.62A1.32,1.32,0,0,0,287.92,105.72Z"/><path class="cls-3" d="M251.27,101.29a2.1,2.1,0,1,0-2.24,2A2.11,2.11,0,0,0,251.27,101.29Z"/><path class="cls-3" d="M98.36,209.33a1.9,1.9,0,1,0-2,1.77A1.91,1.91,0,0,0,98.36,209.33Z"/><path class="cls-5" d="M93.65,232a1.63,1.63,0,1,0-1.74,1.52A1.63,1.63,0,0,0,93.65,232Z"/><path class="cls-5" d="M79.1,213.76a.86.86,0,1,0-.91.79A.84.84,0,0,0,79.1,213.76Z"/><path class="cls-5" d="M97.07,209.24a.6.6,0,0,0-.57-.64.61.61,0,1,0,.57.64Z"/><path class="cls-6" d="M96.22,188.37a1,1,0,1,0-1,.89A.95.95,0,0,0,96.22,188.37Z"/><path class="cls-5" d="M79.25,213.77a1,1,0,0,0-.94-1.07,1,1,0,0,0-.13,2A1,1,0,0,0,79.25,213.77Z"/><circle class="cls-5" cx="244.75" cy="191.56" r="1.44" transform="translate(4.47 388.7) rotate(-77.42)"/><path class="cls-4" d="M269.53,199.17a.61.61,0,0,0-.57-.66.62.62,0,1,0-.08,1.24A.62.62,0,0,0,269.53,199.17Z"/><path class="cls-3" d="M240.52,206.52a.52.52,0,0,0-1-.07.52.52,0,0,0,1,.07Z"/><path class="cls-5" d="M249.07,155.08a1.26,1.26,0,1,0-1.34,1.17A1.26,1.26,0,0,0,249.07,155.08Z"/><path class="cls-6" d="M293.27,141.41a2,2,0,1,0-2.11,1.85A2,2,0,0,0,293.27,141.41Z"/><path class="cls-4" d="M257.91,158.19a.6.6,0,1,0-.64.57A.61.61,0,0,0,257.91,158.19Z"/><path class="cls-3" d="M215.06,192.47a1,1,0,1,0-1,.88A.95.95,0,0,0,215.06,192.47Z"/><path class="cls-5" d="M206.8,208.28a1.94,1.94,0,1,0-2.06,1.81A1.94,1.94,0,0,0,206.8,208.28Z"/><path class="cls-3" d="M202.18,187.16a.53.53,0,1,0-.56.49A.53.53,0,0,0,202.18,187.16Z"/><path class="cls-4" d="M215.41,192.49A1.3,1.3,0,1,0,214,193.7,1.3,1.3,0,0,0,215.41,192.49Z"/><path class="cls-3" d="M229.47,216.26a2.36,2.36,0,1,0-2.51,2.2A2.35,2.35,0,0,0,229.47,216.26Z"/><path class="cls-4" d="M205.51,208.19a.66.66,0,0,0-.6-.69.65.65,0,0,0-.69.61.64.64,0,0,0,.6.69A.65.65,0,0,0,205.51,208.19Z"/><path class="cls-6" d="M214.6,192.44a.49.49,0,0,0-1-.07.5.5,0,0,0,.46.52A.48.48,0,0,0,214.6,192.44Z"/><path class="cls-3" d="M241.07,206.55a1.07,1.07,0,0,0-2.13-.13,1.07,1.07,0,0,0,2.13.13Z"/><path class="cls-5" d="M228.79,216.21a1.68,1.68,0,1,0-1.78,1.57A1.68,1.68,0,0,0,228.79,216.21Z"/><path class="cls-3" d="M214.53,192.43a.42.42,0,0,0-.39-.44.42.42,0,0,0-.45.39.42.42,0,0,0,.39.44A.42.42,0,0,0,214.53,192.43Z"/><path class="cls-3" d="M246.2,191.65a1.45,1.45,0,1,0-1.54,1.36A1.46,1.46,0,0,0,246.2,191.65Z"/><path class="cls-4" d="M240.51,206.52A.52.52,0,0,0,240,206a.5.5,0,0,0-.53.47.49.49,0,0,0,.46.53A.5.5,0,0,0,240.51,206.52Z"/><path class="cls-6" d="M346.77,217.21a.87.87,0,0,0-.82-.94.88.88,0,0,0-.12,1.76A.87.87,0,0,0,346.77,217.21Z"/><path class="cls-4" d="M375.09,207.18a1.19,1.19,0,0,0-2.38-.16,1.19,1.19,0,1,0,2.38.16Z"/><path class="cls-4" d="M343.43,216.79a1.42,1.42,0,1,0-1.51,1.32A1.42,1.42,0,0,0,343.43,216.79Z"/><path class="cls-5" d="M113.64,200.88a1.41,1.41,0,1,0-1.5,1.31A1.41,1.41,0,0,0,113.64,200.88Z"/><path class="cls-3" d="M98.42,209.33a2,2,0,1,0-2.09,1.83A2,2,0,0,0,98.42,209.33Z"/><path class="cls-3" d="M96.28,188.37a1,1,0,1,0-1.08.95A1,1,0,0,0,96.28,188.37Z"/><path class="cls-4" d="M193.5,124a.53.53,0,1,0-.56.49A.53.53,0,0,0,193.5,124Z"/><path class="cls-6" d="M169.86,130.71a2.25,2.25,0,1,0-2.39,2.1A2.25,2.25,0,0,0,169.86,130.71Z"/><path class="cls-3" d="M169.26,125.6a2.4,2.4,0,1,0-2.54,2.23A2.4,2.4,0,0,0,169.26,125.6Z"/><path class="cls-6" d="M84.69,179.79a1.27,1.27,0,0,0-2.53-.16,1.27,1.27,0,1,0,2.53.16Z"/><path class="cls-3" d="M106.69,166.3a1.36,1.36,0,1,0-1.45,1.27A1.36,1.36,0,0,0,106.69,166.3Z"/><path class="cls-5" d="M72.28,170.56a2.26,2.26,0,1,0-2.4,2.11A2.26,2.26,0,0,0,72.28,170.56Z"/><path class="cls-6" d="M84.33,179.77a.9.9,0,0,0-.84-1,.89.89,0,0,0-1,.83.9.9,0,0,0,1.8.12Z"/><path class="cls-5" d="M96,188.35a.71.71,0,1,0-.75.66A.71.71,0,0,0,96,188.35Z"/><path class="cls-4" d="M79.85,213.81a1.61,1.61,0,1,0-1.71,1.5A1.61,1.61,0,0,0,79.85,213.81Z"/><path class="cls-3" d="M83.83,179.74a.4.4,0,1,0-.8-.05.39.39,0,0,0,.37.42A.41.41,0,0,0,83.83,179.74Z"/><path class="cls-3" d="M105.52,166.22a.19.19,0,0,0-.18-.2.2.2,0,0,0-.2.18.19.19,0,1,0,.38,0Z"/><path class="cls-5" d="M95.88,188.34a.62.62,0,0,0-1.23-.08.62.62,0,1,0,1.23.08Z"/><path class="cls-3" d="M134.93,191.3a2.4,2.4,0,1,0-2.55,2.24A2.4,2.4,0,0,0,134.93,191.3Z"/><path class="cls-4" d="M106.51,166.29a1.18,1.18,0,1,0-1.26,1.11A1.18,1.18,0,0,0,106.51,166.29Z"/><path class="cls-4" d="M96.19,188.36a.93.93,0,1,0-1,.87A.94.94,0,0,0,96.19,188.36Z"/><path class="cls-3" d="M133.09,191.18a.55.55,0,1,0-.59.51A.55.55,0,0,0,133.09,191.18Z"/><path class="cls-3" d="M113.05,200.84a.82.82,0,1,0-.87.77A.83.83,0,0,0,113.05,200.84Z"/><path class="cls-6" d="M96.87,188.41a1.61,1.61,0,1,0-1.71,1.5A1.6,1.6,0,0,0,96.87,188.41Z"/><path class="cls-4" d="M133,191.17a.47.47,0,0,0-.43-.49.47.47,0,0,0-.49.43.45.45,0,0,0,.43.49A.46.46,0,0,0,133,191.17Z"/><path class="cls-3" d="M124.18,205a1.3,1.3,0,1,0-1.38,1.21A1.31,1.31,0,0,0,124.18,205Z"/><path class="cls-3" d="M114.25,200.92a2,2,0,1,0-2.14,1.88A2,2,0,0,0,114.25,200.92Z"/><path class="cls-5" d="M132.71,191.15a.16.16,0,0,0-.16-.18.17.17,0,0,0-.19.16.19.19,0,0,0,.17.19A.17.17,0,0,0,132.71,191.15Z"/><path class="cls-5" d="M164.41,202.06a1.72,1.72,0,1,0-1.83,1.61A1.74,1.74,0,0,0,164.41,202.06Z"/><path class="cls-5" d="M124.32,205a1.44,1.44,0,1,0-1.53,1.34A1.44,1.44,0,0,0,124.32,205Z"/><path class="cls-6" d="M360.54,227.35a.36.36,0,0,0-.71,0,.36.36,0,1,0,.71,0Z"/><path class="cls-3" d="M347.78,217.28a1.89,1.89,0,1,0-2,1.76A1.89,1.89,0,0,0,347.78,217.28Z"/><path class="cls-4" d="M344.9,216.88a2.9,2.9,0,0,0-5.78-.37,2.9,2.9,0,1,0,5.78.37Z"/><path class="cls-5" d="M360.77,227.36a.59.59,0,1,0-.62.55A.58.58,0,0,0,360.77,227.36Z"/><path class="cls-3" d="M373.72,277.26a.62.62,0,0,0-.58-.66.63.63,0,0,0-.67.58.62.62,0,0,0,.59.66A.61.61,0,0,0,373.72,277.26Z"/><path class="cls-4" d="M342,269.5a2.06,2.06,0,1,0-2.19,1.92A2.06,2.06,0,0,0,342,269.5Z"/><path class="cls-3" d="M361.5,227.41a1.32,1.32,0,1,0-1.4,1.23A1.32,1.32,0,0,0,361.5,227.41Z"/><path class="cls-3" d="M374.37,207.13a.48.48,0,0,0-.44-.5.47.47,0,1,0-.06.93A.46.46,0,0,0,374.37,207.13Z"/><path class="cls-4" d="M347.64,217.27a1.75,1.75,0,1,0-1.86,1.63A1.75,1.75,0,0,0,347.64,217.27Z"/><path class="cls-5" d="M174.59,263.35a.81.81,0,0,0-.76-.86.82.82,0,0,0-.87.76.81.81,0,0,0,.76.86A.82.82,0,0,0,174.59,263.35Z"/><path class="cls-5" d="M162.25,212.68a.93.93,0,0,0-1.86-.12.93.93,0,0,0,1.86.12Z"/><path class="cls-3" d="M115,240.47a2.25,2.25,0,1,0-2.39,2.1A2.25,2.25,0,0,0,115,240.47Z"/><path class="cls-6" d="M174.18,263.33a.42.42,0,0,0-.38-.43.39.39,0,0,0-.42.37.4.4,0,0,0,.37.43A.41.41,0,0,0,174.18,263.33Z"/><path class="cls-5" d="M194.36,246.57a1.16,1.16,0,0,0-2.32-.16,1.16,1.16,0,0,0,1.08,1.24A1.18,1.18,0,0,0,194.36,246.57Z"/><path class="cls-6" d="M161.7,212.65a.4.4,0,0,0-.36-.41.38.38,0,0,0-.05.76A.39.39,0,0,0,161.7,212.65Z"/><path class="cls-5" d="M360.11,65.54a1.62,1.62,0,1,0-1.73,1.52A1.62,1.62,0,0,0,360.11,65.54Z"/><path class="cls-5" d="M312.35,59a.33.33,0,1,0-.66,0,.34.34,0,0,0,.31.35A.33.33,0,0,0,312.35,59Z"/><path class="cls-3" d="M300.81,71.72a1.08,1.08,0,1,0-1.14,1A1.07,1.07,0,0,0,300.81,71.72Z"/><path class="cls-6" d="M361,65.6a2.54,2.54,0,1,0-2.7,2.37A2.54,2.54,0,0,0,361,65.6Z"/><path class="cls-3" d="M315.4,117.77a1.69,1.69,0,1,0-1.8,1.58A1.69,1.69,0,0,0,315.4,117.77Z"/><path class="cls-5" d="M300.42,71.7a.68.68,0,1,0-.73.63A.68.68,0,0,0,300.42,71.7Z"/><path class="cls-6" d="M359.36,65.49a.89.89,0,0,0-.82-.93.87.87,0,1,0,.82.93Z"/><path class="cls-4" d="M336.27,18.49a1.26,1.26,0,1,0-1.34,1.17A1.25,1.25,0,0,0,336.27,18.49Z"/><path class="cls-3" d="M313.19,59a1.17,1.17,0,1,0-1.25,1.1A1.17,1.17,0,0,0,313.19,59Z"/><path class="cls-3" d="M360.74,65.58a2.25,2.25,0,1,0-2.4,2.11A2.26,2.26,0,0,0,360.74,65.58Z"/><path class="cls-6" d="M394.49,107.9a3.19,3.19,0,1,0-3.4,3A3.21,3.21,0,0,0,394.49,107.9Z"/><path class="cls-5" d="M315.44,117.77a1.73,1.73,0,1,0-1.84,1.61A1.73,1.73,0,0,0,315.44,117.77Z"/><path class="cls-5" d="M359.14,65.48a.67.67,0,0,0-.61-.7.65.65,0,0,0-.69.61.64.64,0,0,0,.61.69A.65.65,0,0,0,359.14,65.48Z"/><path class="cls-4" d="M392.06,107.74a.76.76,0,1,0-.81.71A.76.76,0,0,0,392.06,107.74Z"/><path class="cls-3" d="M390.49,72.4a.26.26,0,0,0-.24-.27.25.25,0,0,0-.26.23.25.25,0,1,0,.5,0Z"/><path class="cls-5" d="M393,216a2.26,2.26,0,1,0-2.4,2.11A2.25,2.25,0,0,0,393,216Z"/><path class="cls-3" d="M374.77,207.15a.87.87,0,0,0-.81-.92.87.87,0,1,0-.12,1.73A.87.87,0,0,0,374.77,207.15Z"/><path class="cls-5" d="M361,227.38a.77.77,0,0,0-.72-.82.77.77,0,0,0-.1,1.53A.76.76,0,0,0,361,227.38Z"/><path class="cls-3" d="M392.29,215.91a1.58,1.58,0,1,0-1.68,1.48A1.59,1.59,0,0,0,392.29,215.91Z"/><path class="cls-5" d="M374.84,277.34a1.74,1.74,0,1,0-3.48-.23,1.74,1.74,0,0,0,3.48.23Z"/><path class="cls-3" d="M363.7,227.56a3.52,3.52,0,1,0-3.75,3.28A3.52,3.52,0,0,0,363.7,227.56Z"/><path class="cls-5" d="M278.86,198.86a1.43,1.43,0,1,0-1.52,1.34A1.43,1.43,0,0,0,278.86,198.86Z"/><path class="cls-3" d="M272.12,226.25a.41.41,0,0,0-.36-.42.4.4,0,1,0,.36.42Z"/><path class="cls-4" d="M271,199.27a2.13,2.13,0,1,0-2.26,2A2.13,2.13,0,0,0,271,199.27Z"/><path class="cls-3" d="M278.17,198.82a.74.74,0,1,0-.79.69A.74.74,0,0,0,278.17,198.82Z"/><path class="cls-5" d="M302.7,224.39a.8.8,0,0,0-1.6-.11.8.8,0,1,0,1.6.11Z"/><path class="cls-4" d="M273.42,226.34a1.69,1.69,0,1,0-1.8,1.57A1.69,1.69,0,0,0,273.42,226.34Z"/><path class="cls-6" d="M278,198.81a.59.59,0,0,0-.55-.63.59.59,0,0,0-.64.55.61.61,0,0,0,.56.64A.59.59,0,0,0,278,198.81Z"/><path class="cls-3" d="M302.51,224.38a.61.61,0,0,0-.57-.65.6.6,0,0,0-.65.57.61.61,0,0,0,1.22.08Z"/><path class="cls-5" d="M300.13,200.76a1.27,1.27,0,1,0-2.53-.17,1.27,1.27,0,1,0,2.53.17Z"/><path class="cls-3" d="M318.6,132.8a.49.49,0,0,0-.45-.51.48.48,0,0,0-.51.45.47.47,0,0,0,.45.51A.48.48,0,0,0,318.6,132.8Z"/><path class="cls-3" d="M315.23,117.76a1.52,1.52,0,1,0-1.62,1.41A1.53,1.53,0,0,0,315.23,117.76Z"/><path class="cls-3" d="M312.84,137.81a.44.44,0,0,0-.41-.47.45.45,0,0,0-.47.41.43.43,0,0,0,.41.47A.44.44,0,0,0,312.84,137.81Z"/><path class="cls-4" d="M318.58,132.8a.47.47,0,0,0-.43-.49.46.46,0,0,0-.49.43.45.45,0,0,0,.43.49A.46.46,0,0,0,318.58,132.8Z"/><path class="cls-4" d="M333.83,141.72a.8.8,0,0,0-1.6-.1.8.8,0,0,0,1.6.1Z"/><path class="cls-4" d="M314.43,137.91a2,2,0,1,0-2.16,1.91A2,2,0,0,0,314.43,137.91Z"/><path class="cls-5" d="M320,132.9a1.91,1.91,0,1,0-2,1.78A1.91,1.91,0,0,0,320,132.9Z"/><path class="cls-3" d="M333.91,141.72a.88.88,0,0,0-.82-.93.88.88,0,1,0,.82.93Z"/><path class="cls-5" d="M315.44,117.77a1.73,1.73,0,1,0-1.84,1.61A1.73,1.73,0,0,0,315.44,117.77Z"/><path class="cls-3" d="M306,141.43a.57.57,0,1,0-.6.52A.57.57,0,0,0,306,141.43Z"/><path class="cls-6" d="M312.81,137.81a.41.41,0,1,0-.82-.05.41.41,0,0,0,.82.05Z"/><path class="cls-3" d="M291.92,141.32a.63.63,0,0,0-.59-.67.63.63,0,1,0,.59.67Z"/><path class="cls-4" d="M307.44,141.52a2,2,0,1,0-2.14,1.88A2,2,0,0,0,307.44,141.52Z"/><path class="cls-3" d="M315.5,158.4a1.07,1.07,0,1,0-1.14,1A1.08,1.08,0,0,0,315.5,158.4Z"/><path class="cls-6" d="M291.91,141.32a.62.62,0,0,0-1.24-.08.61.61,0,0,0,.58.66A.63.63,0,0,0,291.91,141.32Z"/><path class="cls-4" d="M305.89,141.42a.46.46,0,0,0-.43-.5.48.48,0,0,0-.5.44.47.47,0,1,0,.93.06Z"/><path class="cls-6" d="M316.12,158.44a1.7,1.7,0,1,0-1.8,1.58A1.7,1.7,0,0,0,316.12,158.44Z"/><path class="cls-5" d="M313.37,137.85a1,1,0,0,0-1.94-.13,1,1,0,0,0,1.94.13Z"/><path class="cls-5" d="M236.18,144A1.12,1.12,0,1,0,235,145,1.12,1.12,0,0,0,236.18,144Z"/><path class="cls-4" d="M217.54,107.42a1.65,1.65,0,1,0-1.76,1.55A1.66,1.66,0,0,0,217.54,107.42Z"/><path class="cls-3" d="M194.1,124.07a1.13,1.13,0,1,0-1.2,1.05A1.13,1.13,0,0,0,194.1,124.07Z"/><path class="cls-3" d="M235.72,144a.66.66,0,1,0-.7.61A.65.65,0,0,0,235.72,144Z"/><path class="cls-6" d="M234.48,100.4a.21.21,0,0,0-.2-.23.22.22,0,0,0-.24.2.24.24,0,0,0,.21.24A.22.22,0,0,0,234.48,100.4Z"/><path class="cls-6" d="M216.56,107.36a.67.67,0,1,0-1.34-.09.67.67,0,1,0,1.34.09Z"/><path class="cls-3" d="M236,144a1,1,0,1,0-1,.89A1,1,0,0,0,236,144Z"/><path class="cls-3" d="M250,101.21a.86.86,0,0,0-1.72-.11.86.86,0,1,0,1.72.11Z"/><path class="cls-6" d="M234.67,100.41a.4.4,0,0,0-.38-.43.41.41,0,0,0-.44.38.42.42,0,0,0,.39.44A.41.41,0,0,0,234.67,100.41Z"/><path class="cls-5" d="M236.43,144a1.37,1.37,0,1,0-1.46,1.27A1.38,1.38,0,0,0,236.43,144Z"/><path class="cls-5" d="M292.16,141.34a.88.88,0,1,0-1.75-.12.89.89,0,0,0,.82.94A.88.88,0,0,0,292.16,141.34Z"/><path class="cls-5" d="M249.18,155.09a1.37,1.37,0,1,0-1.46,1.28A1.38,1.38,0,0,0,249.18,155.09Z"/><path class="cls-3" d="M250.22,87.11a.26.26,0,0,0-.25-.28.27.27,0,0,0-.28.24.26.26,0,0,0,.25.28A.27.27,0,0,0,250.22,87.11Z"/><path class="cls-5" d="M249.69,101.19a.53.53,0,0,0-.49-.55.52.52,0,1,0-.06,1A.51.51,0,0,0,249.69,101.19Z"/><path class="cls-5" d="M235,100.44a.77.77,0,1,0-.82.71A.77.77,0,0,0,235,100.44Z"/><path class="cls-5" d="M251.09,87.17a1.14,1.14,0,1,0-1.21,1.06A1.14,1.14,0,0,0,251.09,87.17Z"/><path class="cls-3" d="M289.07,71.87a1.87,1.87,0,1,0-2,1.75A1.88,1.88,0,0,0,289.07,71.87Z"/><path class="cls-5" d="M254.69,22.1a.9.9,0,1,0-.95.84A.9.9,0,0,0,254.69,22.1Z"/><path class="cls-6" d="M253.55,87.33a3.61,3.61,0,1,0-3.83,3.36A3.61,3.61,0,0,0,253.55,87.33Z"/><path class="cls-3" d="M270.13,90.54a.73.73,0,1,0-.77.68A.72.72,0,0,0,270.13,90.54Z"/><path class="cls-3" d="M250,101.21a.82.82,0,1,0-.87.77A.82.82,0,0,0,250,101.21Z"/><path class="cls-3" d="M251.31,87.18a1.36,1.36,0,1,0-1.45,1.27A1.36,1.36,0,0,0,251.31,87.18Z"/><path class="cls-3" d="M288.27,71.82a1.07,1.07,0,1,0-1.14,1A1.07,1.07,0,0,0,288.27,71.82Z"/><path class="cls-3" d="M270.73,90.58a1.33,1.33,0,1,0-1.41,1.24A1.34,1.34,0,0,0,270.73,90.58Z"/><path class="cls-5" d="M289.57,101.86a.43.43,0,1,0-.85,0,.43.43,0,0,0,.85,0Z"/><path class="cls-3" d="M288.3,71.82a1.1,1.1,0,1,0-1.17,1A1.1,1.1,0,0,0,288.3,71.82Z"/><path class="cls-6" d="M269.72,90.51a.33.33,0,0,0-.3-.34.34.34,0,0,0-.34.3.32.32,0,0,0,.3.34A.32.32,0,0,0,269.72,90.51Z"/><path class="cls-5" d="M290.7,101.94a1.56,1.56,0,1,0-1.66,1.45A1.56,1.56,0,0,0,290.7,101.94Z"/><path class="cls-4" d="M287.28,105.68a.67.67,0,1,0-1.34-.09.66.66,0,0,0,.62.71A.67.67,0,0,0,287.28,105.68Z"/><path class="cls-3" d="M270.53,90.57a1.13,1.13,0,1,0-1.2,1.05A1.13,1.13,0,0,0,270.53,90.57Z"/><path class="cls-5" d="M290.34,101.91a1.2,1.2,0,1,0-1.27,1.12A1.21,1.21,0,0,0,290.34,101.91Z"/><path class="cls-5" d="M300.45,71.7a.72.72,0,0,0-.67-.76.72.72,0,0,0-.09,1.43A.73.73,0,0,0,300.45,71.7Z"/><path class="cls-3" d="M288.23,71.82a1,1,0,0,0-2.06-.14,1,1,0,1,0,2.06.14Z"/><path class="cls-5" d="M289.79,101.88a.65.65,0,1,0-.69.6A.64.64,0,0,0,289.79,101.88Z"/><path class="cls-4" d="M314.94,117.74a1.23,1.23,0,1,0-1.31,1.15A1.23,1.23,0,0,0,314.94,117.74Z"/><path class="cls-5" d="M287,105.66a.39.39,0,0,0-.37-.42.41.41,0,0,0-.42.37.4.4,0,0,0,.79,0Z"/><path class="cls-5" d="M290.18,101.9a1,1,0,0,0-1-1.1,1,1,0,0,0-1.11,1,1.06,1.06,0,0,0,1,1.11A1,1,0,0,0,290.18,101.9Z"/><path class="cls-6" d="M314.32,117.7a.61.61,0,0,0-1.22-.08.61.61,0,0,0,.57.65A.61.61,0,0,0,314.32,117.7Z"/><path class="cls-3" d="M300.94,71.73a1.2,1.2,0,1,0-1.28,1.13A1.21,1.21,0,0,0,300.94,71.73Z"/><path class="cls-3" d="M409.47,63.17a1.92,1.92,0,1,0-2,1.79A1.92,1.92,0,0,0,409.47,63.17Z"/><path class="cls-5" d="M393,107.8a1.71,1.71,0,1,0-1.82,1.6A1.7,1.7,0,0,0,393,107.8Z"/><path class="cls-3" d="M391.76,72.48a1.52,1.52,0,1,0-1.62,1.42A1.53,1.53,0,0,0,391.76,72.48Z"/><path class="cls-3" d="M119,152.79a1,1,0,0,0-.88-1,.94.94,0,1,0,.88,1Z"/><path class="cls-3" d="M177.47,172.44a2.2,2.2,0,1,0-2.34,2.06A2.2,2.2,0,0,0,177.47,172.44Z"/><path class="cls-5" d="M166.28,202.18a3.6,3.6,0,1,0-3.82,3.35A3.61,3.61,0,0,0,166.28,202.18Z"/><path class="cls-5" d="M134.24,191.25a1.71,1.71,0,1,0-1.81,1.6A1.7,1.7,0,0,0,134.24,191.25Z"/><path class="cls-4" d="M175.72,172.33a.45.45,0,1,0-.48.42A.44.44,0,0,0,175.72,172.33Z"/><path class="cls-3" d="M202.76,187.19a1.11,1.11,0,1,0-1.18,1A1.1,1.1,0,0,0,202.76,187.19Z"/><path class="cls-6" d="M163.6,202a.91.91,0,1,0-1,.85A.92.92,0,0,0,163.6,202Z"/><path class="cls-3" d="M307.43,245.11a.29.29,0,0,0-.26-.3.28.28,0,1,0,0,.56A.29.29,0,0,0,307.43,245.11Z"/><path class="cls-6" d="M291.92,274a1.07,1.07,0,0,0-1-1.14,1.07,1.07,0,0,0-.14,2.13A1.07,1.07,0,0,0,291.92,274Z"/><path class="cls-4" d="M272.87,226.3a1.14,1.14,0,1,0-1.21,1.06A1.14,1.14,0,0,0,272.87,226.3Z"/><path class="cls-3" d="M187.32,138.66a1.23,1.23,0,1,0-2.46-.16,1.23,1.23,0,0,0,2.46.16Z"/><path class="cls-5" d="M180.43,140.34a1.46,1.46,0,1,0-1.55,1.36A1.45,1.45,0,0,0,180.43,140.34Z"/><path class="cls-3" d="M168.63,130.63a1,1,0,0,0-.95-1.07,1,1,0,0,0-1.07.94,1,1,0,1,0,2,.13Z"/><path class="cls-4" d="M187.51,138.67A1.42,1.42,0,1,0,186,140,1.42,1.42,0,0,0,187.51,138.67Z"/><path class="cls-3" d="M195.4,124.15a2.43,2.43,0,1,0-2.59,2.28A2.42,2.42,0,0,0,195.4,124.15Z"/><path class="cls-3" d="M169.4,130.68a1.78,1.78,0,1,0-1.9,1.67A1.78,1.78,0,0,0,169.4,130.68Z"/><path class="cls-5" d="M186.7,138.62a.61.61,0,1,0-1.21-.08.61.61,0,0,0,1.21.08Z"/><path class="cls-5" d="M181.11,140.39a2.14,2.14,0,1,0-2.27,2A2.14,2.14,0,0,0,181.11,140.39Z"/><path class="cls-3" d="M175.82,172.34a.55.55,0,1,0-.59.51A.55.55,0,0,0,175.82,172.34Z"/><path class="cls-6" d="M187.13,138.65a1,1,0,0,0-1-1.11,1,1,0,1,0,1,1.11Z"/><circle class="cls-4" cx="235.06" cy="143.91" r="1.77" transform="translate(-6.17 277.22) rotate(-60.4)"/><path class="cls-6" d="M195.1,124.14a2.13,2.13,0,1,0-4.26-.28,2.13,2.13,0,1,0,4.26.28Z"/><path class="cls-5" d="M190.74,84.75a.46.46,0,0,0-.43-.48.45.45,0,1,0-.06.9A.46.46,0,0,0,190.74,84.75Z"/><path class="cls-5" d="M217.25,107.4a1.36,1.36,0,0,0-2.72-.18,1.36,1.36,0,0,0,2.72.18Z"/><path class="cls-3" d="M193.8,124.05a.82.82,0,0,0-.77-.88.83.83,0,1,0-.11,1.65A.82.82,0,0,0,193.8,124.05Z"/><path class="cls-6" d="M215.67,75.71A1.35,1.35,0,1,0,214.23,77,1.35,1.35,0,0,0,215.67,75.71Z"/><path class="cls-4" d="M217.36,107.41a1.47,1.47,0,1,0-2.94-.19,1.47,1.47,0,0,0,2.94.19Z"/><path class="cls-5" d="M191.4,84.79a1.12,1.12,0,1,0-1.19,1A1.13,1.13,0,0,0,191.4,84.79Z"/><path class="cls-3" d="M216.42,75.76a2.1,2.1,0,1,0-2.24,2A2.1,2.1,0,0,0,216.42,75.76Z"/><path class="cls-5" d="M256.2,22.2a2.42,2.42,0,1,0-2.56,2.25A2.42,2.42,0,0,0,256.2,22.2Z"/><path class="cls-5" d="M208.36,28.72A2.42,2.42,0,1,0,205.78,31,2.43,2.43,0,0,0,208.36,28.72Z"/><path class="cls-4" d="M215.59,75.71a1.27,1.27,0,1,0-1.35,1.19A1.28,1.28,0,0,0,215.59,75.71Z"/><path class="cls-4" d="M234.87,100.43a.61.61,0,1,0-.65.56A.61.61,0,0,0,234.87,100.43Z"/><path class="cls-6" d="M216.32,107.34a.43.43,0,1,0-.86-.06.43.43,0,1,0,.86.06Z"/><path class="cls-6" d="M215.16,75.68a.84.84,0,1,0-.89.78A.84.84,0,0,0,215.16,75.68Z"/><path class="cls-5" d="M250.64,87.14a.69.69,0,1,0-1.37-.09.69.69,0,0,0,1.37.09Z"/><path class="cls-4" d="M236.88,100.56a2.63,2.63,0,1,0-2.79,2.45A2.62,2.62,0,0,0,236.88,100.56Z"/><path class="cls-5" d="M216.93,75.8a2.62,2.62,0,1,0-2.78,2.43A2.62,2.62,0,0,0,216.93,75.8Z"/><path class="cls-5" d="M252.62,87.27a2.68,2.68,0,1,0-2.84,2.49A2.68,2.68,0,0,0,252.62,87.27Z"/><path class="cls-6" d="M254.26,22.07a.47.47,0,1,0-.5.44A.48.48,0,0,0,254.26,22.07Z"/><path class="cls-4" d="M322.19,225.15a.66.66,0,0,0-.62-.71.67.67,0,1,0,.62.71Z"/><path class="cls-6" d="M313.26,224.67a2.08,2.08,0,1,0-2.21,1.94A2.08,2.08,0,0,0,313.26,224.67Z"/><path class="cls-5" d="M300.16,200.76a1.3,1.3,0,1,0-1.38,1.22A1.3,1.3,0,0,0,300.16,200.76Z"/><path class="cls-4" d="M322.87,225.2a1.35,1.35,0,1,0-2.69-.18,1.35,1.35,0,0,0,2.69.18Z"/><path class="cls-4" d="M343.2,216.77a1.19,1.19,0,1,0-1.26,1.11A1.19,1.19,0,0,0,343.2,216.77Z"/><circle class="cls-5" cx="298.86" cy="200.68" r="3.37"/><path class="cls-5" d="M322.55,225.18a1,1,0,1,0-2.05-.14,1,1,0,0,0,1,1.09A1,1,0,0,0,322.55,225.18Z"/><path class="cls-3" d="M311.65,224.57a.47.47,0,1,0-.5.43A.47.47,0,0,0,311.65,224.57Z"/><path class="cls-5" d="M309.61,245.25a2.47,2.47,0,1,0-2.62,2.3A2.46,2.46,0,0,0,309.61,245.25Z"/><path class="cls-4" d="M322.6,225.18a1.08,1.08,0,1,0-1.15,1A1.08,1.08,0,0,0,322.6,225.18Z"/><path class="cls-4" d="M360.94,227.38a.76.76,0,1,0-.81.7A.76.76,0,0,0,360.94,227.38Z"/><path class="cls-6" d="M342.87,216.75a.86.86,0,1,0-.91.8A.86.86,0,0,0,342.87,216.75Z"/><path class="cls-4" d="M382.94,187.27a.74.74,0,0,0-1.47-.09.73.73,0,0,0,.69.78A.74.74,0,0,0,382.94,187.27Z"/><path class="cls-5" d="M374.88,207.16a1,1,0,1,0-1,.92A1,1,0,0,0,374.88,207.16Z"/><path class="cls-3" d="M318.15,170.05a.58.58,0,0,0-.54-.62.58.58,0,1,0-.07,1.16A.58.58,0,0,0,318.15,170.05Z"/><path class="cls-5" d="M382.9,187.27a.7.7,0,0,0-1.39-.09.7.7,0,1,0,1.39.09Z"/><path class="cls-4" d="M381.24,158.32a1.6,1.6,0,0,0-1.49-1.69,1.59,1.59,0,1,0,1.49,1.69Z"/><path class="cls-6" d="M319.23,170.12a1.66,1.66,0,1,0-1.76,1.54A1.65,1.65,0,0,0,319.23,170.12Z"/><path class="cls-6" d="M301,227.73a1.11,1.11,0,1,0-1.18,1A1.11,1.11,0,0,0,301,227.73Z"/><path class="cls-6" d="M303.3,224.93a1.3,1.3,0,1,0-1.38,1.22A1.3,1.3,0,0,0,303.3,224.93Z"/><path class="cls-5" d="M302.91,224.4a1,1,0,0,0-.94-1.07,1,1,0,0,0-1.07.94,1,1,0,1,0,2,.13Z"/><path class="cls-4" d="M300.8,227.72a.87.87,0,1,0-.92.81A.86.86,0,0,0,300.8,227.72Z"/><path class="cls-5" d="M313.8,224.71a2.62,2.62,0,1,0-2.79,2.44A2.63,2.63,0,0,0,313.8,224.71Z"/><path class="cls-6" d="M302.57,224.89a.56.56,0,0,0-.53-.61.57.57,0,1,0,.53.61Z"/><path class="cls-5" d="M301,227.73a1,1,0,1,0-1.08,1A1,1,0,0,0,301,227.73Z"/><path class="cls-4" d="M311.87,224.58a.69.69,0,1,0-.73.64A.68.68,0,0,0,311.87,224.58Z"/><path class="cls-3" d="M307.78,245.13a.64.64,0,0,0-.59-.67.63.63,0,1,0-.08,1.26A.64.64,0,0,0,307.78,245.13Z"/><path class="cls-6" d="M222.47,166.54a.73.73,0,0,0-.69-.78.74.74,0,1,0-.1,1.48A.75.75,0,0,0,222.47,166.54Z"/><path class="cls-5" d="M186.56,138.61a.46.46,0,0,0-.44-.5.47.47,0,0,0-.5.44.48.48,0,0,0,.44.5A.47.47,0,0,0,186.56,138.61Z"/><path class="cls-4" d="M176.52,172.38a1.25,1.25,0,1,0-1.33,1.17A1.26,1.26,0,0,0,176.52,172.38Z"/><path class="cls-3" d="M223.43,166.61a1.7,1.7,0,1,0-1.81,1.59A1.7,1.7,0,0,0,223.43,166.61Z"/><path class="cls-5" d="M202.81,187.2a1.16,1.16,0,1,0-2.31-.15,1.16,1.16,0,1,0,2.31.15Z"/><path class="cls-6" d="M176,172.34a.7.7,0,0,0-.65-.73.68.68,0,0,0-.73.64.69.69,0,0,0,.64.74A.7.7,0,0,0,176,172.34Z"/><path class="cls-4" d="M222.9,166.57a1.17,1.17,0,1,0-1.25,1.1A1.17,1.17,0,0,0,222.9,166.57Z"/><path class="cls-3" d="M235.46,143.93a.4.4,0,0,0-.37-.43.41.41,0,0,0-.43.38.4.4,0,0,0,.38.43A.4.4,0,0,0,235.46,143.93Z"/><path class="cls-5" d="M187,138.64a.94.94,0,0,0-.88-1,1,1,0,0,0-1,.89,1,1,0,0,0,.89,1A1,1,0,0,0,187,138.64Z"/><path class="cls-5" d="M223.18,166.59a1.45,1.45,0,1,0-1.54,1.36A1.46,1.46,0,0,0,223.18,166.59Z"/><path class="cls-3" d="M215.65,192.5a1.54,1.54,0,1,0-1.64,1.44A1.54,1.54,0,0,0,215.65,192.5Z"/><path class="cls-5" d="M202.75,187.19a1.1,1.1,0,1,0-1.17,1A1.09,1.09,0,0,0,202.75,187.19Z"/><path class="cls-3" d="M223.88,166.64a2.15,2.15,0,1,0-2.29,2A2.16,2.16,0,0,0,223.88,166.64Z"/><path class="cls-5" d="M247.19,191.72a2.45,2.45,0,1,0-2.6,2.28A2.44,2.44,0,0,0,247.19,191.72Z"/><path class="cls-4" d="M215.25,192.48a1.14,1.14,0,1,0-1.21,1.06A1.13,1.13,0,0,0,215.25,192.48Z"/><path class="cls-5" d="M223,166.58a1.23,1.23,0,1,0-1.31,1.15A1.24,1.24,0,0,0,223,166.58Z"/><path class="cls-3" d="M248.29,155a.47.47,0,0,0-.45-.51.48.48,0,0,0-.51.44.5.5,0,0,0,.45.52A.49.49,0,0,0,248.29,155Z"/><path class="cls-6" d="M237.58,144.07a2.52,2.52,0,1,0-2.68,2.35A2.52,2.52,0,0,0,237.58,144.07Z"/><path class="cls-6" d="M223.65,166.62a1.92,1.92,0,1,0-2.05,1.8A1.91,1.91,0,0,0,223.65,166.62Z"/><path class="cls-5" d="M258.76,158.25a1.46,1.46,0,1,0-1.55,1.36A1.45,1.45,0,0,0,258.76,158.25Z"/><path class="cls-5" d="M245,191.58a.28.28,0,0,0-.27-.31.29.29,0,1,0,.27.31Z"/><path class="cls-6" d="M222.79,166.57a1.06,1.06,0,0,0-2.12-.14,1.06,1.06,0,0,0,2.12.14Z"/><path class="cls-3" d="M258.41,158.23a1.1,1.1,0,1,0-1.17,1A1.11,1.11,0,0,0,258.41,158.23Z"/><path class="cls-6" d="M249.77,155.12a2,2,0,1,0-2.09,1.83A2,2,0,0,0,249.77,155.12Z"/><path class="cls-4" d="M399.11,34.37a1.13,1.13,0,1,0-1.21,1.06A1.13,1.13,0,0,0,399.11,34.37Z"/><path class="cls-5" d="M360.4,65.56a1.91,1.91,0,1,0-2,1.78A1.92,1.92,0,0,0,360.4,65.56Z"/><path class="cls-3" d="M335.56,18.44a.55.55,0,1,0-1.1-.07.55.55,0,0,0,1.1.07Z"/><path class="cls-5" d="M399.62,34.4a1.64,1.64,0,1,0-1.75,1.54A1.65,1.65,0,0,0,399.62,34.4Z"/><path class="cls-6" d="M390.62,72.41a.4.4,0,0,0-.36-.41.38.38,0,0,0-.05.76A.4.4,0,0,0,390.62,72.41Z"/><path class="cls-3" d="M359.66,65.51a1.17,1.17,0,1,0-2.34-.15,1.17,1.17,0,0,0,2.34.15Z"/><path class="cls-6" d="M399.59,34.4a1.62,1.62,0,1,0-1.72,1.51A1.61,1.61,0,0,0,399.59,34.4Z"/><path class="cls-6" d="M408.39,63.1a.83.83,0,0,0-.78-.88.84.84,0,0,0-.89.78.83.83,0,0,0,.78.88A.84.84,0,0,0,408.39,63.1Z"/><path class="cls-5" d="M390.89,72.42a.65.65,0,0,0-.61-.69.66.66,0,0,0-.7.61.65.65,0,0,0,.62.69A.64.64,0,0,0,390.89,72.42Z"/><path class="cls-3" d="M400,34.42a2,2,0,0,0-1.88-2.14A2,2,0,1,0,400,34.42Z"/><path class="cls-3" d="M441.91,61.35a2,2,0,1,0-2.12,1.86A2,2,0,0,0,441.91,61.35Z"/><path class="cls-5" d="M408.43,63.11a.88.88,0,1,0-.93.82A.88.88,0,0,0,408.43,63.11Z"/><path class="cls-4" d="M297.45,229.94a2.25,2.25,0,1,0-2.38,2.09A2.25,2.25,0,0,0,297.45,229.94Z"/><path class="cls-3" d="M302.18,224.35a.28.28,0,1,0-.56,0,.29.29,0,0,0,.26.3A.28.28,0,0,0,302.18,224.35Z"/><path class="cls-5" d="M272.24,226.26a.51.51,0,1,0-1-.07.51.51,0,1,0,1,.07Z"/><path class="cls-3" d="M296.12,229.85a.91.91,0,1,0-1,.85A.92.92,0,0,0,296.12,229.85Z"/><path class="cls-6" d="M308.36,245.17a1.21,1.21,0,1,0-1.29,1.13A1.2,1.2,0,0,0,308.36,245.17Z"/><path class="cls-3" d="M272.52,226.28a.79.79,0,1,0-.84.74A.79.79,0,0,0,272.52,226.28Z"/><path class="cls-5" d="M298,230a2.77,2.77,0,1,0-3,2.58A2.76,2.76,0,0,0,298,230Z"/><circle class="cls-4" cx="301.9" cy="224.34" r="1.47"/><path class="cls-3" d="M301.07,227.73a1.14,1.14,0,1,0-1.21,1.07A1.15,1.15,0,0,0,301.07,227.73Z"/><path class="cls-6" d="M296.63,229.88a1.42,1.42,0,1,0-1.51,1.32A1.42,1.42,0,0,0,296.63,229.88Z"/><path class="cls-5" d="M307.92,245.14a.77.77,0,0,0-1.54-.1.77.77,0,1,0,1.54.1Z"/><path class="cls-3" d="M302.75,227.84a2.82,2.82,0,1,0-3,2.64A2.83,2.83,0,0,0,302.75,227.84Z"/><path class="cls-4" d="M101.53,155.3a1.55,1.55,0,1,0-1.65,1.44A1.54,1.54,0,0,0,101.53,155.3Z"/><path class="cls-3" d="M70.88,170.46a.86.86,0,0,0-.8-.91.86.86,0,1,0,.8.91Z"/><path class="cls-3" d="M100.64,155.24a.65.65,0,0,0-.61-.69.66.66,0,0,0-.7.61.65.65,0,0,0,.61.69A.66.66,0,0,0,100.64,155.24Z"/><path class="cls-3" d="M101.67,155.31a1.69,1.69,0,1,0-1.79,1.57A1.68,1.68,0,0,0,101.67,155.31Z"/><path class="cls-3" d="M106.54,166.29a1.21,1.21,0,1,0-1.29,1.13A1.2,1.2,0,0,0,106.54,166.29Z"/><path class="cls-5" d="M70.93,170.47a.92.92,0,0,0-.85-1,.91.91,0,1,0,.85,1Z"/><path class="cls-5" d="M101.75,155.31A1.77,1.77,0,1,0,99.87,157,1.77,1.77,0,0,0,101.75,155.31Z"/><path class="cls-4" d="M119.71,152.83a1.65,1.65,0,1,0-1.75,1.54A1.65,1.65,0,0,0,119.71,152.83Z"/><path class="cls-6" d="M100.81,155.25a.83.83,0,1,0-.88.77A.83.83,0,0,0,100.81,155.25Z"/><path class="cls-4" d="M119.61,152.82a1.55,1.55,0,1,0-1.64,1.45A1.54,1.54,0,0,0,119.61,152.82Z"/><path class="cls-3" d="M105.91,166.25a.58.58,0,1,0-1.16-.08.58.58,0,0,0,.54.62A.58.58,0,0,0,105.91,166.25Z"/><path class="cls-6" d="M162.39,97.63a2.18,2.18,0,1,0-2.32,2A2.18,2.18,0,0,0,162.39,97.63Z"/><circle class="cls-6" cx="160.21" cy="97.48" r="2.32"/><path class="cls-5" d="M161.86,97.59a1.65,1.65,0,1,0-1.76,1.55A1.66,1.66,0,0,0,161.86,97.59Z"/><path class="cls-3" d="M161.28,97.55a1.07,1.07,0,0,0-2.14-.14,1.06,1.06,0,0,0,1,1.14A1.07,1.07,0,0,0,161.28,97.55Z"/><path class="cls-5" d="M168.09,125.52a1.22,1.22,0,0,0-1.14-1.29,1.2,1.2,0,0,0-1.29,1.13,1.22,1.22,0,1,0,2.43.16Z"/><path class="cls-5" d="M161.18,97.55a1,1,0,1,0-1,.91A1,1,0,0,0,161.18,97.55Z"/><circle class="cls-4" cx="167.12" cy="76.2" r="1.62" transform="translate(-16.55 77.29) rotate(-24.85)"/><path class="cls-4" d="M161.48,97.57a1.27,1.27,0,1,0-1.35,1.18A1.27,1.27,0,0,0,161.48,97.57Z"/><path class="cls-4" d="M190.77,84.75a.49.49,0,0,0-.46-.51.48.48,0,0,0-.51.45.47.47,0,0,0,.45.51A.48.48,0,0,0,190.77,84.75Z"/><circle class="cls-3" cx="167.12" cy="76.2" r="0.61" transform="translate(47.47 215.56) rotate(-73.86)"/><path class="cls-5" d="M161,97.54a.83.83,0,1,0-1.66-.11.83.83,0,0,0,1.66.11Z"/><path class="cls-3" d="M193.55,124a.57.57,0,0,0-.54-.61.58.58,0,0,0-.62.54.59.59,0,0,0,.55.62A.58.58,0,0,0,193.55,124Z"/><path class="cls-5" d="M168.48,125.55a1.61,1.61,0,1,0-1.71,1.5A1.61,1.61,0,0,0,168.48,125.55Z"/><path class="cls-3" d="M161.63,97.58a1.42,1.42,0,0,0-1.33-1.52,1.43,1.43,0,1,0,1.33,1.52Z"/><path class="cls-4" d="M193.52,124a.55.55,0,1,0-.58.51A.55.55,0,0,0,193.52,124Z"/><path class="cls-6" d="M191.65,84.81a1.37,1.37,0,1,0-1.46,1.28A1.37,1.37,0,0,0,191.65,84.81Z"/><path class="cls-6" d="M395.42,168.69a.69.69,0,1,0-.73.64A.68.68,0,0,0,395.42,168.69Z"/><path class="cls-6" d="M382.7,187.26a.49.49,0,0,0-.46-.53.5.5,0,1,0,.46.53Z"/><path class="cls-4" d="M380,158.24a.37.37,0,0,0-.74-.05.38.38,0,0,0,.35.4A.37.37,0,0,0,380,158.24Z"/><path class="cls-5" d="M397,168.79a2.22,2.22,0,1,0-2.36,2.07A2.22,2.22,0,0,0,397,168.79Z"/><path class="cls-6" d="M406.9,129.73a1.54,1.54,0,1,0-1.63,1.44A1.54,1.54,0,0,0,406.9,129.73Z"/><path class="cls-5" d="M381.67,158.35a2,2,0,1,0-2.15,1.88A2,2,0,0,0,381.67,158.35Z"/><path class="cls-6" d="M395.81,168.72a1.08,1.08,0,0,0-2.15-.14,1.08,1.08,0,0,0,2.15.14Z"/><circle class="cls-5" cx="495.17" cy="141.72" r="2.93"/><path class="cls-3" d="M406.05,129.68a.69.69,0,1,0-.73.64A.69.69,0,0,0,406.05,129.68Z"/><path class="cls-3" d="M118.35,152.74a.29.29,0,0,0-.26-.3.28.28,0,0,0-.3.27.27.27,0,0,0,.26.3A.28.28,0,0,0,118.35,152.74Z"/><path class="cls-5" d="M168,125.51a1.12,1.12,0,1,0-1.19,1A1.12,1.12,0,0,0,168,125.51Z"/><path class="cls-5" d="M168.92,130.65a1.3,1.3,0,1,0-1.39,1.22A1.32,1.32,0,0,0,168.92,130.65Z"/><path class="cls-4" d="M168.59,125.55a1.72,1.72,0,1,0-3.43-.22,1.72,1.72,0,1,0,3.43.22Z"/><path class="cls-5" d="M180.12,140.32a1.15,1.15,0,1,0-1.22,1.07A1.15,1.15,0,0,0,180.12,140.32Z"/><path class="cls-5" d="M168.43,130.62a.82.82,0,1,0-.87.76A.82.82,0,0,0,168.43,130.62Z"/><path class="cls-5" d="M179.37,140.27a.39.39,0,0,0-.37-.42.41.41,0,0,0-.42.37.4.4,0,0,0,.79.05Z"/><path class="cls-4" d="M177.19,172.43a1.93,1.93,0,0,0-3.85-.26,1.93,1.93,0,0,0,3.85.26Z"/><path class="cls-4" d="M283.57,117.82a.86.86,0,1,0-.91.8A.86.86,0,0,0,283.57,117.82Z"/><path class="cls-5" d="M250.52,101.24a1.35,1.35,0,1,0-1.44,1.26A1.35,1.35,0,0,0,250.52,101.24Z"/><path class="cls-5" d="M235.68,144a.62.62,0,0,0-.58-.66.62.62,0,0,0-.65.58.6.6,0,0,0,.57.65A.62.62,0,0,0,235.68,144Z"/><path class="cls-4" d="M283.43,117.81a.72.72,0,1,0-.76.67A.72.72,0,0,0,283.43,117.81Z"/><path class="cls-3" d="M291.9,141.32a.61.61,0,0,0-.57-.66.62.62,0,1,0-.08,1.24A.62.62,0,0,0,291.9,141.32Z"/><path class="cls-6" d="M236.4,144a1.34,1.34,0,1,0-1.43,1.26A1.36,1.36,0,0,0,236.4,144Z"/><path class="cls-3" d="M283.71,117.83a1,1,0,1,0-1.06.93A1,1,0,0,0,283.71,117.83Z"/><path class="cls-3" d="M288.25,105.74a1.65,1.65,0,1,0-1.75,1.53A1.65,1.65,0,0,0,288.25,105.74Z"/><path class="cls-6" d="M250,101.21a.83.83,0,0,0-1.66-.11.83.83,0,1,0,1.66.11Z"/><path class="cls-3" d="M285,117.92a2.29,2.29,0,1,0-2.43,2.13A2.29,2.29,0,0,0,285,117.92Z"/><path class="cls-5" d="M314.69,117.72a1,1,0,1,0-1,.91A1,1,0,0,0,314.69,117.72Z"/><path class="cls-5" d="M287.53,105.69a.92.92,0,1,0-1.84-.12.91.91,0,0,0,.86,1A.93.93,0,0,0,287.53,105.69Z"/><path class="cls-5" d="M284.27,117.87a1.56,1.56,0,1,0-1.66,1.45A1.56,1.56,0,0,0,284.27,117.87Z"/><path class="cls-3" d="M313.08,137.83a.68.68,0,1,0-1.36-.09.68.68,0,0,0,1.36.09Z"/><path class="cls-4" d="M291.65,141.3a.37.37,0,1,0-.39.34A.36.36,0,0,0,291.65,141.3Z"/><path class="cls-3" d="M284.13,117.86a1.42,1.42,0,1,0-1.51,1.33A1.41,1.41,0,0,0,284.13,117.86Z"/><path class="cls-6" d="M313.87,137.88a1.47,1.47,0,1,0-1.57,1.37A1.48,1.48,0,0,0,313.87,137.88Z"/><path class="cls-5" d="M314.73,117.72a1,1,0,1,0-2-.13,1,1,0,0,0,2,.13Z"/><path class="cls-6" d="M398.91,200a2,2,0,1,0-2.17,1.9A2,2,0,0,0,398.91,200Z"/><path class="cls-5" d="M384.17,187.35a2,2,0,1,0-2.09,1.84A2,2,0,0,0,384.17,187.35Z"/><path class="cls-5" d="M376.66,207.28a2.77,2.77,0,1,0-2.94,2.58A2.76,2.76,0,0,0,376.66,207.28Z"/><path class="cls-6" d="M399.64,200a2.77,2.77,0,1,0-2.95,2.59A2.77,2.77,0,0,0,399.64,200Z"/><path class="cls-5" d="M392.9,216a2.19,2.19,0,1,0-2.33,2.05A2.19,2.19,0,0,0,392.9,216Z"/><path class="cls-5" d="M374.57,207.14a.66.66,0,0,0-.63-.71.66.66,0,0,0-.71.62.69.69,0,0,0,.63.72A.67.67,0,0,0,374.57,207.14Z"/><path class="cls-3" d="M399.36,200a2.49,2.49,0,1,0-2.65,2.32A2.49,2.49,0,0,0,399.36,200Z"/><path class="cls-4" d="M395.46,168.69a.73.73,0,1,0-.77.68A.71.71,0,0,0,395.46,168.69Z"/><path class="cls-5" d="M383.93,187.34a1.73,1.73,0,1,0-1.84,1.61A1.73,1.73,0,0,0,383.93,187.34Z"/><path class="cls-3" d="M398.18,200a1.31,1.31,0,1,0-1.39,1.22A1.3,1.3,0,0,0,398.18,200Z"/><path class="cls-5" d="M410,206a1.54,1.54,0,1,0-1.64,1.44A1.53,1.53,0,0,0,410,206Z"/><path class="cls-3" d="M391,215.83a.27.27,0,1,0-.28.25A.27.27,0,0,0,391,215.83Z"/><path class="cls-3" d="M142.72,154.13a1.16,1.16,0,1,0-1.23,1.09A1.16,1.16,0,0,0,142.72,154.13Z"/><path class="cls-3" d="M118.94,152.78a.87.87,0,1,0-1.74-.11.87.87,0,0,0,1.74.11Z"/><path class="cls-3" d="M106.51,166.29a1.18,1.18,0,1,0-1.26,1.1A1.17,1.17,0,0,0,106.51,166.29Z"/><path class="cls-3" d="M143.09,154.15a1.53,1.53,0,1,0-1.63,1.44A1.53,1.53,0,0,0,143.09,154.15Z"/><path class="cls-6" d="M133.27,191.19a.72.72,0,0,0-.68-.78.74.74,0,1,0-.1,1.47A.73.73,0,0,0,133.27,191.19Z"/><path class="cls-3" d="M105.86,166.25a.53.53,0,1,0-1.06-.07.53.53,0,0,0,1.06.07Z"/><path class="cls-6" d="M142.5,154.12a.94.94,0,1,0-1.88-.13.94.94,0,1,0,1.88.13Z"/><path class="cls-5" d="M118.49,152.75a.43.43,0,0,0-.39-.45.42.42,0,0,0-.45.4.41.41,0,0,0,.39.44A.42.42,0,0,0,118.49,152.75Z"/><path class="cls-3" d="M142.87,154.14a1.31,1.31,0,1,0-1.39,1.23A1.31,1.31,0,0,0,142.87,154.14Z"/><path class="cls-5" d="M176.57,172.38a1.3,1.3,0,1,0-1.39,1.22A1.31,1.31,0,0,0,176.57,172.38Z"/><path class="cls-6" d="M135,191.3a2.45,2.45,0,1,0-2.6,2.29A2.44,2.44,0,0,0,135,191.3Z"/><path class="cls-5" d="M143,154.15a1.48,1.48,0,1,0-1.58,1.38A1.48,1.48,0,0,0,143,154.15Z"/><path class="cls-3" d="M176.7,172.39a1.43,1.43,0,1,0-1.52,1.34A1.43,1.43,0,0,0,176.7,172.39Z"/><path class="cls-3" d="M282,168.9a.44.44,0,0,0-.42-.46.42.42,0,0,0-.46.41.44.44,0,0,0,.41.47A.45.45,0,0,0,282,168.9Z"/><path class="cls-5" d="M292.11,141.33a.83.83,0,0,0-1.65-.11.83.83,0,1,0,1.65.11Z"/><path class="cls-3" d="M258.52,158.23a1.2,1.2,0,0,0-1.13-1.29,1.22,1.22,0,1,0,1.13,1.29Z"/><path class="cls-5" d="M282.68,169a1.15,1.15,0,1,0-1.22,1.07A1.15,1.15,0,0,0,282.68,169Z"/><path class="cls-4" d="M310.71,163.57a.26.26,0,0,0-.52,0,.27.27,0,0,0,.24.29A.27.27,0,0,0,310.71,163.57Z"/><path class="cls-4" d="M292.73,141.37a1.44,1.44,0,1,0-1.54,1.35A1.44,1.44,0,0,0,292.73,141.37Z"/><path class="cls-5" d="M284.26,169.05a2.73,2.73,0,1,0-2.9,2.55A2.72,2.72,0,0,0,284.26,169.05Z"/><path class="cls-3" d="M319,170.1a1.4,1.4,0,1,0-1.49,1.31A1.4,1.4,0,0,0,319,170.1Z"/><path class="cls-6" d="M299.41,200.71a.55.55,0,1,0-.58.51A.55.55,0,0,0,299.41,200.71Z"/><path class="cls-3" d="M282.93,169a1.4,1.4,0,1,0-1.49,1.3A1.4,1.4,0,0,0,282.93,169Z"/><path class="cls-3" d="M320.16,170.18a2.6,2.6,0,1,0-2.76,2.42A2.59,2.59,0,0,0,320.16,170.18Z"/><path class="cls-5" d="M311.35,163.61a.89.89,0,0,0-.84-1,.91.91,0,1,0,.84,1Z"/><path class="cls-5" d="M193.23,62a1.59,1.59,0,1,0-1.7,1.49A1.6,1.6,0,0,0,193.23,62Z"/><path class="cls-5" d="M192,61.88a.39.39,0,0,0-.78-.05.39.39,0,1,0,.78.05Z"/><path class="cls-4" d="M167.39,76.22a.27.27,0,0,0-.25-.29.27.27,0,0,0-.28.25.27.27,0,0,0,.25.29A.27.27,0,0,0,167.39,76.22Z"/><path class="cls-3" d="M192.28,61.9a.64.64,0,0,0-.6-.69.66.66,0,0,0-.69.61.65.65,0,0,0,.61.68A.63.63,0,0,0,192.28,61.9Z"/><path class="cls-5" d="M198.23,25a1.89,1.89,0,1,0-2,1.76A1.89,1.89,0,0,0,198.23,25Z"/><path class="cls-5" d="M194.32,62a2.69,2.69,0,1,0-2.86,2.51A2.68,2.68,0,0,0,194.32,62Z"/><path class="cls-5" d="M190.85,84.76a.57.57,0,1,0-.61.53A.57.57,0,0,0,190.85,84.76Z"/><path class="cls-4" d="M168,76.26a.86.86,0,1,0-.91.8A.86.86,0,0,0,168,76.26Z"/><path class="cls-4" d="M192.85,61.94a1.21,1.21,0,1,0-2.42-.16,1.21,1.21,0,1,0,2.42.16Z"/><path class="cls-4" d="M214.9,75.66a.57.57,0,0,0-.54-.61.58.58,0,0,0-.62.54.58.58,0,0,0,1.16.07Z"/><path class="cls-5" d="M190.7,84.75a.42.42,0,1,0-.45.39A.43.43,0,0,0,190.7,84.75Z"/><path class="cls-3" d="M192.94,61.94a1.3,1.3,0,0,0-2.6-.17,1.3,1.3,0,0,0,2.6.17Z"/><path class="cls-4" d="M206.54,28.6a.6.6,0,1,0-1.2-.07.6.6,0,1,0,1.2.07Z"/><path class="cls-5" d="M197.67,25a1.33,1.33,0,0,0-2.66-.17,1.33,1.33,0,0,0,2.66.17Z"/><path class="cls-3" d="M192.36,61.9a.72.72,0,1,0-.77.68A.73.73,0,0,0,192.36,61.9Z"/><path class="cls-3" d="M214.78,75.66a.45.45,0,0,0-.43-.49.46.46,0,1,0,.43.49Z"/><path class="cls-3" d="M208,28.7a2,2,0,1,0-2.15,1.88A2,2,0,0,0,208,28.7Z"/><path class="cls-5" d="M270.61,176.69A.64.64,0,0,0,270,176a.63.63,0,1,0,.59.67Z"/><circle class="cls-3" cx="244.75" cy="191.56" r="0.99" transform="translate(-6.92 373.94) rotate(-73.98)"/><path class="cls-4" d="M270.86,176.71a.88.88,0,1,0-.94.82A.88.88,0,0,0,270.86,176.71Z"/><path class="cls-3" d="M270.55,199.24a1.64,1.64,0,1,0-1.74,1.52A1.64,1.64,0,0,0,270.55,199.24Z"/><path class="cls-4" d="M247,191.71a2.28,2.28,0,1,0-2.43,2.13A2.28,2.28,0,0,0,247,191.71Z"/><path class="cls-5" d="M270.47,176.68a.49.49,0,0,0-.46-.52.5.5,0,0,0-.52.46.49.49,0,1,0,1,.06Z"/><path class="cls-5" d="M282.58,168.94a1,1,0,1,0-1.11,1A1,1,0,0,0,282.58,168.94Z"/><path class="cls-6" d="M270.2,176.67a.22.22,0,0,0-.21-.24.22.22,0,0,0-.24.21.24.24,0,0,0,.21.24A.22.22,0,0,0,270.2,176.67Z"/><path class="cls-5" d="M278,198.81a.63.63,0,0,0-.57-.65.61.61,0,0,0-.65.57.61.61,0,0,0,.57.65A.62.62,0,0,0,278,198.81Z"/><path class="cls-5" d="M270.45,199.23a1.54,1.54,0,1,0-1.63,1.43A1.53,1.53,0,0,0,270.45,199.23Z"/><path class="cls-5" d="M270.46,176.68a.48.48,0,0,0-1-.06.47.47,0,0,0,.45.51A.48.48,0,0,0,270.46,176.68Z"/><path class="cls-3" d="M299.65,200.73a.79.79,0,1,0-.84.73A.79.79,0,0,0,299.65,200.73Z"/><path class="cls-5" d="M277.88,198.8a.46.46,0,0,0-.42-.48.45.45,0,1,0,.42.48Z"/><path class="cls-3" d="M272,176.78a2,2,0,1,0-2.11,1.85A2,2,0,0,0,272,176.78Z"/><path class="cls-3" d="M299.3,200.71a.45.45,0,0,0-.41-.47.44.44,0,0,0-.46.41.44.44,0,0,0,.87.06Z"/><path class="cls-3" d="M282.33,168.93a.8.8,0,1,0-.85.74A.8.8,0,0,0,282.33,168.93Z"/><path class="cls-5" d="M126.05,216.52a.56.56,0,0,0-.52-.6.55.55,0,0,0-.59.52.56.56,0,1,0,1.11.08Z"/><path class="cls-4" d="M96.77,209.22a.31.31,0,0,0-.62,0,.31.31,0,1,0,.62,0Z"/><path class="cls-5" d="M93.25,231.94a1.23,1.23,0,1,0-1.31,1.16A1.24,1.24,0,0,0,93.25,231.94Z"/><path class="cls-3" d="M126.29,216.53a.8.8,0,0,0-.74-.85.81.81,0,0,0-.85.75.78.78,0,0,0,.74.84A.8.8,0,0,0,126.29,216.53Z"/><path class="cls-3" d="M113,240.34a.25.25,0,0,0-.24-.27.26.26,0,1,0,.24.27Z"/><path class="cls-5" d="M93,231.93A1,1,0,1,0,91,231.8a1,1,0,0,0,.91,1A1,1,0,0,0,93,231.93Z"/><path class="cls-5" d="M126.55,216.55a1.07,1.07,0,0,0-1-1.12,1.05,1.05,0,0,0-1.12,1,1.07,1.07,0,0,0,1,1.12A1.05,1.05,0,0,0,126.55,216.55Z"/><path class="cls-6" d="M114.24,200.92a2,2,0,1,0-2.13,1.87A2,2,0,0,0,114.24,200.92Z"/><path class="cls-6" d="M97.36,209.26a.9.9,0,1,0-1,.84A.91.91,0,0,0,97.36,209.26Z"/><path class="cls-5" d="M126.69,216.56a1.2,1.2,0,1,0-1.27,1.11A1.2,1.2,0,0,0,126.69,216.56Z"/><path class="cls-4" d="M124.34,205a1.46,1.46,0,1,0-1.56,1.36A1.46,1.46,0,0,0,124.34,205Z"/><path class="cls-3" d="M113.5,200.87a1.27,1.27,0,1,0-1.35,1.18A1.27,1.27,0,0,0,113.5,200.87Z"/><path class="cls-5" d="M127.39,216.6a1.9,1.9,0,1,0-2,1.78A1.9,1.9,0,0,0,127.39,216.6Z"/><path class="cls-5" d="M162.18,212.68a.85.85,0,0,0-.81-.91.85.85,0,0,0-.91.8.86.86,0,0,0,1.72.11Z"/><path class="cls-6" d="M114.53,240.44a1.78,1.78,0,1,0-1.89,1.66A1.77,1.77,0,0,0,114.53,240.44Z"/><path class="cls-5" d="M127.12,216.59a1.63,1.63,0,1,0-1.73,1.51A1.62,1.62,0,0,0,127.12,216.59Z"/><path class="cls-3" d="M163.29,212.75a2,2,0,1,0-2.1,1.85A2,2,0,0,0,163.29,212.75Z"/><path class="cls-4" d="M123.32,205a.44.44,0,0,0-.88-.05.43.43,0,0,0,.41.46A.44.44,0,0,0,123.32,205Z"/><path class="cls-6" d="M320.75,254.51a1,1,0,0,0-.94-1.08,1,1,0,0,0-1.08.95,1,1,0,0,0,2,.13Z"/><path class="cls-3" d="M322.46,225.17a.93.93,0,0,0-.88-1,.94.94,0,1,0,.88,1Z"/><path class="cls-3" d="M307.69,245.13a.54.54,0,1,0-.58.5A.55.55,0,0,0,307.69,245.13Z"/><path class="cls-5" d="M320.56,254.5a.81.81,0,0,0-.76-.87.82.82,0,0,0-.88.76.83.83,0,0,0,.77.87A.82.82,0,0,0,320.56,254.5Z"/><path class="cls-4" d="M360.76,227.36a.58.58,0,0,0-.54-.61.58.58,0,0,0-.07,1.15A.58.58,0,0,0,360.76,227.36Z"/><path class="cls-3" d="M323.31,225.23a1.79,1.79,0,0,0-3.58-.24,1.79,1.79,0,0,0,3.58.24Z"/><path class="cls-4" d="M320.48,254.49a.74.74,0,1,0-.78.69A.73.73,0,0,0,320.48,254.49Z"/><path class="cls-5" d="M360.62,227.36a.43.43,0,0,0-.41-.47.44.44,0,0,0-.47.41.45.45,0,0,0,.42.47A.44.44,0,0,0,360.62,227.36Z"/><path class="cls-5" d="M340.84,269.43a.92.92,0,1,0-1,.86A.93.93,0,0,0,340.84,269.43Z"/><g class="cls-7"><image width="7361" height="4910" transform="translate(161.06 34.89) scale(0.03)" xlink:href="../../Downloads/pexels-mentatdgt-937481.jpg"/></g><path class="cls-8" d="M274.24,67.74A23.76,23.76,0,1,0,249,89.91,23.74,23.74,0,0,0,274.24,67.74Z"/><g class="cls-9"><image width="3646" height="5469" transform="translate(322.53 71.7) scale(0.01)" xlink:href="../../Downloads/pexels-ketut-subiyanto-4307884.jpg"/></g><path class="cls-10" d="M369.48,106.05a23.79,23.79,0,1,0-25.29,22.19A23.79,23.79,0,0,0,369.48,106.05Z"/><g class="cls-11"><image width="4000" height="6000" transform="translate(183.65 187.82) scale(0.02)" xlink:href="../../Downloads/pexels-mizuno-k-12898977.jpg"/></g><path class="cls-12" d="M242.66,240A24.1,24.1,0,1,0,217,262.43,24.1,24.1,0,0,0,242.66,240Z"/><g class="cls-13"><image width="4000" height="6000" transform="translate(230.38 105.89) scale(0.02)" xlink:href="../../Downloads/pexels-edmond-dante%CC%80s-4342352.jpg"/></g><path class="cls-14" d="M291.38,161.8a24.05,24.05,0,1,0-25.57,22.44A24,24,0,0,0,291.38,161.8Z"/><g class="cls-15"><image width="3629" height="5437" transform="translate(95.86 120.43) scale(0.03)" xlink:href="../../Downloads/pexels-pixabay-532220.jpg"/></g><path class="cls-14" d="M167.19,155.73a24.15,24.15,0,1,0-25.67,22.52A24.15,24.15,0,0,0,167.19,155.73Z"/></svg>