<svg width="375" height="272" viewBox="0 0 375 272" fill="none" xmlns="http://www.w3.org/2000/svg">
<rect x="58.1392" y="69.9893" width="2.57915" height="9.02703" fill="white" fill-opacity="0.2"/>
<rect width="2.57915" height="9.02703" transform="matrix(1 0 0 -1 81.9963 206.684)" fill="white" fill-opacity="0.2"/>
<rect width="2.57915" height="9.02703" transform="matrix(1 0 0 -1 63.2974 206.684)" fill="white" fill-opacity="0.2"/>
<rect width="2.57915" height="9.02703" transform="matrix(1 0 0 -1 86.5098 218.29)" fill="white" fill-opacity="0.2"/>
<rect width="2.57915" height="9.02703" transform="matrix(1 0 0 -1 131.645 229.896)" fill="white" fill-opacity="0.2"/>
<rect x="58.1392" y="174.444" width="2.57915" height="9.02703" fill="white" fill-opacity="0.2"/>
<rect x="143.251" y="69.9893" width="2.57915" height="9.02703" fill="white" fill-opacity="0.2"/>
<rect width="2.57915" height="9.02703" transform="matrix(1 0 0 -1 143.251 206.684)" fill="white" fill-opacity="0.2"/>
<rect width="2.57915" height="9.02703" transform="matrix(1 0 0 -1 127.776 218.29)" fill="white" fill-opacity="0.2"/>
<rect width="2.57915" height="9.02703" transform="matrix(1 0 0 -1 143.251 229.896)" fill="white" fill-opacity="0.2"/>
<rect x="203.216" y="69.9893" width="2.57915" height="9.02703" fill="white" fill-opacity="0.2"/>
<rect width="2.57915" height="9.02703" transform="matrix(1 0 0 -1 203.216 206.684)" fill="white" fill-opacity="0.2"/>
<rect width="2.57915" height="9.02703" transform="matrix(1 0 0 -1 223.85 218.29)" fill="white" fill-opacity="0.2"/>
<rect width="2.57915" height="9.02703" transform="matrix(1 0 0 -1 203.216 229.896)" fill="white" fill-opacity="0.2"/>
<rect x="143.251" y="174.444" width="2.57915" height="9.02703" fill="white" fill-opacity="0.2"/>
<rect x="70.3901" y="104.808" width="2.57915" height="9.02703" fill="white" fill-opacity="0.2"/>
<rect x="86.5098" y="104.808" width="2.57915" height="9.02703" fill="white" fill-opacity="0.2"/>
<rect x="118.749" y="104.808" width="2.57915" height="9.02703" fill="white" fill-opacity="0.2"/>
<rect x="352.162" y="125.44" width="2.57915" height="9.02703" transform="rotate(180 352.162 125.44)" fill="white" fill-opacity="0.2"/>
<rect x="134.869" y="58.3828" width="2.57915" height="9.02703" fill="white" fill-opacity="0.2"/>
<rect x="134.869" y="186.051" width="2.57915" height="9.02703" fill="white" fill-opacity="0.2"/>
<rect x="336.043" y="171.865" width="2.57915" height="9.02703" transform="rotate(180 336.043 171.865)" fill="white" fill-opacity="0.2"/>
<rect x="178.714" y="104.808" width="2.57915" height="9.02703" fill="white" fill-opacity="0.2"/>
<rect x="292.197" y="125.44" width="2.57915" height="9.02703" transform="rotate(180 292.197 125.44)" fill="white" fill-opacity="0.2"/>
<rect x="98.7607" y="69.9893" width="2.57915" height="9.02703" fill="white" fill-opacity="0.2"/>
<rect width="2.57915" height="9.02703" transform="matrix(1 0 0 -1 98.7607 206.684)" fill="white" fill-opacity="0.2"/>
<rect width="2.57915" height="9.02703" transform="matrix(1 0 0 -1 102.629 206.684)" fill="white" fill-opacity="0.2"/>
<rect width="2.57915" height="9.02703" transform="matrix(1 0 0 -1 106.498 206.684)" fill="white" fill-opacity="0.2"/>
<rect width="2.57915" height="9.02703" transform="matrix(1 0 0 -1 122.618 218.29)" fill="white" fill-opacity="0.2"/>
<rect width="2.57915" height="9.02703" transform="matrix(1 0 0 -1 71.6797 229.896)" fill="white" fill-opacity="0.2"/>
<rect x="167.108" y="174.444" width="2.57915" height="9.02703" fill="white" fill-opacity="0.2"/>
<rect x="167.108" y="58.3828" width="2.57915" height="9.02703" fill="white" fill-opacity="0.2"/>
<rect x="167.108" y="186.051" width="2.57915" height="9.02703" fill="white" fill-opacity="0.2"/>
<rect x="304.448" y="171.865" width="2.57915" height="9.02703" transform="rotate(180 304.448 171.865)" fill="white" fill-opacity="0.2"/>
<rect x="299.934" y="69.9893" width="2.57915" height="9.02703" fill="white" fill-opacity="0.2"/>
<rect width="2.57915" height="9.02703" transform="matrix(1 0 0 -1 299.934 206.684)" fill="white" fill-opacity="0.2"/>
<rect width="2.57915" height="9.02703" transform="matrix(1 0 0 -1 299.934 218.29)" fill="white" fill-opacity="0.2"/>
<rect width="2.57915" height="9.02703" transform="matrix(1 0 0 -1 301.869 183.472)" fill="white" fill-opacity="0.2"/>
<rect width="2.57915" height="9.02703" transform="matrix(1 0 0 -1 307.672 218.29)" fill="white" fill-opacity="0.2"/>
<rect width="2.57915" height="9.02703" transform="matrix(1 0 0 -1 344.425 229.896)" fill="white" fill-opacity="0.2"/>
<rect x="312.185" y="174.444" width="2.57915" height="9.02703" fill="white" fill-opacity="0.2"/>
<rect x="183.228" y="104.808" width="2.57915" height="9.02703" fill="white" fill-opacity="0.2"/>
<rect x="287.683" y="125.44" width="2.57915" height="9.02703" transform="rotate(180 287.683 125.44)" fill="white" fill-opacity="0.2"/>
<rect x="227.073" y="58.3828" width="2.57915" height="9.02703" fill="white" fill-opacity="0.2"/>
<rect x="227.073" y="186.051" width="2.57915" height="9.02703" fill="white" fill-opacity="0.2"/>
<rect x="183.228" y="69.9893" width="2.57915" height="9.02703" fill="white" fill-opacity="0.2"/>
<rect width="2.57915" height="9.02703" transform="matrix(1 0 0 -1 196.769 206.684)" fill="white" fill-opacity="0.2"/>
<rect width="2.57915" height="9.02703" transform="matrix(1 0 0 -1 152.923 218.29)" fill="white" fill-opacity="0.2"/>
<rect width="2.57915" height="9.02703" transform="matrix(1 0 0 -1 176.135 229.896)" fill="white" fill-opacity="0.2"/>
<rect x="183.228" y="174.444" width="2.57915" height="9.02703" fill="white" fill-opacity="0.2"/>
<rect x="118.749" y="81.5947" width="2.57915" height="9.02703" fill="white" fill-opacity="0.2"/>
<rect x="352.162" y="171.865" width="2.57915" height="9.02703" transform="rotate(180 352.162 171.865)" fill="white" fill-opacity="0.2"/>
<rect x="365.703" y="171.865" width="2.57915" height="9.02703" transform="rotate(180 365.703 171.865)" fill="white" fill-opacity="0.2"/>
<rect x="78.1277" y="93.2012" width="2.57915" height="9.02703" fill="white" fill-opacity="0.2"/>
<rect x="78.1277" y="162.839" width="2.57915" height="9.02703" fill="white" fill-opacity="0.2"/>
<rect x="81.9963" y="93.2012" width="2.57915" height="9.02703" fill="white" fill-opacity="0.2"/>
<rect x="81.9963" y="162.839" width="2.57915" height="9.02703" fill="white" fill-opacity="0.2"/>
<rect x="122.618" y="93.2012" width="2.57915" height="9.02703" fill="white" fill-opacity="0.2"/>
<rect x="122.618" y="162.839" width="2.57915" height="9.02703" fill="white" fill-opacity="0.2"/>
<rect x="243.838" y="69.9893" width="2.57915" height="9.02703" fill="white" fill-opacity="0.2"/>
<rect x="243.838" y="174.444" width="2.57915" height="9.02703" fill="white" fill-opacity="0.2"/>
<rect x="247.707" y="69.9893" width="2.57915" height="9.02703" fill="white" fill-opacity="0.2"/>
<rect width="2.57915" height="9.02703" transform="matrix(1 0 0 -1 259.958 206.684)" fill="white" fill-opacity="0.2"/>
<rect width="2.57915" height="9.02703" transform="matrix(1 0 0 -1 259.958 218.29)" fill="white" fill-opacity="0.2"/>
<rect width="2.57915" height="9.02703" transform="matrix(1 0 0 -1 259.958 229.896)" fill="white" fill-opacity="0.2"/>
<rect x="194.834" y="81.5947" width="2.57915" height="9.02703" fill="white" fill-opacity="0.2"/>
<rect x="276.077" y="171.865" width="2.57915" height="9.02703" transform="rotate(180 276.077 171.865)" fill="white" fill-opacity="0.2"/>
<rect x="154.857" y="93.2012" width="2.57915" height="9.02703" fill="white" fill-opacity="0.2"/>
<rect x="152.923" y="162.839" width="2.57915" height="9.02703" fill="white" fill-opacity="0.2"/>
<rect x="143.251" y="162.839" width="2.57915" height="9.02703" fill="white" fill-opacity="0.2"/>
<rect x="214.823" y="162.839" width="2.57915" height="9.02703" fill="white" fill-opacity="0.2"/>
<rect x="135.514" y="162.839" width="2.57915" height="9.02703" fill="white" fill-opacity="0.2"/>
<rect x="275.432" y="93.2012" width="2.57915" height="9.02703" fill="white" fill-opacity="0.2"/>
<rect x="277.367" y="162.839" width="2.57915" height="9.02703" fill="white" fill-opacity="0.2"/>
<rect x="263.826" y="69.9893" width="2.57915" height="9.02703" fill="white" fill-opacity="0.2"/>
<rect width="2.57915" height="9.02703" transform="matrix(1 0 0 -1 296.066 206.684)" fill="white" fill-opacity="0.2"/>
<rect width="2.57915" height="9.02703" transform="matrix(1 0 0 -1 243.838 218.29)" fill="white" fill-opacity="0.2"/>
<rect x="263.826" y="174.444" width="2.57915" height="9.02703" fill="white" fill-opacity="0.2"/>
<rect x="259.958" y="174.444" width="2.57915" height="9.02703" fill="white" fill-opacity="0.2"/>
<rect x="223.85" y="104.808" width="2.57915" height="9.02703" fill="white" fill-opacity="0.2"/>
<rect x="247.062" y="125.44" width="2.57915" height="9.02703" transform="rotate(180 247.062 125.44)" fill="white" fill-opacity="0.2"/>
<rect x="231.587" y="104.808" width="2.57915" height="9.02703" fill="white" fill-opacity="0.2"/>
<rect x="239.324" y="125.44" width="2.57915" height="9.02703" transform="rotate(180 239.324 125.44)" fill="white" fill-opacity="0.2"/>
<rect x="247.707" y="58.3828" width="2.57915" height="9.02703" fill="white" fill-opacity="0.2"/>
<rect x="247.707" y="186.051" width="2.57915" height="9.02703" fill="white" fill-opacity="0.2"/>
<rect x="223.205" y="171.865" width="2.57915" height="9.02703" transform="rotate(180 223.205 171.865)" fill="white" fill-opacity="0.2"/>
<rect x="283.17" y="69.9893" width="2.57915" height="9.02703" fill="white" fill-opacity="0.2"/>
<rect width="2.57915" height="9.02703" transform="matrix(1 0 0 -1 283.17 206.684)" fill="white" fill-opacity="0.2"/>
<rect width="2.57915" height="9.02703" transform="matrix(1 0 0 -1 263.826 218.29)" fill="white" fill-opacity="0.2"/>
<rect width="2.57915" height="9.02703" transform="matrix(1 0 0 -1 283.17 229.896)" fill="white" fill-opacity="0.2"/>
<rect x="231.587" y="174.444" width="2.57915" height="9.02703" fill="white" fill-opacity="0.2"/>
<rect x="203.216" y="174.444" width="2.57915" height="9.02703" fill="white" fill-opacity="0.2"/>
<rect x="207.085" y="174.444" width="2.57915" height="9.02703" fill="white" fill-opacity="0.2"/>
<rect x="210.954" y="174.444" width="2.57915" height="9.02703" fill="white" fill-opacity="0.2"/>
<rect x="214.823" y="174.444" width="2.57915" height="9.02703" fill="white" fill-opacity="0.2"/>
<rect x="247.707" y="81.5947" width="2.57915" height="9.02703" fill="white" fill-opacity="0.2"/>
<rect x="223.205" y="125.44" width="2.57915" height="9.02703" transform="rotate(180 223.205 125.44)" fill="white" fill-opacity="0.2"/>
<rect x="275.432" y="104.808" width="2.57915" height="9.02703" fill="white" fill-opacity="0.2"/>
<rect x="195.479" y="125.44" width="2.57915" height="9.02703" transform="rotate(180 195.479 125.44)" fill="white" fill-opacity="0.2"/>
<rect x="271.564" y="104.808" width="2.57915" height="9.02703" fill="white" fill-opacity="0.2"/>
<rect x="256.089" y="104.808" width="2.57915" height="9.02703" fill="white" fill-opacity="0.2"/>
<rect x="199.348" y="125.44" width="2.57915" height="9.02703" transform="rotate(180 199.348 125.44)" fill="white" fill-opacity="0.2"/>
<rect x="296.066" y="104.808" width="2.57915" height="9.02703" fill="white" fill-opacity="0.2"/>
<rect x="174.846" y="125.44" width="2.57915" height="9.02703" transform="rotate(180 174.846 125.44)" fill="white" fill-opacity="0.2"/>
<rect x="312.185" y="104.808" width="2.57915" height="9.02703" fill="white" fill-opacity="0.2"/>
<rect x="158.726" y="125.44" width="2.57915" height="9.02703" transform="rotate(180 158.726 125.44)" fill="white" fill-opacity="0.2"/>
<rect x="336.687" y="104.808" width="2.57915" height="9.02703" fill="white" fill-opacity="0.2"/>
<rect x="134.224" y="125.44" width="2.57915" height="9.02703" transform="rotate(180 134.224 125.44)" fill="white" fill-opacity="0.2"/>
<rect x="312.185" y="58.3828" width="2.57915" height="9.02703" fill="white" fill-opacity="0.2"/>
<rect x="312.185" y="186.051" width="2.57915" height="9.02703" fill="white" fill-opacity="0.2"/>
<rect x="159.371" y="171.865" width="2.57915" height="9.02703" transform="rotate(180 159.371 171.865)" fill="white" fill-opacity="0.2"/>
<rect x="163.24" y="171.865" width="2.57915" height="9.02703" transform="rotate(180 163.24 171.865)" fill="white" fill-opacity="0.2"/>
<rect x="167.108" y="171.865" width="2.57915" height="9.02703" transform="rotate(180 167.108 171.865)" fill="white" fill-opacity="0.2"/>
<rect x="170.977" y="171.865" width="2.57915" height="9.02703" transform="rotate(180 170.977 171.865)" fill="white" fill-opacity="0.2"/>
<rect x="364.413" y="69.9893" width="2.57915" height="9.02703" fill="white" fill-opacity="0.2"/>
<rect width="2.57915" height="9.02703" transform="matrix(1 0 0 -1 364.413 206.684)" fill="white" fill-opacity="0.2"/>
<rect width="2.57915" height="9.02703" transform="matrix(1 0 0 -1 364.413 218.29)" fill="white" fill-opacity="0.2"/>
<rect width="2.57915" height="9.02703" transform="matrix(1 0 0 -1 364.413 229.896)" fill="white" fill-opacity="0.2"/>
<rect x="332.819" y="69.9893" width="2.57915" height="9.02703" fill="white" fill-opacity="0.2"/>
<rect width="2.57915" height="9.02703" transform="matrix(1 0 0 -1 332.819 206.684)" fill="white" fill-opacity="0.2"/>
<rect width="2.57915" height="9.02703" transform="matrix(1 0 0 -1 360.544 218.29)" fill="white" fill-opacity="0.2"/>
<rect width="2.57915" height="9.02703" transform="matrix(1 0 0 -1 312.185 229.896)" fill="white" fill-opacity="0.2"/>
<rect x="337.332" y="174.444" width="2.57915" height="9.02703" fill="white" fill-opacity="0.2"/>
<rect x="333.463" y="174.444" width="2.57915" height="9.02703" fill="white" fill-opacity="0.2"/>
<rect x="328.95" y="104.808" width="2.57915" height="9.02703" fill="white" fill-opacity="0.2"/>
<rect x="141.961" y="125.44" width="2.57915" height="9.02703" transform="rotate(180 141.961 125.44)" fill="white" fill-opacity="0.2"/>
<rect x="344.425" y="104.808" width="2.57915" height="9.02703" fill="white" fill-opacity="0.2"/>
<rect x="126.487" y="125.44" width="2.57915" height="9.02703" transform="rotate(180 126.487 125.44)" fill="white" fill-opacity="0.2"/>
<rect x="340.556" y="104.808" width="2.57915" height="9.02703" fill="white" fill-opacity="0.2"/>
<rect x="130.355" y="125.44" width="2.57915" height="9.02703" transform="rotate(180 130.355 125.44)" fill="white" fill-opacity="0.2"/>
<rect x="360.544" y="104.808" width="2.57915" height="9.02703" fill="white" fill-opacity="0.2"/>
<rect x="110.367" y="125.44" width="2.57915" height="9.02703" transform="rotate(180 110.367 125.44)" fill="white" fill-opacity="0.2"/>
<rect x="340.556" y="58.3828" width="2.57915" height="9.02703" fill="white" fill-opacity="0.2"/>
<rect x="340.556" y="186.051" width="2.57915" height="9.02703" fill="white" fill-opacity="0.2"/>
<rect x="344.425" y="186.051" width="2.57915" height="9.02703" fill="white" fill-opacity="0.2"/>
<rect x="348.293" y="186.051" width="2.57915" height="9.02703" fill="white" fill-opacity="0.2"/>
<rect x="129.066" y="171.865" width="2.57915" height="9.02703" transform="rotate(180 129.066 171.865)" fill="white" fill-opacity="0.2"/>
<rect x="321.857" y="58.3828" width="2.57915" height="9.02703" fill="white" fill-opacity="0.2"/>
<rect x="321.857" y="186.051" width="2.57915" height="9.02703" fill="white" fill-opacity="0.2"/>
<rect x="178.714" y="171.865" width="2.57915" height="9.02703" transform="rotate(180 178.714 171.865)" fill="white" fill-opacity="0.2"/>
<rect x="292.197" y="162.839" width="2.57915" height="9.02703" fill="white" fill-opacity="0.2"/>
<rect x="65.8767" y="125.44" width="2.57915" height="9.02703" transform="rotate(180 65.8767 125.44)" fill="white" fill-opacity="0.2"/>
<rect x="74.2588" y="171.865" width="2.57915" height="9.02703" transform="rotate(180 74.2588 171.865)" fill="white" fill-opacity="0.2"/>
<rect x="348.293" y="81.5947" width="2.57915" height="9.02703" fill="white" fill-opacity="0.2"/>
<rect x="121.328" y="171.865" width="2.57915" height="9.02703" transform="rotate(180 121.328 171.865)" fill="white" fill-opacity="0.2"/>
<rect x="94.8921" y="171.865" width="2.57915" height="9.02703" transform="rotate(180 94.8921 171.865)" fill="white" fill-opacity="0.2"/>
<rect x="102.629" y="171.865" width="2.57915" height="9.02703" transform="rotate(180 102.629 171.865)" fill="white" fill-opacity="0.2"/>
<path fill-rule="evenodd" clip-rule="evenodd" d="M392.784 137.048H390.205V128.021L392.784 128.021V137.048ZM357.965 148.654H355.386V139.627H357.965V148.654ZM170.977 160.26H168.398V151.233H170.977V160.26ZM325.081 160.26H327.66V151.233H325.081V160.26ZM410.193 160.26H412.772V151.233H410.193V160.26ZM347.004 160.26H344.425V151.233H347.004V160.26ZM390.205 160.26H392.784V151.233H390.205V160.26ZM400.521 160.26H397.942V151.233H400.521V160.26ZM370.861 160.26H373.44V151.233H370.861V160.26ZM285.104 160.26H287.683V151.233H285.104V160.26ZM363.124 148.654H365.703V139.627H363.124V148.654ZM369.572 148.654H366.992V139.627H369.572V148.654ZM370.861 148.654H373.44V139.627H370.861V148.654ZM377.309 148.654H374.73V139.627H377.309V148.654ZM382.467 148.654H385.046V139.627H382.467V148.654ZM388.915 148.654H386.336V139.627H388.915V148.654ZM390.205 148.654H392.784V139.627H390.205V148.654ZM400.521 148.654H397.942V139.627H400.521V148.654ZM405.68 148.654H408.259V139.627H405.68V148.654ZM386.336 137.048H388.915V128.021L386.336 128.021V137.048ZM348.293 137.048H345.714V128.021L348.293 128.021V137.048ZM224.494 160.26H227.073V151.233H224.494V160.26ZM230.942 160.26H228.363V151.233H230.942V160.26ZM232.232 160.26H234.811V151.233H232.232V160.26ZM238.68 160.26H236.1V151.233H238.68V160.26ZM239.969 160.26H242.548V151.233H239.969V160.26ZM262.537 160.26H259.958V151.233H262.537V160.26ZM301.869 160.26H304.448V151.233H301.869V160.26ZM308.317 160.26H305.738V151.233H308.317V160.26ZM309.606 160.26H312.185V151.233H309.606V160.26ZM316.054 160.26H313.475V151.233H316.054V160.26ZM317.344 160.26H319.923V151.233H317.344V160.26ZM223.205 160.26H220.626V151.233H223.205V160.26ZM244.483 160.26H247.062V151.233H244.483V160.26ZM277.367 148.654H274.788V139.627H277.367V148.654ZM228.363 148.654H230.942V139.627H228.363V148.654ZM234.811 148.654H232.232V139.627H234.811V148.654ZM236.1 148.654H238.68V139.627H236.1V148.654ZM242.548 148.654H239.969V139.627H242.548V148.654ZM127.776 148.654H130.355V139.627H127.776V148.654ZM163.24 137.048H160.66V128.021L163.24 128.021V137.048ZM278.656 148.654H281.236V139.627H278.656V148.654ZM134.224 148.654H131.645V139.627H134.224V148.654ZM164.529 148.654H167.108V139.627H164.529V148.654ZM167.108 137.048H164.529V128.021L167.108 128.021V137.048ZM282.525 148.654H285.104V139.627H282.525V148.654ZM138.093 148.654H135.514V139.627H138.093V148.654ZM286.394 148.654H288.973V139.627H286.394V148.654ZM296.711 148.654H294.131V139.627H296.711V148.654ZM298 148.654H300.579V139.627H298V148.654ZM308.317 148.654H305.738V139.627H308.317V148.654ZM313.475 148.654H316.054V139.627H313.475V148.654ZM319.923 148.654H317.344V139.627H319.923V148.654ZM325.081 148.654H327.66V139.627H325.081V148.654ZM331.529 148.654H328.95V139.627H331.529V148.654ZM336.687 148.654H339.266V139.627H336.687V148.654ZM141.962 148.654H139.382V139.627H141.962V148.654ZM172.267 137.048H174.846V128.021L172.267 128.021V137.048ZM316.054 137.048H313.475V128.021L316.054 128.021V137.048ZM192.9 137.048H195.479V128.021L192.9 128.021V137.048ZM207.085 160.26H204.506V151.233H207.085V160.26ZM208.375 160.26H210.954V151.233H208.375V160.26ZM187.741 160.26H185.162V151.233H187.741V160.26ZM196.768 160.26H199.348V151.233H196.768V160.26ZM203.216 160.26H200.637V151.233H203.216V160.26ZM103.919 160.26H106.498V151.233H103.919V160.26ZM102.629 160.26H100.05V151.233H102.629V160.26ZM135.514 160.26H138.093V151.233H135.514V160.26ZM141.962 160.26H139.382V151.233H141.962V160.26ZM111.656 160.26H114.236V151.233H111.656V160.26ZM145.83 160.26H143.251V151.233H145.83V160.26ZM147.12 160.26H149.699V151.233H147.12V160.26ZM153.568 160.26H150.989V151.233H153.568V160.26ZM63.2974 160.26H65.8766L65.8766 151.233H63.2974L63.2974 160.26ZM178.714 148.654H176.135V139.627H178.714V148.654ZM180.004 148.654H182.583V139.627H180.004V148.654ZM273.498 148.654H270.919V139.627H273.498V148.654ZM256.089 148.654H258.668V139.627H256.089V148.654ZM250.286 148.654H247.707V139.627H250.286V148.654ZM265.116 148.654H267.695V139.627H265.116V148.654ZM217.402 148.654H214.823V139.627H217.402V148.654ZM123.907 148.654H126.487V139.627H123.907V148.654ZM159.371 137.048H156.792V128.021L159.371 128.021V137.048ZM176.135 137.048H178.714V128.021L176.135 128.021V137.048ZM62.0079 160.26H59.4287L59.4287 151.233H62.0079L62.0079 160.26ZM120.039 148.654H122.618V139.627H120.039V148.654ZM89.0889 148.654H86.5098L86.5098 139.627H89.0889V148.654ZM82.6411 148.654H85.2202V139.627H82.6411L82.6411 148.654ZM81.3515 148.654H78.7723L78.7723 139.627H81.3515V148.654ZM74.9036 148.654H77.4828V139.627H74.9036L74.9036 148.654ZM73.614 148.654H71.0349L71.0349 139.627H73.614L73.614 148.654ZM67.1662 148.654H69.7453L69.7453 139.627H67.1662L67.1662 148.654ZM155.502 137.048H152.923V128.021L155.502 128.021V137.048ZM79.4171 137.048H81.9963V128.021L79.4171 128.021L79.4171 137.048ZM110.367 137.048H107.788V128.021L110.367 128.021V137.048ZM111.656 137.048H114.236V128.021L111.656 128.021V137.048ZM118.104 137.048H115.525V128.021L118.104 128.021V137.048ZM100.05 137.048H102.629V128.021L100.05 128.021V137.048ZM94.892 137.048H92.3129V128.021L94.892 128.021V137.048ZM75.5484 137.048H78.1275V128.021L75.5484 128.021L75.5484 137.048Z" fill="url(#paint0_linear)"/>
<line x1="120.753" y1="16.3545" x2="120.753" y2="104.185" stroke="white" stroke-width="0.644787"/>
<rect x="116.884" y="11.8418" width="7.73745" height="7.73745" rx="3.86872" fill="white"/>
<path d="M134.869 13.5703H173.556" stroke="white" stroke-width="0.644787"/>
<path d="M134.869 20.0186H212.243" stroke="white" stroke-width="0.644787"/>
<path d="M134.869 26.4658H212.243" stroke="white" stroke-width="0.644787"/>
<line x1="186.521" y1="246.865" x2="186.521" y2="159.035" stroke="white" stroke-width="0.644787"/>
<rect x="190.39" y="251.379" width="7.73745" height="7.73745" rx="3.86872" transform="rotate(-180 190.39 251.379)" fill="white"/>
<path d="M199.992 246.016H238.68" stroke="white" stroke-width="0.644787"/>
<path d="M199.992 252.464H277.367" stroke="white" stroke-width="0.644787"/>
<path d="M199.992 258.911H277.367" stroke="white" stroke-width="0.644787"/>
<rect width="2.57915" height="9.02703" transform="matrix(-1 0 0 1 55.3977 69.9893)" fill="white" fill-opacity="0.2"/>
<rect x="31.5405" y="206.684" width="2.57915" height="9.02703" transform="rotate(180 31.5405 206.684)" fill="white" fill-opacity="0.2"/>
<rect x="50.2395" y="206.684" width="2.57915" height="9.02703" transform="rotate(180 50.2395 206.684)" fill="white" fill-opacity="0.2"/>
<rect x="27.0271" y="218.29" width="2.57915" height="9.02703" transform="rotate(180 27.0271 218.29)" fill="white" fill-opacity="0.2"/>
<rect width="2.57915" height="9.02703" transform="matrix(-1 0 0 1 55.3977 174.444)" fill="white" fill-opacity="0.2"/>
<rect width="2.57915" height="9.02703" transform="matrix(-1 0 0 1 43.1467 104.808)" fill="white" fill-opacity="0.2"/>
<rect width="2.57915" height="9.02703" transform="matrix(-1 0 0 1 27.0271 104.808)" fill="white" fill-opacity="0.2"/>
<rect width="2.57915" height="9.02703" transform="matrix(-1 0 0 1 14.7761 69.9893)" fill="white" fill-opacity="0.2"/>
<rect x="14.7761" y="206.684" width="2.57915" height="9.02703" transform="rotate(180 14.7761 206.684)" fill="white" fill-opacity="0.2"/>
<rect x="10.9075" y="206.684" width="2.57915" height="9.02703" transform="rotate(180 10.9075 206.684)" fill="white" fill-opacity="0.2"/>
<rect x="7.03857" y="206.684" width="2.57915" height="9.02703" transform="rotate(180 7.03857 206.684)" fill="white" fill-opacity="0.2"/>
<rect x="41.8572" y="229.896" width="2.57915" height="9.02703" transform="rotate(180 41.8572 229.896)" fill="white" fill-opacity="0.2"/>
<rect width="2.57915" height="9.02703" transform="matrix(-1 0 0 1 35.4092 93.2012)" fill="white" fill-opacity="0.2"/>
<rect width="2.57915" height="9.02703" transform="matrix(-1 0 0 1 35.4092 162.839)" fill="white" fill-opacity="0.2"/>
<rect width="2.57915" height="9.02703" transform="matrix(-1 0 0 1 31.5405 93.2012)" fill="white" fill-opacity="0.2"/>
<rect width="2.57915" height="9.02703" transform="matrix(-1 0 0 1 31.5405 162.839)" fill="white" fill-opacity="0.2"/>
<rect width="2.57915" height="9.02703" transform="matrix(1 8.74228e-08 8.74228e-08 -1 3.16992 125.44)" fill="white" fill-opacity="0.2"/>
<rect width="2.57915" height="9.02703" transform="matrix(1 8.74228e-08 8.74228e-08 -1 47.6602 125.44)" fill="white" fill-opacity="0.2"/>
<rect width="2.57915" height="9.02703" transform="matrix(1 8.74228e-08 8.74228e-08 -1 39.2781 171.865)" fill="white" fill-opacity="0.2"/>
<rect width="2.57915" height="9.02703" transform="matrix(1 8.74228e-08 8.74228e-08 -1 18.6448 171.865)" fill="white" fill-opacity="0.2"/>
<rect width="2.57915" height="9.02703" transform="matrix(1 8.74228e-08 8.74228e-08 -1 10.9075 171.865)" fill="white" fill-opacity="0.2"/>
<path fill-rule="evenodd" clip-rule="evenodd" d="M-279.247 137.048H-276.668V128.021L-279.247 128.021V137.048ZM-244.428 148.654H-241.849V139.627H-244.428V148.654ZM-57.4401 160.26H-54.8609V151.233H-57.4401V160.26ZM-211.544 160.26H-214.123V151.233H-211.544V160.26ZM-296.656 160.26H-299.235V151.233H-296.656V160.26ZM-233.467 160.26H-230.888V151.233H-233.467V160.26ZM-276.668 160.26H-279.247V151.233H-276.668V160.26ZM-286.984 160.26H-284.405V151.233H-286.984V160.26ZM-257.324 160.26H-259.903V151.233H-257.324V160.26ZM-171.567 160.26H-174.147V151.233H-171.567V160.26ZM-249.587 148.654H-252.166V139.627H-249.587V148.654ZM-256.035 148.654H-253.455V139.627H-256.035V148.654ZM-257.324 148.654H-259.903V139.627H-257.324V148.654ZM-263.772 148.654H-261.193V139.627H-263.772V148.654ZM-268.93 148.654H-271.51V139.627H-268.93V148.654ZM-275.378 148.654H-272.799V139.627H-275.378V148.654ZM-276.668 148.654H-279.247V139.627H-276.668V148.654ZM-286.984 148.654H-284.405V139.627H-286.984V148.654ZM-292.143 148.654H-294.722V139.627H-292.143V148.654ZM-272.799 137.048H-275.378V128.021L-272.799 128.021V137.048ZM-234.757 137.048H-232.177V128.021L-234.757 128.021V137.048ZM-110.957 160.26H-113.537V151.233H-110.957V160.26ZM-117.405 160.26H-114.826V151.233H-117.405V160.26ZM-118.695 160.26H-121.274V151.233H-118.695V160.26ZM-125.143 160.26H-122.564V151.233H-125.143V160.26ZM-126.432 160.26H-129.011V151.233H-126.432V160.26ZM-149 160.26H-146.421V151.233H-149V160.26ZM-188.332 160.26H-190.911V151.233H-188.332V160.26ZM-194.78 160.26H-192.201V151.233H-194.78V160.26ZM-196.069 160.26H-198.649V151.233H-196.069V160.26ZM-202.517 160.26H-199.938V151.233H-202.517V160.26ZM-203.807 160.26H-206.386V151.233H-203.807V160.26ZM-109.668 160.26H-107.089V151.233H-109.668V160.26ZM-130.946 160.26H-133.525V151.233H-130.946V160.26ZM-163.83 148.654H-161.251V139.627H-163.83V148.654ZM-114.826 148.654H-117.405V139.627H-114.826V148.654ZM-121.274 148.654H-118.695V139.627H-121.274V148.654ZM-122.564 148.654H-125.143V139.627H-122.564V148.654ZM-129.011 148.654H-126.432V139.627H-129.011V148.654ZM-14.2393 148.654H-16.8185V139.627H-14.2393V148.654ZM-49.7026 137.048H-47.1235V128.021L-49.7026 128.021V137.048ZM-165.12 148.654H-167.699V139.627H-165.12V148.654ZM-20.6872 148.654H-18.108V139.627H-20.6872V148.654ZM-50.9922 148.654H-53.5714V139.627H-50.9922V148.654ZM-53.5714 137.048H-50.9922V128.021L-53.5714 128.021V137.048ZM-168.988 148.654H-171.567V139.627H-168.988V148.654ZM-24.5559 148.654H-21.9768V139.627H-24.5559V148.654ZM-172.857 148.654H-175.436V139.627H-172.857V148.654ZM-183.174 148.654H-180.594V139.627H-183.174V148.654ZM-184.463 148.654H-187.042V139.627H-184.463V148.654ZM-194.78 148.654H-192.201V139.627H-194.78V148.654ZM-199.938 148.654H-202.517V139.627H-199.938V148.654ZM-206.386 148.654H-203.807V139.627H-206.386V148.654ZM-211.544 148.654H-214.123V139.627H-211.544V148.654ZM-217.992 148.654H-215.413V139.627H-217.992V148.654ZM-223.15 148.654H-225.73V139.627H-223.15V148.654ZM-28.4246 148.654H-25.8455V139.627H-28.4246V148.654ZM-58.7297 137.048H-61.3088V128.021L-58.7297 128.021V137.048ZM-202.517 137.048H-199.938V128.021L-202.517 128.021V137.048ZM-79.3629 137.048H-81.942V128.021L-79.3629 128.021V137.048ZM-93.5482 160.26H-90.969V151.233H-93.5482V160.26ZM-94.8378 160.26H-97.4169V151.233H-94.8378V160.26ZM-74.2046 160.26H-71.6254V151.233H-74.2046V160.26ZM-83.2316 160.26H-85.8107V151.233H-83.2316V160.26ZM-89.6795 160.26H-87.1003V151.233H-89.6795V160.26ZM9.61782 160.26H7.03867V151.233H9.61782V160.26ZM10.9074 160.26H13.4865V151.233H10.9074V160.26ZM-21.9768 160.26H-24.5559V151.233H-21.9768V160.26ZM-28.4246 160.26H-25.8455V151.233H-28.4246V160.26ZM1.88037 160.26H-0.698783V151.233H1.88037V160.26ZM-32.2934 160.26H-29.7142V151.233H-32.2934V160.26ZM-33.5829 160.26H-36.1621V151.233H-33.5829V160.26ZM-40.0308 160.26H-37.4517V151.233H-40.0308V160.26ZM50.2394 160.26H47.6603L47.6603 151.233H50.2394L50.2394 160.26ZM-65.1775 148.654H-62.5984V139.627H-65.1775V148.654ZM-66.4671 148.654H-69.0463V139.627H-66.4671V148.654ZM-159.961 148.654H-157.382V139.627H-159.961V148.654ZM-142.552 148.654H-145.131V139.627H-142.552V148.654ZM-136.749 148.654H-134.17V139.627H-136.749V148.654ZM-151.579 148.654H-154.158V139.627H-151.579V148.654ZM-103.865 148.654H-101.286V139.627H-103.865V148.654ZM-10.3706 148.654H-12.9497V139.627H-10.3706V148.654ZM-45.8339 137.048H-43.2548V128.021L-45.8339 128.021V137.048ZM-62.5984 137.048H-65.1775V128.021L-62.5984 128.021V137.048ZM51.529 160.26H54.1082L54.1082 151.233H51.529L51.529 160.26ZM-6.50187 148.654H-9.08102V139.627H-6.50187V148.654ZM24.4479 148.654H27.0271L27.0271 139.627H24.4479V148.654ZM30.8958 148.654H28.3167V139.627H30.8958L30.8958 148.654ZM32.1854 148.654H34.7645L34.7645 139.627H32.1854V148.654ZM38.6333 148.654H36.0541V139.627H38.6333L38.6333 148.654ZM39.9228 148.654H42.502L42.502 139.627H39.9228L39.9228 148.654ZM46.3707 148.654H43.7916L43.7916 139.627H46.3707L46.3707 148.654ZM-41.9652 137.048H-39.386V128.021L-41.9652 128.021V137.048ZM34.1197 137.048H31.5406V128.021L34.1197 128.021L34.1197 137.048ZM3.16994 137.048H5.74909V128.021L3.16994 128.021V137.048ZM1.88037 137.048H-0.698783V128.021L1.88037 128.021V137.048ZM-4.56751 137.048H-1.98836V128.021L-4.56751 128.021V137.048ZM13.4865 137.048H10.9074V128.021L13.4865 128.021V137.048ZM18.6448 137.048H21.224V128.021L18.6448 128.021V137.048ZM37.9885 137.048H35.4093V128.021L37.9885 128.021L37.9885 137.048Z" fill="url(#paint1_linear)"/>
<defs>
<linearGradient id="paint0_linear" x1="59.4287" y1="128.021" x2="412.772" y2="160.26" gradientUnits="userSpaceOnUse">
<stop stop-color="#F59D46"/>
<stop offset="0.513976" stop-color="#FECB00"/>
<stop offset="0.885477" stop-color="#55CDB0"/>
</linearGradient>
<linearGradient id="paint1_linear" x1="54.1082" y1="128.021" x2="-299.235" y2="160.26" gradientUnits="userSpaceOnUse">
<stop stop-color="#F59D46"/>
<stop offset="0.513976" stop-color="#FECB00"/>
<stop offset="0.885477" stop-color="#55CDB0"/>
</linearGradient>
</defs>
</svg>
