<?xml version="1.0" encoding="utf-8"?>
<svg id="master-artboard" viewBox="0 0 1400 980" version="1.1" xmlns="http://www.w3.org/2000/svg" x="0px" y="0px" style="enable-background:new 0 0 1400 980;" width="1400px" height="980px"><rect id="ee-background" x="0" y="0" width="1400" height="980" style="fill: rgb(1, 1, 1); fill-opacity: 0; pointer-events: none;"/><defs><linearGradient id="paint0_linear" x1="-14.9333" y1="92.1172" x2="382.549" y2="128.384" gradientUnits="userSpaceOnUse">
<stop offset="0.447009" stop-color="#55CDB0"/>
</linearGradient><linearGradient id="paint1_linear" x1="-288.933" y1="92.1172" x2="108.549" y2="128.384" gradientUnits="userSpaceOnUse">
<stop offset="0.447009" stop-color="#55CDB0"/>
</linearGradient><clipPath id="clip0">
<path d="M 0 0 H 272 V 169.003006 H 0 V 0 Z" fill="white" transform="translate(112 13.7812)"/>
</clipPath><clipPath id="clip1">
<path d="M 0 0 H 272 V 169.003006 H 0 V 0 Z" fill="white" transform="translate(-162 13.7812)"/>
</clipPath></defs><g clip-path="url(#clip0)" transform="matrix(4.012774467468262, 0, 0, 4.012774467468262, -335.11005106720495, 124.47262741903202)">
<path d="M 146.815994 26.836901 H 149.717324 V 36.991601 H 146.815994 V 26.836901 Z" fill="white" fill-opacity="0.2"/>
<path d="M 0 0 H 2.90133 V 10.1547 H 0 V 0 Z" transform="matrix(1 0 0 -1 146.816 180.608)" fill="white" fill-opacity="0.2"/>
<path d="M 368.768005 89.215797 H 371.669335 V 99.370498 H 368.768005 V 89.215797 Z" transform="rotate(180 368.768 89.2158)" fill="white" fill-opacity="0.2"/>
<path d="M 350.63501 89.215797 H 353.53634 V 99.370498 H 350.63501 V 89.215797 Z" transform="rotate(180 350.635 89.2158)" fill="white" fill-opacity="0.2"/>
<path d="M 314.368011 89.215797 H 317.269341 V 99.370498 H 314.368011 V 89.215797 Z" transform="rotate(180 314.368 89.2158)" fill="white" fill-opacity="0.2"/>
<path d="M 296.234985 141.440002 H 299.136315 V 151.594703 H 296.234985 V 141.440002 Z" transform="rotate(180 296.235 141.44)" fill="white" fill-opacity="0.2"/>
<path d="M 119.252998 66.004898 H 122.154328 V 76.159598 H 119.252998 V 66.004898 Z" fill="white" fill-opacity="0.2"/>
<path d="M 246.912003 89.215797 H 249.813333 V 99.370498 H 246.912003 V 89.215797 Z" transform="rotate(180 246.912 89.2158)" fill="white" fill-opacity="0.2"/>
<path d="M 260.692993 141.440002 H 263.594323 V 151.594703 H 260.692993 V 141.440002 Z" transform="rotate(180 260.693 141.44)" fill="white" fill-opacity="0.2"/>
<path d="M 255.615997 26.836901 H 258.517327 V 36.991601 H 255.615997 V 26.836901 Z" fill="white" fill-opacity="0.2"/>
<path d="M 0 0 H 2.90133 V 10.1547 H 0 V 0 Z" transform="matrix(1 0 0 -1 255.616 180.608)" fill="white" fill-opacity="0.2"/>
<path d="M 0 0 H 2.90133 V 10.1547 H 0 V 0 Z" transform="matrix(1 0 0 -1 257.792 154.496)" fill="white" fill-opacity="0.2"/>
<path d="M 269.397003 144.341995 H 272.298333 V 154.496696 H 269.397003 V 144.341995 Z" fill="white" fill-opacity="0.2"/>
<path d="M 124.331001 66.004898 H 127.232331 V 76.159598 H 124.331001 V 66.004898 Z" fill="white" fill-opacity="0.2"/>
<path d="M 241.835007 89.215797 H 244.736337 V 99.370498 H 241.835007 V 89.215797 Z" transform="rotate(180 241.835 89.2158)" fill="white" fill-opacity="0.2"/>
<path d="M 173.653 13.7812 H 176.55433 V 23.935901 H 173.653 V 13.7812 Z" fill="white" fill-opacity="0.2"/>
<path d="M 173.653 157.397003 H 176.55433 V 167.551703 H 173.653 V 157.397003 Z" fill="white" fill-opacity="0.2"/>
<path d="M 124.331001 26.836901 H 127.232331 V 36.991601 H 124.331001 V 26.836901 Z" fill="white" fill-opacity="0.2"/>
<path d="M 0 0 H 2.90133 V 10.1547 H 0 V 0 Z" transform="matrix(1 0 0 -1 139.563 180.608)" fill="white" fill-opacity="0.2"/>
<path d="M 124.331001 144.341995 H 127.232331 V 154.496696 H 124.331001 V 144.341995 Z" fill="white" fill-opacity="0.2"/>
<path d="M 314.368011 141.440002 H 317.269341 V 151.594703 H 314.368011 V 141.440002 Z" transform="rotate(180 314.368 141.44)" fill="white" fill-opacity="0.2"/>
<path d="M 329.600006 141.440002 H 332.501336 V 151.594703 H 329.600006 V 141.440002 Z" transform="rotate(180 329.6 141.44)" fill="white" fill-opacity="0.2"/>
<path d="M 377.471985 141.440002 H 380.373315 V 151.594703 H 377.471985 V 141.440002 Z" transform="rotate(180 377.472 141.44)" fill="white" fill-opacity="0.2"/>
<path d="M 192.511993 26.836901 H 195.413323 V 36.991601 H 192.511993 V 26.836901 Z" fill="white" fill-opacity="0.2"/>
<path d="M 192.511993 144.341995 H 195.413323 V 154.496696 H 192.511993 V 144.341995 Z" fill="white" fill-opacity="0.2"/>
<path d="M 196.863998 26.836901 H 199.765328 V 36.991601 H 196.863998 V 26.836901 Z" fill="white" fill-opacity="0.2"/>
<path d="M 0 0 H 2.90133 V 10.1547 H 0 V 0 Z" transform="matrix(1 0 0 -1 210.645 180.608)" fill="white" fill-opacity="0.2"/>
<path d="M 137.386993 39.8936 H 140.288323 V 50.048301 H 137.386993 V 39.8936 Z" fill="white" fill-opacity="0.2"/>
<path d="M 228.779007 141.440002 H 231.680337 V 151.594703 H 228.779007 V 141.440002 Z" transform="rotate(180 228.779 141.44)" fill="white" fill-opacity="0.2"/>
<path d="M 159.871994 131.285004 H 162.773324 V 141.439704 H 159.871994 V 131.285004 Z" fill="white" fill-opacity="0.2"/>
<path d="M 228.052994 52.9492 H 230.954324 V 63.1039 H 228.052994 V 52.9492 Z" fill="white" fill-opacity="0.2"/>
<path d="M 230.229004 131.285004 H 233.130334 V 141.439704 H 230.229004 V 131.285004 Z" fill="white" fill-opacity="0.2"/>
<path d="M 214.996994 26.836901 H 217.898324 V 36.991601 H 214.996994 V 26.836901 Z" fill="white" fill-opacity="0.2"/>
<path d="M 0 0 H 2.90133 V 10.1547 H 0 V 0 Z" transform="matrix(1 0 0 -1 251.264 180.608)" fill="white" fill-opacity="0.2"/>
<path d="M 214.996994 144.341995 H 217.898324 V 154.496696 H 214.996994 V 144.341995 Z" fill="white" fill-opacity="0.2"/>
<path d="M 210.645004 144.341995 H 213.546334 V 154.496696 H 210.645004 V 144.341995 Z" fill="white" fill-opacity="0.2"/>
<path d="M 170.026993 66.004898 H 172.928323 V 76.159598 H 170.026993 V 66.004898 Z" fill="white" fill-opacity="0.2"/>
<path d="M 196.139008 89.215797 H 199.040338 V 99.370498 H 196.139008 V 89.215797 Z" transform="rotate(180 196.139 89.2158)" fill="white" fill-opacity="0.2"/>
<path d="M 178.731003 66.004898 H 181.632333 V 76.159598 H 178.731003 V 66.004898 Z" fill="white" fill-opacity="0.2"/>
<path d="M 187.434998 89.215797 H 190.336328 V 99.370498 H 187.434998 V 89.215797 Z" transform="rotate(180 187.435 89.2158)" fill="white" fill-opacity="0.2"/>
<path d="M 196.863998 13.7812 H 199.765328 V 23.935901 H 196.863998 V 13.7812 Z" fill="white" fill-opacity="0.2"/>
<path d="M 196.863998 157.397003 H 199.765328 V 167.551703 H 196.863998 V 157.397003 Z" fill="white" fill-opacity="0.2"/>
<path d="M 169.300995 141.440002 H 172.202325 V 151.594703 H 169.300995 V 141.440002 Z" transform="rotate(180 169.301 141.44)" fill="white" fill-opacity="0.2"/>
<path d="M 236.757004 26.836901 H 239.658334 V 36.991601 H 236.757004 V 26.836901 Z" fill="white" fill-opacity="0.2"/>
<path d="M 0 0 H 2.90133 V 10.1547 H 0 V 0 Z" transform="matrix(1 0 0 -1 236.757 180.608)" fill="white" fill-opacity="0.2"/>
<path d="M 178.731003 144.341995 H 181.632333 V 154.496696 H 178.731003 V 144.341995 Z" fill="white" fill-opacity="0.2"/>
<path d="M 146.815994 144.341995 H 149.717324 V 154.496696 H 146.815994 V 144.341995 Z" fill="white" fill-opacity="0.2"/>
<path d="M 151.167999 144.341995 H 154.069329 V 154.496696 H 151.167999 V 144.341995 Z" fill="white" fill-opacity="0.2"/>
<path d="M 155.520004 144.341995 H 158.421334 V 154.496696 H 155.520004 V 144.341995 Z" fill="white" fill-opacity="0.2"/>
<path d="M 159.871994 144.341995 H 162.773324 V 154.496696 H 159.871994 V 144.341995 Z" fill="white" fill-opacity="0.2"/>
<path d="M 196.863998 39.8936 H 199.765328 V 50.048301 H 196.863998 V 39.8936 Z" fill="white" fill-opacity="0.2"/>
<path d="M 169.300995 89.215797 H 172.202325 V 99.370498 H 169.300995 V 89.215797 Z" transform="rotate(180 169.301 89.2158)" fill="white" fill-opacity="0.2"/>
<path d="M 228.052994 66.004898 H 230.954324 V 76.159598 H 228.052994 V 66.004898 Z" fill="white" fill-opacity="0.2"/>
<path d="M 138.112 89.215797 H 141.01333 V 99.370498 H 138.112 V 89.215797 Z" transform="rotate(180 138.112 89.2158)" fill="white" fill-opacity="0.2"/>
<path d="M 223.701004 66.004898 H 226.602334 V 76.159598 H 223.701004 V 66.004898 Z" fill="white" fill-opacity="0.2"/>
<path d="M 206.292999 66.004898 H 209.194329 V 76.159598 H 206.292999 V 66.004898 Z" fill="white" fill-opacity="0.2"/>
<path d="M 142.464005 89.215797 H 145.365335 V 99.370498 H 142.464005 V 89.215797 Z" transform="rotate(180 142.464 89.2158)" fill="white" fill-opacity="0.2"/>
<path d="M 251.264008 66.004898 H 254.165338 V 76.159598 H 251.264008 V 66.004898 Z" fill="white" fill-opacity="0.2"/>
<path d="M 114.901001 89.215797 H 117.802331 V 99.370498 H 114.901001 V 89.215797 Z" transform="rotate(180 114.901 89.2158)" fill="white" fill-opacity="0.2"/>
<path d="M 269.397003 66.004898 H 272.298333 V 76.159598 H 269.397003 V 66.004898 Z" fill="white" fill-opacity="0.2"/>
<path d="M 296.959991 66.004898 H 299.861321 V 76.159598 H 296.959991 V 66.004898 Z" fill="white" fill-opacity="0.2"/>
<path d="M 269.397003 13.7812 H 272.298333 V 23.935901 H 269.397003 V 13.7812 Z" fill="white" fill-opacity="0.2"/>
<path d="M 269.397003 157.397003 H 272.298333 V 167.551703 H 269.397003 V 157.397003 Z" fill="white" fill-opacity="0.2"/>
<path d="M 328.148987 26.836901 H 331.050317 V 36.991601 H 328.148987 V 26.836901 Z" fill="white" fill-opacity="0.2"/>
<path d="M 0 0 H 2.90133 V 10.1547 H 0 V 0 Z" transform="matrix(1 0 0 -1 328.149 180.608)" fill="white" fill-opacity="0.2"/>
<path d="M 374.571014 144.341995 H 377.472344 V 154.496696 H 374.571014 V 144.341995 Z" fill="white" fill-opacity="0.2"/>
<path d="M 292.608002 26.836901 H 295.509332 V 36.991601 H 292.608002 V 26.836901 Z" fill="white" fill-opacity="0.2"/>
<path d="M 0 0 H 2.90133 V 10.1547 H 0 V 0 Z" transform="matrix(1 0 0 -1 292.608 180.608)" fill="white" fill-opacity="0.2"/>
<path d="M 297.684998 144.341995 H 300.586328 V 154.496696 H 297.684998 V 144.341995 Z" fill="white" fill-opacity="0.2"/>
<path d="M 293.333008 144.341995 H 296.234338 V 154.496696 H 293.333008 V 144.341995 Z" fill="white" fill-opacity="0.2"/>
<path d="M 288.256012 66.004898 H 291.157342 V 76.159598 H 288.256012 V 66.004898 Z" fill="white" fill-opacity="0.2"/>
<path d="M 305.664001 66.004898 H 308.565331 V 76.159598 H 305.664001 V 66.004898 Z" fill="white" fill-opacity="0.2"/>
<path d="M 301.312012 66.004898 H 304.213342 V 76.159598 H 301.312012 V 66.004898 Z" fill="white" fill-opacity="0.2"/>
<path d="M 323.796997 66.004898 H 326.698327 V 76.159598 H 323.796997 V 66.004898 Z" fill="white" fill-opacity="0.2"/>
<path d="M 301.312012 13.7812 H 304.213342 V 23.935901 H 301.312012 V 13.7812 Z" fill="white" fill-opacity="0.2"/>
<path d="M 301.312012 157.397003 H 304.213342 V 167.551703 H 301.312012 V 157.397003 Z" fill="white" fill-opacity="0.2"/>
<path d="M 305.664001 157.397003 H 308.565331 V 167.551703 H 305.664001 V 157.397003 Z" fill="white" fill-opacity="0.2"/>
<path d="M 310.015991 157.397003 H 312.917321 V 167.551703 H 310.015991 V 157.397003 Z" fill="white" fill-opacity="0.2"/>
<path d="M 373.845001 26.836901 H 376.746331 V 36.991601 H 373.845001 V 26.836901 Z" fill="white" fill-opacity="0.2"/>
<path d="M 0 0 H 2.90133 V 10.1547 H 0 V 0 Z" transform="matrix(1 0 0 -1 373.845 180.608)" fill="white" fill-opacity="0.2"/>
<path d="M 341.931 144.341995 H 344.83233 V 154.496696 H 341.931 V 144.341995 Z" fill="white" fill-opacity="0.2"/>
<path d="M 280.277008 13.7812 H 283.178338 V 23.935901 H 280.277008 V 13.7812 Z" fill="white" fill-opacity="0.2"/>
<path d="M 280.277008 157.397003 H 283.178338 V 167.551703 H 280.277008 V 157.397003 Z" fill="white" fill-opacity="0.2"/>
<path d="M 119.252998 141.440002 H 122.154328 V 151.594703 H 119.252998 V 141.440002 Z" transform="rotate(180 119.253 141.44)" fill="white" fill-opacity="0.2"/>
<path d="M 246.912003 131.285004 H 249.813333 V 141.439704 H 246.912003 V 131.285004 Z" fill="white" fill-opacity="0.2"/>
<path d="M 373.845001 66.004898 H 376.746331 V 76.159598 H 373.845001 V 66.004898 Z" fill="white" fill-opacity="0.2"/>
<path d="M 364.415985 13.7812 H 367.317315 V 23.935901 H 364.415985 V 13.7812 Z" fill="white" fill-opacity="0.2"/>
<path d="M 364.415985 157.397003 H 367.317315 V 167.551703 H 364.415985 V 157.397003 Z" fill="white" fill-opacity="0.2"/>
<path d="M 310.015991 39.8936 H 312.917321 V 50.048301 H 310.015991 V 39.8936 Z" fill="white" fill-opacity="0.2"/>
<path d="M 360.063995 52.9492 H 362.965325 V 63.1039 H 360.063995 V 52.9492 Z" fill="white" fill-opacity="0.2"/>
<path d="M 361.515015 131.285004 H 364.416345 V 141.439704 H 361.515015 V 131.285004 Z" fill="white" fill-opacity="0.2"/>
<path fill-rule="evenodd" clip-rule="evenodd" d="M360.064 102.272H357.163V92.1172L360.064 92.1172V102.272ZM320.896 115.328H317.995V105.173H320.896V115.328ZM110.549 128.384H107.648V118.229H110.549V128.384ZM283.904 128.384H286.805V118.229H283.904V128.384ZM379.648 128.384H382.549V118.229H379.648V128.384ZM308.565 128.384H305.664V118.229H308.565V128.384ZM357.163 128.384H360.064V118.229H357.163V128.384ZM368.768 128.384H365.867V118.229H368.768V128.384ZM335.403 128.384H338.304V118.229H335.403V128.384ZM238.933 128.384H241.835V118.229H238.933V128.384ZM326.699 115.328H329.6V105.173H326.699V115.328ZM333.952 115.328H331.051V105.173H333.952V115.328ZM335.403 115.328H338.304V105.173H335.403V115.328ZM342.656 115.328H339.755V105.173H342.656V115.328ZM348.459 115.328H351.36V105.173H348.459V115.328ZM355.712 115.328H352.811V105.173H355.712V115.328ZM357.163 115.328H360.064V105.173H357.163V115.328ZM368.768 115.328H365.867V105.173H368.768V115.328ZM374.571 115.328H377.472V105.173H374.571V115.328ZM352.811 102.272H355.712V92.1172L352.811 92.1172V102.272ZM310.016 102.272H307.115V92.1172L310.016 92.1172V102.272ZM170.752 128.384H173.653V118.229H170.752V128.384ZM178.005 128.384H175.104V118.229H178.005V128.384ZM179.456 128.384H182.357V118.229H179.456V128.384ZM186.709 128.384H183.808V118.229H186.709V128.384ZM188.16 128.384H191.061V118.229H188.16V128.384ZM213.547 128.384H210.645V118.229H213.547V128.384ZM257.792 128.384H260.693V118.229H257.792V128.384ZM265.045 128.384H262.144V118.229H265.045V128.384ZM266.496 128.384H269.397V118.229H266.496V128.384ZM273.749 128.384H270.848V118.229H273.749V128.384ZM275.2 128.384H278.101V118.229H275.2V128.384ZM169.301 128.384H166.4V118.229H169.301V128.384ZM193.237 128.384H196.139V118.229H193.237V128.384ZM230.229 115.328H227.328V105.173H230.229V115.328ZM175.104 115.328H178.005V105.173H175.104V115.328ZM182.357 115.328H179.456V105.173H182.357V115.328ZM183.808 115.328H186.709V105.173H183.808V115.328ZM191.061 115.328H188.16V105.173H191.061V115.328ZM61.952 115.328H64.8533V105.173H61.952V115.328ZM101.845 102.272H98.944V92.1172L101.845 92.1172V102.272ZM231.68 115.328H234.581V105.173H231.68V115.328ZM69.2053 115.328H66.304V105.173H69.2053V115.328ZM103.296 115.328H106.197V105.173H103.296V115.328ZM106.197 102.272H103.296V92.1172L106.197 92.1172V102.272ZM236.032 115.328H238.933V105.173H236.032V115.328ZM73.5573 115.328H70.656V105.173H73.5573V115.328ZM240.384 115.328H243.285V105.173H240.384V115.328ZM251.989 115.328H249.088V105.173H251.989V115.328ZM253.44 115.328H256.341V105.173H253.44V115.328ZM265.045 115.328H262.144V105.173H265.045V115.328ZM270.848 115.328H273.749V105.173H270.848V115.328ZM278.101 115.328H275.2V105.173H278.101V115.328ZM283.904 115.328H286.805V105.173H283.904V115.328ZM291.157 115.328H288.256V105.173H291.157V115.328ZM296.96 115.328H299.861V105.173H296.96V115.328ZM77.9093 115.328H75.008V105.173H77.9093V115.328ZM112 102.272H114.901V92.1172L112 92.1172V102.272ZM273.749 102.272H270.848V92.1172L273.749 92.1172V102.272ZM135.211 102.272H138.112V92.1172L135.211 92.1172V102.272ZM151.168 128.384H148.267V118.229H151.168V128.384ZM152.619 128.384H155.52V118.229H152.619V128.384ZM129.408 128.384H126.507V118.229H129.408V128.384ZM139.563 128.384H142.464V118.229H139.563V128.384ZM146.816 128.384H143.915V118.229H146.816V128.384ZM35.1147 128.384H38.016V118.229H35.1147V128.384ZM33.664 128.384H30.7627V118.229H33.664V128.384ZM70.656 128.384H73.5573V118.229H70.656V128.384ZM77.9093 128.384H75.008V118.229H77.9093V128.384ZM43.8187 128.384H46.72V118.229H43.8187V128.384ZM82.2613 128.384H79.36V118.229H82.2613V128.384ZM83.712 128.384H86.6133V118.229H83.712V128.384ZM90.9653 128.384H88.064V118.229H90.9653V128.384ZM-10.5813 128.384H-7.68002L-7.68002 118.229H-10.5813L-10.5813 128.384ZM119.253 115.328H116.352V105.173H119.253V115.328ZM120.704 115.328H123.605V105.173H120.704V115.328ZM225.877 115.328H222.976V105.173H225.877V115.328ZM206.293 115.328H209.195V105.173H206.293V115.328ZM199.765 115.328H196.864V105.173H199.765V115.328ZM216.448 115.328H219.349V105.173H216.448V115.328ZM162.773 115.328H159.872V105.173H162.773V115.328ZM57.6 115.328H60.5013V105.173H57.6V115.328ZM97.4933 102.272H94.592V92.1172L97.4933 92.1172V102.272ZM116.352 102.272H119.253V92.1172L116.352 92.1172V102.272ZM-12.032 128.384H-14.9333L-14.9333 118.229H-12.032L-12.032 128.384ZM53.248 115.328H56.1493V105.173H53.248V115.328ZM18.432 115.328H15.5307L15.5306 105.173H18.432V115.328ZM11.1787 115.328H14.08V105.173H11.1786L11.1787 115.328ZM9.72799 115.328H6.82665L6.82665 105.173H9.72799V115.328ZM2.47465 115.328H5.37598V105.173H2.47465L2.47465 115.328ZM1.02398 115.328H-1.87735L-1.87735 105.173H1.02398L1.02398 115.328ZM-6.22935 115.328H-3.32802L-3.32802 105.173H-6.22935V115.328ZM93.1413 102.272H90.24V92.1172L93.1413 92.1172V102.272ZM7.55198 102.272H10.4533V92.1172L7.55198 92.1172L7.55198 102.272ZM42.368 102.272H39.4667V92.1172L42.368 92.1172V102.272ZM43.8187 102.272H46.72V92.1172L43.8187 92.1172V102.272ZM51.072 102.272H48.1707V92.1172L51.072 92.1172V102.272ZM30.7627 102.272H33.664V92.1172L30.7627 92.1172V102.272ZM24.96 102.272H22.0587V92.1172L24.96 92.1172V102.272ZM3.19999 102.272H6.10132V92.1172L3.19998 92.1172L3.19999 102.272Z" fill="url(#paint0_linear)"/>
</g><path d="M 357.640015 313.670013 H 360.350015 V 320.830013 H 357.640015 V 313.670013 Z" class="cls-12" style="fill: rgb(11, 0, 18); stroke: rgb(255, 255, 255); stroke-miterlimit: 10; stroke-width: 0.5px;" transform="matrix(5.629499912261963, 0, 0, 5.629499912261963, -1134.9205216482596, -1249.0515463175402)"/><path d="M 357.640015 355.929993 H 360.350015 V 363.089993 H 357.640015 V 355.929993 Z" class="cls-12" style="fill: rgb(11, 0, 18); stroke: rgb(255, 255, 255); stroke-miterlimit: 10; stroke-width: 0.5px;" transform="matrix(5.629499912261963, 0, 0, 5.629499912261963, -1134.9205216482596, -1249.0515463175402)"/><path d="M 283.209991 272.230011 H 285.919991 V 279.390011 H 283.209991 V 272.230011 Z" class="cls-12" style="fill: rgb(11, 0, 18); stroke: rgb(255, 255, 255); stroke-miterlimit: 10; stroke-width: 0.5px;" transform="matrix(5.629499912261963, 0, 0, 5.629499912261963, -1134.9205216482596, -1249.0515463175402)"/><path d="M 283.779999 335.070007 H 286.489999 V 342.230007 H 283.779999 V 335.070007 Z" class="cls-12" style="fill: rgb(11, 0, 18); stroke: rgb(255, 255, 255); stroke-miterlimit: 10; stroke-width: 0.5px;" transform="matrix(5.629499912261963, 0, 0, 5.629499912261963, -1134.9205216482596, -1249.0515463175402)"/><path d="M 286.230011 268.269989 H 357.530014 V 283.709989 H 286.230011 V 268.269989 Z" class="cls-12" style="fill: rgb(11, 0, 18); stroke: rgb(255, 255, 255); stroke-miterlimit: 10; stroke-width: 0.5px;" transform="matrix(5.629499912261963, 0, 0, 5.629499912261963, -1134.9205216482596, -1249.0515463175402)"/><path class="cls-13" d="M354.82,275.66a1.91,1.91,0,1,0-1.91,1.91A1.9,1.9,0,0,0,354.82,275.66Z" style="fill: rgb(11, 0, 18); stroke-miterlimit: 10; stroke-width: 0.5px; stroke: rgb(61, 170, 53);" transform="matrix(5.629499912261963, 0, 0, 5.629499912261963, -1134.9205216482596, -1249.0515463175402)"/><path d="M 336.239987 275.660004 A 1.91 1.91 0 0 1 334.329987 277.570004 A 1.91 1.91 0 0 1 332.419987 275.660004 A 1.91 1.91 0 0 1 334.329987 273.750004 A 1.91 1.91 0 0 1 336.239987 275.660004 Z" class="cls-13" style="fill: rgb(11, 0, 18); stroke-miterlimit: 10; stroke-width: 0.5px; stroke: rgb(61, 170, 53);" transform="matrix(5.629499912261963, 0, 0, 5.629499912261963, -1134.9205216482596, -1249.0515463175402)"/><path d="M 288.929993 283.709991 H 354.819992 V 288.999991 H 288.929993 V 283.709991 Z" class="cls-12" style="fill: rgb(11, 0, 18); stroke: rgb(255, 255, 255); stroke-miterlimit: 10; stroke-width: 0.5px;" transform="matrix(5.629499912261963, 0, 0, 5.629499912261963, -1134.9205216482596, -1249.0515463175402)"/><path d="M 286.230011 289 H 357.530014 V 304.44 H 286.230011 V 289 Z" class="cls-12" style="fill: rgb(11, 0, 18); stroke: rgb(255, 255, 255); stroke-miterlimit: 10; stroke-width: 0.5px;" transform="matrix(5.629499912261963, 0, 0, 5.629499912261963, -1134.9205216482596, -1249.0515463175402)"/><path d="M 288.929993 304.440002 H 354.819992 V 309.730002 H 288.929993 V 304.440002 Z" class="cls-12" style="fill: rgb(11, 0, 18); stroke: rgb(255, 255, 255); stroke-miterlimit: 10; stroke-width: 0.5px;" transform="matrix(5.629499912261963, 0, 0, 5.629499912261963, -1134.9205216482596, -1249.0515463175402)"/><path d="M 286.230011 309.730011 H 357.530014 V 325.170011 H 286.230011 V 309.730011 Z" class="cls-12" style="fill: rgb(11, 0, 18); stroke: rgb(255, 255, 255); stroke-miterlimit: 10; stroke-width: 0.5px;" transform="matrix(5.629499912261963, 0, 0, 5.629499912261963, -1134.9205216482596, -1249.0515463175402)"/><path d="M 288.929993 325.170013 H 354.819992 V 330.460013 H 288.929993 V 325.170013 Z" class="cls-12" style="fill: rgb(11, 0, 18); stroke: rgb(255, 255, 255); stroke-miterlimit: 10; stroke-width: 0.5px;" transform="matrix(5.629499912261963, 0, 0, 5.629499912261963, -1134.9205216482596, -1249.0515463175402)"/><path d="M 286.230011 330.459991 H 357.530014 V 345.899991 H 286.230011 V 330.459991 Z" class="cls-12" style="fill: rgb(11, 0, 18); stroke: rgb(255, 255, 255); stroke-miterlimit: 10; stroke-width: 0.5px;" transform="matrix(5.629499912261963, 0, 0, 5.629499912261963, -1134.9205216482596, -1249.0515463175402)"/><path d="M 288.929993 345.910004 H 354.819992 V 351.200004 H 288.929993 V 345.910004 Z" class="cls-12" style="fill: rgb(11, 0, 18); stroke: rgb(255, 255, 255); stroke-miterlimit: 10; stroke-width: 0.5px;" transform="matrix(5.629499912261963, 0, 0, 5.629499912261963, -1134.9205216482596, -1249.0515463175402)"/><path d="M 286.230011 351.190002 H 357.530014 V 366.630002 H 286.230011 V 351.190002 Z" class="cls-12" style="fill: rgb(11, 0, 18); stroke: rgb(255, 255, 255); stroke-miterlimit: 10; stroke-width: 0.5px;" transform="matrix(5.629499912261963, 0, 0, 5.629499912261963, -1134.9205216482596, -1249.0515463175402)"/><path d="M 343.550015 275.660004 A 1.91 1.91 0 0 1 341.640015 277.570004 A 1.91 1.91 0 0 1 339.730015 275.660004 A 1.91 1.91 0 0 1 341.640015 273.750004 A 1.91 1.91 0 0 1 343.550015 275.660004 Z" class="cls-13" style="fill: rgb(11, 0, 18); stroke-miterlimit: 10; stroke-width: 0.5px; stroke: rgb(61, 170, 53);" transform="matrix(5.629499912261963, 0, 0, 5.629499912261963, -1134.9205216482596, -1249.0515463175402)"/><path d="M 326.619995 266.190002 L 330.619995 266.190002" class="cls-15" style="fill: rgb(11, 0, 18); stroke: rgb(255, 255, 255); stroke-linecap: round; stroke-linejoin: round; stroke-width: 0.5px;" transform="matrix(5.629499912261963, 0, 0, 5.629499912261963, -1134.9205216482596, -1249.0515463175402)"/><path d="M 298.970001 266.190002 L 322.059998 266.190002" class="cls-15" style="fill: rgb(11, 0, 18); stroke: rgb(255, 255, 255); stroke-linecap: round; stroke-linejoin: round; stroke-width: 0.5px;" transform="matrix(5.629499912261963, 0, 0, 5.629499912261963, -1134.9205216482596, -1249.0515463175402)"/><path d="M 283.279999 360 L 283.279999 362.850006" class="cls-15" style="fill: rgb(11, 0, 18); stroke: rgb(255, 255, 255); stroke-linecap: round; stroke-linejoin: round; stroke-width: 0.5px;" transform="matrix(5.629499912261963, 0, 0, 5.629499912261963, -1134.9205216482596, -1249.0515463175402)"/><path d="M 283.279999 351.160004 L 283.279999 357.149994" class="cls-15" style="fill: rgb(11, 0, 18); stroke: rgb(255, 255, 255); stroke-linecap: round; stroke-linejoin: round; stroke-width: 0.5px;" transform="matrix(5.629499912261963, 0, 0, 5.629499912261963, -1134.9205216482596, -1249.0515463175402)"/><path class="cls-13" d="M354.74,296.72a1.91,1.91,0,1,0-1.91,1.91A1.9,1.9,0,0,0,354.74,296.72Z" style="fill: rgb(11, 0, 18); stroke-miterlimit: 10; stroke-width: 0.5px; stroke: rgb(61, 170, 53);" transform="matrix(5.629499912261963, 0, 0, 5.629499912261963, -1134.9205216482596, -1249.0515463175402)"/><path d="M 336.16 296.720001 A 1.91 1.91 0 0 1 334.25 298.630001 A 1.91 1.91 0 0 1 332.34 296.720001 A 1.91 1.91 0 0 1 334.25 294.810001 A 1.91 1.91 0 0 1 336.16 296.720001 Z" class="cls-13" style="fill: rgb(11, 0, 18); stroke-miterlimit: 10; stroke-width: 0.5px; stroke: rgb(61, 170, 53);" transform="matrix(5.629499912261963, 0, 0, 5.629499912261963, -1134.9205216482596, -1249.0515463175402)"/><path d="M 343.469998 296.720001 A 1.91 1.91 0 0 1 341.559998 298.630001 A 1.91 1.91 0 0 1 339.649998 296.720001 A 1.91 1.91 0 0 1 341.559998 294.810001 A 1.91 1.91 0 0 1 343.469998 296.720001 Z" class="cls-13" style="fill: rgb(11, 0, 18); stroke-miterlimit: 10; stroke-width: 0.5px; stroke: rgb(61, 170, 53);" transform="matrix(5.629499912261963, 0, 0, 5.629499912261963, -1134.9205216482596, -1249.0515463175402)"/><path class="cls-13" d="M354.66,316.28a1.91,1.91,0,1,0-1.91,1.9A1.9,1.9,0,0,0,354.66,316.28Z" style="fill: rgb(11, 0, 18); stroke-miterlimit: 10; stroke-width: 0.5px; stroke: rgb(61, 170, 53);" transform="matrix(5.629499912261963, 0, 0, 5.629499912261963, -1134.9205216482596, -1249.0515463175402)"/><path d="M 336.089993 316.279999 A 1.91 1.91 0 0 1 334.179993 318.189999 A 1.91 1.91 0 0 1 332.269993 316.279999 A 1.91 1.91 0 0 1 334.179993 314.369999 A 1.91 1.91 0 0 1 336.089993 316.279999 Z" class="cls-13" style="fill: rgb(11, 0, 18); stroke-miterlimit: 10; stroke-width: 0.5px; stroke: rgb(61, 170, 53);" transform="matrix(5.629499912261963, 0, 0, 5.629499912261963, -1134.9205216482596, -1249.0515463175402)"/><path d="M 343.390011 316.279999 A 1.91 1.91 0 0 1 341.480011 318.189999 A 1.91 1.91 0 0 1 339.570011 316.279999 A 1.91 1.91 0 0 1 341.480011 314.369999 A 1.91 1.91 0 0 1 343.390011 316.279999 Z" class="cls-13" style="fill: rgb(11, 0, 18); stroke-miterlimit: 10; stroke-width: 0.5px; stroke: rgb(61, 170, 53);" transform="matrix(5.629499912261963, 0, 0, 5.629499912261963, -1134.9205216482596, -1249.0515463175402)"/><path class="cls-13" d="M354.74,337a1.91,1.91,0,1,0-1.91,1.91A1.9,1.9,0,0,0,354.74,337Z" style="fill: rgb(11, 0, 18); stroke-miterlimit: 10; stroke-width: 0.5px; stroke: rgb(61, 170, 53);" transform="matrix(5.629499912261963, 0, 0, 5.629499912261963, -1134.9205216482596, -1249.0515463175402)"/><path d="M 336.16 336.970001 A 1.91 1.91 0 0 1 334.25 338.880001 A 1.91 1.91 0 0 1 332.34 336.970001 A 1.91 1.91 0 0 1 334.25 335.060001 A 1.91 1.91 0 0 1 336.16 336.970001 Z" class="cls-13" style="fill: rgb(11, 0, 18); stroke-miterlimit: 10; stroke-width: 0.5px; stroke: rgb(61, 170, 53);" transform="matrix(5.629499912261963, 0, 0, 5.629499912261963, -1134.9205216482596, -1249.0515463175402)"/><path d="M 343.469998 336.970001 A 1.91 1.91 0 0 1 341.559998 338.880001 A 1.91 1.91 0 0 1 339.649998 336.970001 A 1.91 1.91 0 0 1 341.559998 335.060001 A 1.91 1.91 0 0 1 343.469998 336.970001 Z" class="cls-13" style="fill: rgb(11, 0, 18); stroke-miterlimit: 10; stroke-width: 0.5px; stroke: rgb(61, 170, 53);" transform="matrix(5.629499912261963, 0, 0, 5.629499912261963, -1134.9205216482596, -1249.0515463175402)"/><path class="cls-13" d="M354.74,360.13a1.91,1.91,0,1,0-1.91,1.9A1.9,1.9,0,0,0,354.74,360.13Z" style="fill: rgb(11, 0, 18); stroke-miterlimit: 10; stroke-width: 0.5px; stroke: rgb(61, 170, 53);" transform="matrix(5.629499912261963, 0, 0, 5.629499912261963, -1134.9205216482596, -1249.0515463175402)"/><path d="M 336.16 360.130005 A 1.91 1.91 0 0 1 334.25 362.040005 A 1.91 1.91 0 0 1 332.34 360.130005 A 1.91 1.91 0 0 1 334.25 358.220005 A 1.91 1.91 0 0 1 336.16 360.130005 Z" class="cls-13" style="fill: rgb(11, 0, 18); stroke-miterlimit: 10; stroke-width: 0.5px; stroke: rgb(61, 170, 53);" transform="matrix(5.629499912261963, 0, 0, 5.629499912261963, -1134.9205216482596, -1249.0515463175402)"/><path d="M 343.469998 360.130005 A 1.91 1.91 0 0 1 341.559998 362.040005 A 1.91 1.91 0 0 1 339.649998 360.130005 A 1.91 1.91 0 0 1 341.559998 358.220005 A 1.91 1.91 0 0 1 343.469998 360.130005 Z" class="cls-13" style="fill: rgb(11, 0, 18); stroke-miterlimit: 10; stroke-width: 0.5px; stroke: rgb(61, 170, 53);" transform="matrix(5.629499912261963, 0, 0, 5.629499912261963, -1134.9205216482596, -1249.0515463175402)"/></svg>