<svg xmlns="http://www.w3.org/2000/svg" xmlns:xlink="http://www.w3.org/1999/xlink" viewBox="0 0 1369 416"><defs><style>.cls-1{fill:#fff;}.cls-2{fill:url(#linear-gradient);}.cls-3{fill:url(#linear-gradient-2);}.cls-4{fill:url(#linear-gradient-3);}.cls-5{fill:url(#linear-gradient-4);}.cls-6{fill:url(#linear-gradient-5);}.cls-7{fill:url(#linear-gradient-6);}</style><linearGradient id="linear-gradient" x1="444.23" y1="135.26" x2="542.66" y2="240.96" gradientUnits="userSpaceOnUse"><stop offset="0" stop-color="#1d54b5"/><stop offset="0.29" stop-color="#1f57b9"/><stop offset="0.55" stop-color="#2760c4"/><stop offset="0.8" stop-color="#346ed6"/><stop offset="1" stop-color="#427feb"/></linearGradient><linearGradient id="linear-gradient-2" x1="501.53" y1="81.9" x2="599.96" y2="187.6" xlink:href="#linear-gradient"/><linearGradient id="linear-gradient-3" x1="296.33" y1="259.75" x2="62.61" y2="75.76" xlink:href="#linear-gradient"/><linearGradient id="linear-gradient-4" x1="187.32" y1="302.91" x2="157.02" y2="279.05" xlink:href="#linear-gradient"/><linearGradient id="linear-gradient-5" x1="212.89" y1="298.21" x2="205.73" y2="292.58" xlink:href="#linear-gradient"/><linearGradient id="linear-gradient-6" x1="242.73" y1="304.5" x2="220.01" y2="286.61" xlink:href="#linear-gradient"/></defs><title>RectSMB</title><g id="Layer_1" data-name="Layer 1"><path class="cls-1" d="M250.83,294.2l-.13.11-1.94,1.75H215.13l-2.25,5.82a.91.91,0,0,1-1,.58s-.06,0-.11,0-.06,0-.1-.06a.93.93,0,0,1-.58-.75l-.36-3.93-.11-1.07-2,16.95a1,1,0,0,1-1,.81.8.8,0,0,1-.3-.06.89.89,0,0,1-.6-.77L204.2,283.3l-.1-1.22-2,32.84-.28,4.36-.39,6.18a.92.92,0,0,1-.92.88,1,1,0,0,1-.34-.07l-.08-.06a.85.85,0,0,1-.52-.71l-.47-4.59-.87-8.75-1.93-19.07-.06-.66-.66,2.91a.92.92,0,0,1-.9.72H143l2-1.75.13-.11H193.9l1.73-7.8a.93.93,0,0,1,1-.73.63.63,0,0,1,.47.2.13.13,0,0,1,.13.06,1,1,0,0,1,.28.58l2.76,27.13,0,.27,0-.23,0-.75L203,269.3a.92.92,0,0,1,.92-.88h0a.77.77,0,0,1,.45.13.9.9,0,0,1,.47.73l3,35,.13-1,1.84-15.61a1,1,0,0,1,.94-.84.78.78,0,0,1,.47.15.93.93,0,0,1,.45.71l.92,9.86.17-.43.87-2.29a.89.89,0,0,1,.86-.58Z"/><path d="M408.35,261c-14.24,0-30.73-3.56-39-7.49L373.5,235c11.62,3.56,22.86,5.81,35.22,5.81,17.06,0,19.87-3.56,19.87-15.55,0-13.87-.38-15-22.86-19.87-30.17-6.74-34.29-12.55-34.29-39,0-22.68,10.3-33.92,42-33.92a169.72,169.72,0,0,1,36.35,4.13l-2.62,19.86a163.86,163.86,0,0,0-33.36-3.75c-15.92,0-18.73,3.37-18.73,14.24,0,14.24.37,14.62,21.92,19.86,33.54,8.06,35.23,13.49,35.23,38.42C452.2,248.84,445.26,261,408.35,261Z"/><path d="M544.21,233.29H497.92l-7.87,25.86H465.32l39.35-124.79h33L577,259.15H552.26Zm-40.48-20.42h34.48l-17.05-59Z"/><path d="M620.29,259.15H596.68V134.36h23.61Z"/><path d="M670.13,220.55c0,12.18,5.25,19.3,21.74,19.3a133.46,133.46,0,0,0,19.3-1.5V200.5h22.29v54.9A160,160,0,0,1,691.68,261c-30.54,0-45.16-12.93-45.16-37.66V170.15c0-25.67,15-37.67,47.41-37.67,10.12,0,24.54,1.13,35.79,4.13l-2.63,20.61a165.63,165.63,0,0,0-35-3.38c-16.49,0-21.92,6.75-21.92,19.49Z"/><path d="M758.77,134.36h76.45v20.79H782.38v30.17h48.71v20.8H782.38v32.23h52.84v20.8H758.77Z"/><path d="M973.31,231l23.8-96.68h23.42L989.62,259.15H957.76L934.9,158.72,912,259.15H880.19L849.27,134.36h23.42L896.49,231l22.67-96.68h31.48Z"/><path d="M1098.49,233.29h-46.28l-7.87,25.86H1019.6L1059,134.36h33l39.35,124.79h-24.73ZM1058,212.87h34.47l-17-59Z"/><path d="M1224.79,259.15l-28.67-41.22h-22.49v41.22H1150V134.36h51.16c29,0,39.72,11.8,39.72,33.72v16.31c0,15-5.62,25.48-18.74,30.16l30.92,44.6Zm-24.55-104h-26.61V197.5h26.61c12.93,0,17-4.68,17-15.17V170C1217.29,159.46,1212.79,155.15,1200.24,155.15Z"/><path d="M1271.83,134.36h76.45v20.79h-52.85v30.17h48.72v20.8h-48.72v32.23h52.85v20.8h-76.45Z"/><path class="cls-2" d="M544.21,233.29H497.93l-7.87,25.86H465.32l39.35-124.8h33L577,259.15H552.27Zm-40.48-20.43h34.49l-17.06-59Z"/><path class="cls-3" d="M620.29,259.15H596.68V134.35h23.61Z"/><path class="cls-4" d="M347.39,152.85a88.56,88.56,0,0,0-1.28-10.07A84.06,84.06,0,0,0,343.33,132a.79.79,0,0,1,0-.17A85.27,85.27,0,0,0,285.69,77c-16.33-4.57-34.09-4.64-50.17.86a203.22,203.22,0,0,0-3.27,22.93,169,169,0,0,0,.51,35.51,100.23,100.23,0,0,0,8.55,30.47c.22.49.47,1,.71,1.43s.43.81.62,1.18c.51,1,1,1.88,1.54,2.73.32.54.62,1.07,1,1.59s.79,1.28,1.2,1.86c.17.27.36.55.55.81s.17.3.3.45.17.23.22.32.27.38.4.55.07.11.11.15a1.24,1.24,0,0,1,.19.26c.11.13.19.28.32.41.81,1.06,1.52,2,2.1,2.65a.45.45,0,0,1,.13.15,2.5,2.5,0,0,1,.42.49c-.1-1.31-.28-3.53-.57-6.46-.56-6.13-1.46-15.33-2.78-25.61-1.44-11.72-.6-28,11.41-28.11,4,0,9.09,1.69,15.78,5.94,1.3.83,2.67,1.75,4.08,2.78a145.52,145.52,0,0,1,13.66,11.31c6.85,6.26,14.2,14.56,14.71,24.35.56,11.69-10.19,19.73-19.47,24.58a84.13,84.13,0,0,1-10.35,4.62c-2.37.92-4.68,1.8-7,2.65s-4.92,1.82-7.38,2.76c-4.74,1.88-9.34,4-13.94,6.33a50.61,50.61,0,0,0-.34-5.9s0-.09,0-.26,0-.23-.07-.4c-.49-2.53-2.67-11.61-9.89-17.26a22.21,22.21,0,0,0-12.36-4.64,14.33,14.33,0,0,0-2.14,0A22.11,22.11,0,0,0,212.11,183c-7.31,5.66-9.49,14.84-10,17.34,0,.17,0,.3-.07.4s0,.24,0,.24a44.76,44.76,0,0,0-.34,5.64c-4.41-2.2-8.81-4.25-13.41-6.07s-9.6-3.5-14.36-5.34a93,93,0,0,1-10.33-4.69c-9.3-4.85-20.07-12.89-19.5-24.58.52-9.79,7.89-18.09,14.71-24.35a128.77,128.77,0,0,1,17.72-14.09c27-17.12,29.14,6.61,27.2,22.17-1.91,15.16-3,28-3.36,32.07.28-.34.64-.71,1-1.18l.1-.13s0,0,.07-.08l.38-.45a74.68,74.68,0,0,0,9.84-16.65c4.79-13.39,9.06-36.5,7.86-76,0-.51-.12-1-.17-1.51a4.22,4.22,0,0,1,0-.49.08.08,0,0,0,0-.07,115.64,115.64,0,0,0-35,32.05,119.86,119.86,0,0,0-21.45-22.51c-12.31-10-29.33-19.8-49.61-20.78-53.67-2.55-89.8,35.72-92.38,78.88-2.57,42.65,27.45,81.11,51.71,107.26C80.35,268.47,89,276.85,98.18,285l1.86,1.66c.79.71,1.59,1.39,2.4,2.1l2.37,2.07.21.17c.84.73,1.61,1.41,2.44,2.08.6.53,1.18,1,1.75,1.54.92.75,1.84,1.51,2.78,2.31,4.69,3.93,9.43,7.73,14.16,11.43.92.73,1.9,1.46,2.82,2.23,1.9,1.43,3.78,2.88,5.64,4.27,2.82,2.16,5.6,4.24,8.38,6.25,7.78,5.68,15.29,10.9,22.3,15.52a34.74,34.74,0,0,0,38.27,0c7.82-5.18,16.25-11.08,24.95-17.51l3.57-2.65c6.5-4.92,13.17-10.12,19.77-15.48.79-.64,1.61-1.31,2.42-2a2.92,2.92,0,0,0,.38-.32c2.48-2.05,5-4.13,7.42-6.25,1.07-.91,2.14-1.83,3.21-2.77l1-.88,2.4-2.1.75-.68H235.78l-2.25,5.79a.92.92,0,0,1-1,.6.62.62,0,0,1-.34-.15s-.07,0-.11-.06a1,1,0,0,1-.58-.75l-.36-3.93-1.9,16a1,1,0,0,1-1,.83.7.7,0,0,1-.49-.19.9.9,0,0,1-.6-.77l-2.56-30.25-1.93,31.77-.29,4.34-.39,6.15a.93.93,0,0,1-.9.9.82.82,0,0,1-.55-.19.23.23,0,0,1-.09-.06.83.83,0,0,1-.51-.71l-.47-4.6-.88-8.74-1.92-19.07-.54,2.33a.92.92,0,0,1-.92.77h-52l-.68.68-2.08,2.1-1.3,1.37c-.62.6-1.26,1.28-1.9,2-2.74,2.9-6,6.45-10.07,10.75C143.36,307,140,308.7,137,308.7c-.22,0-.43,0-.64,0a.2.2,0,0,1-.15,0,1.36,1.36,0,0,1-.39,0l-.23,0a3.06,3.06,0,0,1-.56-.13l-.6-.17a.22.22,0,0,0-.11,0c-.19-.08-.36-.17-.53-.23l-.58-.3a9.41,9.41,0,0,1-2.09-1.56c-.11-.09-.24-.17-.28-.3a1.59,1.59,0,0,1-.39-.34,15.37,15.37,0,0,1-1.28-1.54c-.08-.11-.21-.26-.32-.43s-.45-.68-.68-1c-.11-.15-.22-.32-.32-.49s-.22-.38-.32-.55c-.32-.56-.65-1.14-.92-1.74a5.89,5.89,0,0,1-.35-.77c-.19-.34-.34-.72-.51-1.09-.11-.21-.19-.4-.28-.62s-.17-.45-.25-.64a7.68,7.68,0,0,1-.32-.79c-.2-.53-.41-1.07-.6-1.6a3.25,3.25,0,0,1-.11-.37,2.21,2.21,0,0,1-.17-.55c-.51-1.48-1-3-1.39-4.49a.71.71,0,0,0-.06-.28c-.09-.36-.17-.7-.26-1.07s-.15-.51-.21-.75c-.13-.51-.24-1-.35-1.49s-.27-1.22-.42-1.8c-.43-2.09-.77-4-1-5.64,0-.17,0-.28-.07-.45s-.1-.62-.15-.9c-.34-2.14-.49-3.44-.49-3.44a150.85,150.85,0,0,0,37.74-5.9,133.24,133.24,0,0,0,18.92-7.16c1.94-.92,3.84-1.84,5.62-2.83,0,0,0,0,0,.05a115.8,115.8,0,0,0,17.59-11.38c2.76-2.16,5.26-4.34,7.49-6.43,5.28,36.39-18.5,39.27-20.29,39.44h-.11c-2.54,0-4.77,0-6.71.15a7.29,7.29,0,0,0-.79.05,4.1,4.1,0,0,0-.51,0,5.62,5.62,0,0,0-.56.06c-.41,0-.81.09-1.2.13a3.55,3.55,0,0,1-.4.06,1.76,1.76,0,0,0-.41.07,3.17,3.17,0,0,0-.47,0,19.64,19.64,0,0,0-5.67,1.8l-.49.21a1.28,1.28,0,0,1-.3.19c-.21.13-.4.22-.62.34a3.87,3.87,0,0,1-.64.41c-.19.13-.38.32-.6.45s-.38.28-.6.41l-.66.51-.55.47h.08l.13-.11h48.76l1.74-7.8a.92.92,0,0,1,1-.73.7.7,0,0,1,.47.19.13.13,0,0,1,.13.07.83.83,0,0,1,.45.7l2.67,26.3,2.69-43.63a.92.92,0,0,1,.92-.88h0a.77.77,0,0,1,.45.13,1,1,0,0,1,.66.83L228.42,293l1.84-15.6a1,1,0,0,1,.94-.84.78.78,0,0,1,.47.15.91.91,0,0,1,.64.82l.9,9.32.88-2.29a.88.88,0,0,1,.85-.58h36.35l-.13.11h.38c1.71-1.54,3.42-3.1,5.11-4.66-3.16-.62-7-.71-12.46-.73h-.09c-2.61-.28-25.52-3.78-20.09-39.89,2.35,2.22,5,4.57,8,6.9a113.83,113.83,0,0,0,17.55,11.38.06.06,0,0,0,0-.05c1.83,1,3.69,1.91,5.64,2.83a124.46,124.46,0,0,0,11.8,4.83c1.13.43,2.31.83,3.51,1.2,1.88-1.91,3.69-3.83,5.47-5.76-3-.85-6-1.9-9-3.05a125.92,125.92,0,0,1-11.84-5.35c-3.64-1.86-7.23-3.87-10.82-6-4.43-2.67-8.79-5.51-13.17-8.5a33.54,33.54,0,0,1-5.94-5.05c.25-1.15.53-2.33.83-3.53a103.2,103.2,0,0,0,2.67-14.13c5.92-4.3,15.2-8.21,26.19-11.76l.15,0c1.22-.43,2.5-.81,3.74-1.2,29.95-9.25,36.88-23,36.88-23,3.14,2.63,9.64,20.48,13.38,39.18-.27-1.41,2.42-4.51,3.06-5.7,1.56-2.95,3.29-5.84,4.79-8.85a101.15,101.15,0,0,0,7.42-19.52A95.37,95.37,0,0,0,347.39,152.85ZM200.24,237.24q-6.54,4.48-13.16,8.5c-3.57,2.16-7.17,4.19-10.82,6a118.48,118.48,0,0,1-18.94,7.87,87.73,87.73,0,0,1-26.19,4.1c-25.36,0-2.33-79.5,4.59-85.25,0,0,6.91,13.79,36.88,23,1.26.39,2.5.77,3.74,1.2,10.69,3.46,19.78,7.23,25.74,11.4a105.42,105.42,0,0,0,2.74,14.53c.34,1.37.66,2.72.94,4A35.61,35.61,0,0,1,200.24,237.24Z"/><path class="cls-5" d="M197.06,285.87a.38.38,0,0,0-.27-.09.94.94,0,0,0-1,.73l-1.73,7.8H145l.13-.11H193.9l1.73-7.8a.93.93,0,0,1,1-.73A.63.63,0,0,1,197.06,285.87Z"/><path class="cls-6" d="M211.22,286.93a1.17,1.17,0,0,0-.26,0,1,1,0,0,0-1,.84l-1.95,16.63-.08-1.13,1.84-15.61a1,1,0,0,1,.94-.84A.78.78,0,0,1,211.22,286.93Z"/><path class="cls-7" d="M250.83,294.2l-.13.11h-36a1,1,0,0,0-.73.34.9.9,0,0,0-.12.24l-1,2.71,0-.53.87-2.29a.89.89,0,0,1,.86-.58Z"/></g></svg>