<svg xmlns="http://www.w3.org/2000/svg" xmlns:xlink="http://www.w3.org/1999/xlink" viewBox="0 0 1369 416"><defs><style>.cls-1{fill:#fff;}.cls-2{fill:url(#linear-gradient);}.cls-3{fill:url(#linear-gradient-2);}.cls-4{fill:url(#linear-gradient-3);}.cls-5{fill:url(#linear-gradient-4);}.cls-6{fill:url(#linear-gradient-5);}.cls-7{fill:url(#linear-gradient-6);}</style><linearGradient id="linear-gradient" x1="436.95" y1="127.87" x2="535.38" y2="233.56" gradientUnits="userSpaceOnUse"><stop offset="0" stop-color="#1d54b5"/><stop offset="0.29" stop-color="#1f57b9"/><stop offset="0.55" stop-color="#2760c4"/><stop offset="0.8" stop-color="#346ed6"/><stop offset="1" stop-color="#427feb"/></linearGradient><linearGradient id="linear-gradient-2" x1="494.26" y1="74.5" x2="592.68" y2="180.2" xlink:href="#linear-gradient"/><linearGradient id="linear-gradient-3" x1="289.06" y1="252.36" x2="55.34" y2="68.36" xlink:href="#linear-gradient"/><linearGradient id="linear-gradient-4" x1="200.5" y1="285.32" x2="170.2" y2="261.46" xlink:href="#linear-gradient"/><linearGradient id="linear-gradient-5" x1="226.07" y1="280.62" x2="218.91" y2="274.99" xlink:href="#linear-gradient"/><linearGradient id="linear-gradient-6" x1="255.91" y1="286.91" x2="233.19" y2="269.02" xlink:href="#linear-gradient"/></defs><title>RectLMW</title><g id="Layer_1" data-name="Layer 1"><path class="cls-1" d="M401.07,253.63c-14.24,0-30.73-3.56-39-7.5l4.12-18.55c11.62,3.56,22.86,5.81,35.23,5.81,17.05,0,19.86-3.56,19.86-15.55,0-13.87-.37-15-22.86-19.86-30.17-6.75-34.29-12.56-34.29-39,0-22.67,10.31-33.91,42-33.91a170.25,170.25,0,0,1,36.35,4.12l-2.62,19.86a163.68,163.68,0,0,0-33.35-3.75c-15.93,0-18.74,3.38-18.74,14.24,0,14.25.37,14.62,21.92,19.87,33.54,8,35.23,13.49,35.23,38.41C444.92,241.45,438,253.63,401.07,253.63Z"/><path d="M536.93,225.9H490.65l-7.87,25.85H458L497.39,127h33l39.35,124.79H545Zm-40.47-20.43h34.47l-17-59Z"/><path d="M613,251.75H589.4V127H613Z"/><path class="cls-1" d="M662.85,213.16c0,12.17,5.25,19.29,21.74,19.29a134.88,134.88,0,0,0,19.3-1.49V193.11h22.3V248a160.58,160.58,0,0,1-41.79,5.62c-30.54,0-45.16-12.93-45.16-37.66V162.75c0-25.67,15-37.66,47.41-37.66,10.12,0,24.55,1.12,35.79,4.12l-2.62,20.61a165.63,165.63,0,0,0-35-3.37c-16.49,0-21.93,6.74-21.93,19.49Z"/><path class="cls-1" d="M751.49,127h76.45v20.8H775.1v30.17h48.72v20.8H775.1V231h52.84v20.79H751.49Z"/><path class="cls-1" d="M966,223.65,989.84,127h23.42L982.34,251.75H950.49L927.63,151.32,904.77,251.75H872.91L842,127h23.43l23.79,96.69L911.89,127h31.48Z"/><path class="cls-1" d="M1091.21,225.9h-46.28l-7.87,25.85h-24.73L1051.68,127h33L1124,251.75h-24.74Zm-40.47-20.43h34.48l-17-59Z"/><path class="cls-1" d="M1217.51,251.75l-28.67-41.22h-22.48v41.22h-23.61V127h51.15c29,0,39.73,11.81,39.73,33.73V177c0,15-5.62,25.48-18.74,30.17l30.92,44.59Zm-24.54-104h-26.61v42.35H1193c12.93,0,17-4.69,17-15.18V162.56C1210,152.07,1205.52,147.76,1193,147.76Z"/><path class="cls-1" d="M1264.55,127H1341v20.8h-52.84v30.17h48.72v20.8h-48.72V231H1341v20.79h-76.45Z"/><path class="cls-2" d="M536.94,225.89H490.65l-7.87,25.87H458L497.4,127h33l39.35,124.81H545Zm-40.48-20.42h34.48l-17.05-59Z"/><path class="cls-3" d="M613,251.76H589.4V127H613Z"/><path class="cls-1" d="M264,276.62l-.13.1-1.94,1.76H228.31l-2.25,5.81a.9.9,0,0,1-1,.58l-.11,0s-.06,0-.11-.07a.89.89,0,0,1-.57-.75l-.37-3.93-.1-1.07-2,17a1,1,0,0,1-1,.81.63.63,0,0,1-.3-.07.86.86,0,0,1-.6-.77l-2.57-30.25-.1-1.22-2,32.84-.28,4.36-.39,6.18a.92.92,0,0,1-.92.88.8.8,0,0,1-.34-.07.28.28,0,0,1-.08-.06.82.82,0,0,1-.52-.71l-.47-4.59-.87-8.75-1.93-19.07-.06-.66-.67,2.91a.91.91,0,0,1-.89.73H156.18l2-1.76.12-.1h48.77l1.73-7.81a.91.91,0,0,1,1-.72.66.66,0,0,1,.47.19.13.13,0,0,1,.13.06,1,1,0,0,1,.28.58l2.76,27.13,0,.28,0-.24,0-.75,2.7-43.63a.92.92,0,0,1,.92-.88h0a.85.85,0,0,1,.45.13.93.93,0,0,1,.47.73l3,34.95.13-1L223,270a1,1,0,0,1,.94-.83.73.73,0,0,1,.48.15.88.88,0,0,1,.44.7l.92,9.86.17-.43.88-2.29a.88.88,0,0,1,.86-.57Z"/><path class="cls-4" d="M340.12,145.46a88,88,0,0,0-1.29-10.07,85.86,85.86,0,0,0-2.77-10.8.41.41,0,0,1-.05-.17,85.3,85.3,0,0,0-57.59-54.86c-16.33-4.57-34.1-4.63-50.18.86A208.26,208.26,0,0,0,225,93.36a169,169,0,0,0,.52,35.51A99.6,99.6,0,0,0,234,159.33c.21.5.47,1,.7,1.44l.62,1.17c.52,1,1,1.88,1.54,2.74.32.53.62,1.07,1,1.58q.58,1,1.2,1.86a7.75,7.75,0,0,0,.56.81,3.91,3.91,0,0,0,.3.45c.08.15.17.24.21.32s.28.39.41.56.06.1.1.15.13.17.2.25a3.81,3.81,0,0,0,.32.41c.81,1.07,1.51,2,2.09,2.65a.35.35,0,0,1,.13.15,3,3,0,0,1,.43.49c-.11-1.3-.28-3.52-.58-6.45-.56-6.14-1.45-15.33-2.78-25.62-1.43-11.71-.6-28,11.42-28.11,3.95,0,9.08,1.69,15.77,5.95,1.31.83,2.68,1.75,4.09,2.77a148.13,148.13,0,0,1,13.66,11.31c6.84,6.27,14.19,14.56,14.71,24.35.55,11.7-10.2,19.74-19.48,24.59a85.66,85.66,0,0,1-10.35,4.62c-2.37.92-4.68,1.79-7,2.65s-4.92,1.82-7.37,2.76c-4.75,1.88-9.35,4-13.94,6.32a48.66,48.66,0,0,0-.35-5.9,2.24,2.24,0,0,1,0-.25c0-.11,0-.24-.06-.41-.49-2.52-2.67-11.61-9.9-17.25a22.07,22.07,0,0,0-12.36-4.64,14.2,14.2,0,0,0-2.13,0,22.1,22.1,0,0,0-12.28,4.57c-7.31,5.67-9.49,14.84-10,17.34,0,.17,0,.3-.06.41s0,.23,0,.23a46.89,46.89,0,0,0-.34,5.65c-4.4-2.2-8.81-4.26-13.4-6.07-4.75-1.82-9.6-3.51-14.37-5.35a92.91,92.91,0,0,1-10.33-4.68c-9.3-4.85-20.07-12.89-19.49-24.59.51-9.79,7.89-18.08,14.71-24.35a128,128,0,0,1,17.72-14.08c27-17.13,29.14,6.6,27.19,22.16-1.9,15.16-3,28-3.35,32.07.27-.34.64-.7,1-1.17l.11-.13s0,0,.06-.09l.39-.45a74.11,74.11,0,0,0,9.83-16.65c4.79-13.38,9.07-36.49,7.87-76-.05-.51-.13-1-.17-1.52a4.07,4.07,0,0,1,0-.49.07.07,0,0,0,0-.06,115.6,115.6,0,0,0-35,32A119.92,119.92,0,0,0,155.6,87.33c-12.32-10-29.33-19.8-49.62-20.78C52.32,64,16.19,102.27,13.6,145.44,11,188.09,41.05,226.55,65.32,252.69c7.76,8.38,16.44,16.76,25.59,24.93l1.86,1.67,2.39,2.09,2.37,2.08c.09.06.15.13.22.17.83.73,1.6,1.41,2.44,2.07.59.54,1.17,1,1.75,1.54.92.75,1.84,1.52,2.78,2.31,4.68,3.93,9.43,7.74,14.15,11.44.92.72,1.9,1.45,2.82,2.22,1.91,1.43,3.79,2.89,5.65,4.28,2.82,2.16,5.6,4.23,8.38,6.24,7.78,5.69,15.28,10.9,22.29,15.52a34.72,34.72,0,0,0,38.27,0c7.83-5.17,16.25-11.07,24.95-17.51,1.2-.88,2.37-1.75,3.57-2.65,6.5-4.92,13.17-10.11,19.78-15.48.79-.64,1.6-1.3,2.41-2a2.37,2.37,0,0,0,.39-.32c2.48-2,5-4.12,7.42-6.24,1.06-.92,2.13-1.84,3.2-2.78l1-.88,2.39-2.09.75-.69H228.5l-2.24,5.8a.94.94,0,0,1-1,.6.74.74,0,0,1-.34-.15s-.06,0-.11-.07a.89.89,0,0,1-.57-.75l-.37-3.93-1.9,16a1,1,0,0,1-1,.84.71.71,0,0,1-.49-.2.86.86,0,0,1-.6-.77l-2.57-30.25-1.92,31.77-.3,4.34-.39,6.16a.93.93,0,0,1-.89.9.83.83,0,0,1-.56-.2.28.28,0,0,1-.08-.06.82.82,0,0,1-.52-.71l-.47-4.59-.87-8.75-1.93-19.07-.53,2.34a.93.93,0,0,1-.92.76H156l-.68.69-2.07,2.09-1.31,1.37c-.62.6-1.26,1.28-1.9,2-2.74,2.91-6,6.46-10.07,10.75-3.89,4.13-7.27,5.82-10.24,5.82-.21,0-.43,0-.64,0a.18.18,0,0,1-.15-.05,1.26,1.26,0,0,1-.38,0l-.24,0a2.17,2.17,0,0,1-.56-.13,4.36,4.36,0,0,1-.59-.17l-.11,0-.54-.24c-.21-.1-.4-.21-.57-.3a9.17,9.17,0,0,1-2.1-1.56.81.81,0,0,1-.28-.3,1.37,1.37,0,0,1-.38-.34,12.31,12.31,0,0,1-1.28-1.54,2.68,2.68,0,0,1-.32-.42c-.24-.33-.45-.69-.69-1.05-.11-.15-.21-.32-.32-.49s-.21-.39-.32-.56c-.32-.56-.64-1.13-.92-1.73a5.17,5.17,0,0,1-.34-.77c-.19-.34-.34-.73-.51-1.09a6.64,6.64,0,0,1-.28-.62c-.09-.22-.17-.45-.26-.64s-.23-.54-.32-.79c-.19-.54-.41-1.07-.6-1.61,0-.13-.06-.21-.1-.36a2.17,2.17,0,0,1-.18-.56c-.51-1.47-1-3-1.39-4.49a.66.66,0,0,0-.06-.27c-.09-.37-.17-.71-.26-1.07s-.15-.52-.21-.75c-.13-.51-.24-1-.34-1.5s-.28-1.22-.43-1.79c-.43-2.1-.77-4-1-5.65,0-.17,0-.28-.06-.45s-.11-.62-.15-.89c-.34-2.14-.49-3.45-.49-3.45a150.76,150.76,0,0,0,37.73-5.9A133.24,133.24,0,0,0,169,252.5c1.95-.92,3.85-1.84,5.62-2.82,0,0,0,0,0,0a115.91,115.91,0,0,0,17.6-11.37c2.76-2.16,5.26-4.34,7.48-6.44,5.28,36.39-18.49,39.28-20.29,39.45h-.1c-2.55,0-4.77,0-6.72.15-.25,0-.51,0-.79,0a4.18,4.18,0,0,0-.51,0,4.07,4.07,0,0,0-.56.07c-.4,0-.81.08-1.19.12a2.2,2.2,0,0,1-.41.07,2.52,2.52,0,0,0-.41.06,3.17,3.17,0,0,0-.47,0,20.09,20.09,0,0,0-5.66,1.8l-.49.21a2,2,0,0,1-.3.2c-.22.12-.41.21-.62.34a4,4,0,0,1-.64.4c-.2.13-.39.33-.6.45s-.39.28-.6.41l-.66.51-.56.47h.09l.12-.1h48.77l1.73-7.81a.91.91,0,0,1,1-.72.66.66,0,0,1,.47.19.13.13,0,0,1,.13.06.81.81,0,0,1,.45.71l2.67,26.29,2.7-43.63a.92.92,0,0,1,.92-.88h0a.85.85,0,0,1,.45.13,1,1,0,0,1,.66.84l2.91,33.84L223,270a1,1,0,0,1,.94-.83.73.73,0,0,1,.48.15.9.9,0,0,1,.64.81l.89,9.32.88-2.29a.88.88,0,0,1,.86-.57H264l-.13.1h.39c1.71-1.54,3.42-3.1,5.11-4.66-3.17-.62-7.06-.7-12.47-.72h-.08c-2.61-.28-25.53-3.79-20.1-39.9,2.35,2.23,5,4.58,8,6.91a112.85,112.85,0,0,0,17.55,11.37.06.06,0,0,0,0,0c1.84,1,3.7,1.9,5.64,2.82a121.87,121.87,0,0,0,11.8,4.83c1.14.43,2.31.84,3.51,1.2,1.88-1.9,3.7-3.83,5.47-5.75-3-.86-6-1.9-9-3.06a127,127,0,0,1-11.84-5.34q-5.44-2.79-10.82-6c-4.42-2.67-8.78-5.52-13.17-8.51a32.73,32.73,0,0,1-5.94-5.05c.26-1.15.54-2.33.83-3.52a103.36,103.36,0,0,0,2.68-14.13c5.92-4.3,15.2-8.21,26.19-11.76a1.31,1.31,0,0,0,.15,0c1.21-.42,2.5-.81,3.74-1.19,29.95-9.26,36.87-23,36.87-23,3.15,2.63,9.65,20.48,13.39,39.19-.28-1.41,2.41-4.51,3.05-5.71,1.57-2.95,3.3-5.84,4.79-8.85a99.62,99.62,0,0,0,7.42-19.52A95.57,95.57,0,0,0,340.12,145.46ZM193,229.84c-4.36,3-8.75,5.84-13.17,8.51-3.57,2.16-7.16,4.19-10.82,6A118.05,118.05,0,0,1,150,252.24a87.64,87.64,0,0,1-26.19,4.11c-25.35,0-2.33-79.51,4.6-85.26,0,0,6.9,13.79,36.88,23,1.26.38,2.5.77,3.74,1.19,10.69,3.47,19.77,7.23,25.74,11.4a105.1,105.1,0,0,0,2.73,14.54c.35,1.37.67,2.71.94,4A36,36,0,0,1,193,229.84Z"/><path class="cls-5" d="M210.24,268.28a.39.39,0,0,0-.28-.09.93.93,0,0,0-1,.73l-1.73,7.8H158.19l.12-.1h48.77l1.73-7.81a.91.91,0,0,1,1-.72A.66.66,0,0,1,210.24,268.28Z"/><path class="cls-6" d="M224.4,269.35a1.32,1.32,0,0,0-.26-.05,1,1,0,0,0-1,.84l-2,16.63-.08-1.13L223,270a1,1,0,0,1,.94-.83A.73.73,0,0,1,224.4,269.35Z"/><path class="cls-7" d="M264,276.62l-.13.1h-36a.91.91,0,0,0-.86.58L226,280l0-.54.88-2.29a.88.88,0,0,1,.86-.57Z"/></g></svg>