<svg xmlns="http://www.w3.org/2000/svg" xmlns:xlink="http://www.w3.org/1999/xlink" viewBox="0 0 650 250"><defs><style>.cls-1{fill:url(#linear-gradient);}.cls-2{fill:url(#linear-gradient-2);}.cls-3{fill:#fff;}.cls-4{fill:url(#linear-gradient-3);}.cls-5{fill:url(#linear-gradient-4);}.cls-6{fill:url(#linear-gradient-5);}.cls-7{fill:url(#linear-gradient-6);}</style><linearGradient id="linear-gradient" x1="213.34" y1="90.84" x2="259.38" y2="140.28" gradientUnits="userSpaceOnUse"><stop offset="0" stop-color="#1d54b5"/><stop offset="0.29" stop-color="#1f57b9"/><stop offset="0.55" stop-color="#2760c4"/><stop offset="0.8" stop-color="#346ed6"/><stop offset="1" stop-color="#427feb"/></linearGradient><linearGradient id="linear-gradient-2" x1="240.14" y1="65.88" x2="286.18" y2="115.32" xlink:href="#linear-gradient"/><linearGradient id="linear-gradient-3" x1="144.16" y1="149.07" x2="34.83" y2="63.01" xlink:href="#linear-gradient"/><linearGradient id="linear-gradient-4" x1="102.73" y1="164.49" x2="88.56" y2="153.33" xlink:href="#linear-gradient"/><linearGradient id="linear-gradient-5" x1="114.69" y1="162.29" x2="111.35" y2="159.66" xlink:href="#linear-gradient"/><linearGradient id="linear-gradient-6" x1="128.65" y1="165.23" x2="118.02" y2="156.87" xlink:href="#linear-gradient"/></defs><title>RectLB</title><g id="Layer_1" data-name="Layer 1"><path d="M196.55,149.67c-6.66,0-14.37-1.67-18.23-3.51l1.93-8.68a54.87,54.87,0,0,0,16.48,2.72c8,0,9.29-1.66,9.29-7.27,0-6.49-.18-7-10.69-9.29-14.12-3.16-16-5.88-16-18.23,0-10.61,4.82-15.87,19.63-15.87a79.28,79.28,0,0,1,17,1.93l-1.22,9.29A76.81,76.81,0,0,0,199.09,99c-7.45,0-8.76,1.57-8.76,6.66,0,6.66.18,6.83,10.26,9.29,15.68,3.77,16.47,6.31,16.47,18C217.06,144,213.82,149.67,196.55,149.67Z"/><path d="M260.1,136.7H238.45l-3.68,12.09H223.2l18.41-58.37H257l18.41,58.37H263.87Zm-18.93-9.56H257.3l-8-27.61Z"/><path d="M295.69,148.79H284.64V90.42h11.05Z"/><path d="M319,130.74c0,5.69,2.46,9,10.17,9a62.41,62.41,0,0,0,9-.7v-17.7h10.43V147a75.11,75.11,0,0,1-19.55,2.63c-14.28,0-21.12-6-21.12-17.62V107.16c0-12,7-17.62,22.17-17.62a71.23,71.23,0,0,1,16.74,1.93l-1.22,9.64a77.63,77.63,0,0,0-16.39-1.58c-7.72,0-10.26,3.16-10.26,9.12Z"/><path d="M360.46,90.42h35.76v9.73H371.51v14.11h22.78V124H371.51v15.07h24.71v9.73H360.46Z"/><path d="M460.82,135.64,472,90.42h11l-14.46,58.37H453.54l-10.69-47-10.69,47h-14.9L402.8,90.42h10.95l11.13,45.22,10.61-45.22h14.72Z"/><path d="M519.37,136.7H497.72L494,148.79H482.47l18.41-58.37H516.3l18.41,58.37H523.14Zm-18.93-9.56h16.13l-8-27.61Z"/><path d="M578.45,148.79,565,129.51H554.52v19.28h-11V90.42H567.4C581,90.42,586,95.94,586,106.19v7.63c0,7-2.63,11.92-8.77,14.11l14.46,20.86ZM567,100.15H554.52V120H567c6,0,8-2.19,8-7.09v-5.79C574.94,102.16,572.84,100.15,567,100.15Z"/><path d="M600.45,90.42h35.76v9.73H611.49v14.11h22.79V124H611.49v15.07h24.72v9.73H600.45Z"/><path class="cls-1" d="M260.1,136.69H238.45l-3.68,12.1H223.2l18.41-58.38H257l18.4,58.38H263.87Zm-18.93-9.55H257.3l-8-27.61Z"/><path class="cls-2" d="M295.69,148.79H284.64V90.41h11.05Z"/><path class="cls-3" d="M132.44,160.42l-.06.05-.91.82H115.74l-1,2.72a.42.42,0,0,1-.47.27h0s0,0,0,0a.43.43,0,0,1-.27-.35l-.17-1.84-.05-.5-.93,7.93a.44.44,0,0,1-.45.38.35.35,0,0,1-.14,0,.41.41,0,0,1-.28-.36l-1.2-14.15,0-.57-1,15.36-.13,2-.18,2.89a.43.43,0,0,1-.43.41.41.41,0,0,1-.16,0l0,0a.39.39,0,0,1-.24-.33l-.22-2.15-.41-4.09-.9-8.92,0-.31-.31,1.36a.43.43,0,0,1-.42.34H82l.94-.82.06-.05h22.81l.81-3.65a.43.43,0,0,1,.45-.34.31.31,0,0,1,.22.09.06.06,0,0,1,.06,0,.46.46,0,0,1,.13.27l1.29,12.69v0l0-.35,1.26-20.41a.43.43,0,0,1,.43-.41h0a.37.37,0,0,1,.21.06.41.41,0,0,1,.22.34l1.39,16.35.06-.47.86-7.3a.45.45,0,0,1,.44-.39.34.34,0,0,1,.22.07.42.42,0,0,1,.21.33l.43,4.61.08-.2.41-1.07a.41.41,0,0,1,.4-.27Z"/><path class="cls-4" d="M168,99.07a41.82,41.82,0,0,0-.6-4.71,40.18,40.18,0,0,0-1.3-5,.31.31,0,0,1,0-.08A40.16,40.16,0,0,0,115.71,64a96.29,96.29,0,0,0-1.53,10.73,79,79,0,0,0,.24,16.61,46.76,46.76,0,0,0,4,14.25c.1.23.22.45.33.67s.2.38.29.55c.24.46.48.88.72,1.28.15.25.29.5.45.74s.37.6.56.87.17.26.26.38.08.14.14.21.08.11.1.15l.19.26.05.07a.54.54,0,0,1,.09.12c.05.06.09.13.15.19.38.5.71.92,1,1.24a.19.19,0,0,1,.06.07,1.31,1.31,0,0,1,.2.23c0-.61-.13-1.65-.27-3-.26-2.87-.68-7.17-1.3-12-.67-5.48-.28-13.12,5.34-13.15,1.85,0,4.25.79,7.38,2.78.61.39,1.25.82,1.91,1.3a68.73,68.73,0,0,1,6.39,5.29c3.2,2.93,6.64,6.81,6.88,11.39.26,5.47-4.77,9.23-9.11,11.5a40,40,0,0,1-4.84,2.16c-1.11.43-2.19.84-3.28,1.24s-2.3.85-3.45,1.29c-2.22.88-4.37,1.89-6.52,3a23.33,23.33,0,0,0-.16-2.76,1.13,1.13,0,0,1,0-.12s0-.11,0-.19a14.05,14.05,0,0,0-4.63-8.07A10.35,10.35,0,0,0,111.5,111a6.26,6.26,0,0,0-1,0,10.33,10.33,0,0,0-5.74,2.14c-3.42,2.65-4.44,6.94-4.67,8.11,0,.08,0,.14,0,.19s0,.11,0,.11a21.52,21.52,0,0,0-.16,2.64c-2.06-1-4.12-2-6.27-2.84s-4.49-1.64-6.72-2.5a43.61,43.61,0,0,1-4.83-2.19c-4.35-2.27-9.39-6-9.12-11.5.24-4.58,3.69-8.46,6.88-11.39a60.08,60.08,0,0,1,8.29-6.59c12.62-8,13.63,3.09,12.72,10.37-.89,7.09-1.41,13.1-1.57,15,.13-.16.3-.33.47-.55l0-.06s0,0,0,0l.18-.21a34.81,34.81,0,0,0,4.6-7.79c2.24-6.26,4.24-17.07,3.68-35.55,0-.24-.06-.48-.08-.71a1.79,1.79,0,0,1,0-.23,0,0,0,0,0,0,0,54.09,54.09,0,0,0-16.39,15,56.06,56.06,0,0,0-10-10.53C76,67.19,68,62.62,58.52,62.16c-25.1-1.19-42,16.71-43.21,36.9C14.11,119,28.15,137,39.5,149.23c3.63,3.92,7.69,7.84,12,11.66l.87.78,1.12,1,1.11,1,.1.08c.39.34.75.66,1.14,1l.82.72,1.3,1.08c2.19,1.84,4.41,3.62,6.62,5.35.43.34.89.68,1.32,1l2.64,2c1.32,1,2.62,2,3.92,2.92,3.64,2.66,7.15,5.1,10.43,7.26a16.24,16.24,0,0,0,17.9,0c3.66-2.42,7.6-5.18,11.67-8.19l1.67-1.24c3-2.3,6.16-4.73,9.25-7.24.37-.3.75-.61,1.13-.94l.18-.15c1.16-1,2.33-1.93,3.47-2.92l1.5-1.3.47-.41,1.12-1,.35-.32H115.83l-1,2.71a.43.43,0,0,1-.45.28.33.33,0,0,1-.16-.07s0,0,0,0a.43.43,0,0,1-.27-.35l-.17-1.84-.89,7.48a.45.45,0,0,1-.45.39.33.33,0,0,1-.23-.09.41.41,0,0,1-.28-.36l-1.2-14.15-.9,14.86-.14,2-.18,2.88a.44.44,0,0,1-.42.42.39.39,0,0,1-.26-.09l0,0a.39.39,0,0,1-.24-.33l-.22-2.15-.41-4.09-.9-8.92-.25,1.09a.43.43,0,0,1-.43.36H81.92l-.32.32-1,1-.61.64c-.29.28-.59.6-.89.93-1.28,1.36-2.79,3-4.71,5S71,172,69.63,172h-.3a.1.1,0,0,1-.07,0,.58.58,0,0,1-.18,0H69a1.1,1.1,0,0,1-.26-.06l-.28-.08-.05,0-.25-.11-.27-.14a4.39,4.39,0,0,1-1-.73.35.35,0,0,1-.13-.14.69.69,0,0,1-.18-.16,6.19,6.19,0,0,1-.6-.72,2.07,2.07,0,0,1-.15-.2c-.11-.15-.21-.32-.32-.49l-.15-.23-.15-.26c-.15-.26-.3-.53-.43-.81a2.83,2.83,0,0,1-.16-.36c-.09-.16-.16-.34-.24-.51s-.09-.19-.13-.29-.08-.21-.12-.3-.11-.25-.15-.37l-.28-.75,0-.17a1,1,0,0,1-.08-.26c-.24-.69-.45-1.41-.65-2.1a.31.31,0,0,0,0-.13l-.12-.5c0-.11-.07-.24-.1-.35s-.11-.47-.16-.7-.13-.57-.2-.84c-.2-1-.36-1.87-.49-2.64,0-.08,0-.13,0-.21s-.05-.29-.07-.42c-.16-1-.23-1.61-.23-1.61a70.55,70.55,0,0,0,17.65-2.76A62.07,62.07,0,0,0,88,149.14c.91-.43,1.8-.86,2.63-1.32,0,0,0,0,0,0a54.21,54.21,0,0,0,8.23-5.32c1.29-1,2.46-2,3.5-3,2.47,17-8.65,18.37-9.49,18.45h0c-1.19,0-2.23,0-3.14.07l-.37,0h-.24l-.26,0c-.19,0-.38,0-.56.06l-.19,0a1.08,1.08,0,0,0-.19,0l-.22,0a9.25,9.25,0,0,0-2.65.84l-.23.1a.67.67,0,0,1-.14.09l-.29.16a1.89,1.89,0,0,1-.3.19c-.09.06-.18.15-.28.21l-.28.19-.31.24-.26.22h0l.06-.05h22.81l.81-3.65a.43.43,0,0,1,.45-.34.31.31,0,0,1,.22.09.06.06,0,0,1,.06,0,.37.37,0,0,1,.21.33l1.25,12.3,1.26-20.41a.43.43,0,0,1,.43-.41h0a.37.37,0,0,1,.21.06.46.46,0,0,1,.31.39l1.36,15.83.86-7.3a.45.45,0,0,1,.44-.39.34.34,0,0,1,.22.07.42.42,0,0,1,.3.38l.42,4.36.41-1.07a.41.41,0,0,1,.4-.27h17l-.06.05h.18l2.39-2.18a32.85,32.85,0,0,0-5.83-.34h0c-1.22-.13-11.94-1.77-9.4-18.66,1.1,1,2.34,2.14,3.74,3.23a53,53,0,0,0,8.21,5.32,0,0,0,0,0,0,0c.86.46,1.73.89,2.64,1.32a57.18,57.18,0,0,0,5.52,2.26c.53.2,1.08.39,1.64.56.88-.89,1.73-1.79,2.56-2.69-1.41-.4-2.82-.89-4.2-1.43a59.28,59.28,0,0,1-5.54-2.5c-1.7-.87-3.38-1.81-5.06-2.82-2.07-1.25-4.11-2.58-6.16-4a15.47,15.47,0,0,1-2.78-2.36q.18-.81.39-1.65a48.53,48.53,0,0,0,1.25-6.61c2.77-2,7.11-3.84,12.25-5.5l.07,0c.57-.2,1.17-.38,1.75-.56,14-4.33,17.25-10.78,17.25-10.78,1.47,1.23,4.51,9.58,6.26,18.33-.13-.66,1.13-2.11,1.43-2.67.73-1.38,1.54-2.73,2.24-4.14a47,47,0,0,0,3.47-9.13A44.65,44.65,0,0,0,168,99.07ZM99.21,138.54q-3.06,2.1-6.16,4c-1.67,1-3.35,2-5.06,2.82A55.48,55.48,0,0,1,79.13,149a41,41,0,0,1-12.25,1.92c-11.86,0-1.09-37.19,2.15-39.88,0,0,3.23,6.45,17.25,10.78.59.18,1.17.36,1.75.56,5,1.62,9.25,3.38,12,5.33a49.3,49.3,0,0,0,1.28,6.8c.16.64.31,1.27.44,1.88A16.62,16.62,0,0,1,99.21,138.54Z"/><path class="cls-5" d="M107.29,156.52a.2.2,0,0,0-.13,0,.43.43,0,0,0-.45.34l-.81,3.65h-23l.06-.05h22.81l.81-3.65a.43.43,0,0,1,.45-.34A.31.31,0,0,1,107.29,156.52Z"/><path class="cls-6" d="M113.91,157l-.12,0a.44.44,0,0,0-.45.39l-.91,7.78,0-.53.86-7.3a.45.45,0,0,1,.44-.39A.34.34,0,0,1,113.91,157Z"/><path class="cls-7" d="M132.44,160.42l-.06.05H115.54a.48.48,0,0,0-.34.16.39.39,0,0,0-.06.11l-.49,1.27,0-.25.41-1.07a.41.41,0,0,1,.4-.27Z"/></g></svg>