<svg xmlns="http://www.w3.org/2000/svg" viewBox="0 0 500 500"><defs><style>.cls-1,.cls-3{fill:#ebebeb;}.cls-2{fill:#f0f0f0;}.cls-3{writing-mode:tb;text-orientation:upright;glyph-orientation-vertical:0deg;font-size:7px;}.cls-27,.cls-3{font-family:BigCaslon-Medium, Big Caslon;font-weight:500;}.cls-18,.cls-4{fill:#f5f5f5;}.cls-5{fill:#e0e0e0;}.cls-6{fill:#fafafa;}.cls-7{fill:#e6e6e6;}.cls-8,.cls-9{fill:#3182ce;}.cls-12,.cls-17,.cls-19,.cls-9{opacity:0.2;}.cls-12,.cls-17,.cls-24,.cls-26,.cls-9{isolation:isolate;}.cls-10,.cls-18,.cls-22,.cls-23{opacity:0.3;}.cls-11,.cls-12,.cls-13,.cls-14,.cls-15,.cls-21,.cls-22,.cls-26,.cls-27,.cls-28,.cls-29,.cls-30{fill:#fff;}.cls-13{opacity:0.5;}.cls-14,.cls-24,.cls-26{opacity:0.6;}.cls-15{opacity:0.7;}.cls-16,.cls-23{fill:#263238;}.cls-20{opacity:0.1;}.cls-21{opacity:0.15;}.cls-25{fill:#407bff;}.cls-27{font-size:5.89px;}.cls-28{opacity:0.75;}.cls-29{opacity:0.9;}.cls-30,.cls-31{opacity:0.4;}</style></defs><title>Slide 2</title><g id="Background_Complete" data-name="Background Complete"><rect class="cls-1" y="382.4" width="500" height="0.25"/><rect class="cls-1" x="416.78" y="398.49" width="33.12" height="0.25"/><rect class="cls-1" x="322.53" y="401.21" width="8.69" height="0.25"/><rect class="cls-1" x="396.59" y="389.21" width="19.19" height="0.25"/><rect class="cls-1" x="52.46" y="390.89" width="43.19" height="0.25"/><rect class="cls-1" x="104.56" y="390.89" width="6.33" height="0.25"/><rect class="cls-1" x="131.47" y="395.11" width="93.68" height="0.25"/><path class="cls-1" d="M237,337.8H43.91a5.71,5.71,0,0,1-5.7-5.71V60.66A5.71,5.71,0,0,1,43.91,55H237a5.71,5.71,0,0,1,5.71,5.71V332.09A5.71,5.71,0,0,1,237,337.8ZM43.91,55.2a5.46,5.46,0,0,0-5.45,5.46V332.09a5.46,5.46,0,0,0,5.45,5.46H237a5.47,5.47,0,0,0,5.46-5.46V60.66A5.47,5.47,0,0,0,237,55.2Z"/><path class="cls-1" d="M453.31,337.8H260.21a5.72,5.72,0,0,1-5.71-5.71V60.66A5.72,5.72,0,0,1,260.21,55h193.1A5.71,5.71,0,0,1,459,60.66V332.09A5.71,5.71,0,0,1,453.31,337.8ZM260.21,55.2a5.47,5.47,0,0,0-5.46,5.46V332.09a5.47,5.47,0,0,0,5.46,5.46h193.1a5.47,5.47,0,0,0,5.46-5.46V60.66a5.47,5.47,0,0,0-5.46-5.46Z"/><path class="cls-2" d="M207,127.67a11.33,11.33,0,0,0-14.59-10.86,23.36,23.36,0,0,0,.26-3.48,24,24,0,0,0-28.42-23.58,21,21,0,0,0-38.9,10.6l-.35,0A19.34,19.34,0,0,0,125,139h71v0A11.32,11.32,0,0,0,207,127.67Z"/><path class="cls-2" d="M285,178.37a5.63,5.63,0,0,0-5.63-5.63,5.82,5.82,0,0,0-1.62.24,11,11,0,0,0,.13-1.73A11.92,11.92,0,0,0,266,159.33a11.47,11.47,0,0,0-2.2.21,10.42,10.42,0,0,0-19.32,5.26h-.17a9.61,9.61,0,0,0,0,19.21h35.26A5.62,5.62,0,0,0,285,178.37Z"/><path class="cls-2" d="M409.5,123.55a3.45,3.45,0,0,0-3.45-3.45,3.65,3.65,0,0,0-1,.15,7.45,7.45,0,0,0,.08-1.06,7.3,7.3,0,0,0-7.3-7.3,7.53,7.53,0,0,0-1.35.12,6.38,6.38,0,0,0-11.83,3.23h-.11a5.89,5.89,0,0,0,0,11.77h21.6A3.46,3.46,0,0,0,409.5,123.55Z"/><text class="cls-3" transform="translate(137.58 141.75)">101010000111110101010101</text><text class="cls-3" transform="translate(145.08 141.75)">001101100110001101011111</text><text class="cls-3" transform="translate(152.58 141.75)">111110101010101011110000</text><text class="cls-3" transform="translate(160.08 141.75)">101010000111110101010101</text><text class="cls-3" transform="translate(167.58 141.75)">000101011111000000110101</text><text class="cls-3" transform="translate(175.08 141.75)">110011001101010101001100</text><rect class="cls-4" x="45.5" y="238.65" width="226.51" height="144.08"/><rect class="cls-5" x="45.5" y="238.65" width="226.51" height="9.76"/><path class="cls-6" d="M268.64,243.53a2.94,2.94,0,1,1-2.94-2.94A2.94,2.94,0,0,1,268.64,243.53Z"/><path class="cls-6" d="M258.87,243.53a2.94,2.94,0,1,1-2.94-2.94A2.95,2.95,0,0,1,258.87,243.53Z"/><path class="cls-6" d="M249.09,243.53a2.94,2.94,0,1,1-2.94-2.94A2.94,2.94,0,0,1,249.09,243.53Z"/><path class="cls-5" d="M86.46,265.34l-1.39-1.94a2.71,2.71,0,0,0-2.17-1.14H73.07a2.36,2.36,0,0,0-2,1.14l-1.17,1.94a2.36,2.36,0,0,1-2,1.14H62A2.38,2.38,0,0,0,59.57,269l1.9,32.81a2.73,2.73,0,0,0,2.68,2.56h46.47a2.38,2.38,0,0,0,2.38-2.56L111.1,269a2.72,2.72,0,0,0-2.67-2.55H88.63A2.71,2.71,0,0,1,86.46,265.34Z"/><path class="cls-7" d="M113.07,269.6H70.5a3.57,3.57,0,0,0-3.5,3.19l-2.56,28.42a2.88,2.88,0,0,0,2.92,3.19h42.58a3.58,3.58,0,0,0,3.5-3.19L116,272.79A2.88,2.88,0,0,0,113.07,269.6Z"/><path class="cls-5" d="M157.35,265.34,156,263.4a2.71,2.71,0,0,0-2.17-1.14H144a2.37,2.37,0,0,0-2,1.14l-1.17,1.94a2.36,2.36,0,0,1-2,1.14h-5.86a2.38,2.38,0,0,0-2.39,2.55l1.9,32.81A2.73,2.73,0,0,0,135,304.4h46.47a2.37,2.37,0,0,0,2.38-2.56L182,269a2.74,2.74,0,0,0-2.68-2.55H159.53A2.71,2.71,0,0,1,157.35,265.34Z"/><path class="cls-7" d="M184,269.6H141.39a3.57,3.57,0,0,0-3.5,3.19l-2.56,28.42a2.88,2.88,0,0,0,2.93,3.19h42.57a3.58,3.58,0,0,0,3.5-3.19l2.56-28.42A2.88,2.88,0,0,0,184,269.6Z"/><path class="cls-5" d="M228.25,265.34l-1.4-1.94a2.69,2.69,0,0,0-2.17-1.14h-9.83a2.37,2.37,0,0,0-2,1.14l-1.17,1.94a2.36,2.36,0,0,1-2,1.14h-5.86a2.36,2.36,0,0,0-2.38,2.55l1.89,32.81a2.75,2.75,0,0,0,2.68,2.56H252.4a2.38,2.38,0,0,0,2.39-2.56L252.89,269a2.72,2.72,0,0,0-2.68-2.55H230.42A2.69,2.69,0,0,1,228.25,265.34Z"/><path class="cls-7" d="M254.85,269.6H212.28a3.58,3.58,0,0,0-3.5,3.19l-2.56,28.42a2.88,2.88,0,0,0,2.93,3.19h42.57a3.58,3.58,0,0,0,3.5-3.19l2.56-28.42A2.88,2.88,0,0,0,254.85,269.6Z"/><path class="cls-5" d="M86.46,325.38l-1.39-1.94a2.71,2.71,0,0,0-2.17-1.14H73.07a2.36,2.36,0,0,0-2,1.14l-1.17,1.94a2.36,2.36,0,0,1-2,1.14H62a2.38,2.38,0,0,0-2.39,2.55l1.9,32.81a2.72,2.72,0,0,0,2.68,2.55h46.47a2.37,2.37,0,0,0,2.38-2.55l-1.9-32.81a2.72,2.72,0,0,0-2.67-2.55H88.63A2.71,2.71,0,0,1,86.46,325.38Z"/><path class="cls-7" d="M113.07,329.64H70.5a3.57,3.57,0,0,0-3.5,3.19l-2.56,28.42a2.87,2.87,0,0,0,2.92,3.18h42.58a3.57,3.57,0,0,0,3.5-3.18L116,332.83A2.88,2.88,0,0,0,113.07,329.64Z"/><path class="cls-5" d="M157.35,325.38,156,323.44a2.71,2.71,0,0,0-2.17-1.14H144a2.37,2.37,0,0,0-2,1.14l-1.17,1.94a2.36,2.36,0,0,1-2,1.14h-5.86a2.38,2.38,0,0,0-2.39,2.55l1.9,32.81a2.72,2.72,0,0,0,2.68,2.55h46.47a2.36,2.36,0,0,0,2.38-2.55L182,329.07a2.74,2.74,0,0,0-2.68-2.55H159.53A2.71,2.71,0,0,1,157.35,325.38Z"/><path class="cls-7" d="M184,329.64H141.39a3.57,3.57,0,0,0-3.5,3.19l-2.56,28.42a2.87,2.87,0,0,0,2.93,3.18h42.57a3.57,3.57,0,0,0,3.5-3.18l2.56-28.42A2.88,2.88,0,0,0,184,329.64Z"/><path class="cls-5" d="M228.25,325.38l-1.4-1.94a2.69,2.69,0,0,0-2.17-1.14h-9.83a2.37,2.37,0,0,0-2,1.14l-1.17,1.94a2.36,2.36,0,0,1-2,1.14h-5.86a2.36,2.36,0,0,0-2.38,2.55l1.89,32.81a2.74,2.74,0,0,0,2.68,2.55H252.4a2.38,2.38,0,0,0,2.39-2.55l-1.9-32.81a2.72,2.72,0,0,0-2.68-2.55H230.42A2.69,2.69,0,0,1,228.25,325.38Z"/><path class="cls-7" d="M254.85,329.64H212.28a3.58,3.58,0,0,0-3.5,3.19l-2.56,28.42a2.87,2.87,0,0,0,2.93,3.18h42.57a3.57,3.57,0,0,0,3.5-3.18l2.56-28.42A2.88,2.88,0,0,0,254.85,329.64Z"/><rect class="cls-7" x="374.36" y="359.16" width="78.33" height="23" rx="2.67"/><path class="cls-4" d="M445,370.66a4.83,4.83,0,1,1-4.83-4.83A4.84,4.84,0,0,1,445,370.66Z"/><path class="cls-7" d="M442.59,370.66a2.46,2.46,0,1,1-2.46-2.46A2.46,2.46,0,0,1,442.59,370.66Z"/><rect class="cls-4" x="424.27" y="367.91" width="5.5" height="5.5"/><rect class="cls-7" x="374.36" y="335.16" width="78.33" height="23" rx="2.67"/><path class="cls-4" d="M445,346.66a4.83,4.83,0,1,1-4.83-4.83A4.84,4.84,0,0,1,445,346.66Z"/><path class="cls-7" d="M442.59,346.66a2.46,2.46,0,1,1-2.46-2.46A2.46,2.46,0,0,1,442.59,346.66Z"/><rect class="cls-4" x="424.27" y="343.91" width="5.5" height="5.5"/><rect class="cls-7" x="374.36" y="311.16" width="78.33" height="23" rx="2.67"/><path class="cls-4" d="M445,322.66a4.83,4.83,0,1,1-4.83-4.83A4.84,4.84,0,0,1,445,322.66Z"/><path class="cls-7" d="M442.59,322.66a2.46,2.46,0,1,1-2.46-2.46A2.46,2.46,0,0,1,442.59,322.66Z"/><rect class="cls-4" x="424.27" y="319.91" width="5.5" height="5.5"/><rect class="cls-7" x="374.36" y="287.16" width="78.33" height="23" rx="2.67"/><path class="cls-4" d="M445,298.66a4.83,4.83,0,1,1-4.83-4.83A4.84,4.84,0,0,1,445,298.66Z"/><path class="cls-7" d="M442.59,298.66a2.46,2.46,0,1,1-2.46-2.46A2.46,2.46,0,0,1,442.59,298.66Z"/><rect class="cls-4" x="424.27" y="295.91" width="5.5" height="5.5"/><rect class="cls-7" x="374.36" y="263.16" width="78.33" height="23" rx="2.67"/><path class="cls-4" d="M445,274.66a4.83,4.83,0,1,1-4.83-4.83A4.84,4.84,0,0,1,445,274.66Z"/><path class="cls-7" d="M442.59,274.66a2.46,2.46,0,1,1-2.46-2.46A2.46,2.46,0,0,1,442.59,274.66Z"/><rect class="cls-4" x="424.27" y="271.91" width="5.5" height="5.5"/><rect class="cls-7" x="374.36" y="239.16" width="78.33" height="23" rx="2.67"/><path class="cls-4" d="M445,250.66a4.83,4.83,0,1,1-4.83-4.83A4.84,4.84,0,0,1,445,250.66Z"/><path class="cls-7" d="M442.59,250.66a2.46,2.46,0,1,1-2.46-2.46A2.46,2.46,0,0,1,442.59,250.66Z"/><rect class="cls-4" x="424.27" y="247.91" width="5.5" height="5.5"/></g><g id="Shadow"><ellipse id="_Path_" data-name="&lt;Path&gt;" class="cls-4" cx="250" cy="416.24" rx="193.89" ry="11.32"/></g><g id="Plant"><path class="cls-8" d="M63.8,360c-1.56-2.56-4.12-.33-4.12-.33.37-4.91-4.15-8.26-4.15-8.26s5.25,0,6-5-1.83-2.68-4.23-2.71-4.92,7-1.75,10.93,2.32,10.69-5,17.17a14.41,14.41,0,0,0-3.82,6c.56-6,.87-14.34-.88-19.94-3-9.51,2.69-12.07,4.34-16.83s-4.34-8.78-4.34-8.78,5.62-2.56,2.87-5.49-8.41-2.53-8.41,1.3,3.84,5.29,3.84,5.29,4.39,4.57,4.39,7-4.39,7.5-4.39,7.5,2-4.39-2-4.57-5.31,5.12-3.66,7.49,4.39.37,4.39.37a46.27,46.27,0,0,0,1.26,8.23c.41,1.37.22,6.73-.13,12.32a13.87,13.87,0,0,0-3.56-5.29c-7.32-6.48-8.17-13.22-5-17.17s.66-11-1.75-10.93-5-2.29-4.23,2.71,6,5,6,5-4.51,3.35-4.15,8.26c0,0-2.56-2.23-4.11.34-2.78,4.57,3.65,7.4,4.73,5.15,0,0,13.65,9.66,10.36,23.56L43,384.4l-.16,1.8,1.07-.46,1.21,1.79a42,42,0,0,0,.31,6.05l3.26-4.82c-3.29-13.9,10.36-23.56,10.36-23.56C60.14,367.45,66.57,364.62,63.8,360Z"/><path class="cls-9" d="M63.8,360c-1.56-2.56-4.12-.33-4.12-.33.37-4.91-4.15-8.26-4.15-8.26s5.25,0,6-5-1.83-2.68-4.23-2.71-4.92,7-1.75,10.93,2.32,10.69-5,17.17a14.41,14.41,0,0,0-3.82,6c.56-6,.87-14.34-.88-19.94-3-9.51,2.69-12.07,4.34-16.83s-4.34-8.78-4.34-8.78,5.62-2.56,2.87-5.49-8.41-2.53-8.41,1.3,3.84,5.29,3.84,5.29,4.39,4.57,4.39,7-4.39,7.5-4.39,7.5,2-4.39-2-4.57-5.31,5.12-3.66,7.49,4.39.37,4.39.37a46.27,46.27,0,0,0,1.26,8.23c.41,1.37.22,6.73-.13,12.32a13.87,13.87,0,0,0-3.56-5.29c-7.32-6.48-8.17-13.22-5-17.17s.66-11-1.75-10.93-5-2.29-4.23,2.71,6,5,6,5-4.51,3.35-4.15,8.26c0,0-2.56-2.23-4.11.34-2.78,4.57,3.65,7.4,4.73,5.15,0,0,13.65,9.66,10.36,23.56L43,384.4l-.16,1.8,1.07-.46,1.21,1.79a42,42,0,0,0,.31,6.05l3.26-4.82c-3.29-13.9,10.36-23.56,10.36-23.56C60.14,367.45,66.57,364.62,63.8,360Z"/><g class="cls-10"><path class="cls-11" d="M63.8,359.54c-1.56-2.56-4.12-.34-4.12-.34.37-4.9-4.15-8.26-4.15-8.26s5.25,0,6-5-1.83-2.67-4.23-2.71-4.92,7-1.75,10.94,2.32,10.68-5,17.16a14.44,14.44,0,0,0-3.82,6c.56-6,.87-14.35-.88-20-3-9.51,2.69-12.07,4.34-16.83s-4.34-8.78-4.34-8.78,5.62-2.56,2.87-5.48-8.41-2.53-8.41,1.29,3.84,5.29,3.84,5.29,4.39,4.57,4.39,6.95-4.39,7.5-4.39,7.5,2-4.38-2-4.57-5.31,5.12-3.66,7.5,4.39.36,4.39.36a46.33,46.33,0,0,0,1.26,8.24c.41,1.36.22,6.73-.13,12.31a13.91,13.91,0,0,0-3.56-5.28c-7.32-6.49-8.17-13.22-5-17.17s.66-11-1.75-10.93-5-2.3-4.23,2.71,6,5,6,5-4.51,3.36-4.15,8.27c0,0-2.56-2.23-4.11.33-2.78,4.57,3.65,7.41,4.73,5.16,0,0,13.65,9.66,10.36,23.56L43,383.9l-.16,1.79,1.07-.45L45.13,387a41.89,41.89,0,0,0,.31,6l3.26-4.81c-3.29-13.91,10.36-23.56,10.36-23.56C60.14,367,66.57,364.11,63.8,359.54Z"/><path class="cls-12" d="M63.8,359.54c-1.56-2.56-4.12-.34-4.12-.34.37-4.9-4.15-8.26-4.15-8.26s5.25,0,6-5-1.83-2.67-4.23-2.71-4.92,7-1.75,10.94,2.32,10.68-5,17.16a14.44,14.44,0,0,0-3.82,6c.56-6,.87-14.35-.88-20-3-9.51,2.69-12.07,4.34-16.83s-4.34-8.78-4.34-8.78,5.62-2.56,2.87-5.48-8.41-2.53-8.41,1.29,3.84,5.29,3.84,5.29,4.39,4.57,4.39,6.95-4.39,7.5-4.39,7.5,2-4.38-2-4.57-5.31,5.12-3.66,7.5,4.39.36,4.39.36a46.33,46.33,0,0,0,1.26,8.24c.41,1.36.22,6.73-.13,12.31a13.91,13.91,0,0,0-3.56-5.28c-7.32-6.49-8.17-13.22-5-17.17s.66-11-1.75-10.93-5-2.3-4.23,2.71,6,5,6,5-4.51,3.36-4.15,8.27c0,0-2.56-2.23-4.11.33-2.78,4.57,3.65,7.41,4.73,5.16,0,0,13.65,9.66,10.36,23.56L43,383.9l-.16,1.79,1.07-.45L45.13,387a41.89,41.89,0,0,0,.31,6l3.26-4.81c-3.29-13.91,10.36-23.56,10.36-23.56C60.14,367,66.57,364.11,63.8,359.54Z"/></g><polygon class="cls-8" points="61.13 419.35 29.87 419.35 26.5 385.13 64.5 385.13 61.13 419.35"/><polygon class="cls-13" points="61.1 419.35 29.85 419.35 26.48 385.13 64.47 385.13 61.1 419.35"/><rect class="cls-8" x="24.83" y="381.35" width="41.33" height="7.55"/><rect class="cls-14" x="24.81" y="381.35" width="41.33" height="7.55"/></g><g id="Folder"><path class="cls-8" d="M387.87,377.42l-1.4-1.94a2.68,2.68,0,0,0-2.17-1.13h-9.82a2.37,2.37,0,0,0-2.05,1.13l-1.17,1.94a2.35,2.35,0,0,1-2,1.14h-5.86a2.37,2.37,0,0,0-2.38,2.55l1.9,32.81a2.73,2.73,0,0,0,2.67,2.56H412a2.38,2.38,0,0,0,2.39-2.56l-1.9-32.81a2.72,2.72,0,0,0-2.68-2.55H390A2.69,2.69,0,0,1,387.87,377.42Z"/><path class="cls-13" d="M387.87,377.42l-1.4-1.94a2.68,2.68,0,0,0-2.17-1.13h-9.82a2.37,2.37,0,0,0-2.05,1.13l-1.17,1.94a2.35,2.35,0,0,1-2,1.14h-5.86a2.37,2.37,0,0,0-2.38,2.55l1.9,32.81a2.73,2.73,0,0,0,2.67,2.56H412a2.38,2.38,0,0,0,2.39-2.56l-1.9-32.81a2.72,2.72,0,0,0-2.68-2.55H390A2.69,2.69,0,0,1,387.87,377.42Z"/><path class="cls-8" d="M414.47,381.69H371.9a3.57,3.57,0,0,0-3.5,3.18l-2.56,28.42a2.88,2.88,0,0,0,2.93,3.19h42.57a3.57,3.57,0,0,0,3.5-3.19l2.56-28.42A2.87,2.87,0,0,0,414.47,381.69Z"/><path class="cls-15" d="M414.47,381.69H371.9a3.57,3.57,0,0,0-3.5,3.18l-2.56,28.42a2.88,2.88,0,0,0,2.93,3.19h42.57a3.57,3.57,0,0,0,3.5-3.19l2.56-28.42A2.87,2.87,0,0,0,414.47,381.69Z"/></g><g id="Data_Storage" data-name="Data Storage"><rect class="cls-16" x="230.12" y="366.67" width="60.76" height="42.43"/><rect class="cls-8" x="244.79" y="372.59" width="48.4" height="14.21" rx="1.65"/><rect class="cls-17" x="244.74" y="372.59" width="48.4" height="14.21" rx="1.65"/><rect class="cls-8" x="228.3" y="372.59" width="48.4" height="14.21" rx="1.65"/><path class="cls-18" d="M271.93,379.69a3,3,0,1,1-3-3A3,3,0,0,1,271.93,379.69Z"/><path class="cls-8" d="M270.46,379.69a1.52,1.52,0,1,1-1.51-1.52A1.52,1.52,0,0,1,270.46,379.69Z"/><rect class="cls-18" x="259.15" y="377.99" width="3.4" height="3.4"/><rect class="cls-8" x="244.79" y="357.75" width="48.4" height="14.21" rx="1.65"/><rect class="cls-17" x="244.74" y="357.75" width="48.4" height="14.21" rx="1.65"/><rect class="cls-8" x="228.3" y="357.75" width="48.4" height="14.21" rx="1.65"/><path class="cls-18" d="M271.93,364.85a3,3,0,1,1-3-3A3,3,0,0,1,271.93,364.85Z"/><path class="cls-8" d="M270.46,364.85a1.52,1.52,0,1,1-1.51-1.52A1.52,1.52,0,0,1,270.46,364.85Z"/><rect class="cls-18" x="259.15" y="363.15" width="3.4" height="3.4"/><rect class="cls-8" x="244.89" y="387.43" width="48.4" height="14.21" rx="1.65"/><rect class="cls-17" x="244.84" y="387.43" width="48.4" height="14.21" rx="1.65"/><rect class="cls-8" x="228.4" y="387.43" width="48.4" height="14.21" rx="1.65"/><path class="cls-18" d="M272,394.53a3,3,0,1,1-3-3A3,3,0,0,1,272,394.53Z"/><path class="cls-8" d="M270.56,394.53A1.52,1.52,0,1,1,269,393,1.52,1.52,0,0,1,270.56,394.53Z"/><rect class="cls-18" x="259.25" y="392.83" width="3.4" height="3.4"/><rect class="cls-8" x="244.55" y="402.26" width="48.4" height="14.21" rx="1.65"/><rect class="cls-17" x="244.5" y="402.26" width="48.4" height="14.21" rx="1.65"/><rect class="cls-8" x="228.06" y="402.26" width="48.4" height="14.21" rx="1.65"/><path class="cls-18" d="M271.69,409.37a3,3,0,1,1-3-3A3,3,0,0,1,271.69,409.37Z"/><path class="cls-8" d="M270.22,409.37a1.52,1.52,0,1,1-1.52-1.52A1.52,1.52,0,0,1,270.22,409.37Z"/><rect class="cls-18" x="258.9" y="407.67" width="3.4" height="3.4"/><rect class="cls-8" x="310.92" y="401.94" width="48.4" height="14.21" rx="1.65"/><rect class="cls-17" x="310.87" y="401.94" width="48.4" height="14.21" rx="1.65"/><rect class="cls-8" x="294.43" y="401.94" width="48.4" height="14.21" rx="1.65"/><path class="cls-18" d="M338.06,409.05a3,3,0,1,1-3-3A3,3,0,0,1,338.06,409.05Z"/><path class="cls-8" d="M336.59,409.05a1.52,1.52,0,1,1-1.52-1.52A1.52,1.52,0,0,1,336.59,409.05Z"/><rect class="cls-18" x="325.27" y="407.35" width="3.4" height="3.4"/><rect class="cls-8" x="310.92" y="387.1" width="48.4" height="14.21" rx="1.65"/><rect class="cls-17" x="310.87" y="387.1" width="48.4" height="14.21" rx="1.65"/><rect class="cls-8" x="294.43" y="387.1" width="48.4" height="14.21" rx="1.65"/><path class="cls-18" d="M338.06,394.21a3,3,0,1,1-3-3A3,3,0,0,1,338.06,394.21Z"/><path class="cls-8" d="M336.59,394.21a1.52,1.52,0,1,1-1.52-1.52A1.52,1.52,0,0,1,336.59,394.21Z"/><rect class="cls-18" x="325.27" y="392.51" width="3.4" height="3.4"/></g><g id="Character"><path class="cls-8" d="M71.51,159.91H195.68a0,0,0,0,1,0,0v237a2,2,0,0,1-2,2H73.53a2,2,0,0,1-2-2v-237A0,0,0,0,1,71.51,159.91Z"/><rect class="cls-8" x="188.73" y="353.15" width="8.64" height="31.49"/><rect class="cls-19" x="186.12" y="353.15" width="2.61" height="31.49" transform="translate(374.84 737.79) rotate(180)"/><rect class="cls-20" x="186.12" y="353.15" width="11.25" height="31.49"/><ellipse class="cls-8" cx="193.04" cy="368.89" rx="3.06" ry="13.51"/><path class="cls-21" d="M71.51,159.91h108a0,0,0,0,1,0,0v237a2,2,0,0,1-2,2H73.53a2,2,0,0,1-2-2v-237A0,0,0,0,1,71.51,159.91Z"/><path class="cls-19" d="M179.48,159.91h.82v239h0a.82.82,0,0,1-.82-.82Z"/><rect class="cls-8" x="67.93" y="169.8" width="99.2" height="18.35"/><rect class="cls-22" x="161.37" y="171.38" width="3.61" height="15.2"/><rect class="cls-22" x="155.17" y="171.38" width="3.61" height="15.2"/><rect class="cls-22" x="148.97" y="171.38" width="3.61" height="15.2"/><rect class="cls-22" x="142.77" y="171.38" width="3.61" height="15.2"/><rect class="cls-22" x="136.57" y="171.38" width="3.61" height="15.2"/><rect class="cls-22" x="130.37" y="171.38" width="3.61" height="15.2"/><rect class="cls-22" x="124.18" y="171.38" width="3.61" height="15.2"/><rect class="cls-22" x="117.98" y="171.38" width="3.61" height="15.2"/><rect class="cls-22" x="111.78" y="171.38" width="3.61" height="15.2"/><rect class="cls-22" x="105.58" y="171.38" width="3.61" height="15.2"/><rect class="cls-22" x="99.38" y="171.38" width="3.61" height="15.2"/><rect class="cls-22" x="93.18" y="171.38" width="3.61" height="15.2"/><rect class="cls-22" x="86.99" y="171.38" width="3.61" height="15.2"/><rect class="cls-22" x="80.79" y="171.38" width="3.61" height="15.2"/><rect class="cls-8" x="67.93" y="195.33" width="99.2" height="18.35"/><rect class="cls-8" x="67.93" y="220.85" width="99.2" height="18.35"/><rect class="cls-8" x="67.93" y="246.37" width="99.2" height="18.35"/><rect class="cls-8" x="67.93" y="271.89" width="99.2" height="18.35"/><rect class="cls-8" x="67.93" y="297.42" width="99.2" height="18.35"/><rect class="cls-8" x="67.93" y="322.94" width="99.2" height="18.35"/><rect class="cls-8" x="67.93" y="348.46" width="99.2" height="18.35"/><rect class="cls-19" x="167.13" y="169.8" width="2.46" height="18.35" transform="translate(336.73 357.96) rotate(180)"/><rect class="cls-19" x="167.13" y="195.33" width="2.46" height="18.35" transform="translate(336.73 409) rotate(180)"/><rect class="cls-19" x="167.13" y="220.85" width="2.46" height="18.35" transform="translate(336.73 460.05) rotate(180)"/><rect class="cls-19" x="167.13" y="246.37" width="2.46" height="18.35" transform="translate(336.73 511.09) rotate(180)"/><rect class="cls-19" x="167.13" y="271.89" width="2.46" height="18.35" transform="translate(336.73 562.14) rotate(180)"/><rect class="cls-19" x="167.13" y="297.42" width="2.46" height="18.35" transform="translate(336.73 613.18) rotate(180)"/><rect class="cls-19" x="167.13" y="322.94" width="2.46" height="18.35" transform="translate(336.73 664.23) rotate(180)"/><rect class="cls-19" x="167.13" y="348.46" width="2.46" height="18.35" transform="translate(336.73 715.27) rotate(180)"/><path class="cls-11" d="M73.22,175.6a2.32,2.32,0,1,0,2.32-2.32A2.32,2.32,0,0,0,73.22,175.6Z"/><path class="cls-23" d="M73.22,182.36A2.32,2.32,0,1,0,75.54,180,2.32,2.32,0,0,0,73.22,182.36Z"/><rect class="cls-22" x="161.37" y="196.9" width="3.61" height="15.2"/><rect class="cls-22" x="155.17" y="196.9" width="3.61" height="15.2"/><rect class="cls-22" x="148.97" y="196.9" width="3.61" height="15.2"/><rect class="cls-22" x="142.77" y="196.9" width="3.61" height="15.2"/><rect class="cls-22" x="136.57" y="196.9" width="3.61" height="15.2"/><rect class="cls-22" x="130.37" y="196.9" width="3.61" height="15.2"/><rect class="cls-22" x="124.18" y="196.9" width="3.61" height="15.2"/><rect class="cls-22" x="117.98" y="196.9" width="3.61" height="15.2"/><rect class="cls-22" x="111.78" y="196.9" width="3.61" height="15.2"/><rect class="cls-22" x="105.58" y="196.9" width="3.61" height="15.2"/><rect class="cls-22" x="99.38" y="196.9" width="3.61" height="15.2"/><rect class="cls-22" x="93.18" y="196.9" width="3.61" height="15.2"/><rect class="cls-22" x="86.99" y="196.9" width="3.61" height="15.2"/><rect class="cls-22" x="80.79" y="196.9" width="3.61" height="15.2"/><path class="cls-11" d="M73.22,201.12a2.32,2.32,0,1,0,2.32-2.32A2.32,2.32,0,0,0,73.22,201.12Z"/><path class="cls-23" d="M73.22,207.88a2.32,2.32,0,1,0,2.32-2.32A2.32,2.32,0,0,0,73.22,207.88Z"/><rect class="cls-22" x="161.37" y="222.42" width="3.61" height="15.2"/><rect class="cls-22" x="155.17" y="222.42" width="3.61" height="15.2"/><rect class="cls-22" x="148.97" y="222.42" width="3.61" height="15.2"/><rect class="cls-22" x="142.77" y="222.42" width="3.61" height="15.2"/><rect class="cls-22" x="136.57" y="222.42" width="3.61" height="15.2"/><rect class="cls-22" x="130.37" y="222.42" width="3.61" height="15.2"/><rect class="cls-22" x="124.18" y="222.42" width="3.61" height="15.2"/><rect class="cls-22" x="117.98" y="222.42" width="3.61" height="15.2"/><rect class="cls-22" x="111.78" y="222.42" width="3.61" height="15.2"/><rect class="cls-22" x="105.58" y="222.42" width="3.61" height="15.2"/><rect class="cls-22" x="99.38" y="222.42" width="3.61" height="15.2"/><rect class="cls-22" x="93.18" y="222.42" width="3.61" height="15.2"/><rect class="cls-22" x="86.99" y="222.42" width="3.61" height="15.2"/><rect class="cls-22" x="80.79" y="222.42" width="3.61" height="15.2"/><path class="cls-11" d="M73.22,226.64a2.32,2.32,0,1,0,2.32-2.32A2.32,2.32,0,0,0,73.22,226.64Z"/><path class="cls-23" d="M73.22,233.41a2.32,2.32,0,1,0,2.32-2.33A2.32,2.32,0,0,0,73.22,233.41Z"/><rect class="cls-22" x="161.37" y="247.95" width="3.61" height="15.2"/><rect class="cls-22" x="155.17" y="247.95" width="3.61" height="15.2"/><rect class="cls-22" x="148.97" y="247.95" width="3.61" height="15.2"/><rect class="cls-22" x="142.77" y="247.95" width="3.61" height="15.2"/><rect class="cls-22" x="136.57" y="247.95" width="3.61" height="15.2"/><rect class="cls-22" x="130.37" y="247.95" width="3.61" height="15.2"/><rect class="cls-22" x="124.18" y="247.95" width="3.61" height="15.2"/><rect class="cls-22" x="117.98" y="247.95" width="3.61" height="15.2"/><rect class="cls-22" x="111.78" y="247.95" width="3.61" height="15.2"/><rect class="cls-22" x="105.58" y="247.95" width="3.61" height="15.2"/><rect class="cls-22" x="99.38" y="247.95" width="3.61" height="15.2"/><rect class="cls-22" x="93.18" y="247.95" width="3.61" height="15.2"/><rect class="cls-22" x="86.99" y="247.95" width="3.61" height="15.2"/><rect class="cls-22" x="80.79" y="247.95" width="3.61" height="15.2"/><path class="cls-11" d="M73.22,252.16a2.32,2.32,0,1,0,2.32-2.32A2.32,2.32,0,0,0,73.22,252.16Z"/><path class="cls-23" d="M73.22,258.93a2.32,2.32,0,1,0,2.32-2.32A2.32,2.32,0,0,0,73.22,258.93Z"/><rect class="cls-22" x="161.37" y="273.47" width="3.61" height="15.2"/><rect class="cls-22" x="155.17" y="273.47" width="3.61" height="15.2"/><rect class="cls-22" x="148.97" y="273.47" width="3.61" height="15.2"/><rect class="cls-22" x="142.77" y="273.47" width="3.61" height="15.2"/><rect class="cls-22" x="136.57" y="273.47" width="3.61" height="15.2"/><rect class="cls-22" x="130.37" y="273.47" width="3.61" height="15.2"/><rect class="cls-22" x="124.18" y="273.47" width="3.61" height="15.2"/><rect class="cls-22" x="117.98" y="273.47" width="3.61" height="15.2"/><rect class="cls-22" x="111.78" y="273.47" width="3.61" height="15.2"/><rect class="cls-22" x="105.58" y="273.47" width="3.61" height="15.2"/><rect class="cls-22" x="99.38" y="273.47" width="3.61" height="15.2"/><rect class="cls-22" x="93.18" y="273.47" width="3.61" height="15.2"/><rect class="cls-22" x="86.99" y="273.47" width="3.61" height="15.2"/><rect class="cls-22" x="80.79" y="273.47" width="3.61" height="15.2"/><path class="cls-11" d="M73.22,277.69a2.32,2.32,0,1,0,2.32-2.32A2.32,2.32,0,0,0,73.22,277.69Z"/><path class="cls-23" d="M73.22,284.45a2.32,2.32,0,1,0,2.32-2.32A2.32,2.32,0,0,0,73.22,284.45Z"/><rect class="cls-22" x="161.37" y="298.99" width="3.61" height="15.2"/><rect class="cls-22" x="155.17" y="298.99" width="3.61" height="15.2"/><rect class="cls-22" x="148.97" y="298.99" width="3.61" height="15.2"/><rect class="cls-22" x="142.77" y="298.99" width="3.61" height="15.2"/><rect class="cls-22" x="136.57" y="298.99" width="3.61" height="15.2"/><rect class="cls-22" x="130.37" y="298.99" width="3.61" height="15.2"/><rect class="cls-22" x="124.18" y="298.99" width="3.61" height="15.2"/><rect class="cls-22" x="117.98" y="298.99" width="3.61" height="15.2"/><rect class="cls-22" x="111.78" y="298.99" width="3.61" height="15.2"/><rect class="cls-22" x="105.58" y="298.99" width="3.61" height="15.2"/><rect class="cls-22" x="99.38" y="298.99" width="3.61" height="15.2"/><rect class="cls-22" x="93.18" y="298.99" width="3.61" height="15.2"/><rect class="cls-22" x="86.99" y="298.99" width="3.61" height="15.2"/><rect class="cls-22" x="80.79" y="298.99" width="3.61" height="15.2"/><path class="cls-11" d="M73.22,303.21a2.32,2.32,0,1,0,2.32-2.32A2.32,2.32,0,0,0,73.22,303.21Z"/><path class="cls-23" d="M73.22,310a2.32,2.32,0,1,0,2.32-2.32A2.32,2.32,0,0,0,73.22,310Z"/><rect class="cls-22" x="161.37" y="324.51" width="3.61" height="15.2"/><rect class="cls-22" x="155.17" y="324.51" width="3.61" height="15.2"/><rect class="cls-22" x="148.97" y="324.51" width="3.61" height="15.2"/><rect class="cls-22" x="142.77" y="324.51" width="3.61" height="15.2"/><rect class="cls-22" x="136.57" y="324.51" width="3.61" height="15.2"/><rect class="cls-22" x="130.37" y="324.51" width="3.61" height="15.2"/><rect class="cls-22" x="124.18" y="324.51" width="3.61" height="15.2"/><rect class="cls-22" x="117.98" y="324.51" width="3.61" height="15.2"/><rect class="cls-22" x="111.78" y="324.51" width="3.61" height="15.2"/><rect class="cls-22" x="105.58" y="324.51" width="3.61" height="15.2"/><rect class="cls-22" x="99.38" y="324.51" width="3.61" height="15.2"/><rect class="cls-22" x="93.18" y="324.51" width="3.61" height="15.2"/><rect class="cls-22" x="86.99" y="324.51" width="3.61" height="15.2"/><rect class="cls-22" x="80.79" y="324.51" width="3.61" height="15.2"/><path class="cls-11" d="M73.22,328.73a2.32,2.32,0,1,0,2.32-2.32A2.32,2.32,0,0,0,73.22,328.73Z"/><path class="cls-23" d="M73.22,335.5a2.32,2.32,0,1,0,2.32-2.33A2.32,2.32,0,0,0,73.22,335.5Z"/><rect class="cls-22" x="161.37" y="350.04" width="3.61" height="15.2"/><rect class="cls-22" x="155.17" y="350.04" width="3.61" height="15.2"/><rect class="cls-22" x="148.97" y="350.04" width="3.61" height="15.2"/><rect class="cls-22" x="142.77" y="350.04" width="3.61" height="15.2"/><rect class="cls-22" x="136.57" y="350.04" width="3.61" height="15.2"/><rect class="cls-22" x="130.37" y="350.04" width="3.61" height="15.2"/><rect class="cls-22" x="124.18" y="350.04" width="3.61" height="15.2"/><rect class="cls-22" x="117.98" y="350.04" width="3.61" height="15.2"/><rect class="cls-22" x="111.78" y="350.04" width="3.61" height="15.2"/><rect class="cls-22" x="105.58" y="350.04" width="3.61" height="15.2"/><rect class="cls-22" x="99.38" y="350.04" width="3.61" height="15.2"/><rect class="cls-22" x="93.18" y="350.04" width="3.61" height="15.2"/><rect class="cls-22" x="86.99" y="350.04" width="3.61" height="15.2"/><rect class="cls-22" x="80.79" y="350.04" width="3.61" height="15.2"/><path class="cls-11" d="M73.22,354.25a2.32,2.32,0,1,0,2.32-2.32A2.32,2.32,0,0,0,73.22,354.25Z"/><path class="cls-23" d="M73.22,361a2.32,2.32,0,1,0,2.32-2.32A2.32,2.32,0,0,0,73.22,361Z"/><path class="cls-8" d="M145.74,99.11v6.29l-3.72.92a14.53,14.53,0,0,1-1.28,3.07l2,3.28-4.44,4.45-3.29-2a14.32,14.32,0,0,1-3.07,1.28l-.92,3.71h-6.29l-.92-3.71a14.32,14.32,0,0,1-3.07-1.28l-3.29,2L113,112.67l2-3.28a14.5,14.5,0,0,1-1.27-3.07L110,105.4V99.11l3.72-.93A15,15,0,0,1,115,95.12l-2-3.29,4.44-4.45,3.29,2a13.8,13.8,0,0,1,3.07-1.27l.92-3.72H131l.92,3.72A13.8,13.8,0,0,1,135,89.36l3.29-2,4.44,4.45-2,3.29A14.45,14.45,0,0,1,142,98.18Zm-17.89-2.88a6,6,0,1,0,6,6A6,6,0,0,0,127.85,96.23Z"/><path class="cls-8" d="M163.59,115.23l-1.33,3.22-2.1-.32a7.62,7.62,0,0,1-1.3,1.3l.31,2.1L156,122.87l-1.26-1.71a8.09,8.09,0,0,1-1.84,0l-1.26,1.71-3.22-1.34.32-2.09a7.67,7.67,0,0,1-1.3-1.31l-2.1.32L144,115.23l1.71-1.26a8.09,8.09,0,0,1,0-1.84L144,110.87l1.34-3.22,2.1.31a8,8,0,0,1,1.3-1.3l-.32-2.1,3.22-1.33,1.26,1.71a8.09,8.09,0,0,1,1.84,0l1.26-1.71,3.22,1.33-.31,2.1a8.88,8.88,0,0,1,1.3,1.3l2.1-.31,1.33,3.22-1.71,1.26a8.08,8.08,0,0,1,0,1.84Z"/><path class="cls-22" d="M163.59,115.23l-1.33,3.22-2.1-.32a7.62,7.62,0,0,1-1.3,1.3l.31,2.1L156,122.87l-1.26-1.71a8.09,8.09,0,0,1-1.84,0l-1.26,1.71-3.22-1.34.32-2.09a7.67,7.67,0,0,1-1.3-1.31l-2.1.32L144,115.23l1.71-1.26a8.09,8.09,0,0,1,0-1.84L144,110.87l1.34-3.22,2.1.31a8,8,0,0,1,1.3-1.3l-.32-2.1,3.22-1.33,1.26,1.71a8.09,8.09,0,0,1,1.84,0l1.26-1.71,3.22,1.33-.31,2.1a8.88,8.88,0,0,1,1.3,1.3l2.1-.31,1.33,3.22-1.71,1.26a8.08,8.08,0,0,1,0,1.84Z"/><path class="cls-8" d="M175,141.2H98.17a3.89,3.89,0,0,1-3.89-3.88h0a3.9,3.9,0,0,1,3.89-3.88H175a3.89,3.89,0,0,1,3.88,3.88h0A3.88,3.88,0,0,1,175,141.2Z"/><path class="cls-11" d="M98.17,140.28a3,3,0,1,1,0-5.92h27.14a3,3,0,1,1,0,5.92Z"/><polygon class="cls-8" points="131.63 145.97 136.57 150.91 141.52 145.97 131.63 145.97"/></g><g id="Button"><path class="cls-8" d="M183.92,158.16a4.62,4.62,0,1,1,4.62-4.62A4.63,4.63,0,0,1,183.92,158.16Z"/><path class="cls-8" d="M183.92,175.93h-.09a24.77,24.77,0,0,1-12.31-3.47L174,168a19.71,19.71,0,0,0,9.8,2.76Zm12.31-3.7-2.53-4.31a19.75,19.75,0,0,0,7.16-7.22l4.34,2.5A24.81,24.81,0,0,1,196.23,172.23Zm-33.72-8.95A24.65,24.65,0,0,1,159.2,151h5a19.59,19.59,0,0,0,2.64,9.8Zm41-12.39a19.55,19.55,0,0,0-2.66-9.79l4.32-2.52a24.57,24.57,0,0,1,3.34,12.3Zm-36.64-9.72-4.33-2.5a24.76,24.76,0,0,1,9-9L174,134A19.8,19.8,0,0,0,166.82,141.17Zm26.78-7.24a19.85,19.85,0,0,0-9.77-2.8l-.05-5.2h.05a24.82,24.82,0,0,1,12.26,3.47Z"/><g class="cls-24"><path class="cls-11" d="M183.88,175.89h-.1a24.71,24.71,0,0,1-12.3-3.47L174,168a19.81,19.81,0,0,0,9.8,2.75Zm12.3-3.7-2.52-4.31a19.88,19.88,0,0,0,7.16-7.21l4.33,2.49A24.81,24.81,0,0,1,196.18,172.19Zm-33.71-8.94a24.69,24.69,0,0,1-3.32-12.31h5a19.69,19.69,0,0,0,2.64,9.8Zm40.94-12.39a19.58,19.58,0,0,0-2.66-9.8l4.32-2.52a24.6,24.6,0,0,1,3.34,12.3Zm-36.64-9.73-4.33-2.5a24.92,24.92,0,0,1,9-9l2.52,4.33A19.72,19.72,0,0,0,166.77,141.13Zm26.78-7.24a19.85,19.85,0,0,0-9.77-2.8l0-5.2h0a24.74,24.74,0,0,1,12.27,3.48Z"/></g></g><g id="Data_Points" data-name="Data Points"><path class="cls-25" d="M203,194.18a6.16,6.16,0,1,1,6.15-6.16A6.16,6.16,0,0,1,203,194.18Z"/><path class="cls-13" d="M203,194.18a6.16,6.16,0,1,1,6.15-6.16A6.16,6.16,0,0,1,203,194.18Z"/><circle class="cls-8" cx="205.02" cy="188.02" r="10.13" transform="translate(-25.08 344.36) rotate(-76.72)"/><rect class="cls-8" x="214" y="187" width="168" height="2"/><path class="cls-8" d="M206,179h-2V167a1,1,0,0,1,.29-.71l61.17-61a1,1,0,0,1,.71-.29H322v2H266.58L206,167.41Z"/><path class="cls-8" d="M351,280H276a1,1,0,0,1-.71-.29l-71-71A1,1,0,0,1,204,208V198h2v9.59L276.41,278H351Z"/><path class="cls-8" d="M301,216H260.83a1,1,0,0,1-.7-.29l-27-26.83,1.41-1.42L261.25,214H301Z"/><path class="cls-8" d="M273.21,188.79l-1.42-1.41,26.91-27.09a1.05,1.05,0,0,1,.71-.29H340v2H299.83Z"/><path class="cls-8" d="M426,138H267.23a1,1,0,0,1-.71-.3l-15.94-16.1,1.42-1.41L267.65,136H426Z"/><path class="cls-8" d="M284.37,106.71,283,105.29l26-26a1,1,0,0,1,.71-.29H393v2H310.08Z"/><path class="cls-8" d="M300.63,329l-40.34-40.33A1,1,0,0,1,260,288V264h2v23.59l40,40Z"/><path class="cls-8" d="M291.54,279.39,290.12,278l26.52-26.69a1.05,1.05,0,0,1,.71-.29H418v2H317.77Z"/><path class="cls-8" d="M385,308H340.17a1,1,0,0,1-.71-.29l-28.17-28.17,1.42-1.41L340.58,306H385Z"/><circle class="cls-8" cx="393" cy="80" r="4.58"/><path class="cls-8" d="M331,116.58A10.58,10.58,0,1,1,341.58,106,10.58,10.58,0,0,1,331,116.58Zm0-19.16a8.58,8.58,0,1,0,8.58,8.58A8.59,8.59,0,0,0,331,97.42Z"/><circle class="cls-8" cx="331" cy="106" r="4.58"/><path class="cls-8" d="M430.58,137.17a4.58,4.58,0,1,1-4.58-4.59A4.58,4.58,0,0,1,430.58,137.17Z"/><circle class="cls-8" cx="340" cy="161" r="4.58"/><path class="cls-8" d="M391,198.58A10.58,10.58,0,1,1,401.58,188,10.58,10.58,0,0,1,391,198.58Zm0-19.16a8.58,8.58,0,1,0,8.58,8.58A8.59,8.59,0,0,0,391,179.42Z"/><circle class="cls-8" cx="391" cy="188" r="4.58"/><circle class="cls-8" cx="301" cy="215" r="4.58"/><circle class="cls-8" cx="418" cy="252" r="4.58"/><path class="cls-8" d="M360,289.42a10.59,10.59,0,1,1,10.58-10.59A10.59,10.59,0,0,1,360,289.42Zm0-19.17a8.59,8.59,0,1,0,8.58,8.58A8.59,8.59,0,0,0,360,270.25Z"/><path class="cls-8" d="M364.58,278.83a4.58,4.58,0,1,1-4.58-4.58A4.59,4.59,0,0,1,364.58,278.83Z"/><circle class="cls-8" cx="385" cy="307" r="4.58"/><path class="cls-8" d="M305.92,328.33a4.59,4.59,0,1,1-4.59-4.58A4.6,4.6,0,0,1,305.92,328.33Z"/><rect class="cls-8" x="403.56" y="67.75" width="19.72" height="25.75" rx="1.51"/><rect class="cls-26" x="403.56" y="67.75" width="19.72" height="25.75" rx="1.51"/><rect class="cls-8" x="406.5" y="71.41" width="13.83" height="1.39"/><rect class="cls-8" x="406.5" y="73.84" width="13.83" height="1.39"/><rect class="cls-8" x="406.5" y="76.28" width="13.83" height="1.39"/><rect class="cls-8" x="406.5" y="78.71" width="13.83" height="1.39"/><rect class="cls-8" x="406.5" y="81.15" width="13.83" height="1.39"/><rect class="cls-8" x="406.5" y="83.59" width="13.83" height="1.39"/><rect class="cls-8" x="406.5" y="86.02" width="13.83" height="1.39"/><rect class="cls-8" x="406.5" y="88.46" width="8.96" height="1.39"/><rect class="cls-8" x="433.82" y="117.12" width="19.72" height="25.75" rx="1.51"/><rect class="cls-26" x="433.82" y="117.12" width="19.72" height="25.75" rx="1.51"/><rect class="cls-8" x="436.76" y="120.78" width="13.83" height="1.39"/><rect class="cls-8" x="436.76" y="123.21" width="13.83" height="1.39"/><rect class="cls-8" x="436.76" y="125.65" width="13.83" height="1.39"/><rect class="cls-8" x="436.76" y="128.09" width="13.83" height="1.39"/><rect class="cls-8" x="436.76" y="130.52" width="13.83" height="1.39"/><rect class="cls-8" x="436.76" y="132.96" width="13.83" height="1.39"/><rect class="cls-8" x="436.76" y="135.39" width="13.83" height="1.39"/><rect class="cls-8" x="436.76" y="137.83" width="8.96" height="1.39"/><rect class="cls-8" x="405.94" y="164.45" width="46" height="46" rx="1.54"/><circle class="cls-13" cx="428.94" cy="187.45" r="15.5"/><path class="cls-15" d="M428.94,187.45h15.5A15.48,15.48,0,1,1,436.69,174Z"/><circle class="cls-8" cx="428.94" cy="187.45" r="12"/><circle class="cls-22" cx="428.94" cy="187.45" r="12"/><text class="cls-27" transform="translate(423.71 189.79)">80%</text><rect class="cls-8" x="373.85" y="261.5" width="35" height="35" rx="1.17"/><rect class="cls-13" x="398" y="290.63" width="4.5" height="2.29"/><rect class="cls-11" x="398" y="267.78" width="4.5" height="2.29"/><rect class="cls-11" x="398" y="271.59" width="4.5" height="2.29"/><rect class="cls-28" x="398" y="275.4" width="4.5" height="2.29"/><rect class="cls-13" x="398" y="279.2" width="4.5" height="2.29"/><rect class="cls-13" x="398" y="283.01" width="4.5" height="2.29"/><rect class="cls-13" x="398" y="286.82" width="4.5" height="2.29"/><rect class="cls-13" x="391.88" y="290.63" width="4.5" height="2.29"/><rect class="cls-11" x="391.88" y="279.2" width="4.5" height="2.29"/><rect class="cls-28" x="391.88" y="283.01" width="4.5" height="2.29"/><rect class="cls-13" x="391.88" y="286.82" width="4.5" height="2.29"/><rect class="cls-13" x="385.75" y="290.63" width="4.5" height="2.29"/><rect class="cls-11" x="385.75" y="275.4" width="4.5" height="2.29"/><rect class="cls-28" x="385.75" y="279.2" width="4.5" height="2.29"/><rect class="cls-13" x="385.75" y="283.01" width="4.5" height="2.29"/><rect class="cls-13" x="385.75" y="286.82" width="4.5" height="2.29"/><rect class="cls-13" x="379.63" y="290.63" width="4.5" height="2.29"/><rect class="cls-11" x="379.63" y="283.01" width="4.5" height="2.29"/><rect class="cls-28" x="379.63" y="286.82" width="4.5" height="2.29"/><rect class="cls-8" x="347.08" y="93.08" width="35" height="35" rx="1.17"/><path class="cls-29" d="M367.11,106.78v-2.19l-1.13-.1a5.66,5.66,0,0,0-.84-2l.72-.88L364.32,100l-.88.73a5.73,5.73,0,0,0-2-.84l-.11-1.13h-2.19l-.1,1.13a5.78,5.78,0,0,0-2,.84l-.87-.73-1.55,1.55.72.88a6,6,0,0,0-.84,2l-1.12.1v2.19l1.12.11a6.13,6.13,0,0,0,.84,2l-.72.88,1.55,1.55.87-.73a5.78,5.78,0,0,0,2,.84l.1,1.13h2.19l.11-1.13a5.73,5.73,0,0,0,2-.84l.88.73,1.54-1.55-.72-.88a5.73,5.73,0,0,0,.84-2Zm-6.89,1.87a3,3,0,1,1,3-3A3,3,0,0,1,360.22,108.65Z"/><path class="cls-14" d="M376,113v-1.72l-.88-.08a4.66,4.66,0,0,0-.66-1.59l.57-.68-1.21-1.22-.69.57a4.61,4.61,0,0,0-1.58-.66l-.09-.88h-1.71l-.09.88a4.61,4.61,0,0,0-1.58.66l-.69-.57-1.21,1.22.57.68a4.47,4.47,0,0,0-.66,1.59l-.89.08V113l.89.08a4.42,4.42,0,0,0,.66,1.58l-.57.69,1.21,1.21.69-.56a4.59,4.59,0,0,0,1.58.65l.09.89h1.71l.09-.89a4.59,4.59,0,0,0,1.58-.65l.69.56,1.21-1.21-.57-.69a4.61,4.61,0,0,0,.66-1.58Zm-5.4,1.46a2.33,2.33,0,1,1,2.33-2.32A2.32,2.32,0,0,1,370.58,114.43Z"/><path class="cls-30" d="M367.11,117.84V116.4l-.74-.07a3.89,3.89,0,0,0-.56-1.34l.48-.57-1-1-.58.48a3.59,3.59,0,0,0-1.33-.56l-.07-.74h-1.44l-.07.74a3.73,3.73,0,0,0-1.33.56l-.57-.48-1,1,.47.57a3.87,3.87,0,0,0-.55,1.34l-.74.07v1.44l.74.07a3.9,3.9,0,0,0,.55,1.33l-.47.57,1,1,.57-.47a3.9,3.9,0,0,0,1.33.55l.07.74h1.44l.07-.74a3.74,3.74,0,0,0,1.33-.55l.58.47,1-1-.48-.57a3.92,3.92,0,0,0,.56-1.33Zm-4.54,1.23a1.95,1.95,0,1,1,1.95-1.95A2,2,0,0,1,362.57,119.07Z"/><rect class="cls-8" x="347.94" y="150.75" width="30.75" height="20"/><rect class="cls-26" x="347.94" y="150.75" width="30.75" height="20"/><rect class="cls-8" x="349.06" y="154.5" width="28.5" height="15.25"/><rect class="cls-11" x="351.38" y="156.78" width="21.08" height="0.66"/><rect class="cls-11" x="351.38" y="158.79" width="10.12" height="0.66"/><rect class="cls-11" x="351.38" y="160.8" width="12.74" height="0.66"/><rect class="cls-11" x="351.38" y="162.81" width="4.49" height="0.66"/><rect class="cls-11" x="351.38" y="164.82" width="2.91" height="0.66"/><g class="cls-31"><rect class="cls-11" x="212" y="187" width="170" height="2"/><path class="cls-11" d="M206,179h-2V167a1,1,0,0,1,.29-.71l61.17-61a1,1,0,0,1,.71-.29H322v2H266.58L206,167.41Z"/><path class="cls-11" d="M351,280H276a1,1,0,0,1-.71-.29l-71-71A1,1,0,0,1,204,208V198h2v9.59L276.41,278H351Z"/><path class="cls-11" d="M301,216H260.83a1,1,0,0,1-.7-.29l-27-26.83,1.41-1.42L261.25,214H301Z"/><path class="cls-11" d="M273.21,188.79l-1.42-1.41,26.91-27.09a1.05,1.05,0,0,1,.71-.29H340v2H299.83Z"/><path class="cls-11" d="M426,138H267.23a1,1,0,0,1-.71-.3l-15.94-16.1,1.42-1.41L267.65,136H426Z"/><path class="cls-11" d="M284.37,106.71,283,105.29l26-26a1,1,0,0,1,.71-.29H393v2H310.08Z"/><path class="cls-11" d="M300.63,329l-40.34-40.33A1,1,0,0,1,260,288V264h2v23.59l40,40Z"/><path class="cls-11" d="M291.54,279.39,290.12,278l26.52-26.69a1.05,1.05,0,0,1,.71-.29H418v2H317.77Z"/><path class="cls-11" d="M385,308H340.17a1,1,0,0,1-.71-.29l-28.17-28.17,1.42-1.41L340.58,306H385Z"/><circle class="cls-11" cx="393" cy="80.11" r="4.58"/><path class="cls-11" d="M331,116.58A10.58,10.58,0,1,1,341.58,106,10.58,10.58,0,0,1,331,116.58Zm0-19.16a8.58,8.58,0,1,0,8.58,8.58A8.59,8.59,0,0,0,331,97.42Z"/><path class="cls-11" d="M430.58,137.17a4.58,4.58,0,1,1-4.58-4.59A4.58,4.58,0,0,1,430.58,137.17Z"/><circle class="cls-11" cx="340" cy="161" r="4.58"/><path class="cls-11" d="M391,198.58A10.58,10.58,0,1,1,401.58,188,10.58,10.58,0,0,1,391,198.58Zm0-19.16a8.58,8.58,0,1,0,8.58,8.58A8.59,8.59,0,0,0,391,179.42Z"/><circle class="cls-11" cx="301" cy="215" r="4.58"/><circle class="cls-11" cx="418" cy="252" r="4.58"/><path class="cls-11" d="M360,289.42a10.59,10.59,0,1,1,10.58-10.59A10.59,10.59,0,0,1,360,289.42Zm0-19.17a8.59,8.59,0,1,0,8.58,8.58A8.59,8.59,0,0,0,360,270.25Z"/><circle class="cls-11" cx="385" cy="307" r="4.58"/><path class="cls-11" d="M305.92,328.33a4.59,4.59,0,1,1-4.59-4.58A4.6,4.6,0,0,1,305.92,328.33Z"/><path class="cls-11" d="M205,199.65A11.63,11.63,0,1,1,216.65,188,11.63,11.63,0,0,1,205,199.65Zm0-20.26a8.63,8.63,0,1,0,8.63,8.63A8.64,8.64,0,0,0,205,179.39Z"/></g><rect class="cls-8" x="393.47" y="301.58" width="30.75" height="20"/><rect class="cls-26" x="393.47" y="301.58" width="30.75" height="20"/><rect class="cls-8" x="394.6" y="305.33" width="28.5" height="15.25"/><rect class="cls-11" x="396.92" y="307.61" width="21.08" height="0.66"/><rect class="cls-11" x="396.92" y="309.62" width="10.12" height="0.66"/><rect class="cls-11" x="396.92" y="311.63" width="12.74" height="0.66"/><rect class="cls-11" x="396.92" y="313.64" width="4.49" height="0.66"/><rect class="cls-11" x="396.92" y="315.65" width="2.91" height="0.66"/><rect class="cls-8" x="308.77" y="203.12" width="19.72" height="25.75" rx="1.51"/><rect class="cls-26" x="308.77" y="203.12" width="19.72" height="25.75" rx="1.51"/><rect class="cls-8" x="311.71" y="206.78" width="13.83" height="1.39"/><rect class="cls-8" x="311.71" y="209.21" width="13.83" height="1.39"/><rect class="cls-8" x="311.71" y="211.65" width="13.83" height="1.39"/><rect class="cls-8" x="311.71" y="214.09" width="13.83" height="1.39"/><rect class="cls-8" x="311.71" y="216.52" width="13.83" height="1.39"/><rect class="cls-8" x="311.71" y="218.96" width="13.83" height="1.39"/><rect class="cls-8" x="311.71" y="221.39" width="13.83" height="1.39"/><rect class="cls-8" x="311.71" y="223.83" width="8.96" height="1.39"/><rect class="cls-8" x="425.44" y="236.57" width="19.72" height="25.75" rx="1.51"/><rect class="cls-26" x="425.44" y="236.57" width="19.72" height="25.75" rx="1.51"/><rect class="cls-8" x="428.38" y="240.22" width="13.83" height="1.39"/><rect class="cls-8" x="428.38" y="242.66" width="13.83" height="1.39"/><rect class="cls-8" x="428.38" y="245.1" width="13.83" height="1.39"/><rect class="cls-8" x="428.38" y="247.53" width="13.83" height="1.39"/><rect class="cls-8" x="428.38" y="249.97" width="13.83" height="1.39"/><rect class="cls-8" x="428.38" y="252.4" width="13.83" height="1.39"/><rect class="cls-8" x="428.38" y="254.84" width="13.83" height="1.39"/><rect class="cls-8" x="428.38" y="257.27" width="8.96" height="1.39"/><rect class="cls-8" x="312.67" y="315.46" width="19.72" height="25.75" rx="1.51"/><rect class="cls-26" x="312.67" y="315.46" width="19.72" height="25.75" rx="1.51"/><rect class="cls-8" x="315.61" y="319.11" width="13.83" height="1.39"/><rect class="cls-8" x="315.61" y="321.55" width="13.83" height="1.39"/><rect class="cls-8" x="315.61" y="323.98" width="13.83" height="1.39"/><rect class="cls-8" x="315.61" y="326.42" width="13.83" height="1.39"/><rect class="cls-8" x="315.61" y="328.86" width="13.83" height="1.39"/><rect class="cls-8" x="315.61" y="331.29" width="13.83" height="1.39"/><rect class="cls-8" x="315.61" y="333.73" width="13.83" height="1.39"/><rect class="cls-8" x="315.61" y="336.16" width="8.96" height="1.39"/></g></svg>