<?xml version="1.0" encoding="utf-8"?>
<svg id="master-artboard" viewBox="0 0 927.06298828125 776.5751342773438" version="1.1" xmlns="http://www.w3.org/2000/svg" x="0px" y="0px" style="enable-background:new 0 0 336 235.2;" width="927.06298828125px" height="776.5751342773438px"><rect id="ee-background" x="0" y="0" width="927.06298828125" height="776.5751342773438" style="fill: white; fill-opacity: 0; pointer-events: none;"/><g transform="matrix(1.8666666746139526, 0, 0, 1.8666666746139526, -277.7730407714844, -89.22149848937988)"><title>Slide 3</title><g id="Background_Complete" data-name="Background Complete"><path d="M 598.1599731445312 283.2799987792969 L 604.2000122070312 293.7799987792969 L 610.22998046875 304.2799987792969 L 616.3099975585938 293.79998779296875 L 622.3900146484375 283.32000732421875 L 614.010009765625 283.30999755859375 L 614.0999755859375 242.82000732421875 L 606.6199951171875 242.80999755859375 L 606.530029296875 283.2900085449219 L 598.1599731445312 283.2799987792969 Z" class="cls-1" style="fill: rgb(224, 224, 224);"/><path d="M 619.6599731445312 255.47999572753906 L 623.25 261.739990234375 L 626.8499755859375 268.010009765625 L 630.47998046875 261.760009765625 L 634.0999755859375 255.50999450683594 L 629.1099853515625 255.5 L 629.1599731445312 231.36000061035156 L 624.7000122070312 231.35000610351562 L 624.6500244140625 255.49000549316406 L 619.6599731445312 255.47999572753906 Z" class="cls-1" style="fill: rgb(224, 224, 224);"/><path d="M 255.5500030517578 71.66999816894531 L 249.52000427246094 61.16999816894531 L 243.47999572753906 50.66999816894531 L 237.41000366210938 61.150001525878906 L 231.3300018310547 71.62999725341797 L 239.6999969482422 71.63999938964844 L 239.6199951171875 112.12999725341797 L 247.10000610351562 112.13999938964844 L 247.17999267578125 71.66000366210938 L 255.5500030517578 71.66999816894531 Z" class="cls-1" style="fill: rgb(224, 224, 224);"/><path d="M 231.7100067138672 98.30000305175781 L 228.05999755859375 91.94999694824219 L 224.41000366210938 85.5999984741211 L 220.74000549316406 91.94000244140625 L 217.05999755859375 98.2699966430664 L 222.1199951171875 98.27999877929688 L 222.0800018310547 122.75 L 226.60000610351562 122.76000213623047 L 226.64999389648438 98.29000091552734 L 231.7100067138672 98.30000305175781 Z" class="cls-1" style="fill: rgb(224, 224, 224);"/></g><g id="Floor"><path class="cls-2" d="M598.16,450.46c0,.1-99.67.19-222.58.19S153,450.56,153,450.46s99.65-.19,222.61-.19S598.16,450.35,598.16,450.46Z" style="fill: rgb(38, 50, 56);"/></g><g id="Plant"><path class="cls-3" d="M282.23,418.86a18.71,18.71,0,0,0-11.61-1.41c-2.11.35-4.31,1-5.74,2.56s-1.71,4.37-.06,5.73a5.53,5.53,0,0,0,3.62.92c3.07,0,6.48-.58,8.93,1.27,1.4,1.06,2.33,2.81,4,3.33a4,4,0,0,0,4.36-1.94,6.73,6.73,0,0,0,.49-5A7.64,7.64,0,0,0,282.23,418.86Z" style="fill: rgb(49, 130, 206);"/><path class="cls-3" d="M290.33,403.23c-2.16,3.09-6.36,2.07-8.31.18s-2.77-4.61-3.52-7.21c-1.71-5.95-3.43-12.19-2.16-18.25a10.14,10.14,0,0,1,2.33-5,5.31,5.31,0,0,1,5-1.67c2.12.56,3.43,2.63,4.38,4.6a43.42,43.42,0,0,1,4.3,18.67c0,3-.34,6.16-2,8.64" style="fill: rgb(49, 130, 206);"/><g class="cls-4" style="opacity: 0.2;"><path class="cls-3" d="M290.13,403.3c-2.16,3.09-6.36,2.06-8.31.18s-2.77-4.61-3.52-7.22c-1.71-5.95-3.43-12.19-2.16-18.24a10.18,10.18,0,0,1,2.33-5,5.31,5.31,0,0,1,5-1.67c2.11.56,3.43,2.64,4.38,4.61a43.42,43.42,0,0,1,4.3,18.67c0,3-.34,6.16-2,8.64" style="fill: rgb(49, 130, 206);"/></g><path class="cls-3" d="M296.26,407.66a11.22,11.22,0,0,1-1.74-10.33,19.85,19.85,0,0,1,6.12-8.88,32.94,32.94,0,0,1,11-6.47,11.76,11.76,0,0,1,4.93-.83,5.13,5.13,0,0,1,4.13,2.5c1.16,2.2,0,4.87-1.15,7a82.83,82.83,0,0,1-7.19,11c-2.16,2.78-4.63,5.52-7.92,6.78s-6.71,1.11-8.45-1.17" style="fill: rgb(49, 130, 206);"/><path class="cls-2" d="M290.48,449.79a6.65,6.65,0,0,1-.2-1.4c-.1-1-.22-2.31-.37-3.83a55.24,55.24,0,0,0-.86-5.62,44.61,44.61,0,0,0-2-6.62,24.32,24.32,0,0,0-3.39-6,12.59,12.59,0,0,0-4.27-3.55,11.66,11.66,0,0,0-3.61-1.12,6.14,6.14,0,0,1-1.39-.21,7.07,7.07,0,0,1,1.42,0,10.85,10.85,0,0,1,3.76,1A12.6,12.6,0,0,1,284,426a23.59,23.59,0,0,1,3.5,6.11,40.16,40.16,0,0,1,2,6.74,47,47,0,0,1,.75,5.68c.12,1.63.16,2.94.19,3.85A6.56,6.56,0,0,1,290.48,449.79Z" style="fill: rgb(38, 50, 56);"/><path class="cls-2" d="M290.21,446.84a2.69,2.69,0,0,1,0-.65v-1.86c0-1.61,0-3.95-.08-6.84-.15-5.77-.64-13.73-1.6-22.49s-2.25-16.64-3.42-22.29c-.27-1.42-.55-2.7-.81-3.81s-.47-2.09-.67-2.87-.32-1.33-.44-1.81a2.68,2.68,0,0,1-.11-.64,2.62,2.62,0,0,1,.22.61c.15.47.33,1.06.55,1.79s.48,1.73.76,2.84.6,2.39.9,3.8a210.11,210.11,0,0,1,3.59,22.32c1,8.77,1.4,16.76,1.44,22.55,0,2.89,0,5.23-.1,6.85q-.07,1.13-.12,1.86A2.52,2.52,0,0,1,290.21,446.84Z" style="fill: rgb(38, 50, 56);"/><path class="cls-2" d="M290.17,431.43a12.49,12.49,0,0,1,0-1.94c.07-1.25.24-3.06.59-5.27a71.44,71.44,0,0,1,1.72-7.67,66.67,66.67,0,0,1,3.2-9.08,48.51,48.51,0,0,1,9.43-14.67,23.66,23.66,0,0,1,2.21-2.06c.34-.29.64-.58,1-.8l.86-.6a12.23,12.23,0,0,1,1.64-1,56,56,0,0,0-5.37,4.78,51,51,0,0,0-9.18,14.62,72,72,0,0,0-3.23,9,77.34,77.34,0,0,0-1.82,7.59c-.4,2.19-.64,4-.78,5.22A11.41,11.41,0,0,1,290.17,431.43Z" style="fill: rgb(38, 50, 56);"/></g><g id="Windows"><path d="M 221.440002 103.559998 H 479.130005 V 304.080002 H 221.440002 V 103.559998 Z" class="cls-5" style="fill: rgb(255, 255, 255);"/><path class="cls-2" d="M479.13,304.08c0-1.5-.07-79.47-.18-200.52l.18.19-257.67,0h0l.22-.22c0,72.28,0,140.64,0,200.52l-.2-.19,257.69.19-257.69.2h-.2v-.2c0-59.88,0-128.24,0-200.52v-.21h.24l257.67,0h.18v.18C479.2,224.61,479.13,302.58,479.13,304.08Z" style="fill: rgb(38, 50, 56);"/><path class="cls-2" d="M292.3,287.24c-.12,0-.22-21.79-.22-48.68s.1-48.68.22-48.68.22,21.79.22,48.68S292.42,287.24,292.3,287.24Z" style="fill: rgb(38, 50, 56);"/><path class="cls-2" d="M404.13,287.24c-.12,0-.22-21.79-.22-48.68s.1-48.68.22-48.68.22,21.79.22,48.68S404.25,287.24,404.13,287.24Z" style="fill: rgb(38, 50, 56);"/><path class="cls-2" d="M330.48,287.24c-.12,0-.22-27.86-.22-62.23s.1-62.24.22-62.24.22,27.86.22,62.24S330.6,287.24,330.48,287.24Z" style="fill: rgb(38, 50, 56);"/><path class="cls-2" d="M253.09,287.24c-.12,0-.22-27.86-.22-62.23s.1-62.24.22-62.24.21,27.86.21,62.24S253.21,287.24,253.09,287.24Z" style="fill: rgb(38, 50, 56);"/><path class="cls-2" d="M448,287.24c-.12,0-.22-27.86-.22-62.23s.1-62.24.22-62.24.21,27.86.21,62.24S448.15,287.24,448,287.24Z" style="fill: rgb(38, 50, 56);"/><path class="cls-2" d="M364,287.24c-.12,0-.22-32.17-.22-71.85s.1-71.86.22-71.86.21,32.16.21,71.86S364.08,287.24,364,287.24Z" style="fill: rgb(38, 50, 56);"/><path class="cls-2" d="M293.21,189.88a.92.92,0,1,1-.91-.91A.91.91,0,0,1,293.21,189.88Z" style="fill: rgb(38, 50, 56);"/><path d="M 331.390011 162.770004 A 0.91 0.91 0 0 1 330.480011 163.680004 A 0.91 0.91 0 0 1 329.570011 162.770004 A 0.91 0.91 0 0 1 330.480011 161.860004 A 0.91 0.91 0 0 1 331.390011 162.770004 Z" class="cls-2" style="fill: rgb(38, 50, 56);"/><path class="cls-2" d="M330.48,166a3.21,3.21,0,1,1,3.2-3.21A3.21,3.21,0,0,1,330.48,166Zm0-6.2a3,3,0,1,0,3,3A3,3,0,0,0,330.48,159.78Z" style="fill: rgb(38, 50, 56);"/><path d="M 364.869991 143.529999 A 0.91 0.91 0 0 1 363.959991 144.439999 A 0.91 0.91 0 0 1 363.049991 143.529999 A 0.91 0.91 0 0 1 363.959991 142.619999 A 0.91 0.91 0 0 1 364.869991 143.529999 Z" class="cls-2" style="fill: rgb(38, 50, 56);"/><path d="M 405.040005 190.789993 A 0.91 0.91 0 0 1 404.130005 191.699993 A 0.91 0.91 0 0 1 403.220005 190.789993 A 0.91 0.91 0 0 1 404.130005 189.879993 A 0.91 0.91 0 0 1 405.040005 190.789993 Z" class="cls-2" style="fill: rgb(38, 50, 56);"/><path d="M 448.959988 162.770004 A 0.91 0.91 0 0 1 448.049988 163.680004 A 0.91 0.91 0 0 1 447.139988 162.770004 A 0.91 0.91 0 0 1 448.049988 161.860004 A 0.91 0.91 0 0 1 448.959988 162.770004 Z" class="cls-2" style="fill: rgb(38, 50, 56);"/><path class="cls-2" d="M254,163.69a.92.92,0,1,1-.91-.92A.91.91,0,0,1,254,163.69Z" style="fill: rgb(38, 50, 56);"/><path class="cls-3" d="M456.67,206.83a3.25,3.25,0,0,1-.72.23,15.52,15.52,0,0,0-2.07.71,19.92,19.92,0,0,0-6.65,5c-2.49,2.7-5,6.46-8.12,10.68a52.55,52.55,0,0,1-5.52,6.4,29.19,29.19,0,0,1-3.58,3,23.18,23.18,0,0,1-14.64,4.1,27.47,27.47,0,0,1-5.56-.7,14.36,14.36,0,0,1-5.38-2.37,17.34,17.34,0,0,1-4.2-4.38c-1.16-1.68-2.2-3.45-3.21-5.26-2-3.63-4.09-7.28-6.46-10.95s-4.48-7.64-6.89-11.49a55.11,55.11,0,0,0-8.44-10.89,24.76,24.76,0,0,0-5.67-4.06,18.89,18.89,0,0,0-6.73-2,23.73,23.73,0,0,0-7.17.41,24.21,24.21,0,0,0-6.8,2.58,35.43,35.43,0,0,0-10.63,9.91A110.55,110.55,0,0,0,330.64,210a124,124,0,0,1-7.37,12,58.47,58.47,0,0,1-8.91,10.16c-.84.71-1.68,1.44-2.58,2.06A32.17,32.17,0,0,1,309,236a24.08,24.08,0,0,1-5.94,2.44,19.66,19.66,0,0,1-3.1.58,11.66,11.66,0,0,1-1.56.09c-.52,0-1,0-1.55,0a23.9,23.9,0,0,1-5.95-1.1,40.58,40.58,0,0,1-10.05-5.26c-3-2.05-5.71-4.18-8.38-6.1a44.59,44.59,0,0,0-8-4.82,26.27,26.27,0,0,0-7.92-2.25,19.51,19.51,0,0,0-7.12.46,12,12,0,0,0-1.54.49,10.28,10.28,0,0,0-1.44.57,17.73,17.73,0,0,0-2.52,1.4,27,27,0,0,0-3.78,3L238.91,227a11.9,11.9,0,0,0-1,1.22l-1.34,1.76c-.3.39-.47.59-.49.57a3.28,3.28,0,0,1,.38-.65c.29-.42.7-1,1.24-1.84a11.45,11.45,0,0,1,1-1.28l1.29-1.5a26.13,26.13,0,0,1,3.78-3.18,18.9,18.9,0,0,1,2.56-1.48,9.68,9.68,0,0,1,1.47-.62,13.34,13.34,0,0,1,1.58-.54,20.29,20.29,0,0,1,7.36-.58,26.8,26.8,0,0,1,8.19,2.22,44.9,44.9,0,0,1,8.16,4.83c2.7,1.91,5.45,4,8.41,6a39.71,39.71,0,0,0,9.81,5.05,22.79,22.79,0,0,0,5.66,1c.49,0,1,0,1.47,0a10.5,10.5,0,0,0,1.48-.09,19.91,19.91,0,0,0,2.93-.56,26.79,26.79,0,0,0,10.76-6.09,57.39,57.39,0,0,0,8.68-10,125,125,0,0,0,7.27-11.86A109.55,109.55,0,0,1,337.19,197a36.54,36.54,0,0,1,11-10.27A25,25,0,0,1,355.4,184a25.29,25.29,0,0,1,7.56-.43,20.13,20.13,0,0,1,7.19,2.12,25.81,25.81,0,0,1,6,4.28,56.16,56.16,0,0,1,8.62,11.16c2.42,3.9,4.57,7.82,6.85,11.51s4.47,7.42,6.45,11,4,7.15,7,9.32a13.4,13.4,0,0,0,5,2.23,27.07,27.07,0,0,0,5.35.71,23.46,23.46,0,0,0,9.94-1.59,24,24,0,0,0,4.16-2.23A29.92,29.92,0,0,0,433,229.3a52.86,52.86,0,0,0,5.51-6.25c3.16-4.15,5.74-7.89,8.32-10.58a19.58,19.58,0,0,1,6.93-4.95,12,12,0,0,1,2.14-.59A2.7,2.7,0,0,1,456.67,206.83Z" style="fill: rgb(49, 130, 206);"/><path d="M 252.169998 126.07 H 297.099998 V 128.57 H 252.169998 V 126.07 Z" class="cls-2" style="fill: rgb(38, 50, 56);"/><path d="M 252.169998 131.919998 H 274.369999 V 134.419998 H 252.169998 V 131.919998 Z" class="cls-2" style="fill: rgb(38, 50, 56);"/><path class="cls-2" d="M225.64,87.21h249a4.51,4.51,0,0,1,4.51,4.51v11.85a0,0,0,0,1,0,0h-258a0,0,0,0,1,0,0V91.71A4.51,4.51,0,0,1,225.64,87.21Z" style="fill: rgb(38, 50, 56);"/><path class="cls-5" d="M234.5,95.7a1.76,1.76,0,1,1-1.75-1.76A1.75,1.75,0,0,1,234.5,95.7Z" style="fill: rgb(255, 255, 255);"/><path class="cls-5" d="M242.19,95.7a1.76,1.76,0,1,1-1.76-1.76A1.76,1.76,0,0,1,242.19,95.7Z" style="fill: rgb(255, 255, 255);"/><path class="cls-5" d="M249.87,95.7a1.76,1.76,0,1,1-1.76-1.76A1.76,1.76,0,0,1,249.87,95.7Z" style="fill: rgb(255, 255, 255);"/><path d="M 156.200001 227.460007 H 275.95 A 3.23 3.23 0 0 1 279.18 230.690007 V 259.620006 A 3.23 3.23 0 0 1 275.95 262.850006 H 156.200001 A 3.23 3.23 0 0 1 152.970001 259.620006 V 230.690007 A 3.23 3.23 0 0 1 156.200001 227.460007 Z" class="cls-6" style="fill: rgb(230, 230, 230);"/><path class="cls-5" d="M179.57,251.05a7.69,7.69,0,1,1-1.19-10.81A7.68,7.68,0,0,1,179.57,251.05Z" style="fill: rgb(255, 255, 255);"/><path class="cls-2" d="M177.9,243.63a36.38,36.38,0,0,1-4.17,4.42c-.34.34-.68.67-1,1l-.18.18-.18-.18a24.19,24.19,0,0,1-3.11-3.47,24.19,24.19,0,0,1,3.47,3.11h-.35l1-1A35.79,35.79,0,0,1,177.9,243.63Z" style="fill: rgb(38, 50, 56);"/><path class="cls-2" d="M266.86,242.56c0,.14-16,.26-35.83.26s-35.83-.12-35.83-.26,16-.26,35.83-.26S266.86,242.41,266.86,242.56Z" style="fill: rgb(38, 50, 56);"/><path class="cls-2" d="M237.47,249.56c0,.14-9.28.26-20.72.26S196,249.7,196,249.56s9.27-.26,20.71-.26S237.47,249.41,237.47,249.56Z" style="fill: rgb(38, 50, 56);"/><path d="M 192.840001 142.199997 H 312.030002 A 2.62 2.62 0 0 1 314.650002 144.819997 V 191.249995 A 2.62 2.62 0 0 1 312.030002 193.869995 H 192.840001 A 2.62 2.62 0 0 1 190.220001 191.249995 V 144.819997 A 2.62 2.62 0 0 1 192.840001 142.199997 Z" class="cls-1" style="fill: rgb(224, 224, 224);"/><path class="cls-3" d="M216.07,158.53a5.8,5.8,0,1,1-5.8-5.8A5.8,5.8,0,0,1,216.07,158.53Z" style="fill: rgb(49, 130, 206);"/><path d="M 221.869995 154.520004 H 262.289993 V 156.760004 H 221.869995 V 154.520004 Z" class="cls-3" style="fill: rgb(49, 130, 206);"/><path d="M 221.869995 159.619995 H 300.489998 V 161.859995 H 221.869995 V 159.619995 Z" class="cls-5" style="fill: rgb(255, 255, 255);"/><path class="cls-3" d="M216.07,176.36a5.8,5.8,0,1,1-5.8-5.8A5.79,5.79,0,0,1,216.07,176.36Z" style="fill: rgb(49, 130, 206);"/><path d="M 221.869995 172.360001 H 242.509995 V 174.600001 H 221.869995 V 172.360001 Z" class="cls-3" style="fill: rgb(49, 130, 206);"/><path d="M 221.869995 177.449997 H 300.489998 V 179.689997 H 221.869995 V 177.449997 Z" class="cls-5" style="fill: rgb(255, 255, 255);"/><path d="M 216.109994 278.089996 H 368.729987 A 3.96 3.96 0 0 1 372.689987 282.049996 V 342.369994 A 3.96 3.96 0 0 1 368.729987 346.329994 H 216.109994 A 3.96 3.96 0 0 1 212.149994 342.369994 V 282.049996 A 3.96 3.96 0 0 1 216.109994 278.089996 Z" class="cls-1" style="fill: rgb(224, 224, 224);"/><path class="cls-3" d="M241.52,311.06l-.09-13.84A17.69,17.69,0,0,0,230,301.68a16.35,16.35,0,0,0-5.5,14.33c.07.66.18,1.33.32,2a.09.09,0,0,1,0,.05h0l16.68-3.75Z" style="fill: rgb(49, 130, 206);"/><path class="cls-3" d="M258.71,306.8a16.43,16.43,0,0,0-13.46-9.42l-.53-.05-.34,0c-.33,0-.66,0-1,0h-.09l.09,13.84,0,3.25L260.08,318h0a16,16,0,0,0,.37-3.59A17.9,17.9,0,0,0,258.71,306.8Z" style="fill: rgb(49, 130, 206);"/><g class="cls-4" style="opacity: 0.2;"><path d="M258.71,307.13a16.4,16.4,0,0,0-13.46-9.42l-.53,0-.34,0c-.33,0-.66,0-1,0h-.09l.09,13.84,0,3.25,16.68,3.64h0a16,16,0,0,0,.37-3.59A17.9,17.9,0,0,0,258.71,307.13Z"/></g><path class="cls-3" d="M242.41,316l-16.67,3.76a17.1,17.1,0,0,0,33.38-.11l-16.68-3.64" style="fill: rgb(49, 130, 206);"/><g class="cls-7" style="opacity: 0.1;"><path d="M242.41,316l-16.67,3.76a17.1,17.1,0,0,0,33.38-.11l-16.68-3.64"/></g><path d="M 271.649994 301.359985 H 356.379997 V 305.199985 H 271.649994 V 301.359985 Z" class="cls-5" style="fill: rgb(255, 255, 255);"/><path d="M 271.649994 311.480011 H 356.379997 V 315.320011 H 271.649994 V 311.480011 Z" class="cls-5" style="fill: rgb(255, 255, 255);"/><path d="M 271.649994 322.670013 H 317.449993 V 326.510013 H 271.649994 V 322.670013 Z" class="cls-5" style="fill: rgb(255, 255, 255);"/><path d="M 357.689999 229.699997 H 508.259998 A 8.41 8.41 0 0 1 516.669998 238.109997 V 382.459995 A 8.41 8.41 0 0 1 508.259998 390.869995 H 357.689999 A 8.41 8.41 0 0 1 349.279999 382.459995 V 238.109997 A 8.41 8.41 0 0 1 357.689999 229.699997 Z" class="cls-6" style="fill: rgb(230, 230, 230);"/><path d="M 360.980011 340.109985 H 366.470011 V 341.689985 H 360.980011 V 340.109985 Z" class="cls-2" style="fill: rgb(38, 50, 56);"/><path d="M 373.410004 348.579987 H 380.440004 V 350.159987 H 373.410004 V 348.579987 Z" class="cls-2" style="fill: rgb(38, 50, 56);"/><path d="M 397.869995 348.579987 H 404.899995 V 350.159987 H 397.869995 V 348.579987 Z" class="cls-2" style="fill: rgb(38, 50, 56);"/><path d="M 422.320007 348.579987 H 429.350008 V 350.159987 H 422.320007 V 348.579987 Z" class="cls-2" style="fill: rgb(38, 50, 56);"/><path d="M 446.779999 348.579987 H 453.809999 V 350.159987 H 446.779999 V 348.579987 Z" class="cls-2" style="fill: rgb(38, 50, 56);"/><path d="M 471.23999 348.579987 H 478.26999 V 350.159987 H 471.23999 V 348.579987 Z" class="cls-2" style="fill: rgb(38, 50, 56);"/><path d="M 495.700012 348.579987 H 502.730012 V 350.159987 H 495.700012 V 348.579987 Z" class="cls-2" style="fill: rgb(38, 50, 56);"/><path d="M 360.980011 318.970001 H 366.470011 V 320.550001 H 360.980011 V 318.970001 Z" class="cls-2" style="fill: rgb(38, 50, 56);"/><path d="M 360.980011 299.170013 H 366.470011 V 300.750013 H 360.980011 V 299.170013 Z" class="cls-2" style="fill: rgb(38, 50, 56);"/><path d="M 360.980011 279.179993 H 366.470011 V 280.759993 H 360.980011 V 279.179993 Z" class="cls-2" style="fill: rgb(38, 50, 56);"/><path d="M 361.26001 299.070007 H 366.75001 V 300.650007 H 361.26001 V 299.070007 Z" class="cls-2" style="fill: rgb(38, 50, 56);"/><path class="cls-2" d="M502.53,341.7l-.59,0-1.73,0-6.65.05-24.45.08-80.66.08H369.08v-.25c0-27,.07-50.71.09-67.72,0-8.49.06-15.29.08-20,0-2.33,0-4.14,0-5.38,0-.6,0-1.06,0-1.4a4.24,4.24,0,0,1,0-.47,4.24,4.24,0,0,1,0,.47c0,.34,0,.8,0,1.4,0,1.24,0,3.05,0,5.38,0,4.71.05,11.51.08,20,0,17,.05,40.75.09,67.72l-.26-.26h19.11l80.66.07,24.45.08,6.65.05,1.73,0Z" style="fill: rgb(38, 50, 56);"/><path class="cls-2" d="M504.07,299.86c0,.15-29,.26-64.7.26s-64.72-.11-64.72-.26,29-.26,64.72-.26S504.07,299.72,504.07,299.86Z" style="fill: rgb(38, 50, 56);"/><path class="cls-2" d="M504.07,300c0,.14-29,.26-64.7.26s-64.72-.12-64.72-.26,29-.26,64.72-.26S504.07,299.82,504.07,300Z" style="fill: rgb(38, 50, 56);"/><path class="cls-2" d="M504.07,280c0,.14-29,.26-64.7.26s-64.72-.12-64.72-.26,29-.26,64.72-.26S504.07,279.82,504.07,280Z" style="fill: rgb(38, 50, 56);"/><path class="cls-2" d="M504.07,319.76c0,.14-29,.26-64.7.26s-64.72-.12-64.72-.26,29-.26,64.72-.26S504.07,319.62,504.07,319.76Z" style="fill: rgb(38, 50, 56);"/><path class="cls-3" d="M376,337.41V319.76l11-17.08,7.47,5.73,15.32-23.81,9,6.37,12.58-22,10.22,8.32,15.32-29.13,16.51,32.56,13.36-16.29,15.72-4.5v77.44Z" style="fill: rgb(49, 130, 206);"/><path class="cls-2" d="M504.07,253.7a1.39,1.39,0,0,1-.27,0l-.82,0-3.19,0-12.06.06.11-.05-12.92,16.89-.07.08h-.1l-32.36.05.22-.12L429,293.34l-13.36,22.2-.19.32-.23-.3L397.7,291.45h.35l-16,24.92c-1.91,3-3.42,5.28-4.46,6.88-.5.78-.9,1.37-1.18,1.8s-.42.6-.42.6.12-.22.37-.63.64-1.05,1.13-1.84l4.36-6.95,15.84-25,.16-.26.19.25c5.24,7.17,11.17,15.29,17.59,24.06l-.42,0,13.34-22.21,13.63-22.64.07-.12h.14l32.36,0-.16.08,13-16.82,0-.06h.08l12.06.07,3.19,0,.82,0Z" style="fill: rgb(38, 50, 56);"/><path class="cls-2" d="M403.17,297a1.24,1.24,0,1,1-1.24-1.2A1.21,1.21,0,0,1,403.17,297Z" style="fill: rgb(38, 50, 56);"/><path class="cls-2" d="M440.5,295.77a1.24,1.24,0,1,1-1.24-1.2A1.22,1.22,0,0,1,440.5,295.77Z" style="fill: rgb(38, 50, 56);"/><path class="cls-2" d="M469.52,290.56a1.25,1.25,0,1,1-1.24-1.2A1.22,1.22,0,0,1,469.52,290.56Z" style="fill: rgb(38, 50, 56);"/><path d="M 389.470002 369.730011 A 8.03 7.73 0 0 1 381.440002 377.460011 A 8.03 7.73 0 0 1 373.410003 369.730011 A 8.03 7.73 0 0 1 381.440002 362.000011 A 8.03 7.73 0 0 1 389.470002 369.730011 Z" class="cls-5" style="fill: rgb(255, 255, 255);"/><path d="M 401.380005 384.549988 H 495.700005 V 387.439988 H 401.380005 V 384.549988 Z" class="cls-5" style="fill: rgb(255, 255, 255);"/><path d="M 401.380005 391.779999 H 440.540005 V 394.669999 H 401.380005 V 391.779999 Z" class="cls-5" style="fill: rgb(255, 255, 255);"/><path d="M 447.730009 124.519997 H 548.990008 A 4.94 4.94 0 0 1 553.930008 129.459997 V 211.759997 A 4.94 4.94 0 0 1 548.990008 216.699997 H 447.730009 A 4.94 4.94 0 0 1 442.790009 211.759997 V 129.459997 A 4.94 4.94 0 0 1 447.730009 124.519997 Z" class="cls-6" style="fill: rgb(230, 230, 230);"/><path d="M 462.190002 161.429993 H 468.180002 V 206.659992 H 462.190002 V 161.429993 Z" class="cls-3" style="fill: rgb(49, 130, 206);"/><path d="M 489.420013 157.759995 H 495.410013 V 206.659996 H 489.420013 V 157.759995 Z" class="cls-3" style="fill: rgb(49, 130, 206);"/><path d="M 517.619995 151.550003 H 523.609995 V 206.660004 H 517.619995 V 151.550003 Z" class="cls-3" style="fill: rgb(49, 130, 206);"/><path d="M 504.380005 184.630005 H 510.370005 V 206.650005 H 504.380005 V 184.630005 Z" class="cls-8" style="fill: rgb(0, 118, 198);"/><g class="cls-4" style="opacity: 0.2;"><path d="M 504.380005 184.630005 H 510.370005 V 206.650005 H 504.380005 V 184.630005 Z" class="cls-8" style="fill: rgb(0, 118, 198);"/></g><path d="M 469.170013 156.580002 H 475.160013 V 206.660004 H 469.170013 V 156.580002 Z" class="cls-9" style="fill: rgb(69, 141, 201);"/><g class="cls-7" style="opacity: 0.1;"><path d="M 469.170013 156.580002 H 475.160013 V 206.660004 H 469.170013 V 156.580002 Z" class="cls-9" style="fill: rgb(69, 141, 201);"/></g><path d="M 496.890015 146.089996 H 502.880014 V 206.659996 H 496.890015 V 146.089996 Z" class="cls-9" style="fill: rgb(69, 141, 201);"/><g class="cls-7" style="opacity: 0.1;"><path d="M 496.890015 146.089996 H 502.880014 V 206.659996 H 496.890015 V 146.089996 Z" class="cls-9" style="fill: rgb(69, 141, 201);"/></g><path d="M 533.080017 146.089996 H 539.070017 V 206.659996 H 533.080017 V 146.089996 Z" class="cls-8" style="fill: rgb(0, 118, 198);"/><g class="cls-4" style="opacity: 0.2;"><path d="M 533.080017 146.089996 H 539.070017 V 206.659996 H 533.080017 V 146.089996 Z" class="cls-8" style="fill: rgb(0, 118, 198);"/></g><path d="M 525.26001 134.130005 H 531.25001 V 206.660004 H 525.26001 V 134.130005 Z" class="cls-9" style="fill: rgb(69, 141, 201);"/><g class="cls-7" style="opacity: 0.1;"><path d="M 525.26001 134.130005 H 531.25001 V 206.660004 H 525.26001 V 134.130005 Z" class="cls-9" style="fill: rgb(69, 141, 201);"/></g><path d="M 476.5 174.880005 H 482.49 V 206.660006 H 476.5 V 174.880005 Z" class="cls-8" style="fill: rgb(0, 118, 198);"/><g class="cls-4" style="opacity: 0.2;"><path d="M 476.5 174.880005 H 482.49 V 206.660006 H 476.5 V 174.880005 Z" class="cls-8" style="fill: rgb(0, 118, 198);"/></g><path class="cls-2" d="M547.64,209.4c0,.15-21.38.26-47.74.26s-47.75-.11-47.75-.26,21.37-.26,47.75-.26S547.64,209.26,547.64,209.4Z" style="fill: rgb(38, 50, 56);"/><path d="M 449.369995 198.610001 H 453.029995 V 199.820001 H 449.369995 V 198.610001 Z" class="cls-2" style="fill: rgb(38, 50, 56);"/><path d="M 449.369995 182.520004 H 453.029995 V 183.730004 H 449.369995 V 182.520004 Z" class="cls-2" style="fill: rgb(38, 50, 56);"/><path d="M 449.369995 152.220001 H 453.029995 V 153.430001 H 449.369995 V 152.220001 Z" class="cls-2" style="fill: rgb(38, 50, 56);"/><path d="M 449.369995 137 H 453.029995 V 138.21 H 449.369995 V 137 Z" class="cls-2" style="fill: rgb(38, 50, 56);"/><path d="M 449.559998 167.369995 H 453.219998 V 168.579995 H 449.559998 V 167.369995 Z" class="cls-2" style="fill: rgb(38, 50, 56);"/><path d="M 338.039998 117.029999 H 445.579998 A 3.23 3.23 0 0 1 448.809998 120.259999 V 145.759998 A 3.23 3.23 0 0 1 445.579998 148.989998 H 338.039998 A 3.23 3.23 0 0 1 334.809998 145.759998 V 120.259999 A 3.23 3.23 0 0 1 338.039998 117.029999 Z" class="cls-3" style="fill: rgb(49, 130, 206);"/><path class="cls-5" d="M358.84,138.34a6.95,6.95,0,1,1-1.07-9.77A7,7,0,0,1,358.84,138.34Z" style="fill: rgb(255, 255, 255);"/><path class="cls-2" d="M353.41,141a7,7,0,0,1-.75-13.9,6.74,6.74,0,0,1,.77,0,7,7,0,0,1,5.43,11.33h0a6.91,6.91,0,0,1-4.68,2.57A6.74,6.74,0,0,1,353.41,141Zm0-13.89a6.74,6.74,0,0,0-.77,0,6.92,6.92,0,1,0,6.16,11.21h0a6.92,6.92,0,0,0-5.39-11.25Z" style="fill: rgb(38, 50, 56);"/><path class="cls-3" d="M357.32,131.63a28.56,28.56,0,0,1-3.74,4l-.91.88-.19.18-.17-.18a20.23,20.23,0,0,1-2.79-3.15,20.23,20.23,0,0,1,3.15,2.79h-.36l.91-.9A29.94,29.94,0,0,1,357.32,131.63Z" style="fill: rgb(49, 130, 206);"/><path class="cls-5" d="M437.68,130.67c0,.14-14.49.26-32.36.26s-32.37-.12-32.37-.26,14.49-.26,32.37-.26S437.68,130.52,437.68,130.67Z" style="fill: rgb(255, 255, 255);"/><path class="cls-5" d="M411.13,137c0,.14-8.37.26-18.71.26s-18.71-.12-18.71-.26,8.38-.26,18.71-.26S411.13,136.84,411.13,137Z" style="fill: rgb(255, 255, 255);"/></g><g id="Character_1" data-name="Character 1"><path class="cls-2" d="M551,157.41c13.24-.74,21,12.21,13.32,20.45s-2.22,12.29.87,13.79c-3.39,9.74-30.44,11.08-36.19,2.86-4.82-6.9,14-15.78,9.46-23.31S540.7,157.17,551,157.41Z" style="fill: rgb(38, 50, 56);"/><path class="cls-10" d="M471,215.83l1.85,2.09a3.27,3.27,0,0,0,2.79,1.08l4.89-.52a6.05,6.05,0,0,0,4.65-3.07l.6-1.06c-2.84-3.68-8.63-5.57-8.63-5.57l-1.59-.72a2.71,2.71,0,0,0-3.64,1.27l-1.47,3.13A3.12,3.12,0,0,0,471,215.83Z" style="fill: rgb(255, 181, 115);"/><path class="cls-11" d="M533.52,215.35c-1.07,1.2-2,2.24-3.07,3.33s-2.05,2.12-3.1,3.17c-2.08,2.09-4.19,4.16-6.39,6.16a94.21,94.21,0,0,1-14.55,11.25l-.06,0a3,3,0,0,1-.39.22,10.14,10.14,0,0,1-4.68,1,12.36,12.36,0,0,1-3.57-.69,19.49,19.49,0,0,1-4.67-2.43,45,45,0,0,1-6.35-5.51c-1.86-1.88-3.57-3.8-5.2-5.76s-3.2-3.87-4.79-6l9.9-7c1.23,1.74,2.68,3.65,4.12,5.38s3,3.43,4.51,5a32.56,32.56,0,0,0,4.64,3.9,8,8,0,0,0,1.73.9c.15.05.19,0,0,0a2.37,2.37,0,0,0-1.17.26l-.45.24a61,61,0,0,0,6.11-4.6c2-1.7,4-3.55,5.9-5.47s3.79-3.91,5.6-6c.91-1,1.81-2.06,2.68-3.11s1.78-2.13,2.54-3.1Z" style="fill: rgb(64, 123, 255);"/><path class="cls-12" d="M533.52,215.35c-1.07,1.2-2,2.24-3.07,3.33s-2.05,2.12-3.1,3.17c-2.08,2.09-4.19,4.16-6.39,6.16a94.21,94.21,0,0,1-14.55,11.25l-.06,0a3,3,0,0,1-.39.22,10.14,10.14,0,0,1-4.68,1,12.36,12.36,0,0,1-3.57-.69,19.49,19.49,0,0,1-4.67-2.43,45,45,0,0,1-6.35-5.51c-1.86-1.88-3.57-3.8-5.2-5.76s-3.2-3.87-4.79-6l9.9-7c1.23,1.74,2.68,3.65,4.12,5.38s3,3.43,4.51,5a32.56,32.56,0,0,0,4.64,3.9,8,8,0,0,0,1.73.9c.15.05.19,0,0,0a2.37,2.37,0,0,0-1.17.26l-.45.24a61,61,0,0,0,6.11-4.6c2-1.7,4-3.55,5.9-5.47s3.79-3.91,5.6-6c.91-1,1.81-2.06,2.68-3.11s1.78-2.13,2.54-3.1Z" style="fill: rgb(255, 255, 255); opacity: 0.7;"/><path class="cls-3" d="M557.22,447.43c6.95,0,6.45-.11,10.36-.24,3.35-.12,4.14.3,6.83.24,2.25-.05,2.22-2.2,1.59-4.67-.31-1.24-.81-2.76-1.23-4.77H564.21a10.88,10.88,0,0,1-8.35,5.32C552.11,443.81,554.45,447.43,557.22,447.43Z" style="fill: rgb(49, 130, 206);"/><path class="cls-3" d="M504.8,447.43c6.84,0,9.13-.45,13-.58,3.3-.12,3.81.58,7.14.58,2.21,0,2.63-2.49,1.91-4.36a29.51,29.51,0,0,1-1.91-5.08H515.5c-1.84,3-6.58,5.2-11.77,5.57C500,443.83,502.07,447.43,504.8,447.43Z" style="fill: rgb(49, 130, 206);"/><path class="cls-2" d="M521.51,261.18s-3.67,49.16-2.22,80.38C517.74,370.87,515.5,438,515.5,438c.16,1.5,8,.9,9.42,0,0,0,17-48.89,12.7-96.43,18.68-49.58,16.6-80.38,16.6-80.38Z" style="fill: rgb(38, 50, 56);"/><path class="cls-2" d="M531.32,261.18s14.51,55.49,20.27,82.73c6,28.62,14.24,75.07,12.62,94.08,1.6.95,7.32,1,10.56,0,0,0,12.46-65.26-3.26-92.81,5.5-67.79-12.47-84-12.47-84Z" style="fill: rgb(38, 50, 56);"/><path class="cls-2" d="M563.51,434a25.76,25.76,0,0,1-.47,3.91.8.8,0,0,0,.66,1c3.85.62,9.47-.28,11.25-.6a.83.83,0,0,0,.67-.67l.67-3.65a.79.79,0,0,0-.79-.94l-11.17.21A.84.84,0,0,0,563.51,434Z" style="fill: rgb(38, 50, 56);"/><path class="cls-13" d="M563.51,434a25.76,25.76,0,0,1-.47,3.91.8.8,0,0,0,.66,1c3.85.62,9.47-.28,11.25-.6a.83.83,0,0,0,.67-.67l.67-3.65a.79.79,0,0,0-.79-.94l-11.17.21A.84.84,0,0,0,563.51,434Z" style="fill: rgb(255, 255, 255); opacity: 0.1;"/><path class="cls-2" d="M514.61,433.86c-.07,1-.22,2.83-.37,4.17a.81.81,0,0,0,.7.9,55.94,55.94,0,0,0,10.4-.12.8.8,0,0,0,.71-.62l.88-3.65a.82.82,0,0,0-.76-1l-10.71-.42A.81.81,0,0,0,514.61,433.86Z" style="fill: rgb(38, 50, 56);"/><path class="cls-13" d="M514.61,433.86c-.07,1-.22,2.83-.37,4.17a.81.81,0,0,0,.7.9,55.94,55.94,0,0,0,10.4-.12.8.8,0,0,0,.71-.62l.88-3.65a.82.82,0,0,0-.76-1l-10.71-.42A.81.81,0,0,0,514.61,433.86Z" style="fill: rgb(255, 255, 255); opacity: 0.1;"/><path class="cls-5" d="M519.38,217a171.29,171.29,0,0,0,.25,17.17c.29,7.46.8,14.79,1.88,27H559c-.76-10.58.47-22.62,7.21-46.41a8.76,8.76,0,0,0-7.48-11.38c-1.49-.15-3.07-.27-4.69-.35a118.08,118.08,0,0,0-17,0c-1.85.17-3.77.4-5.6.65A14.13,14.13,0,0,0,519.38,217Z" style="fill: rgb(255, 255, 255);"/><path class="cls-10" d="M552.89,183.85c-1.48,5.48-3.31,15.53.26,19.19,0,0-5.2-.78-16.22,6-3.2-4.58-.82-6-.82-6,6.22-1.46,6.4-6,5.65-10.26Z" style="fill: rgb(255, 181, 115);"/><path class="cls-8" d="M539.25,207.7c2.07,1.38,3,6.74,3,6.74s13.71-5.19,13.21-11.25a36,36,0,0,1-3.18-2S541.37,205.61,539.25,207.7Z" style="fill: rgb(0, 118, 198);"/><path class="cls-8" d="M535.79,207.12a23.28,23.28,0,0,0-2.26,6c-5.51-4.55.89-10.07.89-10.07a4.67,4.67,0,0,1,3.29-.47A3.89,3.89,0,0,0,535.79,207.12Z" style="fill: rgb(0, 118, 198);"/><path class="cls-14" d="M548.35,187.49l-6.58,5.29a17.36,17.36,0,0,1,.3,3c2.36-.34,5.76-2.9,6.19-5.35A8.19,8.19,0,0,0,548.35,187.49Z" style="opacity: 0.2;"/><path class="cls-10" d="M557.57,172.85c-1.66,8.85-2.18,12.62-7.23,16.87-7.6,6.39-18,3-19-6-.9-8.12,2-21.24,11.1-24.16A11.54,11.54,0,0,1,557.57,172.85Z" style="fill: rgb(255, 181, 115);"/><path class="cls-2" d="M551.17,161.35c-2.7,7.16,3.07,11.42,4.35,17.61C562.19,174.53,562.66,156,551.17,161.35Z" style="fill: rgb(38, 50, 56);"/><path class="cls-5" d="M552.51,173.32a1.65,1.65,0,0,1-.71-.17,1.59,1.59,0,0,1-.78-.91,1.61,1.61,0,0,1,.1-1.2,1.56,1.56,0,0,1,.91-.78l4.68-1.52a1.54,1.54,0,0,1,1.19.1,1.5,1.5,0,0,1,.78.91,1.56,1.56,0,0,1-1,2h0L553,173.24A1.62,1.62,0,0,1,552.51,173.32Zm4.68-4.16a1,1,0,0,0-.33.06l-4.68,1.52a1.06,1.06,0,0,0-.68,1.34,1.08,1.08,0,0,0,.53.62,1,1,0,0,0,.81.07l4.69-1.53a1.07,1.07,0,0,0,.68-1.34,1.08,1.08,0,0,0-.53-.62A1,1,0,0,0,557.19,169.16Zm.41,2.32h0Z" style="fill: rgb(255, 255, 255);"/><path class="cls-2" d="M543.55,174.32c-.11.75-.59,1.33-1.07,1.29s-.78-.67-.67-1.42.58-1.33,1.06-1.29S543.65,173.57,543.55,174.32Z" style="fill: rgb(38, 50, 56);"/><path class="cls-2" d="M534.5,173.79c-.1.75-.58,1.32-1.06,1.29s-.78-.67-.67-1.42.58-1.33,1.06-1.29S534.61,173,534.5,173.79Z" style="fill: rgb(38, 50, 56);"/><path class="cls-2" d="M534,172.42l-1.69-.64S533.05,173.25,534,172.42Z" style="fill: rgb(38, 50, 56);"/><path class="cls-15" d="M536.84,175.2a22.47,22.47,0,0,1-3.3,4.59,3,3,0,0,0,2.54.69Z" style="fill: rgb(237, 137, 62);"/><path class="cls-2" d="M539.91,183.56a7.37,7.37,0,0,1-1.25,0,.2.2,0,0,1-.18-.24.22.22,0,0,1,.24-.2,6.31,6.31,0,0,0,5.08-2,.2.2,0,0,1,.3,0,.22.22,0,0,1,0,.31A6.62,6.62,0,0,1,539.91,183.56Z" style="fill: rgb(38, 50, 56);"/><path class="cls-10" d="M558.57,180.37a6.19,6.19,0,0,1-4.22,2.7c-2.11.24-2.65-2.23-1.62-4.46.92-2,3.14-4.55,5.06-3.75S559.9,178.47,558.57,180.37Z" style="fill: rgb(255, 181, 115);"/><path class="cls-5" d="M557.47,183.43a2.16,2.16,0,1,1-2.16-2.16A2.16,2.16,0,0,1,557.47,183.43Z" style="fill: rgb(255, 255, 255);"/><path class="cls-2" d="M546.34,170a.43.43,0,0,1-.31-.14,3.25,3.25,0,0,0-2.86-1.1.4.4,0,0,1-.49-.34.48.48,0,0,1,.38-.52,4,4,0,0,1,3.64,1.35.45.45,0,0,1-.05.62A.53.53,0,0,1,546.34,170Z" style="fill: rgb(38, 50, 56);"/><path class="cls-2" d="M532,169.37a.43.43,0,0,1-.31-.08.44.44,0,0,1,0-.62,4.64,4.64,0,0,1,3.62-1.92.4.4,0,0,1,.38.46.48.48,0,0,1-.48.42,3.72,3.72,0,0,0-2.85,1.56A.5.5,0,0,1,532,169.37Z" style="fill: rgb(38, 50, 56);"/><path class="cls-2" d="M543.08,173l-1.69-.65S542.09,173.78,543.08,173Z" style="fill: rgb(38, 50, 56);"/><path class="cls-11" d="M555.9,201.16c-4.18,2.86-9.75,33.62-11.36,79.38a600,600,0,0,0,2.83,82.86s18.28-20.08,29.69-26c.21-42.7-8.88-71.87-7.82-82.65s7-40.59,2.43-46.19S555.9,201.16,555.9,201.16Z" style="fill: rgb(64, 123, 255);"/><path class="cls-16" d="M555.9,201.16c-4.18,2.86-9.75,33.62-11.36,79.38a600,600,0,0,0,2.83,82.86s18.28-20.08,29.69-26c.21-42.7-8.88-71.87-7.82-82.65s7-40.59,2.43-46.19S555.9,201.16,555.9,201.16Z" style="fill: rgb(255, 255, 255); opacity: 0.8;"/><path class="cls-11" d="M534.76,202.73c-4.86,7.21-15.62,97-5.47,160.67-8-4.44-13.79-16.7-13.79-16.7s-.8-55.42,3-85.52C517.72,225.84,513.52,201.9,534.76,202.73Z" style="fill: rgb(64, 123, 255);"/><path class="cls-16" d="M534.76,202.73c-4.86,7.21-15.62,97-5.47,160.67-8-4.44-13.79-16.7-13.79-16.7s-.8-55.42,3-85.52C517.72,225.84,513.52,201.9,534.76,202.73Z" style="fill: rgb(255, 255, 255); opacity: 0.8;"/><path class="cls-1" d="M549.17,261.61a162.59,162.59,0,0,1-6.83-14.78c-3.08-7.78-5.55-17-5.55-17s-23.31-.88-27.65,1.75c2.54,9.89,13.56,33.75,13.56,33.75S540.33,265,549.17,261.61Z" style="fill: rgb(224, 224, 224);"/><path class="cls-8" d="M525.2,266.88l21.2-.64c2.13-.06,3.22-1.62,2.42-3.46L535.46,232a6,6,0,0,0-5.33-3.23l-21.2.64c-2.13.06-3.22,1.62-2.42,3.46l13.36,30.81A6,6,0,0,0,525.2,266.88Z" style="fill: rgb(0, 118, 198);"/><path class="cls-5" d="M524.07,268.13a6.28,6.28,0,0,1-5.43-3.38l-13.36-30.81a2.65,2.65,0,0,1,.08-2.56,3,3,0,0,1,2.56-1.25l21.2-.64a6.25,6.25,0,0,1,5.56,3.38l13.37,30.81a2.63,2.63,0,0,1-.08,2.55,3,3,0,0,1-2.56,1.26l-21.2.64h-.14Zm.12-.5v0l21.2-.64a2.55,2.55,0,0,0,2.16-1,2.2,2.2,0,0,0,0-2.09l-13.36-30.81a5.69,5.69,0,0,0-5.09-3.08l-21.2.64a2.55,2.55,0,0,0-2.16,1,2.2,2.2,0,0,0,0,2.09l13.36,30.81A5.72,5.72,0,0,0,524.19,267.63Z" style="fill: rgb(255, 255, 255);"/><path class="cls-10" d="M537.22,243l2.21-.78a3.38,3.38,0,0,1,2.77.36l4.26,2.44a7.09,7.09,0,0,1,3.39,4.25l.26,1c-3.51,1.57-9.2.55-9.2.55l-1.61-.13a3.23,3.23,0,0,1-2.94-2.48l-.51-3A2,2,0,0,1,537.22,243Z" style="fill: rgb(255, 181, 115);"/><path class="cls-17" d="M563.85,220.29c-.85,13.74-.89,26.32,2.78,28.44C570.93,244.5,570.61,238.58,563.85,220.29Z" style="opacity: 0.2; fill: rgb(64, 123, 255);"/><path class="cls-11" d="M573.09,210.59c.53,1.54,1,2.91,1.41,4.36s.86,2.86,1.26,4.3c.8,2.88,1.57,5.77,2.22,8.71a85.09,85.09,0,0,1,2.38,18.55c0,.15,0,.3,0,.45V247a9.25,9.25,0,0,1-2.16,5.12,10.9,10.9,0,0,1-3.31,2.57,18.06,18.06,0,0,1-5.25,1.66,45.85,45.85,0,0,1-8.48.5c-2.66,0-5.25-.21-7.81-.45s-5-.51-7.71-.91l2-12c2.16.36,4.56.69,6.84.92s4.61.35,6.83.37a33.73,33.73,0,0,0,6.14-.45,6.55,6.55,0,0,0,1.72-.53,1.59,1.59,0,0,0-.42.36A3.29,3.29,0,0,0,568,246l0,.52a54,54,0,0,0-.83-7.57c-.45-2.6-1.08-5.24-1.79-7.86s-1.52-5.25-2.4-7.85c-.45-1.3-.92-2.6-1.4-3.88s-1-2.61-1.47-3.75Z" style="fill: rgb(64, 123, 255);"/><path class="cls-16" d="M573.09,210.59c.53,1.54,1,2.91,1.41,4.36s.86,2.86,1.26,4.3c.8,2.88,1.57,5.77,2.22,8.71a85.09,85.09,0,0,1,2.38,18.55c0,.15,0,.3,0,.45V247a9.25,9.25,0,0,1-2.16,5.12,10.9,10.9,0,0,1-3.31,2.57,18.06,18.06,0,0,1-5.25,1.66,45.85,45.85,0,0,1-8.48.5c-2.66,0-5.25-.21-7.81-.45s-5-.51-7.71-.91l2-12c2.16.36,4.56.69,6.84.92s4.61.35,6.83.37a33.73,33.73,0,0,0,6.14-.45,6.55,6.55,0,0,0,1.72-.53,1.59,1.59,0,0,0-.42.36A3.29,3.29,0,0,0,568,246l0,.52a54,54,0,0,0-.83-7.57c-.45-2.6-1.08-5.24-1.79-7.86s-1.52-5.25-2.4-7.85c-.45-1.3-.92-2.6-1.4-3.88s-1-2.61-1.47-3.75Z" style="fill: rgb(255, 255, 255); opacity: 0.8;"/><path class="cls-2" d="M553.86,163.91c-4.51,4.51-24.73-2.8-23.94,4.7-3.11-7,1.8-14.53,14.27-14.53C559.45,154.08,556.61,161.16,553.86,163.91Z" style="fill: rgb(38, 50, 56);"/><path class="cls-18" d="M286.17,181.87l4.54-5.57,6.34,4s-2.9,3.09-6.42,7.43Z" style="fill: rgb(181, 91, 82);"/><path class="cls-11" d="M229.56,182.31c.26.57.44.9.66,1.34l.63,1.2c.42.78.85,1.56,1.3,2.33q1.32,2.3,2.77,4.53a81.45,81.45,0,0,0,6.42,8.67,52.17,52.17,0,0,0,8.3,7.89,34.9,34.9,0,0,0,5.36,3.26l1.51.68,1.59.59c.53.18,1.1.33,1.66.49l.41.11c.13,0,.41.09.61.13a10.11,10.11,0,0,0,1.29.2,15,15,0,0,0,4.58-.23,20.66,20.66,0,0,0,3.6-1.08,31.89,31.89,0,0,0,5.57-2.94,64.44,64.44,0,0,0,8.53-6.87c2.56-2.39,4.94-4.85,7.23-7.38,1.14-1.26,2.27-2.53,3.37-3.82s2.15-2.56,3.29-4l-11.06-8.58c-.86,1.09-1.89,2.33-2.88,3.49s-2,2.33-3.07,3.45c-2.09,2.25-4.25,4.42-6.45,6.41a49.24,49.24,0,0,1-6.71,5.16,17.27,17.27,0,0,1-3,1.53c-.86.34-1.51.32-1.31.27h.09s.09,0,0,0l-.17-.06c-.22-.08-.43-.13-.66-.23l-.68-.28-.69-.35a20.66,20.66,0,0,1-2.85-1.92,34.74,34.74,0,0,1-5.48-5.75,62.25,62.25,0,0,1-4.77-7.19c-.73-1.27-1.42-2.58-2.08-3.89-.33-.66-.64-1.32-.95-2l-.44-1c-.13-.3-.3-.69-.36-.86Z" style="fill: rgb(64, 123, 255);"/><path class="cls-16" d="M229.56,182.31c.26.57.44.9.66,1.34l.63,1.2c.42.78.85,1.56,1.3,2.33q1.32,2.3,2.77,4.53a81.45,81.45,0,0,0,6.42,8.67,52.17,52.17,0,0,0,8.3,7.89,34.9,34.9,0,0,0,5.36,3.26l1.51.68,1.59.59c.53.18,1.1.33,1.66.49l.41.11c.13,0,.41.09.61.13a10.11,10.11,0,0,0,1.29.2,15,15,0,0,0,4.58-.23,20.66,20.66,0,0,0,3.6-1.08,31.89,31.89,0,0,0,5.57-2.94,64.44,64.44,0,0,0,8.53-6.87c2.56-2.39,4.94-4.85,7.23-7.38,1.14-1.26,2.27-2.53,3.37-3.82s2.15-2.56,3.29-4l-11.06-8.58c-.86,1.09-1.89,2.33-2.88,3.49s-2,2.33-3.07,3.45c-2.09,2.25-4.25,4.42-6.45,6.41a49.24,49.24,0,0,1-6.71,5.16,17.27,17.27,0,0,1-3,1.53c-.86.34-1.51.32-1.31.27h.09s.09,0,0,0l-.17-.06c-.22-.08-.43-.13-.66-.23l-.68-.28-.69-.35a20.66,20.66,0,0,1-2.85-1.92,34.74,34.74,0,0,1-5.48-5.75,62.25,62.25,0,0,1-4.77-7.19c-.73-1.27-1.42-2.58-2.08-3.89-.33-.66-.64-1.32-.95-2l-.44-1c-.13-.3-.3-.69-.36-.86Z" style="fill: rgb(255, 255, 255); opacity: 0.8;"/><path d="M 231.77000427246094 342.1400146484375 L 199.5 342.1400146484375 L 211.74000549316406 280.95001220703125 L 227.5399932861328 280.95001220703125 L 231.77000427246094 342.1400146484375 Z" class="cls-11" style="fill: rgb(64, 123, 255);"/><path d="M 231.77000427246094 342.1400146484375 L 199.5 342.1400146484375 L 211.74000549316406 280.95001220703125 L 227.5399932861328 280.95001220703125 L 231.77000427246094 342.1400146484375 Z" class="cls-19" style="fill: rgb(255, 255, 255); opacity: 0.6;"/><path d="M 224.86000061035156 442.8299865722656 L 233.0800018310547 442.8299865722656 L 233.44000244140625 423.7900085449219 L 225.2100067138672 423.7900085449219 L 224.86000061035156 442.8299865722656 Z" class="cls-18" style="fill: rgb(181, 91, 82);"/><path d="M 179.2899932861328 442.8299865722656 L 187.52000427246094 442.8299865722656 L 191.17999267578125 423.7900085449219 L 182.9600067138672 423.7900085449219 L 179.2899932861328 442.8299865722656 Z" class="cls-18" style="fill: rgb(181, 91, 82);"/><path class="cls-2" d="M188.08,441.88h-9.24a.71.71,0,0,0-.69.56l-1.45,7.32a1.25,1.25,0,0,0,1.24,1.46c3.23-.06,4.79-.25,8.86-.25,2.5,0,7.65.26,11.11.26s3.82-3.41,2.4-3.72c-6.38-1.39-8.81-3.3-10.88-5.12A2.06,2.06,0,0,0,188.08,441.88Z" style="fill: rgb(38, 50, 56);"/><path class="cls-2" d="M233,441.88h-9a.7.7,0,0,0-.68.56l-1.45,7.32a1.23,1.23,0,0,0,1.22,1.46c3.24-.06,7.92-.25,12-.25,4.76,0,5.15.26,10.73.26,3.38,0,4.23-3.41,2.81-3.72-6.47-1.41-8-1.56-13.64-5A3.88,3.88,0,0,0,233,441.88Z" style="fill: rgb(38, 50, 56);"/><path class="cls-18" d="M293.78,174.4l5.32-.07,1,6.85a18.39,18.39,0,0,1-10.09-1l.1-2.22A3.71,3.71,0,0,1,293.78,174.4Z" style="fill: rgb(181, 91, 82);"/><path d="M 307.4100036621094 174.63999938964844 L 306.3900146484375 178.97999572753906 L 300.1199951171875 181.17999267578125 L 299.1000061035156 174.3300018310547 L 307.4100036621094 174.63999938964844 Z" class="cls-18" style="fill: rgb(181, 91, 82);"/><path d="M 233.42999267578125 423.7900085449219 L 233.25 433.6099853515625 L 225.02999877929688 433.6099853515625 L 225.2100067138672 423.7900085449219 L 233.42999267578125 423.7900085449219 Z" class="cls-14" style="opacity: 0.2;"/><path d="M 182.9600067138672 423.7900085449219 L 191.19000244140625 423.7900085449219 L 189.2899932861328 433.6099853515625 L 181.05999755859375 433.6099853515625 L 182.9600067138672 423.7900085449219 Z" class="cls-14" style="opacity: 0.2;"/><path class="cls-5" d="M243.15,177.21c2.28,8.71,6.36,30.72,1.89,65.71h-44c-.43-6.14,2.37-33.86-2.58-62.74A8.75,8.75,0,0,1,206.09,170c1.71-.19,3.52-.35,5.31-.44a152.9,152.9,0,0,1,18.43.6,46.49,46.49,0,0,1,7.73,1.42A7.94,7.94,0,0,1,243.15,177.21Z" style="fill: rgb(255, 255, 255);"/><path class="cls-18" d="M213.42,152c1.33,6,2.09,13.48-2,17.49,0,0,2.57,6.11,13.75,6.11,10.22,0,5-6.11,5-6.11-6.75-1.6-6.61-9.9-5.55-14.57Z" style="fill: rgb(181, 91, 82);"/><path class="cls-3" d="M225.68,174.8l2.42,2.68a.72.72,0,0,1,.15.7l-.77,2.36a.7.7,0,0,1-.62.47l-2.61.12a.74.74,0,0,1-.63-.31l-1.56-2.3a.69.69,0,0,1,.05-.85l2.52-2.88A.7.7,0,0,1,225.68,174.8Z" style="fill: rgb(49, 130, 206);"/><path class="cls-3" d="M226.29,181s4,29.45,4.09,34.57a49.69,49.69,0,0,1-2.26,14.29s-2.75-5.21-3.23-14.51.11-29.13-.1-34.35Z" style="fill: rgb(49, 130, 206);"/><path class="cls-14" d="M224.56,155c-.63,2.74-.93,6.73.29,9.88-.81.35-4.1-.92-5.47-1.79-3-1.94-4.23-3.83-5.36-7.88-.17-1.07-.37-2.12-.6-3.13Z" style="opacity: 0.2;"/><path class="cls-18" d="M235,149.11a7.55,7.55,0,0,1-4.1,4.2c-2.49,1-4.09-1.18-3.69-3.73.35-2.3,2.08-5.59,4.72-5.52A3.58,3.58,0,0,1,235,149.11Z" style="fill: rgb(181, 91, 82);"/><path class="cls-14" d="M235,149.11a7.55,7.55,0,0,1-4.1,4.2c-2.49,1-4.09-1.18-3.69-3.73.35-2.3,2.08-5.59,4.72-5.52A3.58,3.58,0,0,1,235,149.11Z" style="opacity: 0.2;"/><path class="cls-2" d="M224.85,140.1c.48,3.53,2.68,6.15,4.91,5.85s3.67-3.41,3.2-6.94-2.67-6.14-4.91-5.84S224.38,136.57,224.85,140.1Z" style="fill: rgb(38, 50, 56);"/><path class="cls-18" d="M209.48,144.24c2,8,2.78,12.76,7.58,16.23,7.23,5.21,16.37-.15,16.76-8.53.35-7.55-3-19.35-11.4-21.24S207.47,136.25,209.48,144.24Z" style="fill: rgb(181, 91, 82);"/><path class="cls-2" d="M222.76,127.91c4.78,1,10.09,4.91,5.52,7.75s-14.86,3.3-14.86,3.3,3.4,8-1.25,12.13c-1.56-.78,1.76,6.21,1.76,6.21a7.3,7.3,0,0,1-4-3.37c-2.77-.71-11-14-5.51-17.75C205.44,128.42,216.33,126.52,222.76,127.91Z" style="fill: rgb(38, 50, 56);"/><path class="cls-5" d="M211.2,149.07a.19.19,0,0,0,.1,0l7.21-3.3a.25.25,0,0,0,.13-.34.26.26,0,0,0-.34-.13l-7.21,3.3a.26.26,0,0,0-.13.34A.26.26,0,0,0,211.2,149.07Z" style="fill: rgb(255, 255, 255);"/><path class="cls-18" d="M207.55,153.75a7.92,7.92,0,0,0,5.37,2.6c2.71.14,3.41-2.45,2.11-4.71-1.17-2-4-4.57-6.44-3.64S205.86,151.85,207.55,153.75Z" style="fill: rgb(181, 91, 82);"/><path class="cls-3" d="M245,242.92s2.64,61.5,2.36,86.58c-.29,26.09-11.13,102.21-11.13,102.21H222.34s1.25-74.59,0-100.22c-1.36-27.93-6.22-88.57-6.22-88.57Z" style="fill: rgb(49, 130, 206);"/><path class="cls-2" d="M221.68,425.56c-.06,0-.25,6.43-.25,6.43h16.06l.92-7Z" style="fill: rgb(38, 50, 56);"/><path class="cls-14" d="M226.2,259.19c.48,30.52-.9,49.06-4.31,64-.84-14.56-2.22-33.8-3.42-49.79Z" style="opacity: 0.2;"/><path class="cls-3" d="M229.44,242.92s-7.8,62.86-12.35,86.41c-5,25.79-24,102.38-24,102.38H178s11.89-74.51,14.47-100c2.79-27.72,8.57-88.75,8.57-88.75Z" style="fill: rgb(49, 130, 206);"/><path class="cls-2" d="M178.38,425.9c-.06,0-1.11,6.09-1.11,6.09h16.56l1.81-6.71Z" style="fill: rgb(38, 50, 56);"/><path class="cls-2" d="M222,144.46c.12.65.57,1.13,1,1.06s.67-.67.55-1.32-.57-1.14-1-1.06S221.87,143.8,222,144.46Z" style="fill: rgb(38, 50, 56);"/><path class="cls-2" d="M230.06,142.56c.12.65.57,1.13,1,1.06s.67-.67.54-1.32-.56-1.14-1-1.07S229.93,141.9,230.06,142.56Z" style="fill: rgb(38, 50, 56);"/><path class="cls-20" d="M226.7,144.21a24.91,24.91,0,0,0,4.73,4.56c-.78,1.39-2.83,1.46-2.83,1.46Z" style="fill: rgb(160, 39, 36);"/><path class="cls-2" d="M226.67,152.28a.19.19,0,0,0,.16-.22.2.2,0,0,0-.23-.16,5.27,5.27,0,0,1-4.57-1.33.19.19,0,0,0-.28,0,.19.19,0,0,0,0,.27A5.59,5.59,0,0,0,226.67,152.28Z" style="fill: rgb(38, 50, 56);"/><path class="cls-2" d="M218.08,142.31a.37.37,0,0,0,.26-.23,3,3,0,0,1,2-1.89.39.39,0,0,0,.31-.46.41.41,0,0,0-.47-.31,3.72,3.72,0,0,0-2.6,2.36.39.39,0,0,0,.22.51A.37.37,0,0,0,218.08,142.31Z" style="fill: rgb(38, 50, 56);"/><path class="cls-2" d="M232.13,139.4a.34.34,0,0,0,.15-.07.39.39,0,0,0,0-.55,3.91,3.91,0,0,0-3.24-1.51.38.38,0,0,0-.34.43.41.41,0,0,0,.44.35h0a3.11,3.11,0,0,1,2.55,1.22A.39.39,0,0,0,232.13,139.4Z" style="fill: rgb(38, 50, 56);"/><path class="cls-5" d="M222.13,149.13a3,3,0,0,0,.6,0,3.56,3.56,0,0,0,2.32-1.52,4.68,4.68,0,0,0,.7-3.51,4.21,4.21,0,0,0-4.61-3.67,3.56,3.56,0,0,0-2.32,1.52,4.73,4.73,0,0,0-.7,3.51h0A4.32,4.32,0,0,0,222.13,149.13Zm-.39-8.29a3.8,3.8,0,0,1,3.5,3.3,4.15,4.15,0,0,1-.62,3.12,3,3,0,0,1-2,1.31,3.69,3.69,0,0,1-4-3.26,4.12,4.12,0,0,1,.62-3.11,3.05,3.05,0,0,1,2-1.31A2.94,2.94,0,0,1,221.74,140.84Zm-3.37,4.52Z" style="fill: rgb(255, 255, 255);"/><path class="cls-5" d="M225.5,144.36a.25.25,0,0,0,.21-.12,1.51,1.51,0,0,1,1.84-.75.26.26,0,0,0,.21-.47,2,2,0,0,0-2.48.93.26.26,0,0,0,.07.36A.3.3,0,0,0,225.5,144.36Z" style="fill: rgb(255, 255, 255);"/><path class="cls-5" d="M231.41,147a3,3,0,0,0,.6-.05,3.56,3.56,0,0,0,2.32-1.52,4.72,4.72,0,0,0,.7-3.51,4.21,4.21,0,0,0-4.61-3.67,3.6,3.6,0,0,0-2.32,1.52,4.69,4.69,0,0,0-.7,3.51h0A4.32,4.32,0,0,0,231.41,147Zm-.39-8.29a3.8,3.8,0,0,1,3.5,3.31,4.12,4.12,0,0,1-.62,3.11,3.05,3.05,0,0,1-2,1.31,3.67,3.67,0,0,1-4-3.25,4.19,4.19,0,0,1,.61-3.12,3.07,3.07,0,0,1,2-1.31A2.94,2.94,0,0,1,231,138.73Zm-3.37,4.52Z" style="fill: rgb(255, 255, 255);"/><path class="cls-11" d="M190.83,443.32a2.49,2.49,0,0,0,1.58-.42,1.13,1.13,0,0,0,.37-1,.63.63,0,0,0-.34-.55c-.91-.47-3.54,1.16-3.83,1.35a.2.2,0,0,0-.09.2.21.21,0,0,0,.15.15A9.7,9.7,0,0,0,190.83,443.32Zm1.18-1.7a.5.5,0,0,1,.26.05s.11.07.13.22a.8.8,0,0,1-.25.71c-.44.38-1.51.43-2.92.15A7.64,7.64,0,0,1,192,441.62Z" style="fill: rgb(64, 123, 255);"/><path class="cls-11" d="M188.72,443l.09,0c.84-.47,2.44-2.27,2.25-3.19a.68.68,0,0,0-.64-.51,1.08,1.08,0,0,0-.82.25c-.94.78-1.07,3.16-1.08,3.26a.21.21,0,0,0,.09.18A.23.23,0,0,0,188.72,443Zm1.58-3.33h.09c.25,0,.28.15.29.2.11.54-.9,1.9-1.73,2.54a4.57,4.57,0,0,1,.9-2.57A.67.67,0,0,1,190.3,439.7Z" style="fill: rgb(64, 123, 255);"/><path class="cls-11" d="M236.46,443.32a3.13,3.13,0,0,0,2-.5,1.09,1.09,0,0,0,.34-.95.65.65,0,0,0-.33-.52c-1-.56-4.28,1.12-4.65,1.31a.2.2,0,0,0-.1.2.21.21,0,0,0,.16.17A14,14,0,0,0,236.46,443.32Zm1.45-1.7a.74.74,0,0,1,.36.07.24.24,0,0,1,.13.21.66.66,0,0,1-.22.62c-.49.45-1.84.53-3.67.23A10.6,10.6,0,0,1,237.91,441.62Z" style="fill: rgb(64, 123, 255);"/><path class="cls-11" d="M233.91,443l.08,0c1-.44,2.9-2.22,2.73-3.15,0-.22-.2-.49-.74-.55a1.41,1.41,0,0,0-1.07.34c-1,.86-1.2,3.07-1.2,3.17a.19.19,0,0,0,.08.17A.19.19,0,0,0,233.91,443Zm1.92-3.33H236c.35,0,.38.17.39.22.1.56-1.2,2-2.2,2.56a4.47,4.47,0,0,1,1-2.53A1,1,0,0,1,235.83,439.7Z" style="fill: rgb(64, 123, 255);"/><path class="cls-11" d="M210.93,169l-9.5,1.15a6.33,6.33,0,0,0-5.58,6.5c.48,14.8,2.44,35.16.87,66.29C195.93,258.61,185,343.86,185,343.86l21.61,3.79a550.7,550.7,0,0,0,21.55-100.51,219.13,219.13,0,0,0,.16-44.61Z" style="fill: rgb(64, 123, 255);"/><path class="cls-16" d="M210.93,169l-9.5,1.15a6.33,6.33,0,0,0-5.58,6.5c.48,14.8,2.44,35.16.87,66.29C195.93,258.61,185,343.86,185,343.86l21.61,3.79a550.7,550.7,0,0,0,21.55-100.51,219.13,219.13,0,0,0,.16-44.61Z" style="fill: rgb(255, 255, 255); opacity: 0.8;"/><path class="cls-17" d="M203.12,187.88c0,2.22-1.71,13.53-5.91,21.32-.12-5.31-.31-10.17-.53-14.64Z" style="opacity: 0.2; fill: rgb(64, 123, 255);"/><path class="cls-17" d="M244,185.9c1.22,2.33,4.74,12.22,6.52,23-.81-.57-1.59-1.15-2.34-1.75a56.31,56.31,0,0,1-7.58-7.64c-.15-.17-.29-.36-.44-.53Z" style="opacity: 0.2; fill: rgb(64, 123, 255);"/><path class="cls-11" d="M231,170l5.61.67a11.4,11.4,0,0,1,10,10.89c.64,16.62,1.94,49.82,2.65,61.4,1,15.68.28,100.94.28,100.94l-13.46,2.36s-3.42-46.94-7.95-99.08a407.9,407.9,0,0,1-.83-46.53Z" style="fill: rgb(64, 123, 255);"/><path class="cls-16" d="M231,170l5.61.67a11.4,11.4,0,0,1,10,10.89c.64,16.62,1.94,49.82,2.65,61.4,1,15.68.28,100.94.28,100.94l-13.46,2.36s-3.42-46.94-7.95-99.08a407.9,407.9,0,0,1-.83-46.53Z" style="fill: rgb(255, 255, 255); opacity: 0.8;"/><path class="cls-21" d="M225.14,174.56a29.8,29.8,0,0,0-3,6.42s-13.14-4.5-12.66-11.74c0,0,2-1.18,3.2-2.14C212.7,167.1,213.28,171.66,225.14,174.56Z" style="fill: rgb(245, 245, 245);"/><path class="cls-21" d="M225.14,174.56a25.29,25.29,0,0,1,3.74,5.73,9.6,9.6,0,0,0,3.31-10.76,24.41,24.41,0,0,0-3.61-1.14S229.52,173,225.14,174.56Z" style="fill: rgb(245, 245, 245);"/><path d="M 211.50999450683594 247.2899932861328 L 196.4600067138672 260.2099914550781 L 206.74000549316406 255.19000244140625 L 211.50999450683594 247.2899932861328 Z" class="cls-17" style="opacity: 0.2; fill: rgb(64, 123, 255);"/><path class="cls-11" d="M196.4,173.92c-.64.88-1.12,1.59-1.66,2.38l-1.53,2.31c-1,1.54-2,3.11-2.91,4.69-1.89,3.16-3.68,6.4-5.31,9.79a80.88,80.88,0,0,0-4.32,10.73,48.28,48.28,0,0,0-1.47,6,33.68,33.68,0,0,0-.51,6.66,42.46,42.46,0,0,0,2.41,12.35,70.46,70.46,0,0,0,4.72,10.58,102.31,102.31,0,0,0,5.84,9.53c1.05,1.53,2.12,3,3.23,4.51.55.74,1.12,1.47,1.7,2.2s1.13,1.42,1.85,2.26L209,248.73c-.41-.48-1-1.16-1.44-1.77L206.09,245c-1-1.3-1.92-2.63-2.83-4a87.88,87.88,0,0,1-4.93-8.27,54.85,54.85,0,0,1-3.57-8.49,26.79,26.79,0,0,1-1.41-8.05,24.63,24.63,0,0,1,1.61-7.75,60.05,60.05,0,0,1,3.81-8.42c1.52-2.8,3.2-5.57,5-8.28q1.36-2,2.81-4l1.46-2c.48-.62,1-1.32,1.43-1.81Z" style="fill: rgb(64, 123, 255);"/><path class="cls-16" d="M196.4,173.92c-.64.88-1.12,1.59-1.66,2.38l-1.53,2.31c-1,1.54-2,3.11-2.91,4.69-1.89,3.16-3.68,6.4-5.31,9.79a80.88,80.88,0,0,0-4.32,10.73,48.28,48.28,0,0,0-1.47,6,33.68,33.68,0,0,0-.51,6.66,42.46,42.46,0,0,0,2.41,12.35,70.46,70.46,0,0,0,4.72,10.58,102.31,102.31,0,0,0,5.84,9.53c1.05,1.53,2.12,3,3.23,4.51.55.74,1.12,1.47,1.7,2.2s1.13,1.42,1.85,2.26L209,248.73c-.41-.48-1-1.16-1.44-1.77L206.09,245c-1-1.3-1.92-2.63-2.83-4a87.88,87.88,0,0,1-4.93-8.27,54.85,54.85,0,0,1-3.57-8.49,26.79,26.79,0,0,1-1.41-8.05,24.63,24.63,0,0,1,1.61-7.75,60.05,60.05,0,0,1,3.81-8.42c1.52-2.8,3.2-5.57,5-8.28q1.36-2,2.81-4l1.46-2c.48-.62,1-1.32,1.43-1.81Z" style="fill: rgb(255, 255, 255); opacity: 0.8;"/><path class="cls-2" d="M209.89,191.26a3.52,3.52,0,0,0,4,2.05,2.5,2.5,0,0,0,1.75-3.48,3.53,3.53,0,0,0-4-2.06A2.51,2.51,0,0,0,209.89,191.26Z" style="fill: rgb(38, 50, 56);"/><path class="cls-22" d="M209.89,191.26a3.52,3.52,0,0,0,4,2.05,2.5,2.5,0,0,0,1.75-3.48,3.53,3.53,0,0,0-4-2.06A2.51,2.51,0,0,0,209.89,191.26Z" style="opacity: 0.2; fill: rgb(255, 255, 255);"/><path class="cls-2" d="M213.17,189.71a.4.4,0,0,0,.23-.08.39.39,0,0,0,.09-.54c-7.44-10.34-5.36-19.55-5.34-19.64a.38.38,0,0,0-.28-.46.37.37,0,0,0-.47.28c0,.1-2.2,9.63,5.46,20.28A.38.38,0,0,0,213.17,189.71Z" style="fill: rgb(38, 50, 56);"/><path class="cls-2" d="M239.11,184.48a.39.39,0,0,0,.39-.36c.81-10.16-4.57-13.9-4.8-14.06a.39.39,0,0,0-.54.11.4.4,0,0,0,.1.54c.06,0,5.24,3.67,4.46,13.35a.41.41,0,0,0,.36.42Z" style="fill: rgb(38, 50, 56);"/><path class="cls-2" d="M211,191a3.52,3.52,0,0,0,4,2,2.5,2.5,0,0,0,1.75-3.48,3.53,3.53,0,0,0-4-2.06A2.51,2.51,0,0,0,211,191Z" style="fill: rgb(38, 50, 56);"/><path class="cls-23" d="M211,191a3.52,3.52,0,0,0,4,2,2.5,2.5,0,0,0,1.75-3.48,3.53,3.53,0,0,0-4-2.06A2.51,2.51,0,0,0,211,191Z" style="fill: rgb(255, 255, 255); opacity: 0.4;"/><path class="cls-23" d="M212.65,190.45a1.86,1.86,0,0,0,2.1,1.08,1.31,1.31,0,0,0,.92-1.83,1.86,1.86,0,0,0-2.1-1.09A1.33,1.33,0,0,0,212.65,190.45Z" style="fill: rgb(255, 255, 255); opacity: 0.4;"/><path class="cls-2" d="M236.06,208.12a.38.38,0,0,0,.39-.39.39.39,0,0,0-.39-.39,2.94,2.94,0,0,1-2.89-2.73l-.74-13a6.64,6.64,0,0,1,6.68-7.09,7.66,7.66,0,0,1,7.54,7.13l.74,13a2.5,2.5,0,0,1-2.53,2.69.39.39,0,0,0-.39.39.38.38,0,0,0,.39.39,3.29,3.29,0,0,0,3.31-3.51l-.75-13a8.44,8.44,0,0,0-8.31-7.87,7.41,7.41,0,0,0-7.46,7.91l.75,13A3.72,3.72,0,0,0,236.06,208.12Z" style="fill: rgb(38, 50, 56);"/><path class="cls-2" d="M244.21,207.73c0,.63.36,1.14.71,1.14s.62-.51.58-1.14-.35-1.13-.71-1.13S244.18,207.11,244.21,207.73Z" style="fill: rgb(38, 50, 56);"/><path class="cls-2" d="M235.42,207.73c0,.63.35,1.14.71,1.14s.61-.51.58-1.14-.36-1.13-.71-1.13S235.38,207.11,235.42,207.73Z" style="fill: rgb(38, 50, 56);"/></g></g></svg>