<svg xmlns="http://www.w3.org/2000/svg" xmlns:xlink="http://www.w3.org/1999/xlink" viewBox="0 0 800 800"><defs><style>.cls-1{fill:url(#linear-gradient);}.cls-2{fill:url(#linear-gradient-2);}.cls-3{fill:#fff;}.cls-4{fill:url(#linear-gradient-3);}.cls-5{fill:url(#linear-gradient-4);}.cls-6{fill:url(#linear-gradient-5);}.cls-7{fill:url(#linear-gradient-6);}</style><linearGradient id="linear-gradient" x1="103.25" y1="505.84" x2="173.88" y2="581.69" gradientUnits="userSpaceOnUse"><stop offset="0" stop-color="#1d54b5"/><stop offset="0.29" stop-color="#1f57b9"/><stop offset="0.55" stop-color="#2760c4"/><stop offset="0.8" stop-color="#346ed6"/><stop offset="1" stop-color="#427feb"/></linearGradient><linearGradient id="linear-gradient-2" x1="144.37" y1="467.55" x2="215" y2="543.4" xlink:href="#linear-gradient"/><linearGradient id="linear-gradient-3" x1="486.8" y1="376.98" x2="260.49" y2="198.81" xlink:href="#linear-gradient"/><linearGradient id="linear-gradient-4" x1="401.05" y1="408.9" x2="371.71" y2="385.8" xlink:href="#linear-gradient"/><linearGradient id="linear-gradient-5" x1="425.81" y1="404.35" x2="418.88" y2="398.89" xlink:href="#linear-gradient"/><linearGradient id="linear-gradient-6" x1="454.7" y1="410.43" x2="432.7" y2="393.11" xlink:href="#linear-gradient"/></defs><title>SqB</title><g id="Layer_1" data-name="Layer 1"><path d="M77.5,596.09c-10.22,0-22-2.55-28-5.38l3-13.31a84.26,84.26,0,0,0,25.28,4.17C90,581.57,92,579,92,570.41c0-9.95-.27-10.76-16.4-14.25-21.65-4.85-24.61-9-24.61-28,0-16.27,7.4-24.34,30.12-24.34a122.08,122.08,0,0,1,26.09,3l-1.88,14.25a117.93,117.93,0,0,0-23.94-2.69C70,518.37,68,520.79,68,528.59c0,10.22.27,10.49,15.74,14.25,24.07,5.78,25.28,9.68,25.28,27.57C109,587.35,104,596.09,77.5,596.09Z"/><path d="M175,576.19H141.78l-5.65,18.56H118.38l28.24-89.56h23.67l28.23,89.56H180.77Zm-29-14.66h24.74l-12.24-42.35Z"/><path d="M229.59,594.75H212.65V505.19h16.94Z"/><path d="M265.36,567.05c0,8.74,3.76,13.85,15.59,13.85a96.32,96.32,0,0,0,13.85-1.08V552.66h16v39.4a115,115,0,0,1-30,4c-21.92,0-32.41-9.28-32.41-27V530.88c0-18.43,10.76-27,34-27,7.27,0,17.62.81,25.69,3l-1.89,14.79a118.86,118.86,0,0,0-25.14-2.42c-11.83,0-15.73,4.84-15.73,14Z"/><path d="M329,505.19h54.86v14.93H345.91v21.65h35v14.92h-35v23.13h37.91v14.93H329Z"/><path d="M482.92,574.58,500,505.19h16.81l-22.19,89.56H471.76l-16.4-72.08L439,594.75H416.1l-22.19-89.56h16.81l17.07,69.39,16.28-69.39h22.59Z"/><path d="M572.75,576.19H539.54l-5.65,18.56H516.14l28.24-89.56h23.67l28.23,89.56H578.53Zm-29-14.66h24.74l-12.24-42.35Z"/><path d="M663.38,594.75l-20.57-29.59H626.67v29.59H609.73V505.19h36.71c20.84,0,28.51,8.47,28.51,24.21v11.69c0,10.76-4,18.29-13.45,21.65l22.19,32Zm-17.61-74.63h-19.1v30.39h19.1c9.28,0,12.24-3.36,12.24-10.89v-8.88C658,523.21,654.78,520.12,645.77,520.12Z"/><path d="M697.14,505.19H752v14.93H714.08v21.65h35v14.92h-35v23.13H752v14.93H697.14Z"/><path class="cls-1" d="M175,576.19H141.78l-5.65,18.56H118.38l28.24-89.56h23.67l28.24,89.56H180.78ZM146,561.53h24.74l-12.23-42.36Z"/><path class="cls-2" d="M229.59,594.75H212.65V505.19h16.94Z"/><path class="cls-3" d="M462.55,400.47l-.12.1-1.89,1.7H428l-2.18,5.63a.88.88,0,0,1-1,.56l-.1,0s-.06,0-.1-.06a.91.91,0,0,1-.56-.73l-.36-3.81-.1-1-1.92,16.41a.93.93,0,0,1-.94.79.79.79,0,0,1-.29-.06.88.88,0,0,1-.58-.75l-2.48-29.29-.1-1.18-2,31.8-.27,4.22-.37,6a.89.89,0,0,1-.89.85.84.84,0,0,1-.33-.06l-.09-.06a.82.82,0,0,1-.49-.69l-.46-4.45-.85-8.46-1.86-18.47-.06-.64-.64,2.81a.9.9,0,0,1-.87.71h-50l1.95-1.7.12-.1h47.22l1.68-7.56a.9.9,0,0,1,.93-.7.67.67,0,0,1,.46.18.11.11,0,0,1,.12.07.9.9,0,0,1,.27.56l2.67,26.27,0,.26,0-.22,0-.73,2.61-42.25a.9.9,0,0,1,.89-.85h0a.74.74,0,0,1,.44.13.83.83,0,0,1,.45.7l2.88,33.85.12-1,1.78-15.11a1,1,0,0,1,.91-.81.73.73,0,0,1,.46.15.87.87,0,0,1,.44.68l.89,9.55.16-.42.85-2.21a.84.84,0,0,1,.83-.56Z"/><path class="cls-4" d="M536.25,273.47a87.23,87.23,0,0,0-1.25-9.75,82.65,82.65,0,0,0-2.69-10.46.62.62,0,0,1,0-.16A82.57,82.57,0,0,0,476.5,200c-15.81-4.43-33-4.49-48.58.83A197.67,197.67,0,0,0,424.75,223a162.94,162.94,0,0,0,.5,34.38,96.69,96.69,0,0,0,8.28,29.5c.2.48.45.93.68,1.39s.41.79.6,1.14c.5.95,1,1.82,1.49,2.65.31.51.6,1,.93,1.53s.77,1.24,1.16,1.8c.17.27.35.54.54.79s.17.29.29.43.17.23.21.31l.39.54s.06.1.1.14a1.1,1.1,0,0,1,.19.25c.1.13.19.27.31.4.79,1,1.47,1.9,2,2.56a.4.4,0,0,1,.12.15,2.85,2.85,0,0,1,.42.47c-.11-1.26-.27-3.41-.56-6.25-.54-5.94-1.41-14.84-2.69-24.8-1.39-11.34-.58-27.16,11.05-27.22,3.83,0,8.8,1.64,15.28,5.76,1.26.8,2.59,1.69,3.95,2.69a141.47,141.47,0,0,1,13.23,10.95c6.63,6.06,13.75,14.1,14.24,23.58.54,11.32-9.87,19.1-18.86,23.8a81.76,81.76,0,0,1-10,4.47c-2.29.89-4.53,1.74-6.78,2.57s-4.77,1.76-7.15,2.67c-4.59,1.82-9,3.91-13.49,6.13a47.41,47.41,0,0,0-.34-5.71s0-.09,0-.25,0-.23-.06-.4c-.47-2.44-2.59-11.24-9.58-16.7a21.41,21.41,0,0,0-12-4.49,10.74,10.74,0,0,0-2.07,0,21.35,21.35,0,0,0-11.88,4.43c-7.08,5.48-9.19,14.36-9.67,16.78,0,.17,0,.29-.06.4s0,.23,0,.23a43.77,43.77,0,0,0-.33,5.46c-4.27-2.13-8.53-4.12-13-5.88-4.6-1.76-9.3-3.39-13.91-5.17a90.71,90.71,0,0,1-10-4.54c-9-4.7-19.44-12.48-18.88-23.8.49-9.48,7.64-17.52,14.24-23.58a124.39,124.39,0,0,1,17.16-13.64c26.13-16.59,28.22,6.39,26.33,21.46-1.84,14.68-2.92,27.12-3.25,31.05.27-.33.62-.68,1-1.13l.1-.13s0,0,.06-.08l.37-.44a71.84,71.84,0,0,0,9.53-16.12c4.63-13,8.77-35.34,7.62-73.59,0-.5-.13-1-.17-1.47a4.05,4.05,0,0,1,0-.48.07.07,0,0,0,0-.06,111.91,111.91,0,0,0-33.93,31,116,116,0,0,0-20.77-21.8c-11.92-9.71-28.4-19.17-48-20.12-52-2.46-86.95,34.59-89.45,76.39-2.49,41.29,26.58,78.54,50.07,103.85,7.52,8.12,15.92,16.23,24.78,24.14l1.8,1.62,2.32,2,2.3,2,.21.17c.8.7,1.55,1.36,2.36,2,.58.51,1.14,1,1.69,1.49.89.72,1.78,1.47,2.7,2.23,4.53,3.81,9.13,7.5,13.7,11.08.89.7,1.84,1.4,2.73,2.15,1.84,1.39,3.67,2.79,5.47,4.14,2.73,2.09,5.42,4.1,8.11,6.05,7.54,5.5,14.8,10.55,21.59,15a33.61,33.61,0,0,0,37.06,0c7.57-5,15.73-10.72,24.16-16.95,1.16-.85,2.29-1.7,3.45-2.57,6.3-4.76,12.76-9.79,19.15-15,.77-.63,1.55-1.27,2.34-1.95a2.25,2.25,0,0,0,.37-.31c2.41-2,4.83-4,7.19-6.05,1-.89,2.07-1.78,3.1-2.69l1-.85,2.31-2,.73-.67H428.17L426,408a.89.89,0,0,1-.93.58.69.69,0,0,1-.33-.14s-.06,0-.1-.06a.91.91,0,0,1-.56-.73l-.36-3.81-1.84,15.49a.92.92,0,0,1-.93.8.72.72,0,0,1-.48-.18.88.88,0,0,1-.58-.75l-2.48-29.29-1.86,30.76-.29,4.2-.38,6a.9.9,0,0,1-.86.87.83.83,0,0,1-.54-.19l-.09-.06a.82.82,0,0,1-.49-.69l-.46-4.45-.85-8.46-1.86-18.47-.52,2.26a.89.89,0,0,1-.89.74H358l-.66.67-2,2L354,406.41c-.6.58-1.22,1.24-1.84,1.92-2.65,2.82-5.77,6.26-9.75,10.42-3.77,4-7,5.63-9.91,5.63-.21,0-.42,0-.62,0a.2.2,0,0,1-.15,0,1,1,0,0,1-.37-.05l-.23,0a2.36,2.36,0,0,1-.54-.12A4.69,4.69,0,0,1,330,424a.21.21,0,0,0-.1,0l-.52-.23-.56-.29a9.08,9.08,0,0,1-2-1.51.75.75,0,0,1-.27-.29,1.44,1.44,0,0,1-.37-.33,12.4,12.4,0,0,1-1.24-1.49,4.32,4.32,0,0,1-.31-.41c-.23-.31-.44-.66-.66-1a5.46,5.46,0,0,1-.31-.47c-.13-.21-.21-.38-.31-.54a16.81,16.81,0,0,1-.89-1.68,6.09,6.09,0,0,1-.34-.74c-.18-.33-.33-.71-.49-1.06a5.28,5.28,0,0,1-.27-.6c-.08-.21-.17-.43-.25-.62s-.23-.52-.31-.77c-.19-.51-.39-1-.58-1.55,0-.12-.06-.21-.1-.35a1.8,1.8,0,0,1-.17-.54c-.5-1.43-.93-2.92-1.35-4.35a.62.62,0,0,0-.06-.26c-.08-.36-.16-.69-.25-1s-.14-.5-.2-.72c-.13-.5-.23-1-.33-1.45s-.27-1.18-.42-1.74c-.41-2-.74-3.87-1-5.47,0-.16,0-.27-.06-.43-.07-.31-.11-.6-.15-.87-.33-2.07-.48-3.33-.48-3.33a146,146,0,0,0,36.54-5.72,127.41,127.41,0,0,0,18.32-6.93c1.89-.89,3.73-1.78,5.45-2.74,0,0,0,0,0,.05a112.18,112.18,0,0,0,17-11c2.68-2.09,5.1-4.2,7.25-6.23,5.11,35.24-17.91,38-19.65,38.2h-.1c-2.46,0-4.62,0-6.5.14-.25,0-.5,0-.76,0a3.94,3.94,0,0,0-.5,0c-.17,0-.35,0-.54.06-.39,0-.79.09-1.16.13a3.1,3.1,0,0,1-.39.06,2.4,2.4,0,0,0-.4.06,2.89,2.89,0,0,0-.45,0,19.74,19.74,0,0,0-5.49,1.74l-.47.21a1.81,1.81,0,0,1-.29.19c-.21.12-.4.2-.6.33a4.57,4.57,0,0,1-.62.39c-.19.13-.38.31-.58.44s-.38.26-.58.39l-.65.5-.53.45h.08l.12-.1h47.22l1.68-7.56a.9.9,0,0,1,.93-.7.67.67,0,0,1,.46.18.11.11,0,0,1,.12.07.79.79,0,0,1,.44.68l2.58,25.46,2.61-42.25a.9.9,0,0,1,.89-.85h0a.74.74,0,0,1,.44.13.93.93,0,0,1,.64.8L421,409.2l1.78-15.11a1,1,0,0,1,.91-.81.73.73,0,0,1,.46.15.86.86,0,0,1,.62.79l.87,9,.85-2.21a.84.84,0,0,1,.83-.56h35.19l-.12.1h.37c1.65-1.49,3.31-3,4.95-4.51-3.07-.6-6.84-.68-12.07-.71h-.09c-2.52-.26-24.71-3.66-19.46-38.62,2.28,2.15,4.85,4.43,7.75,6.68a109.73,109.73,0,0,0,17,11,.08.08,0,0,0,0-.05c1.78,1,3.58,1.85,5.47,2.74a120.38,120.38,0,0,0,11.43,4.68c1.09.41,2.23.8,3.39,1.15,1.82-1.84,3.58-3.7,5.3-5.56-2.92-.83-5.84-1.85-8.69-3a123.17,123.17,0,0,1-11.47-5.18c-3.52-1.8-7-3.75-10.48-5.84-4.28-2.58-8.51-5.34-12.75-8.24a31.65,31.65,0,0,1-5.75-4.88c.24-1.12.51-2.26.8-3.42a98.62,98.62,0,0,0,2.59-13.68c5.73-4.16,14.72-7.95,25.36-11.39l.14,0c1.18-.41,2.43-.78,3.63-1.16,29-9,35.71-22.31,35.71-22.31,3,2.54,9.33,19.83,13,37.94-.27-1.36,2.33-4.37,3-5.52,1.51-2.86,3.18-5.66,4.63-8.58a96.74,96.74,0,0,0,7.19-18.9A92.62,92.62,0,0,0,536.25,273.47Zm-142.49,81.7c-4.22,2.9-8.47,5.66-12.75,8.24-3.46,2.09-6.94,4.06-10.48,5.84a115.59,115.59,0,0,1-18.34,7.62,85.07,85.07,0,0,1-25.36,4c-24.55,0-2.25-77,4.45-82.55,0,0,6.69,13.35,35.71,22.31,1.22.38,2.43.75,3.63,1.16,10.35,3.36,19.14,7,24.92,11a102.07,102.07,0,0,0,2.65,14.07c.33,1.33.64,2.63.91,3.89A34.62,34.62,0,0,1,393.76,355.17Z"/><path class="cls-5" d="M410.49,392.39a.45.45,0,0,0-.27-.08.89.89,0,0,0-.93.71l-1.68,7.55H360.08l.12-.1h47.22l1.68-7.56a.9.9,0,0,1,.93-.7A.67.67,0,0,1,410.49,392.39Z"/><path class="cls-6" d="M424.19,393.43a1.09,1.09,0,0,0-.25,0,.92.92,0,0,0-.93.81l-1.88,16.1-.09-1.1,1.78-15.11a1,1,0,0,1,.91-.81A.73.73,0,0,1,424.19,393.43Z"/><path class="cls-7" d="M462.55,400.47l-.12.1H427.56a1,1,0,0,0-.7.33.84.84,0,0,0-.12.23l-1,2.63,0-.52.85-2.21a.84.84,0,0,1,.83-.56Z"/></g></svg>