<svg xmlns="http://www.w3.org/2000/svg" xmlns:xlink="http://www.w3.org/1999/xlink" viewBox="0 0 800 800"><defs><style>.cls-1{fill:url(#linear-gradient);}.cls-2{fill:url(#linear-gradient-2);}.cls-3{fill:#fff;}.cls-4{fill:url(#linear-gradient-3);}.cls-5{fill:url(#linear-gradient-4);}.cls-6{fill:url(#linear-gradient-5);}.cls-7{fill:url(#linear-gradient-6);}</style><linearGradient id="linear-gradient" x1="117.62" y1="553.56" x2="197.76" y2="553.56" gradientUnits="userSpaceOnUse"><stop offset="0" stop-color="#1d54b5"/><stop offset="0.29" stop-color="#1f57b9"/><stop offset="0.55" stop-color="#2760c4"/><stop offset="0.8" stop-color="#346ed6"/><stop offset="1" stop-color="#427feb"/></linearGradient><linearGradient id="linear-gradient-2" x1="211.88" y1="553.56" x2="228.82" y2="553.56" xlink:href="#linear-gradient"/><linearGradient id="linear-gradient-3" x1="486.04" y1="380.57" x2="259.72" y2="202.4" xlink:href="#linear-gradient"/><linearGradient id="linear-gradient-4" x1="400.29" y1="412.49" x2="370.94" y2="389.39" xlink:href="#linear-gradient"/><linearGradient id="linear-gradient-5" x1="425.05" y1="407.94" x2="418.11" y2="402.48" xlink:href="#linear-gradient"/><linearGradient id="linear-gradient-6" x1="453.94" y1="414.02" x2="431.94" y2="396.7" xlink:href="#linear-gradient"/></defs><title>SqW</title><g id="Layer_1" data-name="Layer 1"><path class="cls-1" d="M174.23,579.78H141l-5.65,18.56H117.62l28.23-89.56h23.67l28.24,89.56H180Zm-29-14.66h24.74l-12.23-42.35Z"/><path class="cls-2" d="M228.82,598.34H211.88V508.78h16.94Z"/><path class="cls-3" d="M76.73,599.68c-10.21,0-22.05-2.55-28-5.38L51.72,581A84.26,84.26,0,0,0,77,585.16c12.24,0,14.26-2.56,14.26-11.16,0-10-.27-10.76-16.41-14.25-21.65-4.85-24.6-9-24.6-28,0-16.27,7.39-24.34,30.11-24.34a122,122,0,0,1,26.09,3l-1.88,14.25A117.93,117.93,0,0,0,80.63,522c-11.43,0-13.44,2.42-13.44,10.22,0,10.22.27,10.49,15.73,14.25C107,552.21,108.2,556.11,108.2,574,108.2,590.94,103.22,599.68,76.73,599.68Z"/><path class="cls-3" d="M264.59,570.64c0,8.74,3.77,13.85,15.6,13.85A96.43,96.43,0,0,0,294,583.41V556.25h16v39.4a114.92,114.92,0,0,1-30,4c-21.91,0-32.4-9.28-32.4-27V534.47c0-18.43,10.76-27,34-27,7.26,0,17.61.8,25.68,3l-1.88,14.79a119,119,0,0,0-25.15-2.42c-11.83,0-15.73,4.84-15.73,14Z"/><path class="cls-3" d="M328.2,508.78h54.86v14.93H345.14v21.65h35v14.92h-35v23.13h37.92v14.93H328.2Z"/><path class="cls-3" d="M482.16,578.17l17.08-69.39H516l-22.18,89.56H471l-16.41-72.08-16.4,72.08H415.33l-22.19-89.56H410L427,578.17l16.27-69.39h22.59Z"/><path class="cls-3" d="M572,579.78H538.77l-5.64,18.56H515.38l28.23-89.56h23.67l28.24,89.56H577.77Zm-29-14.66h24.74l-12.23-42.35Z"/><path class="cls-3" d="M662.62,598.34,642,568.75H625.91v29.59H609V508.78h36.71c20.84,0,28.5,8.47,28.5,24.21v11.69c0,10.76-4,18.29-13.45,21.65l22.19,32ZM645,523.71H625.91V554.1H645c9.28,0,12.24-3.36,12.24-10.89v-8.88C657.24,526.8,654,523.71,645,523.71Z"/><path class="cls-3" d="M696.37,508.78h54.86v14.93H713.31v21.65h35v14.92h-35v23.13h37.92v14.93H696.37Z"/><path class="cls-3" d="M461.78,404.06l-.12.1-1.89,1.7H427.21L425,411.49a.89.89,0,0,1-1,.56l-.11,0s-.06,0-.1-.06a.91.91,0,0,1-.56-.73l-.35-3.81-.11-1-1.92,16.41a.92.92,0,0,1-.93.79.72.72,0,0,1-.29-.06.87.87,0,0,1-.58-.75l-2.49-29.29-.1-1.18-2,31.8-.27,4.22-.37,6a.9.9,0,0,1-1.22.79l-.08-.06a.82.82,0,0,1-.5-.69l-.45-4.45-.85-8.46L409,403l-.06-.64-.64,2.81a.89.89,0,0,1-.87.71h-50l1.94-1.7.13-.1h47.22l1.67-7.56a.91.91,0,0,1,.93-.7.65.65,0,0,1,.46.18.11.11,0,0,1,.12.07.9.9,0,0,1,.27.56l2.67,26.26,0,.27,0-.22,0-.73,2.6-42.25a.9.9,0,0,1,.89-.85h0a.71.71,0,0,1,.43.13.86.86,0,0,1,.46.7l2.87,33.85.13-1,1.78-15.11a1,1,0,0,1,.91-.81.72.72,0,0,1,.45.15.85.85,0,0,1,.44.68l.89,9.55.16-.42.85-2.21a.85.85,0,0,1,.83-.56Z"/><path class="cls-4" d="M535.48,277.06a87.2,87.2,0,0,0-1.24-9.75,85.71,85.71,0,0,0-2.69-10.46.71.71,0,0,1,0-.16,82.57,82.57,0,0,0-55.76-53.12c-15.82-4.43-33-4.49-48.59.83A200.06,200.06,0,0,0,424,226.61a163.61,163.61,0,0,0,.5,34.38,96.69,96.69,0,0,0,8.28,29.5c.21.48.46.93.68,1.39s.42.79.6,1.14c.5,1,1,1.82,1.49,2.65.31.51.6,1,.94,1.53s.76,1.24,1.15,1.8c.17.27.36.54.54.79s.17.29.29.43.17.23.21.31l.39.54s.07.1.11.14a1.44,1.44,0,0,1,.18.25c.11.13.19.27.31.4.79,1,1.47,1.9,2,2.56a.44.44,0,0,1,.13.15,2.74,2.74,0,0,1,.41.47c-.1-1.26-.27-3.41-.56-6.25-.54-5.94-1.41-14.84-2.69-24.8-1.39-11.34-.58-27.16,11-27.22,3.83,0,8.8,1.64,15.28,5.76,1.26.8,2.59,1.69,4,2.69a139.91,139.91,0,0,1,13.22,11c6.63,6.06,13.75,14.1,14.25,23.58.53,11.32-9.88,19.1-18.86,23.8a82.44,82.44,0,0,1-10,4.47c-2.3.89-4.54,1.74-6.79,2.57s-4.76,1.76-7.14,2.67c-4.6,1.82-9.05,3.91-13.5,6.13a47.52,47.52,0,0,0-.33-5.71s0-.09,0-.25L440,323c-.47-2.44-2.58-11.24-9.58-16.7a21.38,21.38,0,0,0-12-4.49,7,7,0,0,0-1,0,7.18,7.18,0,0,0-1,0,21.38,21.38,0,0,0-11.88,4.43c-7.08,5.48-9.19,14.36-9.66,16.78l-.07.4c0,.14,0,.23,0,.23a43.77,43.77,0,0,0-.33,5.46c-4.26-2.13-8.53-4.12-13-5.88s-9.29-3.39-13.91-5.17a90.71,90.71,0,0,1-10-4.54c-9-4.7-19.44-12.48-18.88-23.8.5-9.48,7.64-17.52,14.24-23.58A123.79,123.79,0,0,1,370,252.53c26.12-16.59,28.21,6.39,26.33,21.46-1.85,14.68-2.92,27.12-3.25,31.05.27-.33.62-.68,1-1.13l.1-.13s0,0,.07-.08l.37-.44a71.89,71.89,0,0,0,9.52-16.12c4.64-13,8.78-35.34,7.62-73.59,0-.5-.13-1-.17-1.47a4.05,4.05,0,0,1,0-.48.07.07,0,0,0,0-.06,112,112,0,0,0-33.93,31,115.68,115.68,0,0,0-20.76-21.8c-11.93-9.71-28.4-19.17-48.05-20.12-52-2.46-86.94,34.59-89.45,76.39-2.48,41.29,26.58,78.54,50.08,103.85,7.51,8.12,15.92,16.23,24.78,24.14l1.8,1.62c.76.68,1.53,1.34,2.32,2l2.29,2c.09.06.15.13.21.17.81.7,1.55,1.36,2.36,2l1.7,1.49c.89.72,1.78,1.47,2.69,2.23,4.53,3.81,9.13,7.5,13.7,11.08.89.7,1.85,1.4,2.74,2.15,1.84,1.39,3.66,2.79,5.46,4.14,2.73,2.09,5.42,4.1,8.12,6,7.53,5.51,14.8,10.56,21.59,15a33.6,33.6,0,0,0,37.05,0c7.58-5,15.73-10.72,24.16-16.95,1.16-.85,2.3-1.7,3.46-2.57,6.29-4.76,12.75-9.79,19.15-15,.76-.63,1.55-1.27,2.33-1.95a2.85,2.85,0,0,0,.38-.31c2.4-2,4.82-4,7.18-6.05,1-.89,2.07-1.78,3.11-2.69l1-.85,2.32-2L460,406H427.4l-2.18,5.61a.88.88,0,0,1-.93.58A.73.73,0,0,1,424,412s-.06,0-.1-.06a.91.91,0,0,1-.56-.73l-.35-3.81-1.84,15.49a.93.93,0,0,1-.94.8.69.69,0,0,1-.47-.18.87.87,0,0,1-.58-.75l-2.49-29.29-1.86,30.76-.29,4.2-.37,6a.91.91,0,0,1-.87.87.85.85,0,0,1-.54-.19l-.08-.06a.82.82,0,0,1-.5-.69l-.45-4.45-.85-8.46L409,403l-.51,2.26a.9.9,0,0,1-.89.74H357.2l-.66.67-2,2L353.27,410c-.6.58-1.22,1.24-1.84,1.92-2.65,2.82-5.78,6.26-9.75,10.42-3.77,4-7,5.63-9.92,5.63-.21,0-.41,0-.62,0a.21.21,0,0,1-.15,0,1,1,0,0,1-.37-.05l-.23,0a2.48,2.48,0,0,1-.54-.12,4.11,4.11,0,0,1-.57-.17l-.11,0-.52-.23-.55-.29a8.86,8.86,0,0,1-2-1.51.63.63,0,0,1-.27-.29,1.17,1.17,0,0,1-.37-.33,12.45,12.45,0,0,1-1.25-1.49c-.08-.1-.2-.25-.31-.41s-.43-.66-.66-1c-.1-.14-.21-.31-.31-.47s-.21-.38-.31-.54c-.31-.54-.62-1.1-.89-1.68a4.8,4.8,0,0,1-.33-.74c-.19-.33-.33-.71-.5-1.06s-.19-.39-.27-.6-.16-.43-.25-.62-.22-.52-.31-.77c-.18-.51-.39-1-.58-1.55,0-.12-.06-.21-.1-.35a2.63,2.63,0,0,1-.17-.54c-.49-1.43-.93-2.92-1.34-4.35a.7.7,0,0,0-.06-.27c-.09-.35-.17-.68-.25-1s-.15-.5-.21-.72c-.12-.5-.23-1-.33-1.45s-.27-1.18-.41-1.74c-.42-2-.75-3.87-1-5.47,0-.16,0-.27-.06-.43s-.1-.6-.15-.87c-.33-2.07-.47-3.33-.47-3.33a146.19,146.19,0,0,0,36.54-5.72,129.06,129.06,0,0,0,18.32-6.93c1.88-.89,3.72-1.78,5.44-2.74,0,0,0,0,0,0a112.81,112.81,0,0,0,17-11c2.67-2.09,5.09-4.2,7.24-6.23,5.12,35.24-17.9,38-19.64,38.2h-.11c-2.46,0-4.61,0-6.5.14-.24,0-.49,0-.76,0a4,4,0,0,0-.5,0c-.16,0-.35,0-.54.06-.39,0-.78.09-1.16.13a2.85,2.85,0,0,1-.39.06,2.28,2.28,0,0,0-.39.06,3,3,0,0,0-.46,0,19.25,19.25,0,0,0-5.48,1.74l-.48.21a2.08,2.08,0,0,1-.29.19c-.21.12-.39.2-.6.33a4,4,0,0,1-.62.39c-.19.12-.37.31-.58.44s-.37.26-.58.39l-.64.5-.54.45h.08l.13-.1h47.22l1.67-7.56a.91.91,0,0,1,.93-.7.65.65,0,0,1,.46.18.11.11,0,0,1,.12.07.77.77,0,0,1,.44.68l2.59,25.46,2.6-42.25a.9.9,0,0,1,.89-.85h0a.71.71,0,0,1,.43.13.93.93,0,0,1,.64.8l2.82,32.77,1.78-15.11a1,1,0,0,1,.91-.81.72.72,0,0,1,.45.15.85.85,0,0,1,.62.79l.87,9,.85-2.21a.85.85,0,0,1,.83-.56h35.19l-.12.1H462c1.66-1.49,3.31-3,5-4.51-3.06-.6-6.83-.68-12.07-.71h-.08c-2.53-.26-24.72-3.66-19.46-38.62,2.28,2.15,4.84,4.43,7.74,6.68a109.37,109.37,0,0,0,17,11,.1.1,0,0,0,0,0c1.78,1,3.58,1.85,5.46,2.74A120.38,120.38,0,0,0,477,385.39c1.1.41,2.23.8,3.39,1.15,1.83-1.84,3.59-3.7,5.3-5.56-2.92-.83-5.83-1.85-8.69-3a124.36,124.36,0,0,1-11.47-5.18c-3.52-1.8-7-3.75-10.47-5.84-4.29-2.58-8.51-5.34-12.76-8.24a32,32,0,0,1-5.75-4.88q.38-1.68.81-3.42A100,100,0,0,0,440,336.78c5.74-4.16,14.72-7.95,25.36-11.39l.15,0c1.18-.41,2.42-.78,3.62-1.16,29-9,35.71-22.31,35.71-22.31,3,2.54,9.34,19.83,13,37.94-.27-1.36,2.34-4.37,3-5.53,1.51-2.85,3.19-5.65,4.64-8.57a97.35,97.35,0,0,0,7.18-18.9A92.34,92.34,0,0,0,535.48,277.06ZM393,358.76c-4.22,2.9-8.46,5.66-12.75,8.24-3.46,2.09-6.93,4.06-10.47,5.84a116,116,0,0,1-18.34,7.62,85.12,85.12,0,0,1-25.36,4c-24.55,0-2.26-77,4.45-82.55,0,0,6.68,13.35,35.71,22.31,1.22.38,2.42.75,3.62,1.16,10.35,3.36,19.15,7,24.92,11a103.59,103.59,0,0,0,2.65,14.07c.33,1.33.64,2.63.91,3.89A33.68,33.68,0,0,1,393,358.76Z"/><path class="cls-5" d="M409.72,396a.43.43,0,0,0-.27-.08.89.89,0,0,0-.93.71l-1.68,7.55H359.31l.13-.1h47.22l1.67-7.56a.91.91,0,0,1,.93-.7A.65.65,0,0,1,409.72,396Z"/><path class="cls-6" d="M423.42,397a1,1,0,0,0-.24,0,.93.93,0,0,0-.94.81l-1.88,16.1-.08-1.1,1.78-15.11a1,1,0,0,1,.91-.81A.72.72,0,0,1,423.42,397Z"/><path class="cls-7" d="M461.78,404.06l-.12.1H426.8a1,1,0,0,0-.71.33.84.84,0,0,0-.12.23l-1,2.63,0-.52.85-2.21a.85.85,0,0,1,.83-.56Z"/></g></svg>